<svg xmlns="http://www.w3.org/2000/svg"><defs><font id="Muli-Black" horiz-adv-x="0"><font-face font-family="Muli Black" font-weight="900" panose-1="0 0 10 0 0 0 0 0 0 0" ascent="800" descent="-200" x-height="507" cap-height="712" bbox="-368 -284 1355 1096" underline-thickness="50" underline-position="-100" unicode-range="U+000D-FB02"/><glyph glyph-name="fi" unicode="fi" horiz-adv-x="694" d="M646 762V596H454v166h192zM279 508h362V0H459v375H279V0H98v375H3v133h95v31q0 76 24.5 119t79 62T351 739h44V610h-24q-41 0-59.5-6T286 581t-7-55v-18z"/><glyph glyph-name="fl" unicode="fl" horiz-adv-x="694" d="M298 576.5Q277 558 277 520v-12h99V375h-99V0H96v375H3v133h93v14q0 103 53.5 161T305 741q58 0 94-14V588q-29 7-48 7-32 0-53-18.5zM459 736h181V0H459v736z"/><glyph glyph-name=".notdef" horiz-adv-x="476" d="M390-216H89v952h301v-952zM160 672v-31h62v-35h-63v-32h158v32h-63v35h63v31H160zm-1-123v-99h158v33h-63v66h-95zm63-66h-32v34h32v-34zm-63-58v-32h63v-35h-63v-31h95v66h63v32H159zm127-57v-63H159v-33h158v96h-31zm-64-117v-53h32v22h32v-45h-96v76h-31V144h158v107h-95zM159 87V-21h158V87H159zm127-76h-96v44h96V11zM159-43v-31h67l-67-45v-31h158v31h-97l67 45h30v31H159z"/><glyph glyph-name=".null"/><glyph glyph-name="nonmarkingreturn" horiz-adv-x="290"/><glyph glyph-name="NULL"/><glyph glyph-name="NULL"/><glyph glyph-name="space" horiz-adv-x="290"/><glyph glyph-name="exclam" unicode="!" horiz-adv-x="276" d="m26 713 223-1-56-465H83zm206-527V0H43v186h189z"/><glyph glyph-name="quotedbl" unicode="&quot;" horiz-adv-x="494" d="M32 712h207l-42-310H76zm222 0h207l-42-310H298z"/><glyph glyph-name="numbersign" unicode="#" horiz-adv-x="606" d="m482 452-36-183h81V160H424L392 0H276l32 160h-87L189 0H72l32 160H56v109h70l36 183H79v108h105l30 152h116l-30-152h87l30 152h117l-30-152h47V452h-69zm-116 0h-87l-37-183h87z"/><glyph glyph-name="dollar" unicode="$" horiz-adv-x="600" d="M532.5 74Q477 17 382-1v-115H238V-6Q105 6 21 66l59 132q80-53 172-62v149q-67 17-113.5 38.5T60 387 28 497q0 80 58 139t152 78v114h144V716q57-8 106.5-26.5T569 646l-59-133q-71 45-140 59V422q66-17 111-37.5t76-62T588 213q0-82-55.5-139zM252 457v109q-18-8-28-23t-10-34q0-32 38-52zm150-253q0 28-32 44v-99q32 18 32 55z"/><glyph glyph-name="percent" unicode="%" horiz-adv-x="974" d="M79 345.5Q28 402 28 508q0 104 51 160t140 56 140-56.5T410 507q0-106-51-162t-140-56-140 56.5zM204 0l414 712h151L356 0H204zm49 423.5q10 23.5 10 83.5 0 57-11 81.5T219 613t-32.5-24.5T176 507q0-59 10.5-83t32.5-24q24 0 34 23.5zm362-374Q565 106 565 212q0 104 50 160t139 56q90 0 140-56t50-161q0-106-50-162T754-7q-89 0-139 56.5zM787.5 128q10.5 24 10.5 83 0 57-11 81.5T754 317t-32.5-24.5T711 211q0-59 10.5-83t32.5-24q23 0 33.5 24z"/><glyph glyph-name="ampersand" unicode="&amp;" horiz-adv-x="709" d="M660-10q-95 23-161 76Q403-8 287-8q-77 0-137 25.5t-93.5 72T23 196q0 62 31.5 110.5T153 394q-62 65-62 142 0 54 27.5 95.5T196 696t114 23q91 0 145-46t54-122q0-110-120-178l102-94q36 78 42 163h148q-4-73-24.5-140T601 179q65-50 144-65zM267.5 585Q250 568 250 538q0-18 9.5-34t36.5-43q38 20 55 39t17 44q0 27-15.5 42.5T313 602q-28 0-45.5-17zM224 150q25-22 68-22 53 0 104 35L248 304q-49-37-49-95 0-37 25-59z"/><glyph glyph-name="quotesingle" unicode="'" horiz-adv-x="272" d="M32 712h207l-42-310H76z"/><glyph glyph-name="parenleft" unicode="(" horiz-adv-x="404" d="M129.5 46.5Q99 149 99 266q0 118 31.5 223.5T238 712h143q-56-143-76-241.5T285 266q0-104 19.5-202.5T378-182H236Q160-56 129.5 46.5z"/><glyph glyph-name="parenright" unicode=")" horiz-adv-x="404" d="M25-182Q79-36 98.5 62.5T118 266q0 107-19.5 205.5T23 712h142q75-118 107.5-224T305 266 273.5 47.5 166-182H25z"/><glyph glyph-name="asterisk" unicode="*" horiz-adv-x="460" d="m63 397 85 100-129 32 38 115 122-50-9 132h121l-10-130 123 48 37-115-129-31 86-101-99-72-69 111-70-111z"/><glyph glyph-name="plus" unicode="+" horiz-adv-x="600" d="M546 230H361V44H239v186H54v121h185v186h122V351h185V230z"/><glyph glyph-name="comma" unicode="," horiz-adv-x="276" d="M232 186V69q0-65-23.5-118T128-157l-67 54q55 55 67 103H43v186h189z"/><glyph glyph-name="hyphen" unicode="-" horiz-adv-x="450" d="M64 341h324V201H64v140z"/><glyph glyph-name="period" unicode="." horiz-adv-x="276" d="M232 186V0H43v186h189z"/><glyph glyph-name="slash" unicode="/" horiz-adv-x="353" d="m-28-64 263 822h146L117-64H-28z"/><glyph glyph-name="zero" unicode="0" horiz-adv-x="600" d="M97.5 85Q27 179 27 357q0 175 70.5 268.5T300 719t202.5-93.5T573 357q0-178-70.5-272T300-9 97.5 85zM369 184.5Q390 237 390 357q0 117-21 169t-69 52-69-52-21-169q0-120 21-172.5t69-52.5 69 52.5z"/><glyph glyph-name="one" unicode="1" horiz-adv-x="600" d="M586 149V0H92v149h153v359l-143-82v161l220 125h110V149h154z"/><glyph glyph-name="two" unicode="2" horiz-adv-x="601" d="M559 149V0H57v138l232 242q65 68 65 127 0 69-82 69-42 0-88.5-16.5T90 512L31 645q43 35 111.5 55.5T282 721q77 0 134.5-24.5t89-70T537 520q0-62-24.5-112.5T429 294L287 149h272z"/><glyph glyph-name="three" unicode="3" horiz-adv-x="600" d="M522.5 304Q556 259 556 194q0-62-33.5-107.5t-96.5-70T279-8q-75 0-145.5 20.5T21 68l59 133q93-64 190-64 60 0 85 17.5t25 59.5q0 40-24.5 57T274 288H163v144h92q56 0 80.5 15.5T360 498q0 38-23.5 58T271 576q-43 0-90.5-16.5T90 512L31 645q43 34 112.5 55T284 721q76 0 133-24t88.5-68.5T537 525q1-56-28-97t-82-61q62-18 95.5-63z"/><glyph glyph-name="four" unicode="4" horiz-adv-x="600" d="M588 120h-92V0H312v120H27v138l319 454h150V263h92V120zM312 263v168L195 263h117z"/><glyph glyph-name="five" unicode="5" horiz-adv-x="600" d="M466 438q52-29 81-81t29-120q0-74-35.5-129.5T439.5 22 287-8q-69 0-137 21T41 68l58 133q92-64 191-64 56 0 83 22.5t27 69.5q0 46-28.5 70.5T292 324q-28 0-60.5-9.5T171 290H68v422h470V570H250V448q41 19 98 19 66 0 118-29z"/><glyph glyph-name="six" unicode="6" horiz-adv-x="600" d="M470.5 439q48.5-30 76-82.5T574 237q0-71-32-127t-89-87.5T324-9Q181-9 103.5 84T26 349q0 115 37.5 199T171 676.5 337 721q68 0 131-20t107-56l-59-133q-45 33-89 48.5T346 576q-120 0-132-177 23 32 62 51t85 19q61 0 109.5-30zM376 161q23 26 23 68 0 44-22.5 69.5T314 324q-38 0-61.5-26T229 229q0-41 23.5-67.5T314 135q39 0 62 26z"/><glyph glyph-name="seven" unicode="7" horiz-adv-x="600" d="M565 712V572L255 0H55l309 563H36v149h529z"/><glyph glyph-name="eight" unicode="8" horiz-adv-x="600" d="M543 305q38-44 38-109 0-63-36-109t-99.5-70.5T300-8 154.5 16.5 55 87 19 196q0 66 38 110.5T164 368q-59 20-93 61.5T37 527q0 59 34.5 103t94 67.5T300 721t134.5-23.5 94-67.5T563 527q0-57-34.5-99.5T437 367q68-18 106-62zM236.5 561.5Q212 543 212 505q0-66 88-88 88 22 88 88 0 38-24.5 56.5T300 580t-63.5-18.5zM378 153q30 20 30 58 0 37-29 60t-79 32q-50-9-79-32t-29-60q0-38 30-58t78-20 78 20z"/><glyph glyph-name="nine" unicode="9" horiz-adv-x="600" d="M495.5 628Q573 535 573 363q0-115-37-199T429 35.5 263-9q-68 0-131 20T25 67l59 133q89-64 170-64 120 0 132 177-23-33-62-51.5T238 243q-61 0-109.5 30t-76 82.5T25 475q0 71 32 127t89 87.5T275 721q143 0 220.5-93zm-148-214q23.5 26 23.5 69 0 41-24 67.5T286 577q-39 0-62-26t-23-68q0-44 22.5-69.5T286 388q38 0 61.5 26z"/><glyph glyph-name="colon" unicode=":" horiz-adv-x="276" d="M232 497V312H43v185h189zm0-311V0H43v186h189z"/><glyph glyph-name="semicolon" unicode=";" horiz-adv-x="276" d="M232 497V312H43v185h189zM43 186h189V69q0-65-23.5-118T128-157l-67 54q55 55 67 103H43v186z"/><glyph glyph-name="less" unicode="&lt;" horiz-adv-x="600" d="M546 418 214 291l332-128V31L54 223v135l492 192V418z"/><glyph glyph-name="equal" unicode="=" horiz-adv-x="600" d="M546 331H54v121h492V331zm0-202H54v121h492V129z"/><glyph glyph-name="greater" unicode="&gt;" horiz-adv-x="600" d="M546 358V223L54 31v132l332 128L54 418v132z"/><glyph glyph-name="question" unicode="?" horiz-adv-x="484" d="M247 721q68 0 121-22.5t82.5-62.5 29.5-91q0-53-28.5-91T371 372q-35-30-52-49t-22-41l-7-41H184v62q0 47 17.5 77.5T251 447q23 24 34 41t11 39q0 49-65 49-33 0-70-10.5T89 532v147q67 42 158 42zM145 186h188V0H145v186z"/><glyph glyph-name="at" unicode="@" horiz-adv-x="953" d="M248.5-109.5Q147-55 92 42T37 264q0 143 58.5 245.5t161 156T490 719q133 0 229.5-47.5t146.5-133T916 342q0-84-25.5-146.5t-73.5-97T704 64q-53 0-87.5 22.5T572 146h-2q-29-40-61-61t-83-21q-78 0-120 50.5T264 248q0 73 27 131.5t75 92T475 505q39 0 68.5-14.5T587 446h4l9 51h127l-40-222q-6-31-6-55 0-28 10.5-42t35.5-14q15 0 31.5 18t28 58T798 342q0 131-79.5 201.5T490 614q-95 0-168.5-40.5T206.5 454 165 264q0-97 38.5-169.5T314.5-18 487-58q70 0 119 15.5T678 0h163q-38-73-130-118.5T487-164q-137 0-238.5 54.5zM538 211q30 47 30 111 0 41-18.5 62T499 405q-50 0-78-48.5T393 247q0-36 15.5-59.5T454 164q54 0 84 47z"/><glyph glyph-name="A" unicode="A" horiz-adv-x="769" d="M544 147H228L165 0H-23l333 712h148L792 0H607zm-61 141-97 225-97-225h194z"/><glyph glyph-name="B" unicode="B" horiz-adv-x="702" d="M640 305.5Q674 260 674 195q0-59-31-103t-88.5-68T419 0H64v712h346q112 0 178-50t66-135q0-55-29-97t-82-61q63-18 97-63.5zM247 433h131q52 0 76 16t24 51q0 36-24.5 53T378 570H247V433zm227.5-274q23.5 17 23.5 57 0 41-23 58t-78 17H247V142h150q54 0 77.5 17z"/><glyph glyph-name="C" unicode="C" horiz-adv-x="685" d="M216.5 36.5Q134 82 89.5 165T45 357q0 108 44.5 190.5t127 128T410 721q70 0 135.5-21T651 643l-57-133q-87 63-180 63-86 0-132-54.5T236 357q0-108 46-163t132-55q93 0 180 63l57-133q-40-36-105.5-57T410-9Q299-9 216.5 36.5z"/><glyph glyph-name="D" unicode="D" horiz-adv-x="781" d="M64 712h291q118 0 203.5-42.5t131-122.5T735 357q0-111-45-191.5t-130.5-123T355 0H64v712zm278-562q104 0 155.5 51.5T549 357q0 205-207 205h-90V150h90z"/><glyph glyph-name="E" unicode="E" horiz-adv-x="604" d="M64 712h508V568H247V434h304V290H247V144h325V0H64v712z"/><glyph glyph-name="F" unicode="F" horiz-adv-x="584" d="M64 712h497V565H249V435h292V289H249V0H64v712z"/><glyph glyph-name="G" unicode="G" horiz-adv-x="751" d="M696 402V45Q639 19 568.5 5T424-9Q308-9 222.5 35T91 161.5 45 357q0 110 46 192.5t130 127T417 721q77 0 145.5-20T674 646l-59-133q-49 32-94.5 46.5T423 574q-95 0-141.5-53.5T235 357q0-114 48.5-169T433 133q47 0 94 10v132H403v127h293z"/><glyph glyph-name="H" unicode="H" horiz-adv-x="784" d="M720 712V0H536v288H248V0H64v712h184V435h288v277h184z"/><glyph glyph-name="I" unicode="I" horiz-adv-x="316" d="M64 712h188V0H64v712z"/><glyph glyph-name="J" unicode="J" horiz-adv-x="403" d="M2-29q50-5 73-5 45 0 60 18t15 69v659h188V56q0-126-51-185t-175-59q-49 0-110 9v150z"/><glyph glyph-name="K" unicode="K" horiz-adv-x="706" d="M537 0 252 323V0H64v712h188V406l277 306h220L434 374 760 0H537z"/><glyph glyph-name="L" unicode="L" horiz-adv-x="579" d="M64 712h188V152h301V0H64v712z"/><glyph glyph-name="M" unicode="M" horiz-adv-x="852" d="M785 712V0H621l-1 326L485 0H366L230 322V0H67v712h147l213-486 212 486h146z"/><glyph glyph-name="N" unicode="N" horiz-adv-x="766" d="M701 712V0H562L239 404V0H64v712h137l323-402v402h177z"/><glyph glyph-name="O" unicode="O" horiz-adv-x="805" d="M213 35.5Q132 80 88.5 163T45 357t44 193 124.5 126.5T403 721t189.5-44.5T716 550t43-193-43-194T592.5 35.5 403-9 213 35.5zM528.5 191Q574 248 574 357q0 108-45.5 164.5T403 578t-125-56-45-165q0-110 45-166.5T403 134t125.5 57z"/><glyph glyph-name="P" unicode="P" horiz-adv-x="685" d="M64 712h339q122 0 189-58.5T659 495q0-99-68-158t-188-59H252V0H64v712zm314-294q106 0 106 75 0 38-25.5 57.5T378 570H252V418h126z"/><glyph glyph-name="Q" unicode="Q" horiz-adv-x="805" d="M648.5-32.5Q681-65 723-100l-125-91Q488-119 423-9h-20Q294-9 213 35.5T88.5 163 45 357t44 193 124.5 126.5T403 721t189.5-44.5T716 550t43-193-43-193.5T594 37q22-37 54.5-69.5zM278 190.5Q323 134 403 134t125.5 57T574 357q0 108-45.5 164.5T403 578t-125-56-45-165q0-110 45-166.5z"/><glyph glyph-name="R" unicode="R" horiz-adv-x="714" d="M683 0H484l-92 237q-16 40-75 40h-68V0H64v712h331q129 0 194-55.5T654 498q0-72-38.5-124.5T507 299q30-6 54-28t38-59zM452 435.5q27 18.5 27 57.5 0 41-26.5 59T365 570H247V417h118q60 0 87 18.5z"/><glyph glyph-name="S" unicode="S" horiz-adv-x="672" d="M164 12Q86 33 37 69l59 133q52-33 110.5-50.5T324 134q60 0 92 16.5t32 46.5q0 27-29 44.5T310 276q-101 20-157 49.5T74.5 395 52 492q0 65 37 117.5t104 82T346 721q77 0 149.5-21.5T609 643l-58-133q-47 33-99 50.5T348 578q-51 0-82-19.5T235 506q0-18 11-30t41-23.5 90-24.5q97-21 152.5-50.5t78.5-69 23-94.5q0-104-81-163.5T322-9q-80 0-158 21z"/><glyph glyph-name="T" unicode="T" horiz-adv-x="638" d="M224 560H12v152h614V560H414V0H224v560z"/><glyph glyph-name="U" unicode="U" horiz-adv-x="752" d="M141 69.5Q61 148 61 300v412h183V293q0-77 34.5-118t98.5-41q63 0 97 41.5T508 293v419h185V300q0-150-81.5-229.5T377-9Q221-9 141 69.5z"/><glyph glyph-name="V" unicode="V" horiz-adv-x="751" d="M774 712 450 0H301L-23 712h195l205-478 208 478h189z"/><glyph glyph-name="W" unicode="W" horiz-adv-x="1132" d="M1120 712 865 0H716L567 423 415 0H266L12 712h191l146-449 159 449h128l153-457 153 457h178z"/><glyph glyph-name="X" unicode="X" horiz-adv-x="694" d="M724 0H505L346 222 186 0H-32l271 360-265 352h217l154-216 157 216h218L452 360z"/><glyph glyph-name="Y" unicode="Y" horiz-adv-x="657" d="M423 272V0H234v273L-65 712h212l180-284 183 284h214z"/><glyph glyph-name="Z" unicode="Z" horiz-adv-x="624" d="M589 147V0H53v137l314 428H53v147h525V577L260 147h329z"/><glyph glyph-name="bracketleft" unicode="[" horiz-adv-x="401" d="M103 712h281V578H280V-48h104v-134H103v894z"/><glyph glyph-name="backslash" unicode="\" horiz-adv-x="352" d="M-28 758h145L380-64H234z"/><glyph glyph-name="bracketright" unicode="]" horiz-adv-x="401" d="M17-182v134h104v626H17v134h281v-894H17z"/><glyph glyph-name="asciicircum" unicode="^" horiz-adv-x="600" d="M427 145 300 478 173 145H39l193 493h136l192-493H427z"/><glyph glyph-name="underscore" unicode="_" horiz-adv-x="505" d="M17 0h471v-103H17V0z"/><glyph glyph-name="grave" unicode="`" horiz-adv-x="300" d="M-64 770h172l98-208H97z"/><glyph glyph-name="a" unicode="a" horiz-adv-x="643" d="M589 508V0H411v69q-22-36-64-56.5T255-8q-65 0-116 32t-79.5 91.5T31 253q0 79 29 140t80 95 115 34q50 0 91.5-21.5T411 443v65h178zM385 160q26 33 26 95 0 63-26 96.5T311 385q-47 0-74-34.5T210 253q0-61 26-93.5t75-32.5q48 0 74 33z"/><glyph glyph-name="b" unicode="b" horiz-adv-x="645" d="M506 489.5q51-32.5 79.5-92.5T614 259q0-79-29-139.5t-80-94T389-8q-51 0-93 20.5T233 69V0H54v736h181V447q22 34 63 54.5t91 20.5q66 0 117-32.5zM407.5 161q25.5 34 25.5 98 0 61-25 93.5T334 385t-75-33-26-95q0-64 26-97t75-33q48 0 73.5 34z"/><glyph glyph-name="c" unicode="c" horiz-adv-x="515" d="M104 62q-73 70-73 191 0 80 35.5 141t99.5 94.5T314 522q56 0 110-16.5t86-44.5l-46-125q-27 22-63 35t-69 13q-56 0-86-32t-30-95q0-64 30-96.5t87-32.5q33 0 68.5 13t62.5 35l46-123q-33-29-87.5-45T306-8Q177-8 104 62z"/><glyph glyph-name="d" unicode="d" horiz-adv-x="643" d="M589 736V0H411v69q-22-36-64-56.5T255-8q-65 0-116 33.5t-79.5 94T31 259q0 78 28.5 138t79.5 92.5T255 522q48 0 88.5-20t64.5-54v288h181zM385 160.5q26 33.5 26 96.5 0 61-26.5 94.5T311 385q-49 0-75-32.5T210 259q0-63 26.5-97.5T311 127t74 33.5z"/><glyph glyph-name="e" unicode="e" horiz-adv-x="553" d="M523 236H204q5-59 34-85t85-26q38 0 76 12.5t69 34.5l46-120q-38-28-92-44T314-8q-87 0-151 32t-98 91.5T31 256q0 77 32.5 137.5t90 94.5T285 522q72 0 126-32t83-91.5T523 260v-24zm-317 84h162q-10 78-78 78-67 0-84-78z"/><glyph glyph-name="f" unicode="f" horiz-adv-x="405" d="M298 576.5Q277 558 277 520v-12h99V375h-99V0H96v375H3v133h93v14q0 103 53.5 161T305 741q58 0 94-14V588q-29 7-48 7-32 0-53-18.5z"/><glyph glyph-name="g" unicode="g" horiz-adv-x="647" d="M595 508V32q0-125-75-190.5T300-224q-124 0-215 44l27 132q45-20 92.5-31.5T294-91q62 0 91.5 26.5T415 18v75q-25-33-67.5-56T257 14q-65 0-116.5 31.5t-80.5 89T31 268q0 75 29 132.5t80.5 89.5T257 522q51 0 93-21t65-57v64h180zM388 180.5q27 31.5 27 87.5 0 54-27 85.5T313 385t-75.5-31-27.5-86 28-87 75-32q48 0 75 31.5z"/><glyph glyph-name="h" unicode="h" horiz-adv-x="624" d="M528.5 467.5Q573 413 573 303V0H392v295q0 47-16 67.5T326 383q-41 0-66-27.5T235 283V0H54v736h181V446q59 76 159 76 90 0 134.5-54.5z"/><glyph glyph-name="i" unicode="i" horiz-adv-x="289" d="M54 508h181V0H54v508zm184 249V594H49v163h189z"/><glyph glyph-name="j" unicode="j" horiz-adv-x="289" d="M-20-79q32 0 53 18.5T54-4v512h181V-6q0-103-53.5-161T25-225q-58 0-94 14v139q29-7 49-7zm257 836V594H48v163h189z"/><glyph glyph-name="k" unicode="k" horiz-adv-x="598" d="M408 0 235 219V0H54v736h181V296l170 211h214L419 264 627 0H408z"/><glyph glyph-name="l" unicode="l" horiz-adv-x="289" d="M54 736h181V0H54v736z"/><glyph glyph-name="m" unicode="m" horiz-adv-x="925" d="M831.5 468Q874 414 874 303V0H693v298q0 45-13.5 65T634 383q-38 0-59-28t-21-79V0H373v298q0 45-14 65t-45 20q-38 0-58.5-28T235 276V0H54v362q0 82-8 146h170l9-71q23 41 64.5 63t95.5 22q109 0 148-92 27 42 71.5 67t96.5 25q88 0 130.5-54z"/><glyph glyph-name="n" unicode="n" horiz-adv-x="624" d="M528.5 467.5Q573 413 573 303V0H392v295q0 47-16 67.5T326 383q-41 0-66-27.5T235 283V0H54v362q0 82-8 146h170l9-75q29 43 72 66t97 23q90 0 134.5-54.5z"/><glyph glyph-name="o" unicode="o" horiz-adv-x="618" d="M162 24q-63 32-97 92T31 257t34 141 97 92 148 32q84 0 146.5-32.5t96.5-92T587 257t-34-140.5-96.5-92T310-8q-85 0-148 32zm246 233q0 66-24.5 97.5T310 386q-50 0-75-31.5T210 257q0-67 25-98.5t75-31.5q98 0 98 130z"/><glyph glyph-name="p" unicode="p" horiz-adv-x="645" d="M505 488q51-34 80-95t29-140q0-78-28.5-137.5T506 24 389-8q-50 0-91 19.5T235 66v-282H54v578q0 82-8 146h170l10-79q19 42 63 67.5T389 522q65 0 116-34zm-97-329q25 32 25 94 0 63-25.5 97.5T334 385q-49 0-75-33t-26-97q0-62 26-95t75-33 74 32z"/><glyph glyph-name="q" unicode="q" horiz-adv-x="643" d="M599 508q-10-60-10-146v-578H408V64q-23-34-63.5-53T255-8q-65 0-116 32t-79.5 91.5T31 253q0 79 29 140t80 95 115 34q54 0 98.5-24.5T418 432l10 76h171zM385 160q26 33 26 95 0 63-26 96.5T311 385q-47 0-74-34.5T210 253q0-61 26-93.5t75-32.5q48 0 74 33z"/><glyph glyph-name="r" unicode="r" horiz-adv-x="430" d="M432 509V344q-43 20-83 20-114 0-114-109V0H54v362q0 82-8 146h170l11-85q18 47 58 72t90 25q37 0 57-11z"/><glyph glyph-name="s" unicode="s" horiz-adv-x="507" d="m19 53 46 123q41-28 93-43.5T260 117q31 0 48 9t17 25q0 14-12.5 22.5T265 189l-82 19q-78 16-112.5 50.5T36 354q0 49 29 87t80.5 59.5T264 522q55 0 108-16t99-45l-48-120q-40 26-82 40t-79 14q-30 0-47-9.5T198 358q0-11 10-17.5t38-13.5l85-19q81-19 116.5-55.5T483 153q0-75-59.5-118T259-8Q107-8 19 53z"/><glyph glyph-name="t" unicode="t" horiz-adv-x="416" d="M402 144V7Q365-8 308-8 205-8 151.5 50T98 211v164H3v133h95v115l181 58V508h122V375H279V211q0-36 21.5-54.5T354 138q18 0 48 6z"/><glyph glyph-name="u" unicode="u" horiz-adv-x="619" d="M565 508V0H388v68Q339-8 243-8 146-8 98.5 46T51 211v297h181V206q0-75 65-75 38 0 61.5 27t23.5 72v278h183z"/><glyph glyph-name="v" unicode="v" horiz-adv-x="559" d="M579 507 353 0H204L-19 507h188l114-292 118 292h178z"/><glyph glyph-name="w" unicode="w" horiz-adv-x="900" d="M910 508 698 0H549L447 252 351 0H201L-11 508h184l113-293 110 293h116l113-299 111 299h174z"/><glyph glyph-name="x" unicode="x" horiz-adv-x="567" d="M603 0H391L283 136 175 0H-36l217 262-204 246h212l94-122 93 122h214L386 262z"/><glyph glyph-name="y" unicode="y" horiz-adv-x="559" d="M579 508 346-18q-46-103-115.5-150.5T59-228L17-90q70 14 105 36t53 61l13 28-207 473h188l114-293 118 293h178z"/><glyph glyph-name="z" unicode="z" horiz-adv-x="535" d="M504 134V0H47v127l230 248H48v133h446V389L258 134h246z"/><glyph glyph-name="braceleft" unicode="{" horiz-adv-x="438" d="M290.5 307.5Q264 273 230 265q34-8 60.5-43t26.5-82V50q0-46 22-72t52-26h30v-134h-66q-104 0-159.5 48.5T140 8v85q0 56-12 78.5T84 206l-48 16v84l48 17q32 12 44 34.5t12 77.5v87q0 93 55 141.5T355 712h66V578h-30q-30 0-52-25t-22-73v-92q0-46-26.5-80.5z"/><glyph glyph-name="bar" unicode="|" horiz-adv-x="305" d="M69 712h166v-894H69v894z"/><glyph glyph-name="braceright" unicode="}" horiz-adv-x="438" d="M402 306v-84l-48-16q-31-12-43.5-34.5T298 93V8q0-93-55.5-141.5T83-182H17v134h31q29 0 51 26t22 72v90q0 47 26.5 82t60.5 43q-34 8-60.5 42.5T121 388v92q0 48-22 73t-51 25H17v134h66q105 0 160-48.5T298 522v-87q0-55 12.5-77.5T354 323z"/><glyph glyph-name="asciitilde" unicode="~" horiz-adv-x="600" d="M546 315q-15-51-55-82.5T404 201q-28 0-54.5 9.5T283 240q-29 14-45.5 20.5T207 267q-45 0-65-60l-88 60q15 52 55 83t87 31q29 0 56-9.5t65-28.5q29-14 45.5-20.5T393 316q45 0 65 58z"/><glyph glyph-name="uni00A0" horiz-adv-x="290"/><glyph glyph-name="exclamdown" unicode="¡" horiz-adv-x="276" d="M43 497h189V312H43v185zm150-247 56-431-223-1 57 432h110z"/><glyph glyph-name="cent" unicode="¢" horiz-adv-x="600" d="M551 53Q511 19 443 3v-122H300V-5Q194 8 133 76.5T72 253q0 105 62.5 177T300 518v113h143V511q65-15 108-50l-47-125q-26 21-61 34V141q36 13 61 35zm-251 96v214q-42-31-42-106 0-76 42-108z"/><glyph glyph-name="sterling" unicode="£" horiz-adv-x="600" d="M276.5 195q-8.5-27-28.5-46h328V0H36v126q38 20 50.5 43.5T99 241v62H36v107h63v107q0 60 31 106.5t86.5 72T343 721t134.5-19.5T588 646l-58-133q-49 31-92.5 47T360 576q-75 0-75-72v-94h154V303H285v-40q0-41-8.5-68z"/><glyph glyph-name="currency" unicode="¤" horiz-adv-x="600" d="m498 104 55-58-60-59-54 56Q376-3 297-3q-76 0-139 44l-54-55-62 60 55 57q-45 66-45 144 0 79 45 145l-55 56 63 62 54-55q62 43 138 43 75 0 137-43l55 58 68-68-57-57q42-62 42-141 0-80-44-143zm-127.5 65q30.5 33 30.5 78 0 46-31 79t-74 33-73-33-30-79 30-78.5 75-32.5q42 0 72.5 33z"/><glyph glyph-name="yen" unicode="¥" horiz-adv-x="600" d="M435 414h104V308H394v-50h145V152H394V0H205v152H61v106h144v50H61v106h103L-33 712h200l133-219 133 219h200z"/><glyph glyph-name="brokenbar" unicode="¦" horiz-adv-x="305" d="M69 712h166V375H69v337zm0-556h166v-338H69v338z"/><glyph glyph-name="section" unicode="§" horiz-adv-x="604" d="M506 94q30-43 30-84 0-97-64.5-148T286-189q-72 0-131.5 15.5T55-128L100-5q40-25 86.5-39.5T274-59q38 0 62 14.5T360-7q0 17-12 29.5T307 49l-146 64q-68 29-101 72T27 290q0 89 72 147-31 42-31 83 0 92 68.5 145.5T324 719q124 0 207-57l-45-119q-33 22-73.5 34.5T333 590q-42 0-65.5-13.5T244 538q0-34 52-56l146-65q135-57 135-176 0-90-71-147zm-99 80 3-2q8 16 8 27 0 26-19 50t-52 39l-150 72-3 1q-9-20-9-30 0-26 18.5-49t51.5-39z"/><glyph glyph-name="dieresis" unicode="¨" horiz-adv-x="300" d="M131 740V588H-29v152h160zm201 0V588H172v152h160z"/><glyph glyph-name="copyright" unicode="©" horiz-adv-x="823" d="M228.5 43Q146 91 98.5 173.5T51 357t47.5 183 130 129.5T412 717t183.5-47.5 130-130T773 357q0-101-47.5-183.5T595 43 412-5Q311-5 228.5 43zm331 60Q625 141 662 207.5T699 357q0 82-37 148T559.5 609 412 647q-83 0-148.5-37.5T161 505.5 124 357q0-83 37-149.5T263.5 103 412 65q82 0 147.5 38zM264 197.5Q203 257 203 357q0 99 61 158t165 59q101 0 159-46l-38-109q-15 10-42.5 20.5T456 450q-42 0-66.5-24.5T365 357q0-45 24.5-70t66.5-25q24 0 51.5 10.5T550 293l38-109q-63-46-159-46-104 0-165 59.5z"/><glyph glyph-name="ordfeminine" unicode="ª" horiz-adv-x="346" d="M294.5 681Q333 645 333 570V408H196v51q-10-28-32-42t-51-14q-44 0-73.5 30.5T10 502q0 43 36.5 64.5T168 588h25v8q0 8-8.5 12t-29.5 4q-46 0-94-20L36 693q58 24 138 24 82 0 120.5-36zM193 522v3h-8q-45 0-45-18 0-5 6-8.5t17-3.5q30 0 30 27z"/><glyph glyph-name="guillemotleft" unicode="«" horiz-adv-x="565" d="m19 267 137 185h148L172 268 303 84H157zm241 0 137 185h148L413 268 544 84H398z"/><glyph glyph-name="logicalnot" unicode="¬" horiz-adv-x="600" d="M546 130H421v199H54v122h492V130z"/><glyph glyph-name="uni00AD" unicode="­" horiz-adv-x="450" d="M64 341h324V201H64v140z"/><glyph glyph-name="registered" unicode="®" horiz-adv-x="823" d="M595.5 669.5q82.5-47.5 130-130T773 357q0-101-47.5-183.5T595 43 412-5Q311-5 228.5 43t-130 130.5T51 357t47.5 183 130 129.5T412 717t183.5-47.5zM681 250q18 50 18 107 0 82-37 148T559.5 609 412 647q-83 0-148.5-37.5T161 505.5 124 357q0-83 37-149.5T263.5 103 412 65q60 0 111 20.5t90 57.5H462l-63 138q0 3-1.5 5.5T395 289h-11V143H226v428h214q81 0 124.5-38T608 431q0-47-25.5-82T509 300q24-2 46-15t34-37l41-86q33 38 51 88zM449.5 402q9.5 6 9.5 21 0 17-9.5 23.5T419 453h-37v-57h37q21 0 30.5 6z"/><glyph glyph-name="macron" unicode="¯" horiz-adv-x="300" d="M-9 718h321V610H-9v108z"/><glyph glyph-name="degree" unicode="°" horiz-adv-x="373" d="M106 428q-36 20-57 55.5T28 563q0 43 21 78.5t57 55.5 80 20 80.5-20 57-55.5T344 563q0-44-20.5-79.5t-57-55.5-80.5-20-80 20zm127 86.5q19 19.5 19 48.5t-19 48-47 19q-27 0-46-18.5T121 563t19-49 46-19q28 0 47 19.5z"/><glyph glyph-name="plusminus" unicode="±" horiz-adv-x="600" d="M546 406V284H361V152H239v132H54v122h185v131h122V406h185zM54 121h492V0H54v121z"/><glyph glyph-name="uni00B2" unicode="²" horiz-adv-x="380" d="M357 404V285H39v112l129 133q27 31 27 49 0 23-38 23-51 0-111-31L26 682q29 15 74.5 24.5T187 716q73 0 118-34.5t45-92.5q0-36-18-67.5T265 447l-52-43h144z"/><glyph glyph-name="uni00B3" unicode="³" horiz-adv-x="380" d="M343 468q21-27 21-65 0-32-20-60.5T283.5 297 183 280q-43 0-88.5 9T20 313l19 111q58-30 129-30 29 0 40.5 6t11.5 18q0 24-43 24H99v116h66q25 0 33.5 4.5T207 580q0 10-10.5 16t-31.5 6q-28 0-59.5-8.5T46 571L26 682q29 15 73 24.5t79 9.5q82 0 127-35t45-87q0-31-16.5-54.5T285 506q37-11 58-38z"/><glyph glyph-name="acute" unicode="´" horiz-adv-x="300" d="m97 562 98 208h172L206 562H97z"/><glyph glyph-name="uni00B5" unicode="µ" horiz-adv-x="619" d="M565 508V0H388v68Q339-8 243-8h-11v-208H51v724h181V206q0-75 65-75 38 0 61.5 27t23.5 72v278h183z"/><glyph glyph-name="paragraph" unicode="¶" horiz-adv-x="658" d="M593-182H478v791H375v-791H259v432q-69 0-122 29t-82 81.5T26 482t29.5 121 83 80.5T263 712h330v-894z"/><glyph glyph-name="periodcentered" unicode="·" horiz-adv-x="276" d="M232 365V179H43v186h189z"/><glyph glyph-name="cedilla" unicode="¸" horiz-adv-x="300" d="M252-59q23-19 23-51 0-41-37-65.5T131-200q-22 0-48.5 4.5T34-183l11 65q54-14 80-14 43 0 43 22 0 17-32 17-12 0-32-5L84-76l13 96h92l-9-60h8q41 0 64-19z"/><glyph glyph-name="uni00B9" unicode="¹" horiz-adv-x="380" d="M378 404V285H58v119h83v148l-78-39v134l125 65h107V404h83z"/><glyph glyph-name="ordmasculine" unicode="º" horiz-adv-x="391" d="M59 448.5Q13 494 13 561q0 65 46 110.5T196 717t136.5-45.5T378 561q0-67-45.5-112.5T196 403 59 448.5zM224 528q11 12 11 33 0 42-39 42t-39-42q0-21 11-33t28-12 28 12z"/><glyph glyph-name="guillemotright" unicode="»" horiz-adv-x="565" d="m21 84 132 184L20 452h149l136-185L168 84H21zm241 0 132 184-133 184h149l136-185L409 84H262z"/><glyph glyph-name="onequarter" unicode="¼" horiz-adv-x="973" d="M750 678 337-32 223 34l146 251H58v119h83v148l-78-39v134l125 65h107V404h83V300l258 444zM974 56h-59V0H782v56H596v105l200 266h119V165h59V56zM782 165v84l-66-84h66z"/><glyph glyph-name="onehalf" unicode="½" horiz-adv-x="973" d="M750 678 337-32 223 34l146 251H58v119h83v148l-78-39v134l125 65h107V404h83V300l258 444zm200-559V0H632v112l129 133q27 31 27 49 0 23-38 23-51 0-111-31l-20 111q29 15 74.5 24.5T780 431q73 0 118-34.5t45-92.5q0-36-18-67.5T858 162l-52-43h144z"/><glyph glyph-name="threequarters" unicode="¾" horiz-adv-x="973" d="M343 468q21-27 21-65 0-32-20-60.5T283.5 297 183 280q-43 0-88.5 9T20 313l19 111q58-30 129-30 29 0 40.5 6t11.5 18q0 24-43 24H99v116h66q25 0 33.5 4.5T207 580q0 10-10.5 16t-31.5 6q-28 0-59.5-8.5T46 571L26 682q29 15 73 24.5t79 9.5q82 0 127-35t45-87q0-31-16.5-54.5T285 506q37-11 58-38zM223 34l413 710 114-66L337-32zm751 22h-59V0H782v56H596v105l200 266h119V165h59V56zM782 165v84l-66-84h66z"/><glyph glyph-name="questiondown" unicode="¿" horiz-adv-x="484" d="M150 497h188V312H150v185zm-30-666.5Q67-149 35.5-109T4-13q0 34 15 60.5t36 45 56 43.5q36 26 53.5 42.5T187 216l7 40h106v-62q0-47-18.5-74.5T230 65q-22-18-32-30.5T188 5q0-50 63-50 70 0 143 45v-147q-68-43-159-43-62 0-115 20.5z"/><glyph glyph-name="Agrave" unicode="À" horiz-adv-x="769" d="M544 147H228L165 0H-23l333 712h148L792 0H607zm-61 141-97 225-97-225h194zM172 931h162l104-158H329z"/><glyph glyph-name="Aacute" unicode="Á" horiz-adv-x="769" d="M544 147H228L165 0H-23l333 712h148L792 0H607zm-61 141-97 225-97-225h194zM329 773l104 158h162L438 773H329z"/><glyph glyph-name="Acircumflex" unicode="Â" horiz-adv-x="769" d="M544 147H228L165 0H-23l333 712h148L792 0H607zm-61 141-97 225-97-225h194zM195 773l139 158h99l139-158H441l-57 78-58-78H195z"/><glyph glyph-name="Atilde" unicode="Ã" horiz-adv-x="769" d="M544 147H228L165 0H-23l333 712h148L792 0H607zm-61 141-97 225-97-225h194zM236 894.5q33 39.5 84 39.5 17 0 33-6.5t40-20.5q19-11 32-17t25-6q17 0 28 12t14 35h72q0-81-33-120.5T447 771q-17 0-33 6.5T374 798q-19 11-32 17t-25 6q-17 0-28-12t-14-35h-72q0 81 33 120.5z"/><glyph glyph-name="Adieresis" unicode="Ä" horiz-adv-x="769" d="M544 147H228L165 0H-23l333 712h148L792 0H607zm-61 141-97 225-97-225h194zM363 928V777H203v151h160zm201 0V777H404v151h160z"/><glyph glyph-name="Aring" unicode="Å" horiz-adv-x="769" d="M544 147H228L165 0H-23l330 706q-17 15-26.5 36.5T271 788q0 46 33.5 78.5T385 899t80.5-32.5T499 788q0-25-10-47t-27-37L792 0H607zM355 818.5Q343 806 343 788t12-31.5 30-13.5 30 13.5 12 31.5-12 30.5-30 12.5-30-12.5zM483 288l-97 225-97-225h194z"/><glyph glyph-name="AE" unicode="Æ" horiz-adv-x="1014" d="m679 568 8-134h274V290H697l9-146h276V0H545l-9 147H247L160 0H-43l454 712h571V568H679zm-168 0h-13L331 288h197z"/><glyph glyph-name="Ccedilla" unicode="Ç" horiz-adv-x="685" d="M558 16.5Q500-4 436-8l-5-32h8q41 0 64-19t23-51q0-41-37-65.5T382-200q-22 0-48.5 4.5T285-183l11 65q54-14 80-14 43 0 43 22 0 17-32 17-12 0-32-5l-20 22 10 71Q252 8 184.5 56.5T81 182 45 357q0 108 44.5 190.5t127 128T410 721q70 0 135.5-21T651 643l-57-133q-87 63-180 63-86 0-132-54.5T236 357q0-108 46-163t132-55q93 0 180 63l57-133q-35-32-93-52.5z"/><glyph glyph-name="Egrave" unicode="È" horiz-adv-x="604" d="M64 712h508V568H247V434h304V290H247V144h325V0H64v712zm60 219h162l104-158H281z"/><glyph glyph-name="Eacute" unicode="É" horiz-adv-x="604" d="M64 712h508V568H247V434h304V290H247V144h325V0H64v712zm217 61 104 158h162L390 773H281z"/><glyph glyph-name="Ecircumflex" unicode="Ê" horiz-adv-x="604" d="M64 712h508V568H247V434h304V290H247V144h325V0H64v712zm83 61 139 158h99l139-158H393l-57 78-58-78H147z"/><glyph glyph-name="Edieresis" unicode="Ë" horiz-adv-x="604" d="M64 712h508V568H247V434h304V290H247V144h325V0H64v712zm251 216V777H155v151h160zm201 0V777H356v151h160z"/><glyph glyph-name="Igrave" unicode="Ì" horiz-adv-x="316" d="M64 712h188V0H64v712zM-55 931h162l104-158H102z"/><glyph glyph-name="Iacute" unicode="Í" horiz-adv-x="316" d="M64 712h188V0H64v712zm38 61 104 158h162L211 773H102z"/><glyph glyph-name="Icircumflex" unicode="Î" horiz-adv-x="316" d="M64 712h188V0H64v712zm-96 61 139 158h99l139-158H214l-57 78-58-78H-32z"/><glyph glyph-name="Idieresis" unicode="Ï" horiz-adv-x="316" d="M64 712h188V0H64v712zm72 216V777H-24v151h160zm201 0V777H177v151h160z"/><glyph glyph-name="Eth" unicode="Ð" horiz-adv-x="818" d="M596 669.5Q681 627 726.5 547T772 357q0-111-45-191.5t-130.5-123T393 0H101v289H17v140h84v283h292q118 0 203-42.5zm-62-468Q585 253 585 357q0 205-206 205h-90V429h184V289H289V150h90q104 0 155 51.5z"/><glyph glyph-name="Ntilde" unicode="Ñ" horiz-adv-x="766" d="M701 712V0H562L239 404V0H64v712h137l323-402v402h177zM234 894.5q33 39.5 84 39.5 17 0 33-6.5t40-20.5q19-11 32-17t25-6q17 0 28 12t14 35h72q0-81-33-120.5T445 771q-17 0-33 6.5T372 798q-19 11-32 17t-25 6q-17 0-28-12t-14-35h-72q0 81 33 120.5z"/><glyph glyph-name="Ograve" unicode="Ò" horiz-adv-x="805" d="M213 35.5Q132 80 88.5 163T45 357t44 193 124.5 126.5T403 721t189.5-44.5T716 550t43-193-43-194T592.5 35.5 403-9 213 35.5zM528.5 191Q574 248 574 357q0 108-45.5 164.5T403 578t-125-56-45-165q0-110 45-166.5T403 134t125.5 57zM190 931h162l104-158H347z"/><glyph glyph-name="Oacute" unicode="Ó" horiz-adv-x="805" d="M213 35.5Q132 80 88.5 163T45 357t44 193 124.5 126.5T403 721t189.5-44.5T716 550t43-193-43-194T592.5 35.5 403-9 213 35.5zM528.5 191Q574 248 574 357q0 108-45.5 164.5T403 578t-125-56-45-165q0-110 45-166.5T403 134t125.5 57zM347 773l104 158h162L456 773H347z"/><glyph glyph-name="Ocircumflex" unicode="Ô" horiz-adv-x="805" d="M213 35.5Q132 80 88.5 163T45 357t44 193 124.5 126.5T403 721t189.5-44.5T716 550t43-193-43-194T592.5 35.5 403-9 213 35.5zM528.5 191Q574 248 574 357q0 108-45.5 164.5T403 578t-125-56-45-165q0-110 45-166.5T403 134t125.5 57zM213 773l139 158h99l139-158H459l-57 78-58-78H213z"/><glyph glyph-name="Otilde" unicode="Õ" horiz-adv-x="805" d="M213 35.5Q132 80 88.5 163T45 357t44 193 124.5 126.5T403 721t189.5-44.5T716 550t43-193-43-194T592.5 35.5 403-9 213 35.5zM528.5 191Q574 248 574 357q0 108-45.5 164.5T403 578t-125-56-45-165q0-110 45-166.5T403 134t125.5 57zM254 894.5q33 39.5 84 39.5 17 0 33-6.5t40-20.5q19-11 32-17t25-6q17 0 28 12t14 35h72q0-81-33-120.5T465 771q-17 0-33 6.5T392 798q-19 11-32 17t-25 6q-17 0-28-12t-14-35h-72q0 81 33 120.5z"/><glyph glyph-name="Odieresis" unicode="Ö" horiz-adv-x="805" d="M213 35.5Q132 80 88.5 163T45 357t44 193 124.5 126.5T403 721t189.5-44.5T716 550t43-193-43-194T592.5 35.5 403-9 213 35.5zM528.5 191Q574 248 574 357q0 108-45.5 164.5T403 578t-125-56-45-165q0-110 45-166.5T403 134t125.5 57zM381 928V777H221v151h160zm201 0V777H422v151h160z"/><glyph glyph-name="multiply" unicode="×" horiz-adv-x="600" d="m385 291 151-151-85-85-151 151L149 55l-85 85 151 151L64 441l85 86 151-151 151 151 85-86z"/><glyph glyph-name="Oslash" unicode="Ø" horiz-adv-x="805" d="M730 519q29-72 29-162 0-111-43-194T592.5 35.5 403-9Q337-9 280 8l-50-85L112-6l47 80q-55 48-84.5 120T45 357q0 111 44 193t124.5 126.5T403 721q64 0 123-17l49 85 118-71-46-79q54-48 83-120zM253 236l196 337q-23 5-46 5-80 0-125-56t-45-165q0-72 20-121zm275.5-45Q574 248 574 357q0 73-21 121L356 140q23-6 47-6 80 0 125.5 57z"/><glyph glyph-name="Ugrave" unicode="Ù" horiz-adv-x="752" d="M141 69.5Q61 148 61 300v412h183V293q0-77 34.5-118t98.5-41q63 0 97 41.5T508 293v419h185V300q0-150-81.5-229.5T377-9Q221-9 141 69.5zM165 931h162l104-158H322z"/><glyph glyph-name="Uacute" unicode="Ú" horiz-adv-x="752" d="M141 69.5Q61 148 61 300v412h183V293q0-77 34.5-118t98.5-41q63 0 97 41.5T508 293v419h185V300q0-150-81.5-229.5T377-9Q221-9 141 69.5zM322 773l104 158h162L431 773H322z"/><glyph glyph-name="Ucircumflex" unicode="Û" horiz-adv-x="752" d="M141 69.5Q61 148 61 300v412h183V293q0-77 34.5-118t98.5-41q63 0 97 41.5T508 293v419h185V300q0-150-81.5-229.5T377-9Q221-9 141 69.5zM188 773l139 158h99l139-158H434l-57 78-58-78H188z"/><glyph glyph-name="Udieresis" unicode="Ü" horiz-adv-x="752" d="M141 69.5Q61 148 61 300v412h183V293q0-77 34.5-118t98.5-41q63 0 97 41.5T508 293v419h185V300q0-150-81.5-229.5T377-9Q221-9 141 69.5zM356 928V777H196v151h160zm201 0V777H397v151h160z"/><glyph glyph-name="Yacute" unicode="Ý" horiz-adv-x="657" d="M423 272V0H234v273L-65 712h212l180-284 183 284h214zM273 773l104 158h162L382 773H273z"/><glyph glyph-name="Thorn" unicode="Þ" horiz-adv-x="686" d="M592.5 518Q659 461 659 362t-67-156-184-57H248V0H64v712h184V575h160q118 0 184.5-57zm-134-210.5Q484 324 484 362q0 37-26 53.5T376 432H248V291h128q57 0 82.5 16.5z"/><glyph glyph-name="germandbls" unicode="ß" horiz-adv-x="723" d="M654 298.5Q706 250 706 168q0-52-28-92t-79-62T481-8Q417-8 362.5 7.5T272 53l47 128q34-29 77-44t87-15q30 0 44.5 16t14.5 38q0 37-51 67t-168 57v131q71 19 99 45t28 64q0 78-92 78-59 0-91-35.5T235 475V0H54v448q0 147 78 222.5T359 746q121 0 190.5-52T619 548q0-54-28-96t-102-75q113-30 165-78.5z"/><glyph glyph-name="agrave" unicode="à" horiz-adv-x="643" d="M589 508V0H411v69q-22-36-64-56.5T255-8q-65 0-116 32t-79.5 91.5T31 253q0 79 29 140t80 95 115 34q50 0 91.5-21.5T411 443v65h178zM385 160q26 33 26 95 0 63-26 96.5T311 385q-47 0-74-34.5T210 253q0-61 26-93.5t75-32.5q48 0 74 33zM105 781h172l98-208H266z"/><glyph glyph-name="aacute" unicode="á" horiz-adv-x="643" d="M589 508V0H411v69q-22-36-64-56.5T255-8q-65 0-116 32t-79.5 91.5T31 253q0 79 29 140t80 95 115 34q50 0 91.5-21.5T411 443v65h178zM385 160q26 33 26 95 0 63-26 96.5T311 385q-47 0-74-34.5T210 253q0-61 26-93.5t75-32.5q48 0 74 33zM266 573l98 208h172L375 573H266z"/><glyph glyph-name="acircumflex" unicode="â" horiz-adv-x="643" d="M589 508V0H411v69q-22-36-64-56.5T255-8q-65 0-116 32t-79.5 91.5T31 253q0 79 29 140t80 95 115 34q50 0 91.5-21.5T411 443v65h178zM385 160q26 33 26 95 0 63-26 96.5T311 385q-47 0-74-34.5T210 253q0-61 26-93.5t75-32.5q48 0 74 33zM132 573l136 208h105l136-208H373l-52 106-53-106H132z"/><glyph glyph-name="atilde" unicode="ã" horiz-adv-x="643" d="M589 508V0H411v69q-22-36-64-56.5T255-8q-65 0-116 32t-79.5 91.5T31 253q0 79 29 140t80 95 115 34q50 0 91.5-21.5T411 443v65h178zM385 160q26 33 26 95 0 63-26 96.5T311 385q-47 0-74-34.5T210 253q0-61 26-93.5t75-32.5q48 0 74 33zM173 719.5q33 39.5 84 39.5 17 0 33-6.5t40-20.5q19-11 32-17t25-6q17 0 28 12t14 35h72q0-81-33-120.5T384 596q-17 0-33 6.5T311 623q-19 11-32 17t-25 6q-17 0-28-12t-14-35h-72q0 81 33 120.5z"/><glyph glyph-name="adieresis" unicode="ä" horiz-adv-x="643" d="M589 508V0H411v69q-22-36-64-56.5T255-8q-65 0-116 32t-79.5 91.5T31 253q0 79 29 140t80 95 115 34q50 0 91.5-21.5T411 443v65h178zM385 160q26 33 26 95 0 63-26 96.5T311 385q-47 0-74-34.5T210 253q0-61 26-93.5t75-32.5q48 0 74 33zm-85 591V599H140v152h160zm201 0V599H341v152h160z"/><glyph glyph-name="aring" unicode="å" horiz-adv-x="643" d="M589 508V0H411v69q-22-36-64-56.5T255-8q-65 0-116 32t-79.5 91.5T31 253q0 79 29 140t80 95 115 34q50 0 91.5-21.5T411 443v65h178zM385 160q26 33 26 95 0 63-26 96.5T311 385q-47 0-74-34.5T210 253q0-61 26-93.5t75-32.5q48 0 74 33zM239.5 598Q206 630 206 678q0 47 33.5 79.5T321 790q47 0 80.5-33t33.5-79q0-48-33-80t-81-32-81.5 32zm111 48q11.5 13 11.5 32 0 18-11.5 30.5T321 721t-30-12.5-12-30.5q0-19 12-32t30-13 29.5 13z"/><glyph glyph-name="ae" unicode="æ" horiz-adv-x="860" d="M829 236H515q7-111 119-111 34 0 71.5 12.5T775 172l45-120q-36-28-90-44T621-8q-71 0-123.5 23.5T413 85q-25-45-69.5-69T241-8q-60 0-107.5 21.5T59 73.5 32 162q0 83 64.5 120.5T308 320h36q0 36-16.5 52T272 388t-85.5-14T98 337L53 458q45 27 110.5 45.5T284 522q112 0 164-59 64 59 160 59 65 0 115-33t78-92.5T829 260v-24zM549.5 379.5Q529 361 521 320h155q-11 78-73 78-33 0-53.5-18.5zM324.5 140q19.5 26 19.5 68v30h-25q-113 0-113-70 0-25 16.5-39.5T266 114q39 0 58.5 26z"/><glyph glyph-name="ccedilla" unicode="ç" horiz-adv-x="515" d="M433.5 11.5Q386-4 332-7l-5-33h8q41 0 64-19t23-51q0-41-37-65.5T278-200q-22 0-48.5 4.5T181-183l11 65q54-14 80-14 43 0 43 22 0 17-32 17-12 0-32-5l-20 22 10 73Q141 14 86 81T31 253q0 80 35.5 141t99.5 94.5T314 522q56 0 110-16.5t86-44.5l-46-125q-27 22-63 35t-69 13q-56 0-86-32t-30-95q0-64 30-96.5t87-32.5q33 0 68.5 13t62.5 35l46-123q-29-26-76.5-41.5z"/><glyph glyph-name="egrave" unicode="è" horiz-adv-x="553" d="M523 236H204q5-59 34-85t85-26q38 0 76 12.5t69 34.5l46-120q-38-28-92-44T314-8q-87 0-151 32t-98 91.5T31 256q0 77 32.5 137.5t90 94.5T285 522q72 0 126-32t83-91.5T523 260v-24zm-317 84h162q-10 78-78 78-67 0-84-78zM69 781h172l98-208H230z"/><glyph glyph-name="eacute" unicode="é" horiz-adv-x="553" d="M523 236H204q5-59 34-85t85-26q38 0 76 12.5t69 34.5l46-120q-38-28-92-44T314-8q-87 0-151 32t-98 91.5T31 256q0 77 32.5 137.5t90 94.5T285 522q72 0 126-32t83-91.5T523 260v-24zm-317 84h162q-10 78-78 78-67 0-84-78zm24 253 98 208h172L339 573H230z"/><glyph glyph-name="ecircumflex" unicode="ê" horiz-adv-x="553" d="M523 236H204q5-59 34-85t85-26q38 0 76 12.5t69 34.5l46-120q-38-28-92-44T314-8q-87 0-151 32t-98 91.5T31 256q0 77 32.5 137.5t90 94.5T285 522q72 0 126-32t83-91.5T523 260v-24zm-317 84h162q-10 78-78 78-67 0-84-78zM96 573l136 208h105l136-208H337l-52 106-53-106H96z"/><glyph glyph-name="edieresis" unicode="ë" horiz-adv-x="553" d="M523 236H204q5-59 34-85t85-26q38 0 76 12.5t69 34.5l46-120q-38-28-92-44T314-8q-87 0-151 32t-98 91.5T31 256q0 77 32.5 137.5t90 94.5T285 522q72 0 126-32t83-91.5T523 260v-24zm-317 84h162q-10 78-78 78-67 0-84-78zm58 431V599H104v152h160zm201 0V599H305v152h160z"/><glyph glyph-name="igrave" unicode="ì" horiz-adv-x="289" d="M54 508h181V0H54v508zM-72 781h172l98-208H89z"/><glyph glyph-name="iacute" unicode="í" horiz-adv-x="289" d="M54 508h181V0H54v508zm35 65 98 208h172L198 573H89z"/><glyph glyph-name="icircumflex" unicode="î" horiz-adv-x="289" d="M54 508h181V0H54v508zm-99 65L91 781h105l136-208H196l-52 106-53-106H-45z"/><glyph glyph-name="idieresis" unicode="ï" horiz-adv-x="289" d="M54 508h181V0H54v508zm69 243V599H-37v152h160zm201 0V599H164v152h160z"/><glyph glyph-name="eth" unicode="ð" horiz-adv-x="627" d="M574.5 442.5Q596 376 596 310q0-151-77-234.5T302-8q-79 0-140.5 30t-96 84.5T31 232q0 69 32.5 123t90 84.5T284 470q80 0 129-38-18 53-56 96l-186-47-24 89 111 28q-54 24-109 28l39 123q146-16 253-106l127 32 21-89-78-19q42-58 63.5-124.5zM383 154q25 27 25 78 0 107-98 107-100 0-100-107 0-105 100-105 48 0 73 27z"/><glyph glyph-name="ntilde" unicode="ñ" horiz-adv-x="624" d="M528.5 467.5Q573 413 573 303V0H392v295q0 47-16 67.5T326 383q-41 0-66-27.5T235 283V0H54v362q0 82-8 146h170l9-75q29 43 72 66t97 23q90 0 134.5-54.5zM166 719.5q33 39.5 84 39.5 17 0 33-6.5t40-20.5q19-11 32-17t25-6q17 0 28 12t14 35h72q0-81-33-120.5T377 596q-17 0-33 6.5T304 623q-19 11-32 17t-25 6q-17 0-28-12t-14-35h-72q0 81 33 120.5z"/><glyph glyph-name="ograve" unicode="ò" horiz-adv-x="618" d="M162 24q-63 32-97 92T31 257t34 141 97 92 148 32q84 0 146.5-32.5t96.5-92T587 257t-34-140.5-96.5-92T310-8q-85 0-148 32zm246 233q0 66-24.5 97.5T310 386q-50 0-75-31.5T210 257q0-67 25-98.5t75-31.5q98 0 98 130zM94 781h172l98-208H255z"/><glyph glyph-name="oacute" unicode="ó" horiz-adv-x="618" d="M162 24q-63 32-97 92T31 257t34 141 97 92 148 32q84 0 146.5-32.5t96.5-92T587 257t-34-140.5-96.5-92T310-8q-85 0-148 32zm246 233q0 66-24.5 97.5T310 386q-50 0-75-31.5T210 257q0-67 25-98.5t75-31.5q98 0 98 130zM255 573l98 208h172L364 573H255z"/><glyph glyph-name="ocircumflex" unicode="ô" horiz-adv-x="618" d="M162 24q-63 32-97 92T31 257t34 141 97 92 148 32q84 0 146.5-32.5t96.5-92T587 257t-34-140.5-96.5-92T310-8q-85 0-148 32zm246 233q0 66-24.5 97.5T310 386q-50 0-75-31.5T210 257q0-67 25-98.5t75-31.5q98 0 98 130zM121 573l136 208h105l136-208H362l-52 106-53-106H121z"/><glyph glyph-name="otilde" unicode="õ" horiz-adv-x="618" d="M162 24q-63 32-97 92T31 257t34 141 97 92 148 32q84 0 146.5-32.5t96.5-92T587 257t-34-140.5-96.5-92T310-8q-85 0-148 32zm246 233q0 66-24.5 97.5T310 386q-50 0-75-31.5T210 257q0-67 25-98.5t75-31.5q98 0 98 130zM162 719.5q33 39.5 84 39.5 17 0 33-6.5t40-20.5q19-11 32-17t25-6q17 0 28 12t14 35h72q0-81-33-120.5T373 596q-17 0-33 6.5T300 623q-19 11-32 17t-25 6q-17 0-28-12t-14-35h-72q0 81 33 120.5z"/><glyph glyph-name="odieresis" unicode="ö" horiz-adv-x="618" d="M162 24q-63 32-97 92T31 257t34 141 97 92 148 32q84 0 146.5-32.5t96.5-92T587 257t-34-140.5-96.5-92T310-8q-85 0-148 32zm246 233q0 66-24.5 97.5T310 386q-50 0-75-31.5T210 257q0-67 25-98.5t75-31.5q98 0 98 130zM289 751V599H129v152h160zm201 0V599H330v152h160z"/><glyph glyph-name="divide" unicode="÷" horiz-adv-x="600" d="M229 544h130V414H229v130zm317-314H54v121h492V230zm-317-70h130V29H229v131z"/><glyph glyph-name="oslash" unicode="ø" horiz-adv-x="618" d="M561.5 381Q587 327 587 257q0-81-34-140.5t-96.5-92T310-8q-51 0-93 12l-44-75-81 48 39 66q-48 35-74 89.5T31 257q0 81 34 141t97 92 148 32q50 0 93-12l42 73 82-48-38-65q47-35 72.5-89zM215 189l116 198q-7 1-21 1-52 0-78-32t-26-99q0-41 9-68zm171.5-31.5Q412 189 412 257q0 39-9 66L289 127q7-1 21-1 51 0 76.5 31.5z"/><glyph glyph-name="ugrave" unicode="ù" horiz-adv-x="619" d="M565 508V0H388v68Q339-8 243-8 146-8 98.5 46T51 211v297h181V206q0-75 65-75 38 0 61.5 27t23.5 72v278h183zM93 781h172l98-208H254z"/><glyph glyph-name="uacute" unicode="ú" horiz-adv-x="619" d="M565 508V0H388v68Q339-8 243-8 146-8 98.5 46T51 211v297h181V206q0-75 65-75 38 0 61.5 27t23.5 72v278h183zm-311 65 98 208h172L363 573H254z"/><glyph glyph-name="ucircumflex" unicode="û" horiz-adv-x="619" d="M565 508V0H388v68Q339-8 243-8 146-8 98.5 46T51 211v297h181V206q0-75 65-75 38 0 61.5 27t23.5 72v278h183zm-445 65 136 208h105l136-208H361l-52 106-53-106H120z"/><glyph glyph-name="udieresis" unicode="ü" horiz-adv-x="619" d="M565 508V0H388v68Q339-8 243-8 146-8 98.5 46T51 211v297h181V206q0-75 65-75 38 0 61.5 27t23.5 72v278h183zM288 751V599H128v152h160zm201 0V599H329v152h160z"/><glyph glyph-name="yacute" unicode="ý" horiz-adv-x="559" d="M579 508 346-18q-46-103-115.5-150.5T59-228L17-90q70 14 105 36t53 61l13 28-207 473h188l114-293 118 293h178zm-355 65 98 208h172L333 573H224z"/><glyph glyph-name="thorn" unicode="þ" horiz-adv-x="645" d="M505.5 487.5q51.5-34.5 80-95.5T614 253q0-77-28.5-136.5t-79.5-92T389-8q-50 0-91 19.5T235 66v-282H54v952h181V446q22 35 63 55.5t91 20.5q65 0 116.5-34.5zm-98-328.5q25.5 32 25.5 94 0 64-26 98t-73 34q-49 0-75-33t-26-97q0-62 26-95t75-33q48 0 73.5 32z"/><glyph glyph-name="ydieresis" unicode="ÿ" horiz-adv-x="559" d="M579 508 346-18q-46-103-115.5-150.5T59-228L17-90q70 14 105 36t53 61l13 28-207 473h188l114-293 118 293h178zM258 751V599H98v152h160zm201 0V599H299v152h160z"/><glyph glyph-name="Amacron" unicode="Ā" horiz-adv-x="769" d="M544 147H228L165 0H-23l333 712h148L792 0H607zm-61 141-97 225-97-225h194zM223 906h321V798H223v108z"/><glyph glyph-name="amacron" unicode="ā" horiz-adv-x="643" d="M589 508V0H411v69q-22-36-64-56.5T255-8q-65 0-116 32t-79.5 91.5T31 253q0 79 29 140t80 95 115 34q50 0 91.5-21.5T411 443v65h178zM385 160q26 33 26 95 0 63-26 96.5T311 385q-47 0-74-34.5T210 253q0-61 26-93.5t75-32.5q48 0 74 33zM160 729h321V621H160v108z"/><glyph glyph-name="Abreve" unicode="Ă" horiz-adv-x="769" d="M544 147H228L165 0H-23l333 712h148L792 0H607zm-61 141-97 225-97-225h194zM265 810q-49 29-67 82l77 33q30-41 109-41 78 0 108 41l77-33q-18-53-67-82t-118-29q-70 0-119 29z"/><glyph glyph-name="abreve" unicode="ă" horiz-adv-x="643" d="M589 508V0H411v69q-22-36-64-56.5T255-8q-65 0-116 32t-79.5 91.5T31 253q0 79 29 140t80 95 115 34q50 0 91.5-21.5T411 443v65h178zM385 160q26 33 26 95 0 63-26 96.5T311 385q-47 0-74-34.5T210 253q0-61 26-93.5t75-32.5q48 0 74 33zM196 632.5Q141 672 125 746l77 34q45-77 119-77 73 0 118 77l77-34q-16-74-71-113.5T321 593q-70 0-125 39.5z"/><glyph glyph-name="Aogonek" unicode="Ą" horiz-adv-x="769" d="m768-100 18-81q-50-19-108-19-57 0-95 30.5T545-88q0 31 14.5 58T600 17l-56 130H228L165 0H-23l333 712h148L792 0h-65q-31 0-51-17t-20-44q0-25 15-37.5t43-12.5q24 0 54 11zM483 288l-97 225-97-225h194z"/><glyph glyph-name="aogonek" unicode="ą" horiz-adv-x="643" d="M627-185q-53-21-110-21-58 0-96 33.5T383-87q0 51 36 87h-8v69q-22-36-64-56.5T255-8q-66 0-117 32.5T59 116 31 253t28.5 139 79.5 95.5T255 522q50 0 91.5-21.5T411 443v65h178V0h-10q-38 0-61.5-17.5T494-63q0-25 15.5-38.5T554-115q25 0 55 12zM385 160q26 33 26 95 0 63-26 96.5T311 385q-47 0-74-34.5T210 253q0-61 26-93.5t75-32.5q48 0 74 33z"/><glyph glyph-name="Cacute" unicode="Ć" horiz-adv-x="685" d="M216.5 36.5Q134 82 89.5 165T45 357q0 108 44.5 190.5t127 128T410 721q70 0 135.5-21T651 643l-57-133q-87 63-180 63-86 0-132-54.5T236 357q0-108 46-163t132-55q93 0 180 63l57-133q-40-36-105.5-57T410-9Q299-9 216.5 36.5zM347 773l104 158h162L456 773H347z"/><glyph glyph-name="cacute" unicode="ć" horiz-adv-x="515" d="M104 62q-73 70-73 191 0 80 35.5 141t99.5 94.5T314 522q56 0 110-16.5t86-44.5l-46-125q-27 22-63 35t-69 13q-56 0-86-32t-30-95q0-64 30-96.5t87-32.5q33 0 68.5 13t62.5 35l46-123q-33-29-87.5-45T306-8Q177-8 104 62zm150 511 98 208h172L363 573H254z"/><glyph glyph-name="Ccircumflex" unicode="Ĉ" horiz-adv-x="685" d="M216.5 36.5Q134 82 89.5 165T45 357q0 108 44.5 190.5t127 128T410 721q70 0 135.5-21T651 643l-57-133q-87 63-180 63-86 0-132-54.5T236 357q0-108 46-163t132-55q93 0 180 63l57-133q-40-36-105.5-57T410-9Q299-9 216.5 36.5zM213 773l139 158h99l139-158H459l-57 78-58-78H213z"/><glyph glyph-name="ccircumflex" unicode="ĉ" horiz-adv-x="515" d="M104 62q-73 70-73 191 0 80 35.5 141t99.5 94.5T314 522q56 0 110-16.5t86-44.5l-46-125q-27 22-63 35t-69 13q-56 0-86-32t-30-95q0-64 30-96.5t87-32.5q33 0 68.5 13t62.5 35l46-123q-33-29-87.5-45T306-8Q177-8 104 62zm16 511 136 208h105l136-208H361l-52 106-53-106H120z"/><glyph glyph-name="Cdotaccent" unicode="Ċ" horiz-adv-x="685" d="M216.5 36.5Q134 82 89.5 165T45 357q0 108 44.5 190.5t127 128T410 721q70 0 135.5-21T651 643l-57-133q-87 63-180 63-86 0-132-54.5T236 357q0-108 46-163t132-55q93 0 180 63l57-133q-40-36-105.5-57T410-9Q299-9 216.5 36.5zM496 934V771H307v163h189z"/><glyph glyph-name="cdotaccent" unicode="ċ" horiz-adv-x="515" d="M104 62q-73 70-73 191 0 80 35.5 141t99.5 94.5T314 522q56 0 110-16.5t86-44.5l-46-125q-27 22-63 35t-69 13q-56 0-86-32t-30-95q0-64 30-96.5t87-32.5q33 0 68.5 13t62.5 35l46-123q-33-29-87.5-45T306-8Q177-8 104 62zm299 695V594H214v163h189z"/><glyph glyph-name="Ccaron" unicode="Č" horiz-adv-x="685" d="M216.5 36.5Q134 82 89.5 165T45 357q0 108 44.5 190.5t127 128T410 721q70 0 135.5-21T651 643l-57-133q-87 63-180 63-86 0-132-54.5T236 357q0-108 46-163t132-55q93 0 180 63l57-133q-40-36-105.5-57T410-9Q299-9 216.5 36.5zM590 931 451 773h-99L213 931h131l58-79 57 79h131z"/><glyph glyph-name="ccaron" unicode="č" horiz-adv-x="515" d="M104 62q-73 70-73 191 0 80 35.5 141t99.5 94.5T314 522q56 0 110-16.5t86-44.5l-46-125q-27 22-63 35t-69 13q-56 0-86-32t-30-95q0-64 30-96.5t87-32.5q33 0 68.5 13t62.5 35l46-123q-33-29-87.5-45T306-8Q177-8 104 62zm393 719L361 573H256L120 781h136l53-107 52 107h136z"/><glyph glyph-name="Dcaron" unicode="Ď" horiz-adv-x="781" d="M64 712h291q118 0 203.5-42.5t131-122.5T735 357q0-111-45-191.5t-130.5-123T355 0H64v712zm278-562q104 0 155.5 51.5T549 357q0 205-207 205h-90V150h90zm236 781L439 773h-99L201 931h131l58-79 57 79h131z"/><glyph glyph-name="dcaron" unicode="ď" horiz-adv-x="643" d="M408 736h181V0H411v69q-22-36-64-56.5T255-8q-65 0-116 33.5t-79.5 94T31 259q0 78 28.5 138t79.5 92.5T255 522q48 0 88.5-20t64.5-54v288zm292 0-27-201h-59v201h86zM385 160.5q26 33.5 26 96.5 0 61-26.5 94.5T311 385q-49 0-75-32.5T210 259q0-63 26.5-97.5T311 127t74 33.5z"/><glyph glyph-name="Dcroat" unicode="Đ" horiz-adv-x="818" d="M596 669.5Q681 627 726.5 547T772 357q0-111-45-191.5t-130.5-123T393 0H101v289H17v140h84v283h292q118 0 203-42.5zm-62-468Q585 253 585 357q0 205-206 205h-90V429h184V289H289V150h90q104 0 155 51.5z"/><glyph glyph-name="dcroat" unicode="đ" horiz-adv-x="643" d="M676 550h-87V0H411v69q-22-36-64-56.5T255-8q-65 0-116 33.5t-79.5 94T31 259q0 78 28.5 138t79.5 92.5T255 522q48 0 88.5-20t64.5-54v102H220v124h188v62h181v-62h87V550zM385 160.5q26 33.5 26 96.5 0 61-26.5 94.5T311 385q-49 0-75-32.5T210 259q0-63 26.5-97.5T311 127t74 33.5z"/><glyph glyph-name="Emacron" unicode="Ē" horiz-adv-x="604" d="M64 712h508V568H247V434h304V290H247V144h325V0H64v712zm111 194h321V798H175v108z"/><glyph glyph-name="emacron" unicode="ē" horiz-adv-x="553" d="M523 236H204q5-59 34-85t85-26q38 0 76 12.5t69 34.5l46-120q-38-28-92-44T314-8q-87 0-151 32t-98 91.5T31 256q0 77 32.5 137.5t90 94.5T285 522q72 0 126-32t83-91.5T523 260v-24zm-317 84h162q-10 78-78 78-67 0-84-78zm-82 409h321V621H124v108z"/><glyph glyph-name="Ebreve" unicode="Ĕ" horiz-adv-x="604" d="M64 712h508V568H247V434h304V290H247V144h325V0H64v712zm153 98q-49 29-67 82l77 33q30-41 109-41 78 0 108 41l77-33q-18-53-67-82t-118-29q-70 0-119 29z"/><glyph glyph-name="ebreve" unicode="ĕ" horiz-adv-x="553" d="M523 236H204q5-59 34-85t85-26q38 0 76 12.5t69 34.5l46-120q-38-28-92-44T314-8q-87 0-151 32t-98 91.5T31 256q0 77 32.5 137.5t90 94.5T285 522q72 0 126-32t83-91.5T523 260v-24zm-317 84h162q-10 78-78 78-67 0-84-78zm-46 312.5Q105 672 89 746l77 34q45-77 119-77 73 0 118 77l77-34q-16-74-71-113.5T285 593q-70 0-125 39.5z"/><glyph glyph-name="Edotaccent" unicode="Ė" horiz-adv-x="604" d="M64 712h508V568H247V434h304V290H247V144h325V0H64v712zm366 222V771H241v163h189z"/><glyph glyph-name="edotaccent" unicode="ė" horiz-adv-x="553" d="M523 236H204q5-59 34-85t85-26q38 0 76 12.5t69 34.5l46-120q-38-28-92-44T314-8q-87 0-151 32t-98 91.5T31 256q0 77 32.5 137.5t90 94.5T285 522q72 0 126-32t83-91.5T523 260v-24zm-317 84h162q-10 78-78 78-67 0-84-78zm173 437V594H190v163h189z"/><glyph glyph-name="Eogonek" unicode="Ę" horiz-adv-x="604" d="M613-181q-48-19-107-19t-96 31.5T373-88q0 53 38 88H64v712h508V568H247V434h304V290H247V144h325V0h-25q-28 0-45-16t-17-45q0-50 56-50 25 0 55 11z"/><glyph glyph-name="eogonek" unicode="ę" horiz-adv-x="553" d="M523 236H204q5-59 34-85t85-26q38 0 76 12.5t69 34.5l46-120q-14-12-62-33-38-19-54-37.5T382-63q0-52 59-52 26 0 54 12l17-82q-53-21-108-21-59 0-97 33t-38 83q0 49 35 82-127 3-200 73.5T31 256q0 77 32.5 137.5t90 94.5T285 522q72 0 126-32t83-91.5T523 260v-24zM236 378q-21-20-29-58h161q-10 78-78 78-33 0-54-20z"/><glyph glyph-name="Ecaron" unicode="Ě" horiz-adv-x="604" d="M64 712h508V568H247V434h304V290H247V144h325V0H64v712zm460 219L385 773h-99L147 931h131l58-79 57 79h131z"/><glyph glyph-name="ecaron" unicode="ě" horiz-adv-x="553" d="M523 236H204q5-59 34-85t85-26q38 0 76 12.5t69 34.5l46-120q-38-28-92-44T314-8q-87 0-151 32t-98 91.5T31 256q0 77 32.5 137.5t90 94.5T285 522q72 0 126-32t83-91.5T523 260v-24zm-317 84h162q-10 78-78 78-67 0-84-78zm267 461L337 573H232L96 781h136l53-107 52 107h136z"/><glyph glyph-name="Gcircumflex" unicode="Ĝ" horiz-adv-x="751" d="M696 402V45Q639 19 568.5 5T424-9Q308-9 222.5 35T91 161.5 45 357q0 110 46 192.5t130 127T417 721q77 0 145.5-20T674 646l-59-133q-49 32-94.5 46.5T423 574q-95 0-141.5-53.5T235 357q0-114 48.5-169T433 133q47 0 94 10v132H403v127h293zM228 773l139 158h99l139-158H474l-57 78-58-78H228z"/><glyph glyph-name="gcircumflex" unicode="ĝ" horiz-adv-x="647" d="M595 508V32q0-125-75-190.5T300-224q-124 0-215 44l27 132q45-20 92.5-31.5T294-91q62 0 91.5 26.5T415 18v75q-25-33-67.5-56T257 14q-65 0-116.5 31.5t-80.5 89T31 268q0 75 29 132.5t80.5 89.5T257 522q51 0 93-21t65-57v64h180zM388 180.5q27 31.5 27 87.5 0 54-27 85.5T313 385t-75.5-31-27.5-86 28-87 75-32q48 0 75 31.5zM135 573l136 208h105l136-208H376l-52 106-53-106H135z"/><glyph glyph-name="Gbreve" unicode="Ğ" horiz-adv-x="751" d="M696 402V45Q639 19 568.5 5T424-9Q308-9 222.5 35T91 161.5 45 357q0 110 46 192.5t130 127T417 721q77 0 145.5-20T674 646l-59-133q-49 32-94.5 46.5T423 574q-95 0-141.5-53.5T235 357q0-114 48.5-169T433 133q47 0 94 10v132H403v127h293zM298 810q-49 29-67 82l77 33q30-41 109-41 78 0 108 41l77-33q-18-53-67-82t-118-29q-70 0-119 29z"/><glyph glyph-name="gbreve" unicode="ğ" horiz-adv-x="647" d="M595 508V32q0-125-75-190.5T300-224q-124 0-215 44l27 132q45-20 92.5-31.5T294-91q62 0 91.5 26.5T415 18v75q-25-33-67.5-56T257 14q-65 0-116.5 31.5t-80.5 89T31 268q0 75 29 132.5t80.5 89.5T257 522q51 0 93-21t65-57v64h180zM388 180.5q27 31.5 27 87.5 0 54-27 85.5T313 385t-75.5-31-27.5-86 28-87 75-32q48 0 75 31.5zm-189 452Q144 672 128 746l77 34q45-77 119-77 73 0 118 77l77-34q-16-74-71-113.5T324 593q-70 0-125 39.5z"/><glyph glyph-name="Gdotaccent" unicode="Ġ" horiz-adv-x="751" d="M696 402V45Q639 19 568.5 5T424-9Q308-9 222.5 35T91 161.5 45 357q0 110 46 192.5t130 127T417 721q77 0 145.5-20T674 646l-59-133q-49 32-94.5 46.5T423 574q-95 0-141.5-53.5T235 357q0-114 48.5-169T433 133q47 0 94 10v132H403v127h293zM511 934V771H322v163h189z"/><glyph glyph-name="gdotaccent" unicode="ġ" horiz-adv-x="647" d="M595 508V32q0-125-75-190.5T300-224q-124 0-215 44l27 132q45-20 92.5-31.5T294-91q62 0 91.5 26.5T415 18v75q-25-33-67.5-56T257 14q-65 0-116.5 31.5t-80.5 89T31 268q0 75 29 132.5t80.5 89.5T257 522q51 0 93-21t65-57v64h180zM388 180.5q27 31.5 27 87.5 0 54-27 85.5T313 385t-75.5-31-27.5-86 28-87 75-32q48 0 75 31.5zM418 757V594H229v163h189z"/><glyph glyph-name="Gcommaaccent" unicode="Ģ" horiz-adv-x="751" d="M696 402V45Q639 19 568.5 5T424-9Q308-9 222.5 35T91 161.5 45 357q0 110 46 192.5t130 127T417 721q77 0 145.5-20T674 646l-59-133q-49 32-94.5 46.5T423 574q-95 0-141.5-53.5T235 357q0-114 48.5-169T433 133q47 0 94 10v132H403v127h293zM509-64v-67q0-50-14.5-86T445-284l-62 42q27 24 33 50h-79v128h172z"/><glyph glyph-name="gcommaaccent" unicode="ģ" horiz-adv-x="647" d="M595 508V32q0-125-75-190.5T300-224q-124 0-215 44l27 132q45-20 92.5-31.5T294-91q62 0 91.5 26.5T415 18v75q-25-33-67.5-56T257 14q-65 0-116.5 31.5t-80.5 89T31 268q0 75 29 132.5t80.5 89.5T257 522q51 0 93-21t65-57v64h180zM388 180.5q27 31.5 27 87.5 0 54-27 85.5T313 385t-75.5-31-27.5-86 28-87 75-32q48 0 75 31.5zM409 730V602H237v67q0 50 14.5 87t49.5 67l62-41q-27-26-33-52h79z"/><glyph glyph-name="Hcircumflex" unicode="Ĥ" horiz-adv-x="784" d="M720 712V0H536v288H248V0H64v712h184V435h288v277h184zm-517 61 139 158h99l139-158H449l-57 78-58-78H203z"/><glyph glyph-name="hcircumflex" unicode="ĥ" horiz-adv-x="624" d="M528.5 467.5Q573 413 573 303V0H392v295q0 47-16 67.5T326 383q-41 0-66-27.5T235 283V0H54v736h181V446q59 76 159 76 90 0 134.5-54.5zM-41 797 98 955h99l139-158H205l-57 78-58-78H-41z"/><glyph glyph-name="Hbar" unicode="Ħ" horiz-adv-x="858" d="M840 508h-83V0H573v288H285V0H101v508H17v136h84v68h184v-68h288v68h184v-68h83V508zm-267 0H285v-73h288v73z"/><glyph glyph-name="hbar" unicode="ħ" horiz-adv-x="624" d="M528.5 467.5Q573 413 573 303V0H392v295q0 47-16 67.5T326 383q-41 0-66-27.5T235 283V0H54v550h-85v124h85v62h181v-62h189V550H235V446q59 76 159 76 90 0 134.5-54.5z"/><glyph glyph-name="Itilde" unicode="Ĩ" horiz-adv-x="316" d="M64 712h188V0H64v712zM9 894.5Q42 934 93 934q17 0 33-6.5t40-20.5q19-11 32-17t25-6q17 0 28 12t14 35h72q0-81-33-120.5T220 771q-17 0-33 6.5T147 798q-19 11-32 17t-25 6q-17 0-28-12t-14-35h-72q0 81 33 120.5z"/><glyph glyph-name="itilde" unicode="ĩ" horiz-adv-x="289" d="M54 508h181V0H54v508zM-4 719.5Q29 759 80 759q17 0 33-6.5t40-20.5q19-11 32-17t25-6q17 0 28 12t14 35h72q0-81-33-120.5T207 596q-17 0-33 6.5T134 623q-19 11-32 17t-25 6q-17 0-28-12t-14-35h-72q0 81 33 120.5z"/><glyph glyph-name="Imacron" unicode="Ī" horiz-adv-x="316" d="M64 712h188V0H64v712zM-4 906h321V798H-4v108z"/><glyph glyph-name="imacron" unicode="ī" horiz-adv-x="289" d="M54 508h181V0H54v508zm-71 221h321V621H-17v108z"/><glyph glyph-name="Ibreve" unicode="Ĭ" horiz-adv-x="316" d="M64 712h188V0H64v712zm-26 98q-49 29-67 82l77 33q30-41 109-41 78 0 108 41l77-33q-18-53-67-82t-118-29q-70 0-119 29z"/><glyph glyph-name="ibreve" unicode="ĭ" horiz-adv-x="289" d="M54 508h181V0H54v508zM19 632.5Q-36 672-52 746l77 34q45-77 119-77 73 0 118 77l77-34q-16-74-71-113.5T144 593q-70 0-125 39.5z"/><glyph glyph-name="Iogonek" unicode="Į" horiz-adv-x="316" d="M281-181q-50-19-107-19-58 0-96 31T40-85q0 49 35 85H64v712h188V0h-18q-37 0-59.5-16.5T152-61q0-50 58-50 23 0 53 11z"/><glyph glyph-name="iogonek" unicode="į" horiz-adv-x="289" d="M239 597H51v164h188V597zm32-782q-53-21-108-21-58 0-96.5 32.5T28-87q0 51 36 87H54v508h181V0h-11q-38 0-61-17t-23-46q0-52 59-52 26 0 54 12z"/><glyph glyph-name="Idotaccent" unicode="İ" horiz-adv-x="316" d="M64 712h188V0H64v712zm187 222V771H62v163h189z"/><glyph glyph-name="dotlessi" unicode="ı" horiz-adv-x="289" d="M54 508h181V0H54v508z"/><glyph glyph-name="Jcircumflex" unicode="Ĵ" horiz-adv-x="403" d="M2-29q50-5 73-5 45 0 60 18t15 69v659h188V56q0-126-51-185t-175-59q-49 0-110 9v150zm52 802 139 158h99l139-158H300l-57 78-58-78H54z"/><glyph glyph-name="jcircumflex" unicode="ĵ" horiz-adv-x="289" d="M-20-79q32 0 53 18.5T54-4v512h181V-6q0-103-53.5-161T25-225q-58 0-94 14v139q29-7 49-7zm-26 652L90 781h105l136-208H195l-52 106-53-106H-46z"/><glyph glyph-name="Kcommaaccent" unicode="Ķ" horiz-adv-x="706" d="M537 0 252 323V0H64v712h188V406l277 306h220L434 374 760 0H537zm-97-64v-67q0-50-14.5-86T376-284l-62 42q27 24 33 50h-79v128h172z"/><glyph glyph-name="kcommaaccent" unicode="ķ" horiz-adv-x="598" d="M408 0 235 219V0H54v736h181V296l170 211h214L419 264 627 0H408zm-25-64v-67q0-50-14.5-86T319-284l-62 42q27 24 33 50h-79v128h172z"/><glyph glyph-name="kgreenlandic" unicode="ĸ" horiz-adv-x="598" d="M408 0 235 219V0H54v508h181V296l170 211h214L419 264 627 0H408z"/><glyph glyph-name="Lacute" unicode="Ĺ" horiz-adv-x="579" d="M64 712h188V152h301V0H64v712zm38 61 104 158h162L211 773H102z"/><glyph glyph-name="lacute" unicode="ĺ" horiz-adv-x="289" d="M54 736h181V0H54v736zm35 61 104 158h162L198 797H89z"/><glyph glyph-name="Lcommaaccent" unicode="Ļ" horiz-adv-x="579" d="M64 712h188V152h301V0H64v712zM402-64v-67q0-50-14.5-86T338-284l-62 42q27 24 33 50h-79v128h172z"/><glyph glyph-name="lcommaaccent" unicode="ļ" horiz-adv-x="289" d="M54 736h181V0H54v736zM229-64v-67q0-50-14.5-86T165-284l-62 42q27 24 33 50H57v128h172z"/><glyph glyph-name="Lcaron" unicode="Ľ" horiz-adv-x="579" d="M64 712h188V152h301V0H64v712zm278-197v197h108l-26-197h-82z"/><glyph glyph-name="lcaron" unicode="ľ" horiz-adv-x="289" d="M54 736h181V0H54v736zm205-201v201h85l-26-201h-59z"/><glyph glyph-name="Ldot" unicode="Ŀ" horiz-adv-x="579" d="M64 712h188V152h301V0H64v712zm441-275V276H318v161h187z"/><glyph glyph-name="ldot" unicode="ŀ" horiz-adv-x="427" d="M54 736h181V0H54v736zm395-298V277H262v161h187z"/><glyph glyph-name="Lslash" unicode="Ł" horiz-adv-x="617" d="M591 152V0H101v226l-91-52v157l91 53v328h188V492l183 106V439L289 334V152h302z"/><glyph glyph-name="lslash" unicode="ł" horiz-adv-x="388" d="M284 338V0H103v234l-57-33-66 119 123 72v344h181V497l57 33 67-121z"/><glyph glyph-name="Nacute" unicode="Ń" horiz-adv-x="766" d="M701 712V0H562L239 404V0H64v712h137l323-402v402h177zm-374 61 104 158h162L436 773H327z"/><glyph glyph-name="nacute" unicode="ń" horiz-adv-x="624" d="M528.5 467.5Q573 413 573 303V0H392v295q0 47-16 67.5T326 383q-41 0-66-27.5T235 283V0H54v362q0 82-8 146h170l9-75q29 43 72 66t97 23q90 0 134.5-54.5zM259 573l98 208h172L368 573H259z"/><glyph glyph-name="Ncommaaccent" unicode="Ņ" horiz-adv-x="766" d="M701 712V0H562L239 404V0H64v712h137l323-402v402h177zM468-64v-67q0-50-14.5-86T404-284l-62 42q27 24 33 50h-79v128h172z"/><glyph glyph-name="ncommaaccent" unicode="ņ" horiz-adv-x="624" d="M528.5 467.5Q573 413 573 303V0H392v295q0 47-16 67.5T326 383q-41 0-66-27.5T235 283V0H54v362q0 82-8 146h170l9-75q29 43 72 66t97 23q90 0 134.5-54.5zM399-64v-67q0-50-14.5-86T335-284l-62 42q27 24 33 50h-79v128h172z"/><glyph glyph-name="Ncaron" unicode="Ň" horiz-adv-x="766" d="M701 712V0H562L239 404V0H64v712h137l323-402v402h177zM570 931 431 773h-99L193 931h131l58-79 57 79h131z"/><glyph glyph-name="ncaron" unicode="ň" horiz-adv-x="624" d="M528.5 467.5Q573 413 573 303V0H392v295q0 47-16 67.5T326 383q-41 0-66-27.5T235 283V0H54v362q0 82-8 146h170l9-75q29 43 72 66t97 23q90 0 134.5-54.5zM502 781 366 573H261L125 781h136l53-107 52 107h136z"/><glyph glyph-name="napostrophe" unicode="ŉ" horiz-adv-x="624" d="M235 770v-68q0-50-14.5-86.5T171 548l-62 43q25 23 33 50H63v129h172zm293.5-302.5Q573 413 573 303V0H392v295q0 47-16 67.5T326 383q-41 0-66-27.5T235 283V0H54v362q0 82-8 146h170l9-75q29 43 72 66t97 23q90 0 134.5-54.5z"/><glyph glyph-name="Eng" unicode="Ŋ" horiz-adv-x="766" d="M701 712V39q0-212-225-224l-104-5-12 139 82 5q38 1 59.5 23T523 33v17L239 404V0H64v712h137l323-402v402h177z"/><glyph glyph-name="eng" unicode="ŋ" horiz-adv-x="624" d="M528.5 467.5Q573 413 573 303V15q0-117-52-178.5T365-225q-53 0-97 10v143q28-7 49-7 75 0 75 95v279q0 47-16 67.5T326 383q-41 0-66-27.5T235 283V0H54v362q0 82-8 146h170l9-75q29 43 72 66t97 23q90 0 134.5-54.5z"/><glyph glyph-name="Omacron" unicode="Ō" horiz-adv-x="805" d="M213 35.5Q132 80 88.5 163T45 357t44 193 124.5 126.5T403 721t189.5-44.5T716 550t43-193-43-194T592.5 35.5 403-9 213 35.5zM528.5 191Q574 248 574 357q0 108-45.5 164.5T403 578t-125-56-45-165q0-110 45-166.5T403 134t125.5 57zM241 906h321V798H241v108z"/><glyph glyph-name="omacron" unicode="ō" horiz-adv-x="618" d="M162 24q-63 32-97 92T31 257t34 141 97 92 148 32q84 0 146.5-32.5t96.5-92T587 257t-34-140.5-96.5-92T310-8q-85 0-148 32zm246 233q0 66-24.5 97.5T310 386q-50 0-75-31.5T210 257q0-67 25-98.5t75-31.5q98 0 98 130zM149 729h321V621H149v108z"/><glyph glyph-name="Obreve" unicode="Ŏ" horiz-adv-x="805" d="M213 35.5Q132 80 88.5 163T45 357t44 193 124.5 126.5T403 721t189.5-44.5T716 550t43-193-43-194T592.5 35.5 403-9 213 35.5zM528.5 191Q574 248 574 357q0 108-45.5 164.5T403 578t-125-56-45-165q0-110 45-166.5T403 134t125.5 57zM283 810q-49 29-67 82l77 33q30-41 109-41 78 0 108 41l77-33q-18-53-67-82t-118-29q-70 0-119 29z"/><glyph glyph-name="obreve" unicode="ŏ" horiz-adv-x="618" d="M162 24q-63 32-97 92T31 257t34 141 97 92 148 32q84 0 146.5-32.5t96.5-92T587 257t-34-140.5-96.5-92T310-8q-85 0-148 32zm246 233q0 66-24.5 97.5T310 386q-50 0-75-31.5T210 257q0-67 25-98.5t75-31.5q98 0 98 130zM185 632.5Q130 672 114 746l77 34q45-77 119-77 73 0 118 77l77-34q-16-74-71-113.5T310 593q-70 0-125 39.5z"/><glyph glyph-name="Ohungarumlaut" unicode="Ő" horiz-adv-x="805" d="M213 35.5Q132 80 88.5 163T45 357t44 193 124.5 126.5T403 721t189.5-44.5T716 550t43-193-43-194T592.5 35.5 403-9 213 35.5zM528.5 191Q574 248 574 357q0 108-45.5 164.5T403 578t-125-56-45-165q0-110 45-166.5T403 134t125.5 57zM358 931h115L371 773h-88zm149 0h114L520 773h-88z"/><glyph glyph-name="ohungarumlaut" unicode="ő" horiz-adv-x="618" d="M162 24q-63 32-97 92T31 257t34 141 97 92 148 32q84 0 146.5-32.5t96.5-92T587 257t-34-140.5-96.5-92T310-8q-85 0-148 32zm246 233q0 66-24.5 97.5T310 386q-50 0-75-31.5T210 257q0-67 25-98.5t75-31.5q98 0 98 130zM198 573l30 208h124l-79-208h-75zm148 0 29 208h124l-78-208h-75z"/><glyph glyph-name="OE" unicode="Œ" horiz-adv-x="1053" d="M697 568V434h305V290H697V144h325V0H526v32Q474-9 379-9q-96 0-172 47T88 168 45 357q0 104 43 187t119 130 172 47 147-39v30h496V568H697zM277 191.5Q321 134 403 134q69 0 111 27v390q-42 27-111 27-82 0-126-57t-44-164q0-108 44-165.5z"/><glyph glyph-name="oe" unicode="œ" horiz-adv-x="928" d="M897 219H586q7-50 32-72t72-22q41 0 80 12t71 35l47-120q-38-28-91.5-44T688-8Q560-8 495 68q-32-37-81-56.5T305-8q-83 0-145 32.5T64.5 117 31 257t33.5 140 95.5 92.5T305 522q61 0 110-20t82-58q32 38 77 58t101 20q64 0 114.5-33.5t79-93T897 260v-41zM611.5 374.5Q590 351 585 305h159q-3 45-22 69t-52 24q-37 0-58.5-23.5zM379 158.5q24 31.5 24 98.5t-24 98-72 31q-97 0-97-129 0-130 97-130 48 0 72 31.5z"/><glyph glyph-name="Racute" unicode="Ŕ" horiz-adv-x="714" d="M683 0H484l-92 237q-16 40-75 40h-68V0H64v712h331q129 0 194-55.5T654 498q0-72-38.5-124.5T507 299q30-6 54-28t38-59zM452 435.5q27 18.5 27 57.5 0 41-26.5 59T365 570H247V417h118q60 0 87 18.5zM306 773l104 158h162L415 773H306z"/><glyph glyph-name="racute" unicode="ŕ" horiz-adv-x="430" d="M432 509V344q-43 20-83 20-114 0-114-109V0H54v362q0 82-8 146h170l11-85q18 47 58 72t90 25q37 0 57-11zm-238 64 98 208h172L303 573H194z"/><glyph glyph-name="Rcommaaccent" unicode="Ŗ" horiz-adv-x="714" d="M683 0H484l-92 237q-16 40-75 40h-68V0H64v712h331q129 0 194-55.5T654 498q0-72-38.5-124.5T507 299q30-6 54-28t38-59zM452 435.5q27 18.5 27 57.5 0 41-26.5 59T365 570H247V417h118q60 0 87 18.5zM447-64v-67q0-50-14.5-86T383-284l-62 42q27 24 33 50h-79v128h172z"/><glyph glyph-name="rcommaaccent" unicode="ŗ" horiz-adv-x="430" d="M432 509V344q-43 20-83 20-114 0-114-109V0H54v362q0 82-8 146h170l11-85q18 47 58 72t90 25q37 0 57-11zM229-64v-67q0-50-14.5-86T165-284l-62 42q27 24 33 50H57v128h172z"/><glyph glyph-name="Rcaron" unicode="Ř" horiz-adv-x="714" d="M683 0H484l-92 237q-16 40-75 40h-68V0H64v712h331q129 0 194-55.5T654 498q0-72-38.5-124.5T507 299q30-6 54-28t38-59zM452 435.5q27 18.5 27 57.5 0 41-26.5 59T365 570H247V417h118q60 0 87 18.5zM549 931 410 773h-99L172 931h131l58-79 57 79h131z"/><glyph glyph-name="rcaron" unicode="ř" horiz-adv-x="430" d="M432 509V344q-43 20-83 20-114 0-114-109V0H54v362q0 82-8 146h170l11-85q18 47 58 72t90 25q37 0 57-11zm5 272L301 573H196L60 781h136l53-107 52 107h136z"/><glyph glyph-name="Sacute" unicode="Ś" horiz-adv-x="672" d="M164 12Q86 33 37 69l59 133q52-33 110.5-50.5T324 134q60 0 92 16.5t32 46.5q0 27-29 44.5T310 276q-101 20-157 49.5T74.5 395 52 492q0 65 37 117.5t104 82T346 721q77 0 149.5-21.5T609 643l-58-133q-47 33-99 50.5T348 578q-51 0-82-19.5T235 506q0-18 11-30t41-23.5 90-24.5q97-21 152.5-50.5t78.5-69 23-94.5q0-104-81-163.5T322-9q-80 0-158 21zm121 761 104 158h162L394 773H285z"/><glyph glyph-name="sacute" unicode="ś" horiz-adv-x="507" d="m19 53 46 123q41-28 93-43.5T260 117q31 0 48 9t17 25q0 14-12.5 22.5T265 189l-82 19q-78 16-112.5 50.5T36 354q0 49 29 87t80.5 59.5T264 522q55 0 108-16t99-45l-48-120q-40 26-82 40t-79 14q-30 0-47-9.5T198 358q0-11 10-17.5t38-13.5l85-19q81-19 116.5-55.5T483 153q0-75-59.5-118T259-8Q107-8 19 53zm188 520 98 208h172L316 573H207z"/><glyph glyph-name="Scircumflex" unicode="Ŝ" horiz-adv-x="672" d="M164 12Q86 33 37 69l59 133q52-33 110.5-50.5T324 134q60 0 92 16.5t32 46.5q0 27-29 44.5T310 276q-101 20-157 49.5T74.5 395 52 492q0 65 37 117.5t104 82T346 721q77 0 149.5-21.5T609 643l-58-133q-47 33-99 50.5T348 578q-51 0-82-19.5T235 506q0-18 11-30t41-23.5 90-24.5q97-21 152.5-50.5t78.5-69 23-94.5q0-104-81-163.5T322-9q-80 0-158 21zm-13 761 139 158h99l139-158H397l-57 78-58-78H151z"/><glyph glyph-name="scircumflex" unicode="ŝ" horiz-adv-x="507" d="m19 53 46 123q41-28 93-43.5T260 117q31 0 48 9t17 25q0 14-12.5 22.5T265 189l-82 19q-78 16-112.5 50.5T36 354q0 49 29 87t80.5 59.5T264 522q55 0 108-16t99-45l-48-120q-40 26-82 40t-79 14q-30 0-47-9.5T198 358q0-11 10-17.5t38-13.5l85-19q81-19 116.5-55.5T483 153q0-75-59.5-118T259-8Q107-8 19 53zm54 520 136 208h105l136-208H314l-52 106-53-106H73z"/><glyph glyph-name="Scedilla" unicode="Ş" horiz-adv-x="672" d="M561.5 59.5Q492 1 366-8l-5-32h8q41 0 64-19t23-51q0-41-37-65.5T312-200q-22 0-48.5 4.5T215-183l11 65q54-14 80-14 43 0 43 22 0 17-32 17-12 0-32-5l-20 22 9 69q-68 5-132 25.5T37 69l59 133q52-33 110.5-50.5T324 134q60 0 92 16.5t32 46.5q0 27-29 44.5T310 276q-101 20-157 49.5T74.5 395 52 492q0 65 37 117.5t104 82T346 721q77 0 149.5-21.5T609 643l-58-133q-47 33-99 50.5T348 578q-51 0-82-19.5T235 506q0-18 11-30t41-23.5 90-24.5q97-21 152.5-50.5t78.5-69 23-94.5q0-96-69.5-154.5z"/><glyph glyph-name="scedilla" unicode="ş" horiz-adv-x="507" d="M431.5 41Q380-1 288-7l-5-33h8q41 0 64-19t23-51q0-41-37-65.5T234-200q-22 0-48.5 4.5T137-183l11 65q54-14 80-14 43 0 43 22 0 17-32 17-12 0-32-5l-20 22 10 71Q88 6 19 53l46 123q41-28 93-43.5T260 117q31 0 48 9t17 25q0 14-12.5 22.5T265 189l-82 19q-78 16-112.5 50.5T36 354q0 49 29 87t80.5 59.5T264 522q55 0 108-16t99-45l-48-120q-40 26-82 40t-79 14q-30 0-47-9.5T198 358q0-11 10-17.5t38-13.5l85-19q81-19 116.5-55.5T483 153q0-70-51.5-112z"/><glyph glyph-name="Scaron" unicode="Š" horiz-adv-x="672" d="M164 12Q86 33 37 69l59 133q52-33 110.5-50.5T324 134q60 0 92 16.5t32 46.5q0 27-29 44.5T310 276q-101 20-157 49.5T74.5 395 52 492q0 65 37 117.5t104 82T346 721q77 0 149.5-21.5T609 643l-58-133q-47 33-99 50.5T348 578q-51 0-82-19.5T235 506q0-18 11-30t41-23.5 90-24.5q97-21 152.5-50.5t78.5-69 23-94.5q0-104-81-163.5T322-9q-80 0-158 21zm364 919L389 773h-99L151 931h131l58-79 57 79h131z"/><glyph glyph-name="scaron" unicode="š" horiz-adv-x="507" d="m19 53 46 123q41-28 93-43.5T260 117q31 0 48 9t17 25q0 14-12.5 22.5T265 189l-82 19q-78 16-112.5 50.5T36 354q0 49 29 87t80.5 59.5T264 522q55 0 108-16t99-45l-48-120q-40 26-82 40t-79 14q-30 0-47-9.5T198 358q0-11 10-17.5t38-13.5l85-19q81-19 116.5-55.5T483 153q0-75-59.5-118T259-8Q107-8 19 53zm431 728L314 573H209L73 781h136l53-107 52 107h136z"/><glyph glyph-name="uni0162" unicode="Ţ" horiz-adv-x="638" d="m354 0-6-40h8q41 0 64-19t23-51q0-41-37-65.5T299-200q-22 0-48.5 4.5T202-183l11 65q54-14 80-14 43 0 43 22 0 17-32 17-12 0-32-5l-20 22 10 76h-38v560H12v152h614V560H414V0h-60z"/><glyph glyph-name="uni0163" unicode="ţ" horiz-adv-x="416" d="m295-8-5-32h8q41 0 64-19t23-51q0-41-37-65.5T241-200q-22 0-48.5 4.5T144-183l11 65q54-14 80-14 43 0 43 22 0 17-32 17-12 0-32-5l-20 22 12 87q-54 25-81 76T98 211v164H3v133h95v115l181 58V508h122V375H279V211q0-36 21.5-54.5T354 138q18 0 48 6V7Q365-8 308-8h-13z"/><glyph glyph-name="Tcaron" unicode="Ť" horiz-adv-x="638" d="M224 560H12v152h614V560H414V0H224v560zm283 371L368 773h-99L130 931h131l58-79 57 79h131z"/><glyph glyph-name="tcaron" unicode="ť" horiz-adv-x="416" d="m448 714-32-178H314v178h134zM300.5 156.5Q322 138 354 138q18 0 48 6V7Q365-8 308-8 205-8 151.5 50T98 211v164H3v133h95v115l181 58V508h122V375H279V211q0-36 21.5-54.5z"/><glyph glyph-name="Tbar" unicode="Ŧ" horiz-adv-x="638" d="M414 560V429h133V289H414V0H224v289H91v140h133v131H12v152h614V560H414z"/><glyph glyph-name="tbar" unicode="ŧ" horiz-adv-x="427" d="M408 144V7Q371-8 313-8 210-8 156.5 50T103 211v13H29v125h74v26H8v133h95v115l183 58V508h121V375H286v-26h100V224H286v-13q0-36 20.5-54.5T359 138q18 0 49 6z"/><glyph glyph-name="Utilde" unicode="Ũ" horiz-adv-x="752" d="M141 69.5Q61 148 61 300v412h183V293q0-77 34.5-118t98.5-41q63 0 97 41.5T508 293v419h185V300q0-150-81.5-229.5T377-9Q221-9 141 69.5zm88 825q33 39.5 84 39.5 17 0 33-6.5t40-20.5q19-11 32-17t25-6q17 0 28 12t14 35h72q0-81-33-120.5T440 771q-17 0-33 6.5T367 798q-19 11-32 17t-25 6q-17 0-28-12t-14-35h-72q0 81 33 120.5z"/><glyph glyph-name="utilde" unicode="ũ" horiz-adv-x="619" d="M565 508V0H388v68Q339-8 243-8 146-8 98.5 46T51 211v297h181V206q0-75 65-75 38 0 61.5 27t23.5 72v278h183zM161 719.5q33 39.5 84 39.5 17 0 33-6.5t40-20.5q19-11 32-17t25-6q17 0 28 12t14 35h72q0-81-33-120.5T372 596q-17 0-33 6.5T299 623q-19 11-32 17t-25 6q-17 0-28-12t-14-35h-72q0 81 33 120.5z"/><glyph glyph-name="Umacron" unicode="Ū" horiz-adv-x="752" d="M141 69.5Q61 148 61 300v412h183V293q0-77 34.5-118t98.5-41q63 0 97 41.5T508 293v419h185V300q0-150-81.5-229.5T377-9Q221-9 141 69.5zM216 906h321V798H216v108z"/><glyph glyph-name="umacron" unicode="ū" horiz-adv-x="619" d="M565 508V0H388v68Q339-8 243-8 146-8 98.5 46T51 211v297h181V206q0-75 65-75 38 0 61.5 27t23.5 72v278h183zM148 729h321V621H148v108z"/><glyph glyph-name="Ubreve" unicode="Ŭ" horiz-adv-x="752" d="M141 69.5Q61 148 61 300v412h183V293q0-77 34.5-118t98.5-41q63 0 97 41.5T508 293v419h185V300q0-150-81.5-229.5T377-9Q221-9 141 69.5zM258 810q-49 29-67 82l77 33q30-41 109-41 78 0 108 41l77-33q-18-53-67-82t-118-29q-70 0-119 29z"/><glyph glyph-name="ubreve" unicode="ŭ" horiz-adv-x="619" d="M565 508V0H388v68Q339-8 243-8 146-8 98.5 46T51 211v297h181V206q0-75 65-75 38 0 61.5 27t23.5 72v278h183zM184 632.5Q129 672 113 746l77 34q45-77 119-77 73 0 118 77l77-34q-16-74-71-113.5T309 593q-70 0-125 39.5z"/><glyph glyph-name="Uring" unicode="Ů" horiz-adv-x="752" d="M141 69.5Q61 148 61 300v412h183V293q0-77 34.5-118t98.5-41q63 0 97 41.5T508 293v419h185V300q0-150-81.5-229.5T377-9Q221-9 141 69.5zM295.5 800Q262 832 262 880q0 47 33.5 79.5T377 992q47 0 80.5-33t33.5-79q0-48-33-80t-81-32-81.5 32zm111 48q11.5 13 11.5 32 0 18-11.5 30.5T377 923t-30-12.5-12-30.5q0-19 12-32t30-13 29.5 13z"/><glyph glyph-name="uring" unicode="ů" horiz-adv-x="619" d="M565 508V0H388v68Q339-8 243-8 146-8 98.5 46T51 211v297h181V206q0-75 65-75 38 0 61.5 27t23.5 72v278h183zm-337.5 90Q194 630 194 678q0 47 33.5 79.5T309 790q47 0 80.5-33t33.5-79q0-48-33-80t-81-32-81.5 32zm111 48q11.5 13 11.5 32 0 18-11.5 30.5T309 721t-30-12.5-12-30.5q0-19 12-32t30-13 29.5 13z"/><glyph glyph-name="Uhungarumlaut" unicode="Ű" horiz-adv-x="752" d="M141 69.5Q61 148 61 300v412h183V293q0-77 34.5-118t98.5-41q63 0 97 41.5T508 293v419h185V300q0-150-81.5-229.5T377-9Q221-9 141 69.5zM333 931h115L346 773h-88zm149 0h114L495 773h-88z"/><glyph glyph-name="uhungarumlaut" unicode="ű" horiz-adv-x="619" d="M565 508V0H388v68Q339-8 243-8 146-8 98.5 46T51 211v297h181V206q0-75 65-75 38 0 61.5 27t23.5 72v278h183zm-368 65 30 208h124l-79-208h-75zm148 0 29 208h124l-78-208h-75z"/><glyph glyph-name="Uogonek" unicode="Ų" horiz-adv-x="752" d="M693 712V300q0-119-51-194T492 5q-26-7-40.5-24.5T437-61q0-50 58-50 23 0 53 11l18-81q-48-19-106-19-59 0-96.5 31T326-88q0 22 8 42.5T358-9Q211-4 136 74.5T61 300v412h183V293q0-77 34.5-118t98.5-41q63 0 97 41.5T508 293v419h185z"/><glyph glyph-name="uogonek" unicode="ų" horiz-adv-x="619" d="M602-185q-55-21-108-21-60 0-98.5 33.5T357-87q0 51 36 87h-5v68Q339-8 243-8 146-8 98.5 46T51 211v297h181V206q0-75 65-75 38 0 61.5 27t23.5 72v278h183V0h-12q-38 0-60.5-17.5T470-63q0-52 59-52 27 0 54 12z"/><glyph glyph-name="Wcircumflex" unicode="Ŵ" horiz-adv-x="1132" d="M1120 712 865 0H716L567 423 415 0H266L12 712h191l146-449 159 449h128l153-457 153 457h178zm-742 61 139 158h99l139-158H624l-57 78-58-78H378z"/><glyph glyph-name="wcircumflex" unicode="ŵ" horiz-adv-x="900" d="M910 508 698 0H549L447 252 351 0H201L-11 508h184l113-293 110 293h116l113-299 111 299h174zm-650 65 136 208h105l136-208H501l-52 106-53-106H260z"/><glyph glyph-name="Ycircumflex" unicode="Ŷ" horiz-adv-x="657" d="M423 272V0H234v273L-65 712h212l180-284 183 284h214zM139 773l139 158h99l139-158H385l-57 78-58-78H139z"/><glyph glyph-name="ycircumflex" unicode="ŷ" horiz-adv-x="559" d="M579 508 346-18q-46-103-115.5-150.5T59-228L17-90q70 14 105 36t53 61l13 28-207 473h188l114-293 118 293h178zM90 573l136 208h105l136-208H331l-52 106-53-106H90z"/><glyph glyph-name="Ydieresis" unicode="Ÿ" horiz-adv-x="657" d="M423 272V0H234v273L-65 712h212l180-284 183 284h214zM307 928V777H147v151h160zm201 0V777H348v151h160z"/><glyph glyph-name="Zacute" unicode="Ź" horiz-adv-x="624" d="M589 147V0H53v137l314 428H53v147h525V577L260 147h329zM259 773l104 158h162L368 773H259z"/><glyph glyph-name="zacute" unicode="ź" horiz-adv-x="535" d="M504 134V0H47v127l230 248H48v133h446V389L258 134h246zM222 573l98 208h172L331 573H222z"/><glyph glyph-name="Zdotaccent" unicode="Ż" horiz-adv-x="624" d="M589 147V0H53v137l314 428H53v147h525V577L260 147h329zM408 934V771H219v163h189z"/><glyph glyph-name="zdotaccent" unicode="ż" horiz-adv-x="535" d="M504 134V0H47v127l230 248H48v133h446V389L258 134h246zM371 757V594H182v163h189z"/><glyph glyph-name="Zcaron" unicode="Ž" horiz-adv-x="624" d="M589 147V0H53v137l314 428H53v147h525V577L260 147h329zm-87 784L363 773h-99L125 931h131l58-79 57 79h131z"/><glyph glyph-name="zcaron" unicode="ž" horiz-adv-x="535" d="M504 134V0H47v127l230 248H48v133h446V389L258 134h246zm-39 647L329 573H224L88 781h136l53-107 52 107h136z"/><glyph glyph-name="uni018F" unicode="Ə" horiz-adv-x="786" d="M564.5 676.5q83.5-44.5 129-127T739 357q0-105-42-188.5T579 38 406-9Q236-9 140.5 87T45 362v68h502q-30 144-185 144-113 0-202-64l-59 133q47 36 121 57t147 21q112 0 195.5-44.5zM550 289H236q10-77 51.5-116T400 134q129 0 150 155z"/><glyph glyph-name="florin" unicode="ƒ" horiz-adv-x="600" d="M462.5 557Q446 539 441 506v-2h102V402H419L337 19q-22-110-88.5-158T102-187H18v141h80q23 0 40 18.5T160 23l80 379H136v102h126l1 6q22 111 88.5 159T498 717h84V575h-80q-23 0-39.5-18z"/><glyph glyph-name="Ohorn" unicode="Ơ" horiz-adv-x="805" d="M729 690.5Q699 648 650 634q109-96 109-277 0-111-43-194T592.5 35.5 403-9 213 35.5 88.5 163 45 357t44 193 125 126.5T405 721q30 0 62-5 36-4 58-4 44 0 61.5 22t17.5 77v22h155v-43q0-57-30-99.5zM528.5 191Q574 248 574 357q0 108-45.5 164.5T403 578t-125-56-45-165q0-110 45-166.5T403 134t125.5 57z"/><glyph glyph-name="ohorn" unicode="ơ" horiz-adv-x="618" d="M594.5 496.5Q568 455 522 438q65-66 65-183 0-80-34-139.5T456.5 24 310-8q-85 0-148 32t-97 91.5T31 255q0 82 34 142t96 92.5T306 522q21 0 68-7 15-3 22-3 31 0 51 21t20 81v22h154v-43q0-55-26.5-96.5zM408 257q0 66-24.5 97.5T310 386q-50 0-75-31.5T210 257q0-67 25-98.5t75-31.5q98 0 98 130z"/><glyph glyph-name="Uhorn" unicode="Ư" horiz-adv-x="752" d="M804 833v-43q0-56-30.5-98.5T693 635V300q0-150-81.5-229.5T377-9Q221-9 141 69.5T61 300v412h183V293q0-77 34.5-118t98.5-41q63 0 97 41.5T508 293v419h54q49 0 68 21.5t19 77.5v22h155z"/><glyph glyph-name="uhorn" unicode="ư" horiz-adv-x="648" d="M679 636v-43q0-58-31.5-101.5T565 434V0H388v68Q339-8 243-8 146-8 98.5 46T51 211v297h181V206q0-75 65-75 38 0 61.5 27t23.5 72v278h52q50 0 70 24t20 82v22h155z"/><glyph glyph-name="uni01C4" unicode="Ǆ" horiz-adv-x="1390" d="M64 712h291q118 0 203.5-42.5t131-122.5T735 357q0-111-45-191.5t-130.5-123T355 0H64v712zm278-562q104 0 155.5 51.5T549 357q0 205-207 205h-90V150h90zm1013-3V0H819v137l314 428H819v147h525V577l-318-430h329zm-87 784-139-158h-99L891 931h131l58-79 57 79h131z"/><glyph glyph-name="uni01C5" unicode="ǅ" horiz-adv-x="1316" d="M64 712h291q118 0 203.5-42.5t131-122.5T735 357q0-111-45-191.5t-130.5-123T355 0H64v712zm278-562q104 0 155.5 51.5T549 357q0 205-207 205h-90V150h90zm943-16V0H828v127l230 248H829v133h446V389l-236-255h246zm-39 647-136-208h-105L869 781h136l53-107 52 107h136z"/><glyph glyph-name="uni01C6" unicode="ǆ" horiz-adv-x="1178" d="M589 736V0H411v69q-22-36-64-56.5T255-8q-65 0-116 33.5t-79.5 94T31 259q0 78 28.5 138t79.5 92.5T255 522q48 0 88.5-20t64.5-54v288h181zM385 160.5q26 33.5 26 96.5 0 61-26.5 94.5T311 385q-49 0-75-32.5T210 259q0-63 26.5-97.5T311 127t74 33.5zm762-26.5V0H690v127l230 248H691v133h446V389L901 134h246zm-39 647L972 573H867L731 781h136l53-107 52 107h136z"/><glyph glyph-name="uni01C7" unicode="Ǉ" horiz-adv-x="944" d="M64 712h188V152h271V0H64v712zM543-29q50-5 74-5 45 0 60 18t15 69v659h188V56q0-126-51-185t-176-59q-48 0-110 9v150z"/><glyph glyph-name="uni01C8" unicode="ǈ" horiz-adv-x="868" d="M64 712h188V152h301V0H64v712zM559-79q32 0 53 18.5T633-4v512h181V-6q0-103-53.5-161T604-225q-58 0-94 14v139q29-7 49-7zm257 836V594H627v163h189z"/><glyph glyph-name="uni01C9" unicode="ǉ" horiz-adv-x="578" d="M54 736h181V0H54v736zM269-79q32 0 53 18.5T343-4v512h181V-6q0-103-53.5-161T314-225q-58 0-94 14v139q29-7 49-7zm257 836V594H337v163h189z"/><glyph glyph-name="uni01CA" unicode="Ǌ" horiz-adv-x="1169" d="M701 712V0H562L239 404V0H64v712h137l323-402v402h177zm67-741q50-5 73-5 45 0 60 18t15 69v659h188V56q0-126-51-185t-175-59q-49 0-110 9v150z"/><glyph glyph-name="uni01CB" unicode="ǋ" horiz-adv-x="1055" d="M701 712V0H562L239 404V0H64v712h137l323-402v402h177zm45-791q32 0 53 18.5T820-4v512h181V-6q0-103-53.5-161T791-225q-58 0-94 14v139q29-7 49-7zm257 836V594H814v163h189z"/><glyph glyph-name="uni01CC" unicode="ǌ" horiz-adv-x="913" d="M528.5 467.5Q573 413 573 303V0H392v295q0 47-16 67.5T326 383q-41 0-66-27.5T235 283V0H54v362q0 82-8 146h170l9-75q29 43 72 66t97 23q90 0 134.5-54.5zM604-79q32 0 53 18.5T678-4v512h181V-6q0-103-53.5-161T649-225q-58 0-94 14v139q29-7 49-7zm257 836V594H672v163h189z"/><glyph glyph-name="uni01CE" unicode="ǎ" horiz-adv-x="643" d="M589 508V0H411v69q-22-36-64-56.5T255-8q-65 0-116 32t-79.5 91.5T31 253q0 79 29 140t80 95 115 34q50 0 91.5-21.5T411 443v65h178zM385 160q26 33 26 95 0 63-26 96.5T311 385q-47 0-74-34.5T210 253q0-61 26-93.5t75-32.5q48 0 74 33zm124 621L373 573H268L132 781h136l53-107 52 107h136z"/><glyph glyph-name="Gcaron" unicode="Ǧ" horiz-adv-x="751" d="M696 402V45Q639 19 568.5 5T424-9Q308-9 222.5 35T91 161.5 45 357q0 110 46 192.5t130 127T417 721q77 0 145.5-20T674 646l-59-133q-49 32-94.5 46.5T423 574q-95 0-141.5-53.5T235 357q0-114 48.5-169T433 133q47 0 94 10v132H403v127h293zm-91 529L466 773h-99L228 931h131l58-79 57 79h131z"/><glyph glyph-name="gcaron" unicode="ǧ" horiz-adv-x="647" d="M595 508V32q0-125-75-190.5T300-224q-124 0-215 44l27 132q45-20 92.5-31.5T294-91q62 0 91.5 26.5T415 18v75q-25-33-67.5-56T257 14q-65 0-116.5 31.5t-80.5 89T31 268q0 75 29 132.5t80.5 89.5T257 522q51 0 93-21t65-57v64h180zM388 180.5q27 31.5 27 87.5 0 54-27 85.5T313 385t-75.5-31-27.5-86 28-87 75-32q48 0 75 31.5zM512 781 376 573H271L135 781h136l53-107 52 107h136z"/><glyph glyph-name="uni01EA" unicode="Ǫ" horiz-adv-x="805" d="M461-61q0-24 15-37t42-13q24 0 55 11l17-81q-50-19-107-19-59 0-96.5 31.5T349-88q0 46 30 79-102 5-177.5 51t-116 127T45 357q0 111 44 193t124.5 126.5T403 721t189.5-44.5T716 550t43-193q0-134-62-226T522 5q-61-18-61-66zm67.5 252Q574 248 574 357q0 108-45.5 164.5T403 578t-125-56-45-165q0-110 45-166.5T403 134t125.5 57z"/><glyph glyph-name="uni01EB" unicode="ǫ" horiz-adv-x="618" d="M367.5-20Q351-38 351-63t16-38.5 45-13.5q26 0 54 12l18-82q-55-21-108-21-60 0-98 33t-38 83q0 48 36 84Q161 5 96 74.5T31 257q0 81 34 141t97 92 148 32q84 0 146.5-32.5t96.5-92T587 257q0-94-46.5-161T413 6q-29-8-45.5-26zM408 257q0 66-24.5 97.5T310 386q-50 0-75-31.5T210 257q0-67 25-98.5t75-31.5q98 0 98 130z"/><glyph glyph-name="Aringacute" unicode="Ǻ" horiz-adv-x="769" d="M544 147H228L165 0H-23l330 706q-17 15-26.5 36.5T271 788q0 46 33.5 78.5T385 899q22 0 43-8l60 66h160L492 827q7-21 7-39 0-25-10-47t-27-37L792 0H607zM355 818.5Q343 806 343 788t12-31.5 30-13.5 30 13.5 12 31.5-12 30.5-30 12.5-30-12.5zM483 288l-97 225-97-225h194z"/><glyph glyph-name="aringacute" unicode="ǻ" horiz-adv-x="643" d="M239 600q-33 33-33 82 0 47 33 79.5t82 32.5q24 0 41-7l70 96 152-7-155-150q9-19 9-44 0-49-34-82t-83-33-82 33zm51.5 113.5Q279 701 279 682t12-33 30-14 30.5 14 12.5 33-12 31.5-31 12.5-30.5-12.5zM589 508V0H411v69q-22-36-64-56.5T255-8q-65 0-116 32t-79.5 91.5T31 253q0 79 29 140t80 95 115 34q50 0 91.5-21.5T411 443v65h178zM385 160q26 33 26 95 0 63-26 96.5T311 385q-47 0-74-34.5T210 253q0-61 26-93.5t75-32.5q48 0 74 33z"/><glyph glyph-name="AEacute" unicode="Ǽ" horiz-adv-x="1014" d="m679 568 8-134h274V290H697l9-146h276V0H545l-9 147H247L160 0H-43l454 712h571V568H679zm-168 0h-13L331 288h197zm-54 205 104 158h162L566 773H457z"/><glyph glyph-name="aeacute" unicode="ǽ" horiz-adv-x="860" d="M829 236H515q7-111 119-111 34 0 71.5 12.5T775 172l45-120q-36-28-90-44T621-8q-71 0-123.5 23.5T413 85q-25-45-69.5-69T241-8q-60 0-107.5 21.5T59 73.5 32 162q0 83 64.5 120.5T308 320h36q0 36-16.5 52T272 388t-85.5-14T98 337L53 458q45 27 110.5 45.5T284 522q112 0 164-59 64 59 160 59 65 0 115-33t78-92.5T829 260v-24zM549.5 379.5Q529 361 521 320h155q-11 78-73 78-33 0-53.5-18.5zM324.5 140q19.5 26 19.5 68v30h-25q-113 0-113-70 0-25 16.5-39.5T266 114q39 0 58.5 26zM375 573l98 208h172L484 573H375z"/><glyph glyph-name="Oslashacute" unicode="Ǿ" horiz-adv-x="805" d="M730 519q29-72 29-162 0-111-43-194T592.5 35.5 403-9Q337-9 280 8l-50-85L112-6l47 80q-55 48-84.5 120T45 357q0 111 44 193t124.5 126.5T403 721q64 0 123-17l49 85 118-71-46-79q54-48 83-120zM253 236l196 337q-23 5-46 5-80 0-125-56t-45-165q0-72 20-121zm275.5-45Q574 248 574 357q0 73-21 121L356 140q23-6 47-6 80 0 125.5 57zM347 773l104 158h162L456 773H347z"/><glyph glyph-name="oslashacute" unicode="ǿ" horiz-adv-x="618" d="M561.5 381Q587 327 587 257q0-81-34-140.5t-96.5-92T310-8q-51 0-93 12l-44-75-81 48 39 66q-48 35-74 89.5T31 257q0 81 34 141t97 92 148 32q50 0 93-12l42 73 82-48-38-65q47-35 72.5-89zM215 189l116 198q-7 1-21 1-52 0-78-32t-26-99q0-41 9-68zm171.5-31.5Q412 189 412 257q0 39-9 66L289 127q7-1 21-1 51 0 76.5 31.5zM255 573l98 208h172L364 573H255z"/><glyph glyph-name="uni0200" unicode="Ȁ" horiz-adv-x="769" d="M544 147H228L165 0H-23l333 712h148L792 0H607zm-61 141-97 225-97-225h194zM164 931h114l75-158h-88zm148 0h115l75-158h-88z"/><glyph glyph-name="uni0201" unicode="ȁ" horiz-adv-x="643" d="M589 508V0H411v69q-22-36-64-56.5T255-8q-65 0-116 32t-79.5 91.5T31 253q0 79 29 140t80 95 115 34q50 0 91.5-21.5T411 443v65h178zM385 160q26 33 26 95 0 63-26 96.5T311 385q-47 0-74-34.5T210 253q0-61 26-93.5t75-32.5q48 0 74 33zM131 781h124l29-208h-75zm147 0h124l30-208h-75z"/><glyph glyph-name="uni0202" unicode="Ȃ" horiz-adv-x="769" d="M544 147H228L165 0H-23l333 712h148L792 0H607zm-61 141-97 225-97-225h194zm19 607q49-29 67-82l-77-32q-30 41-108 41-79 0-109-41l-77 32q18 53 67 82t119 29q69 0 118-29z"/><glyph glyph-name="uni0203" unicode="ȃ" horiz-adv-x="643" d="M589 508V0H411v69q-22-36-64-56.5T255-8q-65 0-116 32t-79.5 91.5T31 253q0 79 29 140t80 95 115 34q50 0 91.5-21.5T411 443v65h178zM385 160q26 33 26 95 0 63-26 96.5T311 385q-47 0-74-34.5T210 253q0-61 26-93.5t75-32.5q48 0 74 33zm60 574q55-40 71-114l-77-32q-47 77-118 77-72 0-119-77l-77 33q17 73 71.5 113T321 774q69 0 124-40z"/><glyph glyph-name="uni0204" unicode="Ȅ" horiz-adv-x="604" d="M64 712h508V568H247V434h304V290H247V144h325V0H64v712zm52 219h114l75-158h-88zm148 0h115l75-158h-88z"/><glyph glyph-name="uni0205" unicode="ȅ" horiz-adv-x="553" d="M523 236H204q5-59 34-85t85-26q38 0 76 12.5t69 34.5l46-120q-38-28-92-44T314-8q-87 0-151 32t-98 91.5T31 256q0 77 32.5 137.5t90 94.5T285 522q72 0 126-32t83-91.5T523 260v-24zm-317 84h162q-10 78-78 78-67 0-84-78zM95 781h124l29-208h-75zm147 0h124l30-208h-75z"/><glyph glyph-name="uni0206" unicode="Ȇ" horiz-adv-x="604" d="M64 712h508V568H247V434h304V290H247V144h325V0H64v712zm390 183q49-29 67-82l-77-32q-30 41-108 41-79 0-109-41l-77 32q18 53 67 82t119 29q69 0 118-29z"/><glyph glyph-name="uni0207" unicode="ȇ" horiz-adv-x="553" d="M523 236H204q5-59 34-85t85-26q38 0 76 12.5t69 34.5l46-120q-38-28-92-44T314-8q-87 0-151 32t-98 91.5T31 256q0 77 32.5 137.5t90 94.5T285 522q72 0 126-32t83-91.5T523 260v-24zm-317 84h162q-10 78-78 78-67 0-84-78zm203 414q55-40 71-114l-77-32q-47 77-118 77-72 0-119-77l-77 33q17 73 71.5 113T285 774q69 0 124-40z"/><glyph glyph-name="uni0208" unicode="Ȉ" horiz-adv-x="316" d="M64 712h188V0H64v712zM-63 931H51l75-158H38zm148 0h115l75-158h-88z"/><glyph glyph-name="uni0209" unicode="ȉ" horiz-adv-x="289" d="M54 508h181V0H54v508zM-46 781H78l29-208H32zm147 0h124l30-208h-75z"/><glyph glyph-name="uni020A" unicode="Ȋ" horiz-adv-x="316" d="M64 712h188V0H64v712zm211 183q49-29 67-82l-77-32q-30 41-108 41-79 0-109-41l-77 32q18 53 67 82t119 29q69 0 118-29z"/><glyph glyph-name="uni020B" unicode="ȋ" horiz-adv-x="289" d="M54 508h181V0H54v508zm214 226q55-40 71-114l-77-32q-47 77-118 77-72 0-119-77l-77 33q17 73 71.5 113T144 774q69 0 124-40z"/><glyph glyph-name="uni020C" unicode="Ȍ" horiz-adv-x="805" d="M213 35.5Q132 80 88.5 163T45 357t44 193 124.5 126.5T403 721t189.5-44.5T716 550t43-193-43-194T592.5 35.5 403-9 213 35.5zM528.5 191Q574 248 574 357q0 108-45.5 164.5T403 578t-125-56-45-165q0-110 45-166.5T403 134t125.5 57zM182 931h114l75-158h-88zm148 0h115l75-158h-88z"/><glyph glyph-name="uni020D" unicode="ȍ" horiz-adv-x="618" d="M162 24q-63 32-97 92T31 257t34 141 97 92 148 32q84 0 146.5-32.5t96.5-92T587 257t-34-140.5-96.5-92T310-8q-85 0-148 32zm246 233q0 66-24.5 97.5T310 386q-50 0-75-31.5T210 257q0-67 25-98.5t75-31.5q98 0 98 130zM120 781h124l29-208h-75zm147 0h124l30-208h-75z"/><glyph glyph-name="uni020E" unicode="Ȏ" horiz-adv-x="805" d="M213 35.5Q132 80 88.5 163T45 357t44 193 124.5 126.5T403 721t189.5-44.5T716 550t43-193-43-194T592.5 35.5 403-9 213 35.5zM528.5 191Q574 248 574 357q0 108-45.5 164.5T403 578t-125-56-45-165q0-110 45-166.5T403 134t125.5 57zM520 895q49-29 67-82l-77-32q-30 41-108 41-79 0-109-41l-77 32q18 53 67 82t119 29q69 0 118-29z"/><glyph glyph-name="uni020F" unicode="ȏ" horiz-adv-x="618" d="M162 24q-63 32-97 92T31 257t34 141 97 92 148 32q84 0 146.5-32.5t96.5-92T587 257t-34-140.5-96.5-92T310-8q-85 0-148 32zm246 233q0 66-24.5 97.5T310 386q-50 0-75-31.5T210 257q0-67 25-98.5t75-31.5q98 0 98 130zm26 477q55-40 71-114l-77-32q-47 77-118 77-72 0-119-77l-77 33q17 73 71.5 113T310 774q69 0 124-40z"/><glyph glyph-name="uni0210" unicode="Ȑ" horiz-adv-x="714" d="M683 0H484l-92 237q-16 40-75 40h-68V0H64v712h331q129 0 194-55.5T654 498q0-72-38.5-124.5T507 299q30-6 54-28t38-59zM452 435.5q27 18.5 27 57.5 0 41-26.5 59T365 570H247V417h118q60 0 87 18.5zM141 931h114l75-158h-88zm148 0h115l75-158h-88z"/><glyph glyph-name="uni0211" unicode="ȑ" horiz-adv-x="430" d="M432 509V344q-43 20-83 20-114 0-114-109V0H54v362q0 82-8 146h170l11-85q18 47 58 72t90 25q37 0 57-11zM59 781h124l29-208h-75zm147 0h124l30-208h-75z"/><glyph glyph-name="uni0212" unicode="Ȓ" horiz-adv-x="714" d="M683 0H484l-92 237q-16 40-75 40h-68V0H64v712h331q129 0 194-55.5T654 498q0-72-38.5-124.5T507 299q30-6 54-28t38-59zM452 435.5q27 18.5 27 57.5 0 41-26.5 59T365 570H247V417h118q60 0 87 18.5zM479 895q49-29 67-82l-77-32q-30 41-108 41-79 0-109-41l-77 32q18 53 67 82t119 29q69 0 118-29z"/><glyph glyph-name="uni0213" unicode="ȓ" horiz-adv-x="430" d="M432 509V344q-43 20-83 20-114 0-114-109V0H54v362q0 82-8 146h170l11-85q18 47 58 72t90 25q37 0 57-11zm-59 225q55-40 71-114l-77-32q-47 77-118 77-72 0-119-77l-77 33q17 73 71.5 113T249 774q69 0 124-40z"/><glyph glyph-name="uni0214" unicode="Ȕ" horiz-adv-x="752" d="M141 69.5Q61 148 61 300v412h183V293q0-77 34.5-118t98.5-41q63 0 97 41.5T508 293v419h185V300q0-150-81.5-229.5T377-9Q221-9 141 69.5zM157 931h114l75-158h-88zm148 0h115l75-158h-88z"/><glyph glyph-name="uni0215" unicode="ȕ" horiz-adv-x="619" d="M565 508V0H388v68Q339-8 243-8 146-8 98.5 46T51 211v297h181V206q0-75 65-75 38 0 61.5 27t23.5 72v278h183zM119 781h124l29-208h-75zm147 0h124l30-208h-75z"/><glyph glyph-name="uni0216" unicode="Ȗ" horiz-adv-x="752" d="M141 69.5Q61 148 61 300v412h183V293q0-77 34.5-118t98.5-41q63 0 97 41.5T508 293v419h185V300q0-150-81.5-229.5T377-9Q221-9 141 69.5zM495 895q49-29 67-82l-77-32q-30 41-108 41-79 0-109-41l-77 32q18 53 67 82t119 29q69 0 118-29z"/><glyph glyph-name="uni0217" unicode="ȗ" horiz-adv-x="619" d="M565 508V0H388v68Q339-8 243-8 146-8 98.5 46T51 211v297h181V206q0-75 65-75 38 0 61.5 27t23.5 72v278h183zM433 734q55-40 71-114l-77-32q-47 77-118 77-72 0-119-77l-77 33q17 73 71.5 113T309 774q69 0 124-40z"/><glyph glyph-name="Scommaaccent" unicode="Ș" horiz-adv-x="672" d="M164 12Q86 33 37 69l59 133q52-33 110.5-50.5T324 134q60 0 92 16.5t32 46.5q0 27-29 44.5T310 276q-101 20-157 49.5T74.5 395 52 492q0 65 37 117.5t104 82T346 721q77 0 149.5-21.5T609 643l-58-133q-47 33-99 50.5T348 578q-51 0-82-19.5T235 506q0-18 11-30t41-23.5 90-24.5q97-21 152.5-50.5t78.5-69 23-94.5q0-104-81-163.5T322-9q-80 0-158 21zm253-76v-67q0-50-14.5-86T353-284l-62 42q27 24 33 50h-79v128h172z"/><glyph glyph-name="scommaaccent" unicode="ș" horiz-adv-x="507" d="m19 53 46 123q41-28 93-43.5T260 117q31 0 48 9t17 25q0 14-12.5 22.5T265 189l-82 19q-78 16-112.5 50.5T36 354q0 49 29 87t80.5 59.5T264 522q55 0 108-16t99-45l-48-120q-40 26-82 40t-79 14q-30 0-47-9.5T198 358q0-11 10-17.5t38-13.5l85-19q81-19 116.5-55.5T483 153q0-75-59.5-118T259-8Q107-8 19 53zM339-64v-67q0-50-14.5-86T275-284l-62 42q27 24 33 50h-79v128h172z"/><glyph glyph-name="uni021A" unicode="Ț" horiz-adv-x="638" d="M224 560H12v152h614V560H414V0H224v560zM404-64v-67q0-50-14.5-86T340-284l-62 42q27 24 33 50h-79v128h172z"/><glyph glyph-name="uni021B" unicode="ț" horiz-adv-x="416" d="M402 144V7Q365-8 308-8 205-8 151.5 50T98 211v164H3v133h95v115l181 58V508h122V375H279V211q0-36 21.5-54.5T354 138q18 0 48 6zM346-64v-67q0-50-14.5-86T282-284l-62 42q27 24 33 50h-79v128h172z"/><glyph glyph-name="uni0227" unicode="ȧ" horiz-adv-x="643" d="M589 508V0H411v69q-22-36-64-56.5T255-8q-65 0-116 32t-79.5 91.5T31 253q0 79 29 140t80 95 115 34q50 0 91.5-21.5T411 443v65h178zM385 160q26 33 26 95 0 63-26 96.5T311 385q-47 0-74-34.5T210 253q0-61 26-93.5t75-32.5q48 0 74 33zm30 597V594H226v163h189z"/><glyph glyph-name="uni0228" unicode="Ȩ" horiz-adv-x="604" d="M247 568V434h304V290H247V144h325V0H371l-6-40h8q41 0 64-19t23-51q0-41-37-65.5T316-200q-22 0-48.5 4.5T219-183l11 65q54-14 80-14 43 0 43 22 0 17-32 17-12 0-32-5l-20 22 10 76H64v712h508V568H247z"/><glyph glyph-name="uni022A" unicode="Ȫ" horiz-adv-x="805" d="M213 35.5Q132 80 88.5 163T45 357t44 193 124.5 126.5T403 721t189.5-44.5T716 550t43-193-43-194T592.5 35.5 403-9 213 35.5zM528.5 191Q574 248 574 357q0 108-45.5 164.5T403 578t-125-56-45-165q0-110 45-166.5T403 134t125.5 57zM381 928V777H221v151h160zm201 0V777H422v151h160zm-341 140h321V960H241v108z"/><glyph glyph-name="uni022B" unicode="ȫ" horiz-adv-x="618" d="M162 24q-63 32-97 92T31 257t34 141 97 92 148 32q84 0 146.5-32.5t96.5-92T587 257t-34-140.5-96.5-92T310-8q-85 0-148 32zm246 233q0 66-24.5 97.5T310 386q-50 0-75-31.5T210 257q0-67 25-98.5t75-31.5q98 0 98 130zM289 751V599H129v152h160zm201 0V599H330v152h160zM149 920h321V812H149v108z"/><glyph glyph-name="uni022C" unicode="Ȭ" horiz-adv-x="805" d="M213 35.5Q132 80 88.5 163T45 357t44 193 124.5 126.5T403 721t189.5-44.5T716 550t43-193-43-194T592.5 35.5 403-9 213 35.5zM528.5 191Q574 248 574 357q0 108-45.5 164.5T403 578t-125-56-45-165q0-110 45-166.5T403 134t125.5 57zM254 894.5q33 39.5 84 39.5 17 0 33-6.5t40-20.5q19-11 32-17t25-6q17 0 28 12t14 35h72q0-81-33-120.5T465 771q-17 0-33 6.5T392 798q-19 11-32 17t-25 6q-17 0-28-12t-14-35h-72q0 81 33 120.5zM241 1068h321V960H241v108z"/><glyph glyph-name="uni022D" unicode="ȭ" horiz-adv-x="618" d="M162 24q-63 32-97 92T31 257t34 141 97 92 148 32q84 0 146.5-32.5t96.5-92T587 257t-34-140.5-96.5-92T310-8q-85 0-148 32zm246 233q0 66-24.5 97.5T310 386q-50 0-75-31.5T210 257q0-67 25-98.5t75-31.5q98 0 98 130zM162 719.5q33 39.5 84 39.5 17 0 33-6.5t40-20.5q19-11 32-17t25-6q17 0 28 12t14 35h72q0-81-33-120.5T373 596q-17 0-33 6.5T300 623q-19 11-32 17t-25 6q-17 0-28-12t-14-35h-72q0 81 33 120.5zM149 920h321V812H149v108z"/><glyph glyph-name="uni0230" unicode="Ȱ" horiz-adv-x="805" d="M213 35.5Q132 80 88.5 163T45 357t44 193 124.5 126.5T403 721t189.5-44.5T716 550t43-193-43-194T592.5 35.5 403-9 213 35.5zM528.5 191Q574 248 574 357q0 108-45.5 164.5T403 578t-125-56-45-165q0-110 45-166.5T403 134t125.5 57zM496 934V771H307v163h189zm-255 134h321V960H241v108z"/><glyph glyph-name="uni0231" unicode="ȱ" horiz-adv-x="618" d="M162 24q-63 32-97 92T31 257t34 141 97 92 148 32q84 0 146.5-32.5t96.5-92T587 257t-34-140.5-96.5-92T310-8q-85 0-148 32zm246 233q0 66-24.5 97.5T310 386q-50 0-75-31.5T210 257q0-67 25-98.5t75-31.5q98 0 98 130zm-4 500V594H215v163h189zM149 920h321V812H149v108z"/><glyph glyph-name="uni0232" unicode="Ȳ" horiz-adv-x="657" d="M423 272V0H234v273L-65 712h212l180-284 183 284h214zM167 906h321V798H167v108z"/><glyph glyph-name="uni0233" unicode="ȳ" horiz-adv-x="559" d="M579 508 346-18q-46-103-115.5-150.5T59-228L17-90q70 14 105 36t53 61l13 28-207 473h188l114-293 118 293h178zM118 729h321V621H118v108z"/><glyph glyph-name="uni0237" unicode="ȷ" horiz-adv-x="289" d="M-20-79q32 0 53 18.5T54-4v512h181V-6q0-103-53.5-161T25-225q-58 0-94 14v139q29-7 49-7z"/><glyph glyph-name="uni0259" unicode="ə" horiz-adv-x="553" d="M393.5 489q61.5-33 95-93T522 256q0-77-31-137t-87-93.5T277-8Q163-8 97 61T31 251v27h320q-6 59-32.5 84.5T238 388q-67 0-153-47L39 460q39 29 95.5 45.5T251 522q81 0 142.5-33zM350 191H188q12-77 80-77 67 0 82 77z"/><glyph glyph-name="uni02BB" unicode="ʻ" horiz-adv-x="300" d="M237 719V591H65v67q0 50 14.5 87t49.5 67l62-41q-27-26-33-52h79z"/><glyph glyph-name="uni02BC" unicode="ʼ" horiz-adv-x="300" d="M235 770v-68q0-50-14.5-86.5T171 548l-62 43q25 23 33 50H63v129h172z"/><glyph glyph-name="uni02BE" unicode="ʾ" horiz-adv-x="300" d="M232.5 746q33.5-33 33.5-79 0-48-33-80t-81-32v67q18 0 29.5 13t11.5 32q0 18-11.5 30.5T152 710v69q47 0 80.5-33z"/><glyph glyph-name="uni02BF" unicode="ʿ" horiz-adv-x="300" d="M152 710q-18 0-30-12.5T110 667q0-19 12-32t30-13v-67q-48 0-81.5 32T37 667q0 47 33.5 79.5T152 779v-69z"/><glyph glyph-name="circumflex" unicode="ˆ" horiz-adv-x="300" d="M-37 562 99 770h105l136-208H204l-52 106-53-106H-37z"/><glyph glyph-name="caron" unicode="ˇ" horiz-adv-x="300" d="M340 770 204 562H99L-37 770H99l53-107 52 107h136z"/><glyph glyph-name="uni02C8" unicode="ˈ" horiz-adv-x="300" d="M97 771h109V562H97v209z"/><glyph glyph-name="uni02C9" unicode="ˉ" horiz-adv-x="300" d="M-9 718h321V610H-9v108z"/><glyph glyph-name="uni02CA" unicode="ˊ" horiz-adv-x="300" d="m97 562 98 208h172L206 562H97z"/><glyph glyph-name="uni02CB" unicode="ˋ" horiz-adv-x="300" d="M-64 770h172l98-208H97z"/><glyph glyph-name="uni02CC" unicode="ˌ" horiz-adv-x="300" d="M97-65h109v-208H97v208z"/><glyph glyph-name="breve" unicode="˘" horiz-adv-x="300" d="M27 621.5Q-28 661-44 735l77 34q45-77 119-77 73 0 118 77l77-34q-16-74-71-113.5T152 582q-70 0-125 39.5z"/><glyph glyph-name="dotaccent" unicode="˙" horiz-adv-x="300" d="M246 746V583H57v163h189z"/><glyph glyph-name="ring" unicode="˚" horiz-adv-x="300" d="M70.5 587Q37 619 37 667q0 47 33.5 79.5T152 779q47 0 80.5-33t33.5-79q0-48-33-80t-81-32-81.5 32zm111 48q11.5 13 11.5 32 0 18-11.5 30.5T152 710t-30-12.5-12-30.5q0-19 12-32t30-13 29.5 13z"/><glyph glyph-name="ogonek" unicode="˛" horiz-adv-x="300" d="M13.5-169.5Q-24-139-24-88q0 52 40 89t117 46l19-37q-33-10-49-27T87-61q0-50 57-50 26 0 54 11l17-81q-47-19-107-19-57 0-94.5 30.5z"/><glyph glyph-name="tilde" unicode="˜" horiz-adv-x="300" d="M4 708.5Q37 748 88 748q17 0 33-6.5t40-20.5q19-11 32-17t25-6q17 0 28 12t14 35h72q0-81-33-120.5T215 585q-17 0-33 6.5T142 612q-19 11-32 17t-25 6q-17 0-28-12t-14-35h-72q0 81 33 120.5z"/><glyph glyph-name="hungarumlaut" unicode="˝" horiz-adv-x="300" d="m40 562 30 208h124l-79-208H40zm148 0 29 208h124l-78-208h-75z"/><glyph glyph-name="gravecomb" unicode="̀" d="M-364 770h172l98-208h-109z"/><glyph glyph-name="acutecomb" unicode="́" d="m-203 562 98 208H67L-94 562h-109z"/><glyph glyph-name="uni0302" unicode="̂" d="m-337 562 136 208h105L40 562H-96l-52 106-53-106h-136z"/><glyph glyph-name="tildecomb" unicode="̃" d="M-296 708.5q33 39.5 84 39.5 17 0 33-6.5t40-20.5q19-11 32-17t25-6q17 0 28 12t14 35h72q0-81-33-120.5T-85 585q-17 0-33 6.5t-40 20.5q-19 11-32 17t-25 6q-17 0-28-12t-14-35h-72q0 81 33 120.5z"/><glyph glyph-name="uni0304" unicode="̄" d="M-309 718H12V610h-321v108z"/><glyph glyph-name="uni0306" unicode="̆" d="M-273 621.5Q-328 661-344 735l77 34q45-77 119-77 73 0 118 77l77-34q-16-74-71-113.5T-148 582q-70 0-125 39.5z"/><glyph glyph-name="uni0307" unicode="̇" d="M-54 746V583h-189v163h189z"/><glyph glyph-name="uni0308" unicode="̈" d="M-169 740V588h-160v152h160zm201 0V588h-160v152H32z"/><glyph glyph-name="hookabovecomb" unicode="̉" d="M-104 562h-86v24q0 21 9 33.5t27 28.5q11 9 16 15t5 13q0 11-7.5 16.5T-164 698q-24 0-46-8l-23 62q43 20 89 20 58 0 90.5-23t32.5-55q0-24-13-39t-37-32q-17-11-25-19.5t-8-18.5v-23z"/><glyph glyph-name="uni030A" unicode="̊" d="M-229.5 587q-33.5 32-33.5 80 0 47 33.5 79.5T-148 779q47 0 80.5-33t33.5-79q0-48-33-80t-81-32-81.5 32zm111 48q11.5 13 11.5 32 0 18-11.5 30.5T-148 710t-30-12.5-12-30.5q0-19 12-32t30-13 29.5 13z"/><glyph glyph-name="uni030B" unicode="̋" d="m-260 562 30 208h124l-79-208h-75zm148 0 29 208H41l-78-208h-75z"/><glyph glyph-name="uni030C" unicode="̌" d="M40 770-96 562h-105l-136 208h136l53-107 52 107H40z"/><glyph glyph-name="uni030F" unicode="̏" d="M-338 770h124l29-208h-75zm147 0h124l30-208h-75z"/><glyph glyph-name="uni0311" unicode="̑" d="M-24 723q55-40 71-114l-77-32q-47 77-118 77-72 0-119-77l-77 33q17 73 71.5 113t124.5 40q69 0 124-40z"/><glyph glyph-name="uni0312" unicode="̒" d="M-63 719V591h-172v67q0 50 14.5 87t49.5 67l62-41q-27-26-33-52h79z"/><glyph glyph-name="uni031B" unicode="̛" d="M-148 486v15q30 0 47.5 7.5t27 29T-64 600v22H92v-43q0-62-37-107t-95-53z"/><glyph glyph-name="dotbelowcomb" unicode="̣" d="M-69-57v-151h-159v151h159z"/><glyph glyph-name="uni0324" unicode="̤" d="M-169-56v-152h-160v152h160zm201 0v-152h-160v152H32z"/><glyph glyph-name="uni0326" unicode="̦" d="M-63-64v-67q0-50-14.5-86t-49.5-67l-62 42q27 24 33 50h-79v128h172z"/><glyph glyph-name="uni0327" unicode="̧" d="M-48-59q23-19 23-51 0-41-37-65.5T-169-200q-22 0-48.5 4.5T-266-183l11 65q54-14 80-14 43 0 43 22 0 17-32 17-12 0-32-5l-20 22 13 96h92l-9-60h8q41 0 64-19z"/><glyph glyph-name="uni0328" unicode="̨" d="M-286.5-169.5Q-324-139-324-88q0 52 40 89t117 46l19-37q-33-10-49-27t-16-44q0-50 57-50 26 0 54 11l17-81q-47-19-107-19-57 0-94.5 30.5z"/><glyph glyph-name="uni032E" unicode="̮" d="M-273-195.5Q-328-156-344-82l77 32q46-75 119-75 72 0 118 75l77-32q-16-74-71-113.5T-148-235q-70 0-125 39.5z"/><glyph glyph-name="uni0331" unicode="̱" d="M-309-82H12v-101h-321v101z"/><glyph glyph-name="uni0335" unicode="̵" d="M-309 300H12v-97h-321v97z"/><glyph glyph-name="uni0394" unicode="Δ" horiz-adv-x="769" d="M739 133V0H31v133l282 579h144zm-516 20h327L387 516z"/><glyph glyph-name="Sigma" unicode="Σ" horiz-adv-x="621" d="M573 563H259l178-241-1-113L258-33h315v-149H46v135l228 312L46 577v135h527V563z"/><glyph glyph-name="uni03A9" unicode="Ω" horiz-adv-x="833" d="M754 277.5Q718 210 648 149h125V0H468v145q73 64 104 125.5T603 409q0 80-49 124.5T417 578t-137.5-45T230 409q0-77 32-138.5T367 145V0H61v149h124q-70 61-106 128.5T43 415q0 91 47 161t131.5 108T417 722t195.5-38 131-108T790 415q0-70-36-137.5z"/><glyph glyph-name="uni03BC" unicode="μ" horiz-adv-x="619" d="M565 508V0H388v68Q339-8 243-8h-11v-208H51v724h181V206q0-75 65-75 38 0 61.5 27t23.5 72v278h183z"/><glyph glyph-name="pi" unicode="π" horiz-adv-x="651" d="M643 119 631-10l-52 3q-92 6-145 29.5t-76.5 72T334 225v150h-47q-3-94-17.5-182T219 0L34-1q33 119 50 204.5T106 375H4v133h611V375H515V193q0-36 16-51t56-18z"/><glyph glyph-name="uni1E08" unicode="Ḉ" horiz-adv-x="685" d="M456 773H347l104 158h162zM558 16.5Q500-4 436-8l-5-32h8q41 0 64-19t23-51q0-41-37-65.5T382-200q-22 0-48.5 4.5T285-183l11 65q54-14 80-14 43 0 43 22 0 17-32 17-12 0-32-5l-20 22 10 71Q252 8 184.5 56.5T81 182 45 357q0 108 44.5 190.5t127 128T410 721q70 0 135.5-21T651 643l-57-133q-87 63-180 63-86 0-132-54.5T236 357q0-108 46-163t132-55q93 0 180 63l57-133q-35-32-93-52.5z"/><glyph glyph-name="uni1E09" unicode="ḉ" horiz-adv-x="515" d="M363 573H254l98 208h172zM246 352q-30-32-30-95 0-64 30-96.5t87-32.5q33 0 68.5 13t62.5 35l46-123q-29-26-76.5-41.5T332-7l-5-33h8q41 0 64-19t23-51q0-41-37-65.5T278-200q-22 0-48.5 4.5T181-183l11 65q54-14 80-14 43 0 43 22 0 17-32 17-12 0-32-5l-20 22 10 73Q141 14 86 81T31 253q0 80 35.5 141t99.5 94.5T314 522q56 0 110-16.5t86-44.5l-46-125q-27 22-63 35t-69 13q-56 0-86-32z"/><glyph glyph-name="uni1E0C" unicode="Ḍ" horiz-adv-x="781" d="M64 712h291q118 0 203.5-42.5t131-122.5T735 357q0-111-45-191.5t-130.5-123T355 0H64v712zm278-562q104 0 155.5 51.5T549 357q0 205-207 205h-90V150h90zM469-57v-151H310v151h159z"/><glyph glyph-name="uni1E0D" unicode="ḍ" horiz-adv-x="643" d="M589 736V0H411v69q-22-36-64-56.5T255-8q-65 0-116 33.5t-79.5 94T31 259q0 78 28.5 138t79.5 92.5T255 522q48 0 88.5-20t64.5-54v288h181zM385 160.5q26 33.5 26 96.5 0 61-26.5 94.5T311 385q-49 0-75-32.5T210 259q0-63 26.5-97.5T311 127t74 33.5zM401-57v-151H242v151h159z"/><glyph glyph-name="uni1E0E" unicode="Ḏ" horiz-adv-x="781" d="M64 712h291q118 0 203.5-42.5t131-122.5T735 357q0-111-45-191.5t-130.5-123T355 0H64v712zm278-562q104 0 155.5 51.5T549 357q0 205-207 205h-90V150h90zM229-82h321v-101H229v101z"/><glyph glyph-name="uni1E0F" unicode="ḏ" horiz-adv-x="643" d="M589 736V0H411v69q-22-36-64-56.5T255-8q-65 0-116 33.5t-79.5 94T31 259q0 78 28.5 138t79.5 92.5T255 522q48 0 88.5-20t64.5-54v288h181zM385 160.5q26 33.5 26 96.5 0 61-26.5 94.5T311 385q-49 0-75-32.5T210 259q0-63 26.5-97.5T311 127t74 33.5zM161-82h321v-101H161v101z"/><glyph glyph-name="uni1E14" unicode="Ḕ" horiz-adv-x="604" d="M64 712h508V568H247V434h304V290H247V144h325V0H64v712zm111 194h321V798H175v108zm-51 187h162l104-158H281z"/><glyph glyph-name="uni1E15" unicode="ḕ" horiz-adv-x="553" d="M523 236H204q5-59 34-85t85-26q38 0 76 12.5t69 34.5l46-120q-38-28-92-44T314-8q-87 0-151 32t-98 91.5T31 256q0 77 32.5 137.5t90 94.5T285 522q72 0 126-32t83-91.5T523 260v-24zm-317 84h162q-10 78-78 78-67 0-84-78zm-82 409h321V621H124v108zM69 972h172l98-208H230z"/><glyph glyph-name="uni1E16" unicode="Ḗ" horiz-adv-x="604" d="M64 712h508V568H247V434h304V290H247V144h325V0H64v712zm111 194h321V798H175v108zm106 29 104 158h162L390 935H281z"/><glyph glyph-name="uni1E17" unicode="ḗ" horiz-adv-x="553" d="M523 236H204q5-59 34-85t85-26q38 0 76 12.5t69 34.5l46-120q-38-28-92-44T314-8q-87 0-151 32t-98 91.5T31 256q0 77 32.5 137.5t90 94.5T285 522q72 0 126-32t83-91.5T523 260v-24zm-317 84h162q-10 78-78 78-67 0-84-78zm-82 409h321V621H124v108zm106 35 98 208h172L339 764H230z"/><glyph glyph-name="uni1E1C" unicode="Ḝ" horiz-adv-x="604" d="M217 810q-49 29-67 82l77 33q30-41 109-41 78 0 108 41l77-33q-18-53-67-82t-118-29q-70 0-119 29zm30-242V434h304V290H247V144h325V0H371l-6-40h8q41 0 64-19t23-51q0-41-37-65.5T316-200q-22 0-48.5 4.5T219-183l11 65q54-14 80-14 43 0 43 22 0 17-32 17-12 0-32-5l-20 22 10 76H64v712h508V568H247z"/><glyph glyph-name="uni1E1D" unicode="ḝ" horiz-adv-x="553" d="M160 632.5Q105 672 89 746l77 34q45-77 119-77 73 0 118 77l77-34q-16-74-71-113.5T285 593q-70 0-125 39.5zM523 236H204q5-59 34-85t85-26q38 0 76 12.5t69 34.5l46-120q-32-24-77.5-39.5T344-7l-5-33h8q41 0 64-19t23-51q0-41-37-65.5T290-200q-22 0-48.5 4.5T193-183l11 65q54-14 80-14 43 0 43 22 0 17-32 17-12 0-32-5l-20 22 10 72Q149 13 90 81.5T31 256q0 77 32.5 137.5t90 94.5T285 522q72 0 126-32t83-91.5T523 260v-24zm-317 84h162q-10 78-78 78-67 0-84-78z"/><glyph glyph-name="uni1E20" unicode="Ḡ" horiz-adv-x="751" d="M696 402V45Q639 19 568.5 5T424-9Q308-9 222.5 35T91 161.5 45 357q0 110 46 192.5t130 127T417 721q77 0 145.5-20T674 646l-59-133q-49 32-94.5 46.5T423 574q-95 0-141.5-53.5T235 357q0-114 48.5-169T433 133q47 0 94 10v132H403v127h293zM256 906h321V798H256v108z"/><glyph glyph-name="uni1E21" unicode="ḡ" horiz-adv-x="647" d="M595 508V32q0-125-75-190.5T300-224q-124 0-215 44l27 132q45-20 92.5-31.5T294-91q62 0 91.5 26.5T415 18v75q-25-33-67.5-56T257 14q-65 0-116.5 31.5t-80.5 89T31 268q0 75 29 132.5t80.5 89.5T257 522q51 0 93-21t65-57v64h180zM388 180.5q27 31.5 27 87.5 0 54-27 85.5T313 385t-75.5-31-27.5-86 28-87 75-32q48 0 75 31.5zM163 729h321V621H163v108z"/><glyph glyph-name="uni1E24" unicode="Ḥ" horiz-adv-x="784" d="M720 712V0H536v288H248V0H64v712h184V435h288v277h184zM471-57v-151H312v151h159z"/><glyph glyph-name="uni1E25" unicode="ḥ" horiz-adv-x="624" d="M528.5 467.5Q573 413 573 303V0H392v295q0 47-16 67.5T326 383q-41 0-66-27.5T235 283V0H54v736h181V446q59 76 159 76 90 0 134.5-54.5zM393-57v-151H234v151h159z"/><glyph glyph-name="uni1E2A" unicode="Ḫ" horiz-adv-x="784" d="M720 712V0H536v288H248V0H64v712h184V435h288v277h184zM267-195.5Q212-156 196-82l77 32q46-75 119-75 72 0 118 75l77-32q-16-74-71-113.5T392-235q-70 0-125 39.5z"/><glyph glyph-name="uni1E2B" unicode="ḫ" horiz-adv-x="624" d="M528.5 467.5Q573 413 573 303V0H392v295q0 47-16 67.5T326 383q-41 0-66-27.5T235 283V0H54v736h181V446q59 76 159 76 90 0 134.5-54.5zM189-195.5Q134-156 118-82l77 32q46-75 119-75 72 0 118 75l77-32q-16-74-71-113.5T314-235q-70 0-125 39.5z"/><glyph glyph-name="uni1E2E" unicode="Ḯ" horiz-adv-x="316" d="M64 712h188V0H64v712zm72 216V777H-24v151h160zm201 0V777H177v151h160zm-235 7 104 158h162L211 935H102z"/><glyph glyph-name="uni1E2F" unicode="ḯ" horiz-adv-x="289" d="M54 508h181V0H54v508zm69 243V599H-37v152h160zm201 0V599H164v152h160zM89 764l98 208h172L198 764H89z"/><glyph glyph-name="uni1E36" unicode="Ḷ" horiz-adv-x="579" d="M64 712h188V152h301V0H64v712zM396-57v-151H237v151h159z"/><glyph glyph-name="uni1E37" unicode="ḷ" horiz-adv-x="289" d="M54 736h181V0H54v736zM223-57v-151H64v151h159z"/><glyph glyph-name="uni1E3A" unicode="Ḻ" horiz-adv-x="579" d="M64 712h188V152h301V0H64v712zm92-794h321v-101H156v101z"/><glyph glyph-name="uni1E3B" unicode="ḻ" horiz-adv-x="289" d="M54 736h181V0H54v736zM-17-82h321v-101H-17v101z"/><glyph glyph-name="uni1E42" unicode="Ṃ" horiz-adv-x="852" d="M785 712V0H621l-1 326L485 0H366L230 322V0H67v712h147l213-486 212 486h146zM504-57v-151H345v151h159z"/><glyph glyph-name="uni1E43" unicode="ṃ" horiz-adv-x="925" d="M831.5 468Q874 414 874 303V0H693v298q0 45-13.5 65T634 383q-38 0-59-28t-21-79V0H373v298q0 45-14 65t-45 20q-38 0-58.5-28T235 276V0H54v362q0 82-8 146h170l9-71q23 41 64.5 63t95.5 22q109 0 148-92 27 42 71.5 67t96.5 25q88 0 130.5-54zM544-57v-151H385v151h159z"/><glyph glyph-name="uni1E44" unicode="Ṅ" horiz-adv-x="766" d="M701 712V0H562L239 404V0H64v712h137l323-402v402h177zM476 934V771H287v163h189z"/><glyph glyph-name="uni1E45" unicode="ṅ" horiz-adv-x="624" d="M528.5 467.5Q573 413 573 303V0H392v295q0 47-16 67.5T326 383q-41 0-66-27.5T235 283V0H54v362q0 82-8 146h170l9-75q29 43 72 66t97 23q90 0 134.5-54.5zM408 757V594H219v163h189z"/><glyph glyph-name="uni1E46" unicode="Ṇ" horiz-adv-x="766" d="M701 712V0H562L239 404V0H64v712h137l323-402v402h177zM462-57v-151H303v151h159z"/><glyph glyph-name="uni1E47" unicode="ṇ" horiz-adv-x="624" d="M528.5 467.5Q573 413 573 303V0H392v295q0 47-16 67.5T326 383q-41 0-66-27.5T235 283V0H54v362q0 82-8 146h170l9-75q29 43 72 66t97 23q90 0 134.5-54.5zM393-57v-151H234v151h159z"/><glyph glyph-name="uni1E48" unicode="Ṉ" horiz-adv-x="766" d="M701 712V0H562L239 404V0H64v712h137l323-402v402h177zM222-82h321v-101H222v101z"/><glyph glyph-name="uni1E49" unicode="ṉ" horiz-adv-x="624" d="M528.5 467.5Q573 413 573 303V0H392v295q0 47-16 67.5T326 383q-41 0-66-27.5T235 283V0H54v362q0 82-8 146h170l9-75q29 43 72 66t97 23q90 0 134.5-54.5zM153-82h321v-101H153v101z"/><glyph glyph-name="uni1E4C" unicode="Ṍ" horiz-adv-x="805" d="M213 35.5Q132 80 88.5 163T45 357t44 193 124.5 126.5T403 721t189.5-44.5T716 550t43-193-43-194T592.5 35.5 403-9 213 35.5zM528.5 191Q574 248 574 357q0 108-45.5 164.5T403 578t-125-56-45-165q0-110 45-166.5T403 134t125.5 57zM254 894.5q33 39.5 84 39.5 17 0 33-6.5t40-20.5q19-11 32-17t25-6q17 0 28 12t14 35h72q0-81-33-120.5T465 771q-17 0-33 6.5T392 798q-19 11-32 17t-25 6q-17 0-28-12t-14-35h-72q0 81 33 120.5zm93 40.5 104 158h162L456 935H347z"/><glyph glyph-name="uni1E4D" unicode="ṍ" horiz-adv-x="618" d="M162 24q-63 32-97 92T31 257t34 141 97 92 148 32q84 0 146.5-32.5t96.5-92T587 257t-34-140.5-96.5-92T310-8q-85 0-148 32zm246 233q0 66-24.5 97.5T310 386q-50 0-75-31.5T210 257q0-67 25-98.5t75-31.5q98 0 98 130zM162 719.5q33 39.5 84 39.5 17 0 33-6.5t40-20.5q19-11 32-17t25-6q17 0 28 12t14 35h72q0-81-33-120.5T373 596q-17 0-33 6.5T300 623q-19 11-32 17t-25 6q-17 0-28-12t-14-35h-72q0 81 33 120.5zm93 44.5 98 208h172L364 764H255z"/><glyph glyph-name="uni1E4E" unicode="Ṏ" horiz-adv-x="805" d="M213 35.5Q132 80 88.5 163T45 357t44 193 124.5 126.5T403 721t189.5-44.5T716 550t43-193-43-194T592.5 35.5 403-9 213 35.5zM528.5 191Q574 248 574 357q0 108-45.5 164.5T403 578t-125-56-45-165q0-110 45-166.5T403 134t125.5 57zM254 894.5q33 39.5 84 39.5 17 0 33-6.5t40-20.5q19-11 32-17t25-6q17 0 28 12t14 35h72q0-81-33-120.5T465 771q-17 0-33 6.5T392 798q-19 11-32 17t-25 6q-17 0-28-12t-14-35h-72q0 81 33 120.5zM381 1090V939H221v151h160zm201 0V939H422v151h160z"/><glyph glyph-name="uni1E4F" unicode="ṏ" horiz-adv-x="618" d="M162 24q-63 32-97 92T31 257t34 141 97 92 148 32q84 0 146.5-32.5t96.5-92T587 257t-34-140.5-96.5-92T310-8q-85 0-148 32zm246 233q0 66-24.5 97.5T310 386q-50 0-75-31.5T210 257q0-67 25-98.5t75-31.5q98 0 98 130zM162 719.5q33 39.5 84 39.5 17 0 33-6.5t40-20.5q19-11 32-17t25-6q17 0 28 12t14 35h72q0-81-33-120.5T373 596q-17 0-33 6.5T300 623q-19 11-32 17t-25 6q-17 0-28-12t-14-35h-72q0 81 33 120.5zM289 942V790H129v152h160zm201 0V790H330v152h160z"/><glyph glyph-name="uni1E50" unicode="Ṑ" horiz-adv-x="805" d="M213 35.5Q132 80 88.5 163T45 357t44 193 124.5 126.5T403 721t189.5-44.5T716 550t43-193-43-194T592.5 35.5 403-9 213 35.5zM528.5 191Q574 248 574 357q0 108-45.5 164.5T403 578t-125-56-45-165q0-110 45-166.5T403 134t125.5 57zM241 906h321V798H241v108zm-51 187h162l104-158H347z"/><glyph glyph-name="uni1E51" unicode="ṑ" horiz-adv-x="618" d="M162 24q-63 32-97 92T31 257t34 141 97 92 148 32q84 0 146.5-32.5t96.5-92T587 257t-34-140.5-96.5-92T310-8q-85 0-148 32zm246 233q0 66-24.5 97.5T310 386q-50 0-75-31.5T210 257q0-67 25-98.5t75-31.5q98 0 98 130zM149 729h321V621H149v108zM94 972h172l98-208H255z"/><glyph glyph-name="uni1E52" unicode="Ṓ" horiz-adv-x="805" d="M213 35.5Q132 80 88.5 163T45 357t44 193 124.5 126.5T403 721t189.5-44.5T716 550t43-193-43-194T592.5 35.5 403-9 213 35.5zM528.5 191Q574 248 574 357q0 108-45.5 164.5T403 578t-125-56-45-165q0-110 45-166.5T403 134t125.5 57zM241 906h321V798H241v108zm106 29 104 158h162L456 935H347z"/><glyph glyph-name="uni1E53" unicode="ṓ" horiz-adv-x="618" d="M162 24q-63 32-97 92T31 257t34 141 97 92 148 32q84 0 146.5-32.5t96.5-92T587 257t-34-140.5-96.5-92T310-8q-85 0-148 32zm246 233q0 66-24.5 97.5T310 386q-50 0-75-31.5T210 257q0-67 25-98.5t75-31.5q98 0 98 130zM149 729h321V621H149v108zm106 35 98 208h172L364 764H255z"/><glyph glyph-name="uni1E5A" unicode="Ṛ" horiz-adv-x="714" d="M683 0H484l-92 237q-16 40-75 40h-68V0H64v712h331q129 0 194-55.5T654 498q0-72-38.5-124.5T507 299q30-6 54-28t38-59zM452 435.5q27 18.5 27 57.5 0 41-26.5 59T365 570H247V417h118q60 0 87 18.5zM441-57v-151H282v151h159z"/><glyph glyph-name="uni1E5B" unicode="ṛ" horiz-adv-x="430" d="M432 509V344q-43 20-83 20-114 0-114-109V0H54v362q0 82-8 146h170l11-85q18 47 58 72t90 25q37 0 57-11zM223-57v-151H64v151h159z"/><glyph glyph-name="uni1E5E" unicode="Ṟ" horiz-adv-x="714" d="M683 0H484l-92 237q-16 40-75 40h-68V0H64v712h331q129 0 194-55.5T654 498q0-72-38.5-124.5T507 299q30-6 54-28t38-59zM452 435.5q27 18.5 27 57.5 0 41-26.5 59T365 570H247V417h118q60 0 87 18.5zM201-82h321v-101H201v101z"/><glyph glyph-name="uni1E5F" unicode="ṟ" horiz-adv-x="430" d="M432 509V344q-43 20-83 20-114 0-114-109V0H54v362q0 82-8 146h170l11-85q18 47 58 72t90 25q37 0 57-11zM-17-82h321v-101H-17v101z"/><glyph glyph-name="uni1E60" unicode="Ṡ" horiz-adv-x="672" d="M164 12Q86 33 37 69l59 133q52-33 110.5-50.5T324 134q60 0 92 16.5t32 46.5q0 27-29 44.5T310 276q-101 20-157 49.5T74.5 395 52 492q0 65 37 117.5t104 82T346 721q77 0 149.5-21.5T609 643l-58-133q-47 33-99 50.5T348 578q-51 0-82-19.5T235 506q0-18 11-30t41-23.5 90-24.5q97-21 152.5-50.5t78.5-69 23-94.5q0-104-81-163.5T322-9q-80 0-158 21zm270 922V771H245v163h189z"/><glyph glyph-name="uni1E61" unicode="ṡ" horiz-adv-x="507" d="m19 53 46 123q41-28 93-43.5T260 117q31 0 48 9t17 25q0 14-12.5 22.5T265 189l-82 19q-78 16-112.5 50.5T36 354q0 49 29 87t80.5 59.5T264 522q55 0 108-16t99-45l-48-120q-40 26-82 40t-79 14q-30 0-47-9.5T198 358q0-11 10-17.5t38-13.5l85-19q81-19 116.5-55.5T483 153q0-75-59.5-118T259-8Q107-8 19 53zm337 704V594H167v163h189z"/><glyph glyph-name="uni1E62" unicode="Ṣ" horiz-adv-x="672" d="M164 12Q86 33 37 69l59 133q52-33 110.5-50.5T324 134q60 0 92 16.5t32 46.5q0 27-29 44.5T310 276q-101 20-157 49.5T74.5 395 52 492q0 65 37 117.5t104 82T346 721q77 0 149.5-21.5T609 643l-58-133q-47 33-99 50.5T348 578q-51 0-82-19.5T235 506q0-18 11-30t41-23.5 90-24.5q97-21 152.5-50.5t78.5-69 23-94.5q0-104-81-163.5T322-9q-80 0-158 21zm247-69v-151H252v151h159z"/><glyph glyph-name="uni1E63" unicode="ṣ" horiz-adv-x="507" d="m19 53 46 123q41-28 93-43.5T260 117q31 0 48 9t17 25q0 14-12.5 22.5T265 189l-82 19q-78 16-112.5 50.5T36 354q0 49 29 87t80.5 59.5T264 522q55 0 108-16t99-45l-48-120q-40 26-82 40t-79 14q-30 0-47-9.5T198 358q0-11 10-17.5t38-13.5l85-19q81-19 116.5-55.5T483 153q0-75-59.5-118T259-8Q107-8 19 53zM333-57v-151H174v151h159z"/><glyph glyph-name="uni1E64" unicode="Ṥ" horiz-adv-x="672" d="M164 12Q86 33 37 69l59 133q52-33 110.5-50.5T324 134q60 0 92 16.5t32 46.5q0 27-29 44.5T310 276q-101 20-157 49.5T74.5 395 52 492q0 65 37 117.5t104 82T346 721q77 0 149.5-21.5T609 643l-58-133q-47 33-99 50.5T348 578q-51 0-82-19.5T235 506q0-18 11-30t41-23.5 90-24.5q97-21 152.5-50.5t78.5-69 23-94.5q0-104-81-163.5T322-9q-80 0-158 21zm155 761 104 158h162L428 773H319zm-12 157V767H118v163h189z"/><glyph glyph-name="uni1E65" unicode="ṥ" horiz-adv-x="507" d="m19 53 46 123q41-28 93-43.5T260 117q31 0 48 9t17 25q0 14-12.5 22.5T265 189l-82 19q-78 16-112.5 50.5T36 354q0 49 29 87t80.5 59.5T264 522q55 0 108-16t99-45l-48-120q-40 26-82 40t-79 14q-30 0-47-9.5T198 358q0-11 10-17.5t38-13.5l85-19q81-19 116.5-55.5T483 153q0-75-59.5-118T259-8Q107-8 19 53zm207 506 98 208h172L335 559H226zm20 210V606H57v163h189z"/><glyph glyph-name="uni1E66" unicode="Ṧ" horiz-adv-x="672" d="M164 12Q86 33 37 69l59 133q52-33 110.5-50.5T324 134q60 0 92 16.5t32 46.5q0 27-29 44.5T310 276q-101 20-157 49.5T74.5 395 52 492q0 65 37 117.5t104 82T346 721q77 0 149.5-21.5T609 643l-58-133q-47 33-99 50.5T348 578q-51 0-82-19.5T235 506q0-18 11-30t41-23.5 90-24.5q97-21 152.5-50.5t78.5-69 23-94.5q0-104-81-163.5T322-9q-80 0-158 21zm364 919L389 773h-99L151 931h131l58-79 57 79h131zm-94 165V933H245v163h189z"/><glyph glyph-name="uni1E67" unicode="ṧ" horiz-adv-x="507" d="m19 53 46 123q41-28 93-43.5T260 117q31 0 48 9t17 25q0 14-12.5 22.5T265 189l-82 19q-78 16-112.5 50.5T36 354q0 49 29 87t80.5 59.5T264 522q55 0 108-16t99-45l-48-120q-40 26-82 40t-79 14q-30 0-47-9.5T198 358q0-11 10-17.5t38-13.5l85-19q81-19 116.5-55.5T483 153q0-75-59.5-118T259-8Q107-8 19 53zm431 728L314 573H209L73 781h136l53-107 52 107h136zm-94 167V785H167v163h189z"/><glyph glyph-name="uni1E68" unicode="Ṩ" horiz-adv-x="672" d="M164 12Q86 33 37 69l59 133q52-33 110.5-50.5T324 134q60 0 92 16.5t32 46.5q0 27-29 44.5T310 276q-101 20-157 49.5T74.5 395 52 492q0 65 37 117.5t104 82T346 721q77 0 149.5-21.5T609 643l-58-133q-47 33-99 50.5T348 578q-51 0-82-19.5T235 506q0-18 11-30t41-23.5 90-24.5q97-21 152.5-50.5t78.5-69 23-94.5q0-104-81-163.5T322-9q-80 0-158 21zm247-69v-151H252v151h159zm23 991V771H245v163h189z"/><glyph glyph-name="uni1E69" unicode="ṩ" horiz-adv-x="507" d="m19 53 46 123q41-28 93-43.5T260 117q31 0 48 9t17 25q0 14-12.5 22.5T265 189l-82 19q-78 16-112.5 50.5T36 354q0 49 29 87t80.5 59.5T264 522q55 0 108-16t99-45l-48-120q-40 26-82 40t-79 14q-30 0-47-9.5T198 358q0-11 10-17.5t38-13.5l85-19q81-19 116.5-55.5T483 153q0-75-59.5-118T259-8Q107-8 19 53zM333-57v-151H174v151h159zm23 814V594H167v163h189z"/><glyph glyph-name="uni1E6C" unicode="Ṭ" horiz-adv-x="638" d="M224 560H12v152h614V560H414V0H224v560zM398-57v-151H239v151h159z"/><glyph glyph-name="uni1E6D" unicode="ṭ" horiz-adv-x="416" d="M402 144V7Q365-8 308-8 205-8 151.5 50T98 211v164H3v133h95v115l181 58V508h122V375H279V211q0-36 21.5-54.5T354 138q18 0 48 6zM340-57v-151H181v151h159z"/><glyph glyph-name="uni1E6E" unicode="Ṯ" horiz-adv-x="638" d="M224 560H12v152h614V560H414V0H224v560zM158-82h321v-101H158v101z"/><glyph glyph-name="uni1E6F" unicode="ṯ" horiz-adv-x="416" d="M402 144V7Q365-8 308-8 205-8 151.5 50T98 211v164H3v133h95v115l181 58V508h122V375H279V211q0-36 21.5-54.5T354 138q18 0 48 6zM100-82h321v-101H100v101z"/><glyph glyph-name="uni1E78" unicode="Ṹ" horiz-adv-x="752" d="M141 69.5Q61 148 61 300v412h183V293q0-77 34.5-118t98.5-41q63 0 97 41.5T508 293v419h185V300q0-150-81.5-229.5T377-9Q221-9 141 69.5zm88 825q33 39.5 84 39.5 17 0 33-6.5t40-20.5q19-11 32-17t25-6q17 0 28 12t14 35h72q0-81-33-120.5T440 771q-17 0-33 6.5T367 798q-19 11-32 17t-25 6q-17 0-28-12t-14-35h-72q0 81 33 120.5zm93 40.5 104 158h162L431 935H322z"/><glyph glyph-name="uni1E79" unicode="ṹ" horiz-adv-x="619" d="M565 508V0H388v68Q339-8 243-8 146-8 98.5 46T51 211v297h181V206q0-75 65-75 38 0 61.5 27t23.5 72v278h183zM161 719.5q33 39.5 84 39.5 17 0 33-6.5t40-20.5q19-11 32-17t25-6q17 0 28 12t14 35h72q0-81-33-120.5T372 596q-17 0-33 6.5T299 623q-19 11-32 17t-25 6q-17 0-28-12t-14-35h-72q0 81 33 120.5zm93 44.5 98 208h172L363 764H254z"/><glyph glyph-name="uni1E7A" unicode="Ṻ" horiz-adv-x="752" d="M141 69.5Q61 148 61 300v412h183V293q0-77 34.5-118t98.5-41q63 0 97 41.5T508 293v419h185V300q0-150-81.5-229.5T377-9Q221-9 141 69.5zM216 906h321V798H216v108zm140 184V939H196v151h160zm201 0V939H397v151h160z"/><glyph glyph-name="uni1E7B" unicode="ṻ" horiz-adv-x="619" d="M565 508V0H388v68Q339-8 243-8 146-8 98.5 46T51 211v297h181V206q0-75 65-75 38 0 61.5 27t23.5 72v278h183zM148 729h321V621H148v108zm140 213V790H128v152h160zm201 0V790H329v152h160z"/><glyph glyph-name="Wgrave" unicode="Ẁ" horiz-adv-x="1132" d="M1120 712 865 0H716L567 423 415 0H266L12 712h191l146-449 159 449h128l153-457 153 457h178zM355 931h162l104-158H512z"/><glyph glyph-name="wgrave" unicode="ẁ" horiz-adv-x="900" d="M910 508 698 0H549L447 252 351 0H201L-11 508h184l113-293 110 293h116l113-299 111 299h174zM233 781h172l98-208H394z"/><glyph glyph-name="Wacute" unicode="Ẃ" horiz-adv-x="1132" d="M1120 712 865 0H716L567 423 415 0H266L12 712h191l146-449 159 449h128l153-457 153 457h178zm-608 61 104 158h162L621 773H512z"/><glyph glyph-name="wacute" unicode="ẃ" horiz-adv-x="900" d="M910 508 698 0H549L447 252 351 0H201L-11 508h184l113-293 110 293h116l113-299 111 299h174zm-516 65 98 208h172L503 573H394z"/><glyph glyph-name="Wdieresis" unicode="Ẅ" horiz-adv-x="1132" d="M1120 712 865 0H716L567 423 415 0H266L12 712h191l146-449 159 449h128l153-457 153 457h178zM546 928V777H386v151h160zm201 0V777H587v151h160z"/><glyph glyph-name="wdieresis" unicode="ẅ" horiz-adv-x="900" d="M910 508 698 0H549L447 252 351 0H201L-11 508h184l113-293 110 293h116l113-299 111 299h174zM428 751V599H268v152h160zm201 0V599H469v152h160z"/><glyph glyph-name="uni1E8E" unicode="Ẏ" horiz-adv-x="657" d="M423 272V0H234v273L-65 712h212l180-284 183 284h214zm-1 662V771H233v163h189z"/><glyph glyph-name="uni1E8F" unicode="ẏ" horiz-adv-x="559" d="M579 508 346-18q-46-103-115.5-150.5T59-228L17-90q70 14 105 36t53 61l13 28-207 473h188l114-293 118 293h178zM373 757V594H184v163h189z"/><glyph glyph-name="uni1E92" unicode="Ẓ" horiz-adv-x="624" d="M589 147V0H53v137l314 428H53v147h525V577L260 147h329zM386-57v-151H227v151h159z"/><glyph glyph-name="uni1E93" unicode="ẓ" horiz-adv-x="535" d="M504 134V0H47v127l230 248H48v133h446V389L258 134h246zM344-57v-151H185v151h159z"/><glyph glyph-name="uni1E97" unicode="ẗ" horiz-adv-x="416" d="M402 144V7Q365-8 308-8 205-8 151.5 50T98 211v164H3v133h95v115l181 58V508h122V375H279V211q0-36 21.5-54.5T354 138q18 0 48 6zM168 872V721H8v151h160zm201 0V721H209v151h160z"/><glyph glyph-name="uni1E9E" unicode="ẞ" horiz-adv-x="726" d="M658.5 312Q698 266 698 200q0-58-30-105t-82-74T470-6Q409-6 363.5 7T278 49l47 130q76-48 135-48 28 0 44.5 20.5T521 207q0 45-26.5 63T400 288h-89v144h76q82 0 82 67 0 35-26 55.5T374 575q-60 0-93-34t-33-96V0H64v440q0 131 83.5 205T379 719q79 0 138.5-25t92-71T642 516q0-48-24.5-86T550 372q69-14 108.5-60z"/><glyph glyph-name="uni1EA0" unicode="Ạ" horiz-adv-x="769" d="M544 147H228L165 0H-23l333 712h148L792 0H607zm-61 141-97 225-97-225h194zM464-57v-151H305v151h159z"/><glyph glyph-name="uni1EA1" unicode="ạ" horiz-adv-x="643" d="M589 508V0H411v69q-22-36-64-56.5T255-8q-65 0-116 32t-79.5 91.5T31 253q0 79 29 140t80 95 115 34q50 0 91.5-21.5T411 443v65h178zM385 160q26 33 26 95 0 63-26 96.5T311 385q-47 0-74-34.5T210 253q0-61 26-93.5t75-32.5q48 0 74 33zm15-217v-151H241v151h159z"/><glyph glyph-name="uni1EA2" unicode="Ả" horiz-adv-x="769" d="M544 147H228L165 0H-23l333 712h148L792 0H607zm-61 141-97 225-97-225h194zm-58 485h-84v23q0 18 12 27t33 18q21 7 21 14 0 16-31 16-24 0-55-10l-22 56q45 18 102 18 49 0 79.5-19t30.5-45q0-19-13.5-30.5T461 819q-19-9-27.5-15.5T425 787v-14z"/><glyph glyph-name="uni1EA3" unicode="ả" horiz-adv-x="643" d="M589 508V0H411v69q-22-36-64-56.5T255-8q-65 0-116 32t-79.5 91.5T31 253q0 79 29 140t80 95 115 34q50 0 91.5-21.5T411 443v65h178zM385 160q26 33 26 95 0 63-26 96.5T311 385q-47 0-74-34.5T210 253q0-61 26-93.5t75-32.5q48 0 74 33zm-20 413h-86v24q0 21 9 33.5t27 28.5q11 9 16 15t5 13q0 11-7.5 16.5T305 709q-24 0-46-8l-23 62q43 20 89 20 58 0 90.5-23t32.5-55q0-24-13-39t-37-32q-17-11-25-19.5t-8-18.5v-23z"/><glyph glyph-name="uni1EA4" unicode="Ấ" horiz-adv-x="769" d="M544 147H228L165 0H-23l333 712h148L792 0H607zm-61 141-97 225-97-225h194zm-1 594 65 142h142L566 882h-84zM195 773l139 136h99l139-136H444l-60 59-61-59H195z"/><glyph glyph-name="uni1EA5" unicode="ấ" horiz-adv-x="643" d="M589 508V0H411v69q-22-36-64-56.5T255-8q-65 0-116 32t-79.5 91.5T31 253q0 79 29 140t80 95 115 34q50 0 91.5-21.5T411 443v65h178zM385 160q26 33 26 95 0 63-26 96.5T311 385q-47 0-74-34.5T210 253q0-61 26-93.5t75-32.5q48 0 74 33zm34 523 65 141h142L503 683h-84zM132 573l139 136h99l139-136H381l-60 59-61-59H132z"/><glyph glyph-name="uni1EA6" unicode="Ầ" horiz-adv-x="769" d="M544 147H228L165 0H-23l333 712h148L792 0H607zm-61 141-97 225-97-225h194zm-85 736h143l68-142h-84zM195 773l139 136h99l139-136H444l-60 59-61-59H195z"/><glyph glyph-name="uni1EA7" unicode="ầ" horiz-adv-x="643" d="M589 508V0H411v69q-22-36-64-56.5T255-8q-65 0-116 32t-79.5 91.5T31 253q0 79 29 140t80 95 115 34q50 0 91.5-21.5T411 443v65h178zM385 160q26 33 26 95 0 63-26 96.5T311 385q-47 0-74-34.5T210 253q0-61 26-93.5t75-32.5q48 0 74 33zm-50 664h143l68-141h-84zM132 573l139 136h99l139-136H381l-60 59-61-59H132z"/><glyph glyph-name="uni1EA8" unicode="Ẩ" horiz-adv-x="769" d="M544 147H228L165 0H-23l333 712h148L792 0H607zm-61 141-97 225-97-225h194zm82 596h-84v21q0 19 14.5 28.5t33 15.5 18.5 8q0 5-7 8.5t-23 3.5q-26 0-56-11l-22 54q45 18 102 18 50 0 80-16t30-42q0-20-12.5-30T601 921q-20-8-28-13.5t-8-16.5v-7zM195 773l139 136h99l139-136H444l-60 59-61-59H195z"/><glyph glyph-name="uni1EA9" unicode="ẩ" horiz-adv-x="643" d="M589 508V0H411v69q-22-36-64-56.5T255-8q-65 0-116 32t-79.5 91.5T31 253q0 79 29 140t80 95 115 34q50 0 91.5-21.5T411 443v65h178zM385 160q26 33 26 95 0 63-26 96.5T311 385q-47 0-74-34.5T210 253q0-61 26-93.5t75-32.5q48 0 74 33zm117 524h-84v21q0 19 14.5 28.5t33 15.5 18.5 8q0 4-7 8t-23 4q-21 0-56-11l-22 54q47 19 102 19 50 0 80-17t30-44q0-19-13-29t-37-19q-19-8-27.5-14t-8.5-16v-8zM132 573l139 136h99l139-136H381l-60 59-61-59H132z"/><glyph glyph-name="uni1EAA" unicode="Ẫ" horiz-adv-x="769" d="M544 147H228L165 0H-23l333 712h148L792 0H607zm-61 141-97 225-97-225h194zm-245.5 717q34.5 31 82.5 31 17 0 36.5-4.5T393 1021q37-13 57-13 19 0 29 4.5t13 19.5h72q0-45-34.5-76.5T447 924q-27 0-73 16-37 13-57 13-19 0-29-5t-13-20h-72q0 46 34.5 77zM195 773l139 136h99l139-136H444l-60 59-61-59H195z"/><glyph glyph-name="uni1EAB" unicode="ẫ" horiz-adv-x="643" d="M589 508V0H411v69q-22-36-64-56.5T255-8q-65 0-116 32t-79.5 91.5T31 253q0 79 29 140t80 95 115 34q50 0 91.5-21.5T411 443v65h178zM385 160q26 33 26 95 0 63-26 96.5T311 385q-47 0-74-34.5T210 253q0-61 26-93.5t75-32.5q48 0 74 33zM174.5 805q34.5 31 82.5 31 17 0 36.5-4.5T330 821q37-13 57-13 19 0 29 4.5t13 19.5h72q0-45-34.5-76.5T384 724q-17 0-36.5 4.5T311 739q-37 13-57 13-19 0-29-4.5T212 728h-72q0 46 34.5 77zM132 573l139 136h99l139-136H381l-60 59-61-59H132z"/><glyph glyph-name="uni1EAC" unicode="Ậ" horiz-adv-x="769" d="M544 147H228L165 0H-23l333 712h148L792 0H607zm-61 141-97 225-97-225h194zM464-57v-151H305v151h159zM195 773l139 158h99l139-158H441l-57 78-58-78H195z"/><glyph glyph-name="uni1EAD" unicode="ậ" horiz-adv-x="643" d="M589 508V0H411v69q-22-36-64-56.5T255-8q-65 0-116 32t-79.5 91.5T31 253q0 79 29 140t80 95 115 34q50 0 91.5-21.5T411 443v65h178zM385 160q26 33 26 95 0 63-26 96.5T311 385q-47 0-74-34.5T210 253q0-61 26-93.5t75-32.5q48 0 74 33zm15-217v-151H241v151h159zM132 573l136 208h105l136-208H373l-52 106-53-106H132z"/><glyph glyph-name="uni1EAE" unicode="Ắ" horiz-adv-x="769" d="M544 147H228L165 0H-23l333 712h148L792 0H607zm-61 141-97 225-97-225h194zM332 882l101 142h149L435 882H332zm-67-85q-49 29-67 82l57 24q15-22 52.5-36t76.5-14q38 0 75.5 14t52.5 36l57-24q-18-53-67-82t-118-29q-70 0-119 29z"/><glyph glyph-name="uni1EAF" unicode="ắ" horiz-adv-x="643" d="M589 508V0H411v69q-22-36-64-56.5T255-8q-65 0-116 32t-79.5 91.5T31 253q0 79 29 140t80 95 115 34q50 0 91.5-21.5T411 443v65h178zM385 160q26 33 26 95 0 63-26 96.5T311 385q-47 0-74-34.5T210 253q0-61 26-93.5t75-32.5q48 0 74 33zM269 683l101 141h149L372 683H269zm-67-86q-49 29-67 82l57 24q15-22 52.5-35.5T321 654t76 13.5 52 35.5l57-24q-18-53-67-82t-118-29q-70 0-119 29z"/><glyph glyph-name="uni1EB0" unicode="Ằ" horiz-adv-x="769" d="M544 147H228L165 0H-23l333 712h148L792 0H607zm-61 141-97 225-97-225h194zm-298 736h149l101-142H332zm80-227q-49 29-67 82l57 24q15-22 52.5-36t76.5-14q38 0 75.5 14t52.5 36l57-24q-18-53-67-82t-118-29q-70 0-119 29z"/><glyph glyph-name="uni1EB1" unicode="ằ" horiz-adv-x="643" d="M589 508V0H411v69q-22-36-64-56.5T255-8q-65 0-116 32t-79.5 91.5T31 253q0 79 29 140t80 95 115 34q50 0 91.5-21.5T411 443v65h178zM385 160q26 33 26 95 0 63-26 96.5T311 385q-47 0-74-34.5T210 253q0-61 26-93.5t75-32.5q48 0 74 33zM122 824h149l101-141H269zm80-227q-49 29-67 82l57 24q15-22 52.5-35.5T321 654t76 13.5 52 35.5l57-24q-18-53-67-82t-118-29q-70 0-119 29z"/><glyph glyph-name="uni1EB2" unicode="Ẳ" horiz-adv-x="769" d="M544 147H228L165 0H-23l333 712h148L792 0H607zm-61 141-97 225-97-225h194zm-58 596h-84v21q0 19 14.5 28.5t33 15.5 18.5 8q0 5-7 8.5t-24 3.5q-25 0-55-11l-22 54q45 18 102 18 50 0 80-16t30-42q0-20-12.5-30T461 921q-20-8-28-13.5t-8-16.5v-7zm-160-87q-49 29-67 82l57 24q15-22 52.5-36t76.5-14q38 0 75.5 14t52.5 36l57-24q-18-53-67-82t-118-29q-70 0-119 29z"/><glyph glyph-name="uni1EB3" unicode="ẳ" horiz-adv-x="643" d="M589 508V0H411v69q-22-36-64-56.5T255-8q-65 0-116 32t-79.5 91.5T31 253q0 79 29 140t80 95 115 34q50 0 91.5-21.5T411 443v65h178zM385 160q26 33 26 95 0 63-26 96.5T311 385q-47 0-74-34.5T210 253q0-61 26-93.5t75-32.5q48 0 74 33zm-23 524h-84v21q0 19 14.5 28.5t33 15.5 18.5 8q0 4-7 8t-24 4q-20 0-55-11l-22 54q47 19 102 19 50 0 80-17t30-44q0-19-13-29t-37-19q-19-8-27.5-14t-8.5-16v-8zm-160-87q-49 29-67 82l57 24q15-22 52.5-35.5T321 654t76 13.5 52 35.5l57-24q-18-53-67-82t-118-29q-70 0-119 29z"/><glyph glyph-name="uni1EB4" unicode="Ẵ" horiz-adv-x="769" d="M544 147H228L165 0H-23l333 712h148L792 0H607zm-61 141-97 225-97-225h194zM237.5 997.5Q272 1028 320 1028q27 0 73-14 37-11 57-11 19 0 29 4.5t13 17.5h72q0-44-34.5-75T447 919q-27 0-73 14-37 11-57 11-19 0-29-4.5T275 922h-72q0 45 34.5 75.5zM265 797q-49 29-67 82l57 24q15-22 52.5-36t76.5-14q38 0 75.5 14t52.5 36l57-24q-18-53-67-82t-118-29q-70 0-119 29z"/><glyph glyph-name="uni1EB5" unicode="ẵ" horiz-adv-x="643" d="M589 508V0H411v69q-22-36-64-56.5T255-8q-65 0-116 32t-79.5 91.5T31 253q0 79 29 140t80 95 115 34q50 0 91.5-21.5T411 443v65h178zM385 160q26 33 26 95 0 63-26 96.5T311 385q-47 0-74-34.5T210 253q0-61 26-93.5t75-32.5q48 0 74 33zM174.5 797.5Q209 828 257 828q27 0 73-14 37-11 57-11 19 0 29 4.5t13 17.5h72q0-44-34.5-75T384 719q-27 0-73 14-37 11-57 11-19 0-29-4.5T212 722h-72q0 45 34.5 75.5zM202 597q-49 29-67 82l57 24q15-22 52.5-35.5T321 654t76 13.5 52 35.5l57-24q-18-53-67-82t-118-29q-70 0-119 29z"/><glyph glyph-name="uni1EB6" unicode="Ặ" horiz-adv-x="769" d="M544 147H228L165 0H-23l333 712h148L792 0H607zm-61 141-97 225-97-225h194zM464-57v-151H305v151h159zM265 810q-49 29-67 82l77 33q30-41 109-41 78 0 108 41l77-33q-18-53-67-82t-118-29q-70 0-119 29z"/><glyph glyph-name="uni1EB7" unicode="ặ" horiz-adv-x="643" d="M589 508V0H411v69q-22-36-64-56.5T255-8q-65 0-116 32t-79.5 91.5T31 253q0 79 29 140t80 95 115 34q50 0 91.5-21.5T411 443v65h178zM385 160q26 33 26 95 0 63-26 96.5T311 385q-47 0-74-34.5T210 253q0-61 26-93.5t75-32.5q48 0 74 33zm15-217v-151H241v151h159zM196 632.5Q141 672 125 746l77 34q45-77 119-77 73 0 118 77l77-34q-16-74-71-113.5T321 593q-70 0-125 39.5z"/><glyph glyph-name="uni1EB8" unicode="Ẹ" horiz-adv-x="604" d="M64 712h508V568H247V434h304V290H247V144h325V0H64v712zM415-57v-151H256v151h159z"/><glyph glyph-name="uni1EB9" unicode="ẹ" horiz-adv-x="553" d="M523 236H204q5-59 34-85t85-26q38 0 76 12.5t69 34.5l46-120q-38-28-92-44T314-8q-87 0-151 32t-98 91.5T31 256q0 77 32.5 137.5t90 94.5T285 522q72 0 126-32t83-91.5T523 260v-24zm-317 84h162q-10 78-78 78-67 0-84-78zM389-57v-151H230v151h159z"/><glyph glyph-name="uni1EBA" unicode="Ẻ" horiz-adv-x="604" d="M64 712h508V568H247V434h304V290H247V144h325V0H64v712zm313 61h-84v23q0 18 12 27t33 18q21 7 21 14 0 16-31 16-24 0-55-10l-22 56q45 18 102 18 49 0 79.5-19t30.5-45q0-19-13.5-30.5T413 819q-19-9-27.5-15.5T377 787v-14z"/><glyph glyph-name="uni1EBB" unicode="ẻ" horiz-adv-x="553" d="M523 236H204q5-59 34-85t85-26q38 0 76 12.5t69 34.5l46-120q-38-28-92-44T314-8q-87 0-151 32t-98 91.5T31 256q0 77 32.5 137.5t90 94.5T285 522q72 0 126-32t83-91.5T523 260v-24zm-317 84h162q-10 78-78 78-67 0-84-78zm123 253h-86v24q0 21 9 33.5t27 28.5q11 9 16 15t5 13q0 11-7.5 16.5T269 709q-24 0-46-8l-23 62q43 20 89 20 58 0 90.5-23t32.5-55q0-24-13-39t-37-32q-17-11-25-19.5t-8-18.5v-23z"/><glyph glyph-name="uni1EBC" unicode="Ẽ" horiz-adv-x="604" d="M64 712h508V568H247V434h304V290H247V144h325V0H64v712zm124 182.5q33 39.5 84 39.5 17 0 33-6.5t40-20.5q19-11 32-17t25-6q17 0 28 12t14 35h72q0-81-33-120.5T399 771q-17 0-33 6.5T326 798q-19 11-32 17t-25 6q-17 0-28-12t-14-35h-72q0 81 33 120.5z"/><glyph glyph-name="uni1EBD" unicode="ẽ" horiz-adv-x="553" d="M523 236H204q5-59 34-85t85-26q38 0 76 12.5t69 34.5l46-120q-38-28-92-44T314-8q-87 0-151 32t-98 91.5T31 256q0 77 32.5 137.5t90 94.5T285 522q72 0 126-32t83-91.5T523 260v-24zm-317 84h162q-10 78-78 78-67 0-84-78zm-69 399.5q33 39.5 84 39.5 17 0 33-6.5t40-20.5q19-11 32-17t25-6q17 0 28 12t14 35h72q0-81-33-120.5T348 596q-17 0-33 6.5T275 623q-19 11-32 17t-25 6q-17 0-28-12t-14-35h-72q0 81 33 120.5z"/><glyph glyph-name="uni1EBE" unicode="Ế" horiz-adv-x="604" d="M64 712h508V568H247V434h304V290H247V144h325V0H64v712zm370 170 65 142h142L518 882h-84zM147 773l139 136h99l139-136H396l-60 59-61-59H147z"/><glyph glyph-name="uni1EBF" unicode="ế" horiz-adv-x="553" d="M523 236H204q5-59 34-85t85-26q38 0 76 12.5t69 34.5l46-120q-38-28-92-44T314-8q-87 0-151 32t-98 91.5T31 256q0 77 32.5 137.5t90 94.5T285 522q72 0 126-32t83-91.5T523 260v-24zm-317 84h162q-10 78-78 78-67 0-84-78zm177 363 65 141h142L467 683h-84zM96 573l139 136h99l139-136H345l-60 59-61-59H96z"/><glyph glyph-name="uni1EC0" unicode="Ề" horiz-adv-x="604" d="M64 712h508V568H247V434h304V290H247V144h325V0H64v712zm286 312h143l68-142h-84zM147 773l139 136h99l139-136H396l-60 59-61-59H147z"/><glyph glyph-name="uni1EC1" unicode="ề" horiz-adv-x="553" d="M523 236H204q5-59 34-85t85-26q38 0 76 12.5t69 34.5l46-120q-38-28-92-44T314-8q-87 0-151 32t-98 91.5T31 256q0 77 32.5 137.5t90 94.5T285 522q72 0 126-32t83-91.5T523 260v-24zm-317 84h162q-10 78-78 78-67 0-84-78zm93 504h143l68-141h-84zM96 573l139 136h99l139-136H345l-60 59-61-59H96z"/><glyph glyph-name="uni1EC2" unicode="Ể" horiz-adv-x="604" d="M64 712h508V568H247V434h304V290H247V144h325V0H64v712zm453 172h-84v21q0 19 14.5 28.5t33 15.5 18.5 8q0 5-7 8.5t-23 3.5q-26 0-56-11l-22 54q45 18 102 18 50 0 80-16t30-42q0-20-12.5-30T553 921q-20-8-28-13.5t-8-16.5v-7zM147 773l139 136h99l139-136H396l-60 59-61-59H147z"/><glyph glyph-name="uni1EC3" unicode="ể" horiz-adv-x="553" d="M523 236H204q5-59 34-85t85-26q38 0 76 12.5t69 34.5l46-120q-38-28-92-44T314-8q-87 0-151 32t-98 91.5T31 256q0 77 32.5 137.5t90 94.5T285 522q72 0 126-32t83-91.5T523 260v-24zm-317 84h162q-10 78-78 78-67 0-84-78zm260 364h-84v21q0 19 14.5 28.5t33 15.5 18.5 8q0 4-7 8t-23 4q-21 0-56-11l-22 54q47 19 102 19 50 0 80-17t30-44q0-19-13-29t-37-19q-19-8-27.5-14t-8.5-16v-8zM96 573l139 136h99l139-136H345l-60 59-61-59H96z"/><glyph glyph-name="uni1EC4" unicode="Ễ" horiz-adv-x="604" d="M64 712h508V568H247V434h304V290H247V144h325V0H64v712zm125.5 293q34.5 31 82.5 31 17 0 36.5-4.5T345 1021q37-13 57-13 19 0 29 4.5t13 19.5h72q0-45-34.5-76.5T399 924q-27 0-73 16-37 13-57 13-19 0-29-5t-13-20h-72q0 46 34.5 77zM147 773l139 136h99l139-136H396l-60 59-61-59H147z"/><glyph glyph-name="uni1EC5" unicode="ễ" horiz-adv-x="553" d="M523 236H204q5-59 34-85t85-26q38 0 76 12.5t69 34.5l46-120q-38-28-92-44T314-8q-87 0-151 32t-98 91.5T31 256q0 77 32.5 137.5t90 94.5T285 522q72 0 126-32t83-91.5T523 260v-24zm-317 84h162q-10 78-78 78-67 0-84-78zm-67.5 485q34.5 31 82.5 31 17 0 36.5-4.5T294 821q37-13 57-13 19 0 29 4.5t13 19.5h72q0-45-34.5-76.5T348 724q-17 0-36.5 4.5T275 739q-37 13-57 13-19 0-29-4.5T176 728h-72q0 46 34.5 77zM96 573l139 136h99l139-136H345l-60 59-61-59H96z"/><glyph glyph-name="uni1EC6" unicode="Ệ" horiz-adv-x="604" d="M64 712h508V568H247V434h304V290H247V144h325V0H64v712zM415-57v-151H256v151h159zM147 773l139 158h99l139-158H393l-57 78-58-78H147z"/><glyph glyph-name="uni1EC7" unicode="ệ" horiz-adv-x="553" d="M523 236H204q5-59 34-85t85-26q38 0 76 12.5t69 34.5l46-120q-38-28-92-44T314-8q-87 0-151 32t-98 91.5T31 256q0 77 32.5 137.5t90 94.5T285 522q72 0 126-32t83-91.5T523 260v-24zm-317 84h162q-10 78-78 78-67 0-84-78zM389-57v-151H230v151h159zM96 573l136 208h105l136-208H337l-52 106-53-106H96z"/><glyph glyph-name="uni1EC8" unicode="Ỉ" horiz-adv-x="316" d="M64 712h188V0H64v712zm134 61h-84v23q0 18 12 27t33 18q21 7 21 14 0 16-31 16-24 0-55-10l-22 56q45 18 102 18 49 0 79.5-19t30.5-45q0-19-13.5-30.5T234 819q-19-9-27.5-15.5T198 787v-14z"/><glyph glyph-name="uni1EC9" unicode="ỉ" horiz-adv-x="289" d="M54 508h181V0H54v508zm134 65h-86v24q0 21 9 33.5t27 28.5q11 9 16 15t5 13q0 11-7.5 16.5T128 709q-24 0-46-8l-23 62q43 20 89 20 58 0 90.5-23t32.5-55q0-24-13-39t-37-32q-17-11-25-19.5t-8-18.5v-23z"/><glyph glyph-name="uni1ECA" unicode="Ị" horiz-adv-x="316" d="M64 712h188V0H64v712zM236-57v-151H77v151h159z"/><glyph glyph-name="uni1ECB" unicode="ị" horiz-adv-x="289" d="M54 508h181V0H54v508zm184 249V594H49v163h189zM223-57v-151H64v151h159z"/><glyph glyph-name="uni1ECC" unicode="Ọ" horiz-adv-x="805" d="M213 35.5Q132 80 88.5 163T45 357t44 193 124.5 126.5T403 721t189.5-44.5T716 550t43-193-43-194T592.5 35.5 403-9 213 35.5zM528.5 191Q574 248 574 357q0 108-45.5 164.5T403 578t-125-56-45-165q0-110 45-166.5T403 134t125.5 57zM482-57v-151H323v151h159z"/><glyph glyph-name="uni1ECD" unicode="ọ" horiz-adv-x="618" d="M162 24q-63 32-97 92T31 257t34 141 97 92 148 32q84 0 146.5-32.5t96.5-92T587 257t-34-140.5-96.5-92T310-8q-85 0-148 32zm246 233q0 66-24.5 97.5T310 386q-50 0-75-31.5T210 257q0-67 25-98.5t75-31.5q98 0 98 130zM389-57v-151H230v151h159z"/><glyph glyph-name="uni1ECE" unicode="Ỏ" horiz-adv-x="805" d="M213 35.5Q132 80 88.5 163T45 357t44 193 124.5 126.5T403 721t189.5-44.5T716 550t43-193-43-194T592.5 35.5 403-9 213 35.5zM528.5 191Q574 248 574 357q0 108-45.5 164.5T403 578t-125-56-45-165q0-110 45-166.5T403 134t125.5 57zM443 773h-84v23q0 18 12 27t33 18q21 7 21 14 0 16-31 16-24 0-55-10l-22 56q45 18 102 18 49 0 79.5-19t30.5-45q0-19-13.5-30.5T479 819q-19-9-27.5-15.5T443 787v-14z"/><glyph glyph-name="uni1ECF" unicode="ỏ" horiz-adv-x="618" d="M162 24q-63 32-97 92T31 257t34 141 97 92 148 32q84 0 146.5-32.5t96.5-92T587 257t-34-140.5-96.5-92T310-8q-85 0-148 32zm246 233q0 66-24.5 97.5T310 386q-50 0-75-31.5T210 257q0-67 25-98.5t75-31.5q98 0 98 130zm-54 316h-86v24q0 21 9 33.5t27 28.5q11 9 16 15t5 13q0 11-7.5 16.5T294 709q-24 0-46-8l-23 62q43 20 89 20 58 0 90.5-23t32.5-55q0-24-13-39t-37-32q-17-11-25-19.5t-8-18.5v-23z"/><glyph glyph-name="uni1ED0" unicode="Ố" horiz-adv-x="805" d="M213 35.5Q132 80 88.5 163T45 357t44 193 124.5 126.5T403 721t189.5-44.5T716 550t43-193-43-194T592.5 35.5 403-9 213 35.5zM528.5 191Q574 248 574 357q0 108-45.5 164.5T403 578t-125-56-45-165q0-110 45-166.5T403 134t125.5 57zM500 882l65 142h142L584 882h-84zM213 773l139 136h99l139-136H462l-60 59-61-59H213z"/><glyph glyph-name="uni1ED1" unicode="ố" horiz-adv-x="618" d="M162 24q-63 32-97 92T31 257t34 141 97 92 148 32q84 0 146.5-32.5t96.5-92T587 257t-34-140.5-96.5-92T310-8q-85 0-148 32zm246 233q0 66-24.5 97.5T310 386q-50 0-75-31.5T210 257q0-67 25-98.5t75-31.5q98 0 98 130zm0 426 65 141h142L492 683h-84zM121 573l139 136h99l139-136H370l-60 59-61-59H121z"/><glyph glyph-name="uni1ED2" unicode="Ồ" horiz-adv-x="805" d="M213 35.5Q132 80 88.5 163T45 357t44 193 124.5 126.5T403 721t189.5-44.5T716 550t43-193-43-194T592.5 35.5 403-9 213 35.5zM528.5 191Q574 248 574 357q0 108-45.5 164.5T403 578t-125-56-45-165q0-110 45-166.5T403 134t125.5 57zM416 1024h143l68-142h-84zM213 773l139 136h99l139-136H462l-60 59-61-59H213z"/><glyph glyph-name="uni1ED3" unicode="ồ" horiz-adv-x="618" d="M162 24q-63 32-97 92T31 257t34 141 97 92 148 32q84 0 146.5-32.5t96.5-92T587 257t-34-140.5-96.5-92T310-8q-85 0-148 32zm246 233q0 66-24.5 97.5T310 386q-50 0-75-31.5T210 257q0-67 25-98.5t75-31.5q98 0 98 130zm-84 567h143l68-141h-84zM121 573l139 136h99l139-136H370l-60 59-61-59H121z"/><glyph glyph-name="uni1ED4" unicode="Ổ" horiz-adv-x="805" d="M213 35.5Q132 80 88.5 163T45 357t44 193 124.5 126.5T403 721t189.5-44.5T716 550t43-193-43-194T592.5 35.5 403-9 213 35.5zM528.5 191Q574 248 574 357q0 108-45.5 164.5T403 578t-125-56-45-165q0-110 45-166.5T403 134t125.5 57zM583 884h-84v21q0 19 14.5 28.5t33 15.5 18.5 8q0 5-7 8.5t-23 3.5q-26 0-56-11l-22 54q45 18 102 18 50 0 80-16t30-42q0-20-12.5-30T619 921q-20-8-28-13.5t-8-16.5v-7zM213 773l139 136h99l139-136H462l-60 59-61-59H213z"/><glyph glyph-name="uni1ED5" unicode="ổ" horiz-adv-x="618" d="M162 24q-63 32-97 92T31 257t34 141 97 92 148 32q84 0 146.5-32.5t96.5-92T587 257t-34-140.5-96.5-92T310-8q-85 0-148 32zm246 233q0 66-24.5 97.5T310 386q-50 0-75-31.5T210 257q0-67 25-98.5t75-31.5q98 0 98 130zm83 427h-84v21q0 19 14.5 28.5t33 15.5 18.5 8q0 4-7 8t-23 4q-21 0-56-11l-22 54q47 19 102 19 50 0 80-17t30-44q0-19-13-29t-37-19q-19-8-27.5-14t-8.5-16v-8zM121 573l139 136h99l139-136H370l-60 59-61-59H121z"/><glyph glyph-name="uni1ED6" unicode="Ỗ" horiz-adv-x="805" d="M213 35.5Q132 80 88.5 163T45 357t44 193 124.5 126.5T403 721t189.5-44.5T716 550t43-193-43-194T592.5 35.5 403-9 213 35.5zM528.5 191Q574 248 574 357q0 108-45.5 164.5T403 578t-125-56-45-165q0-110 45-166.5T403 134t125.5 57zm-273 814q34.5 31 82.5 31 17 0 36.5-4.5T411 1021q37-13 57-13 19 0 29 4.5t13 19.5h72q0-45-34.5-76.5T465 924q-27 0-73 16-37 13-57 13-19 0-29-5t-13-20h-72q0 46 34.5 77zM213 773l139 136h99l139-136H462l-60 59-61-59H213z"/><glyph glyph-name="uni1ED7" unicode="ỗ" horiz-adv-x="618" d="M162 24q-63 32-97 92T31 257t34 141 97 92 148 32q84 0 146.5-32.5t96.5-92T587 257t-34-140.5-96.5-92T310-8q-85 0-148 32zm246 233q0 66-24.5 97.5T310 386q-50 0-75-31.5T210 257q0-67 25-98.5t75-31.5q98 0 98 130zM163.5 805q34.5 31 82.5 31 17 0 36.5-4.5T319 821q37-13 57-13 19 0 29 4.5t13 19.5h72q0-45-34.5-76.5T373 724q-17 0-36.5 4.5T300 739q-37 13-57 13-19 0-29-4.5T201 728h-72q0 46 34.5 77zM121 573l139 136h99l139-136H370l-60 59-61-59H121z"/><glyph glyph-name="uni1ED8" unicode="Ộ" horiz-adv-x="805" d="M213 35.5Q132 80 88.5 163T45 357t44 193 124.5 126.5T403 721t189.5-44.5T716 550t43-193-43-194T592.5 35.5 403-9 213 35.5zM528.5 191Q574 248 574 357q0 108-45.5 164.5T403 578t-125-56-45-165q0-110 45-166.5T403 134t125.5 57zM482-57v-151H323v151h159zM213 773l139 158h99l139-158H459l-57 78-58-78H213z"/><glyph glyph-name="uni1ED9" unicode="ộ" horiz-adv-x="618" d="M162 24q-63 32-97 92T31 257t34 141 97 92 148 32q84 0 146.5-32.5t96.5-92T587 257t-34-140.5-96.5-92T310-8q-85 0-148 32zm246 233q0 66-24.5 97.5T310 386q-50 0-75-31.5T210 257q0-67 25-98.5t75-31.5q98 0 98 130zM389-57v-151H230v151h159zM121 573l136 208h105l136-208H362l-52 106-53-106H121z"/><glyph glyph-name="uni1EDA" unicode="Ớ" horiz-adv-x="805" d="M729 690.5Q699 648 650 634q109-96 109-277 0-111-43-194T592.5 35.5 403-9 213 35.5 88.5 163 45 357t44 193 125 126.5T405 721q30 0 62-5 36-4 58-4 44 0 61.5 22t17.5 77v22h155v-43q0-57-30-99.5zM528.5 191Q574 248 574 357q0 108-45.5 164.5T403 578t-125-56-45-165q0-110 45-166.5T403 134t125.5 57zM347 773l104 158h162L456 773H347z"/><glyph glyph-name="uni1EDB" unicode="ớ" horiz-adv-x="618" d="M594.5 496.5Q568 455 522 438q65-66 65-183 0-80-34-139.5T456.5 24 310-8q-85 0-148 32t-97 91.5T31 255q0 82 34 142t96 92.5T306 522q21 0 68-7 15-3 22-3 31 0 51 21t20 81v22h154v-43q0-55-26.5-96.5zM408 257q0 66-24.5 97.5T310 386q-50 0-75-31.5T210 257q0-67 25-98.5t75-31.5q98 0 98 130zM255 573l98 208h172L364 573H255z"/><glyph glyph-name="uni1EDC" unicode="Ờ" horiz-adv-x="805" d="M729 690.5Q699 648 650 634q109-96 109-277 0-111-43-194T592.5 35.5 403-9 213 35.5 88.5 163 45 357t44 193 125 126.5T405 721q30 0 62-5 36-4 58-4 44 0 61.5 22t17.5 77v22h155v-43q0-57-30-99.5zM528.5 191Q574 248 574 357q0 108-45.5 164.5T403 578t-125-56-45-165q0-110 45-166.5T403 134t125.5 57zM190 931h162l104-158H347z"/><glyph glyph-name="uni1EDD" unicode="ờ" horiz-adv-x="618" d="M594.5 496.5Q568 455 522 438q65-66 65-183 0-80-34-139.5T456.5 24 310-8q-85 0-148 32t-97 91.5T31 255q0 82 34 142t96 92.5T306 522q21 0 68-7 15-3 22-3 31 0 51 21t20 81v22h154v-43q0-55-26.5-96.5zM408 257q0 66-24.5 97.5T310 386q-50 0-75-31.5T210 257q0-67 25-98.5t75-31.5q98 0 98 130zM94 781h172l98-208H255z"/><glyph glyph-name="uni1EDE" unicode="Ở" horiz-adv-x="805" d="M729 690.5Q699 648 650 634q109-96 109-277 0-111-43-194T592.5 35.5 403-9 213 35.5 88.5 163 45 357t44 193 125 126.5T405 721q30 0 62-5 36-4 58-4 44 0 61.5 22t17.5 77v22h155v-43q0-57-30-99.5zM528.5 191Q574 248 574 357q0 108-45.5 164.5T403 578t-125-56-45-165q0-110 45-166.5T403 134t125.5 57zM443 773h-84v23q0 18 12 27t33 18q21 7 21 14 0 16-31 16-24 0-55-10l-22 56q45 18 102 18 49 0 79.5-19t30.5-45q0-19-13.5-30.5T479 819q-19-9-27.5-15.5T443 787v-14z"/><glyph glyph-name="uni1EDF" unicode="ở" horiz-adv-x="618" d="M594.5 496.5Q568 455 522 438q65-66 65-183 0-80-34-139.5T456.5 24 310-8q-85 0-148 32t-97 91.5T31 255q0 82 34 142t96 92.5T306 522q21 0 68-7 15-3 22-3 31 0 51 21t20 81v22h154v-43q0-55-26.5-96.5zM408 257q0 66-24.5 97.5T310 386q-50 0-75-31.5T210 257q0-67 25-98.5t75-31.5q98 0 98 130zm-54 316h-86v24q0 21 9 33.5t27 28.5q11 9 16 15t5 13q0 11-7.5 16.5T294 709q-24 0-46-8l-23 62q43 20 89 20 58 0 90.5-23t32.5-55q0-24-13-39t-37-32q-17-11-25-19.5t-8-18.5v-23z"/><glyph glyph-name="uni1EE0" unicode="Ỡ" horiz-adv-x="805" d="M729 690.5Q699 648 650 634q109-96 109-277 0-111-43-194T592.5 35.5 403-9 213 35.5 88.5 163 45 357t44 193 125 126.5T405 721q30 0 62-5 36-4 58-4 44 0 61.5 22t17.5 77v22h155v-43q0-57-30-99.5zM528.5 191Q574 248 574 357q0 108-45.5 164.5T403 578t-125-56-45-165q0-110 45-166.5T403 134t125.5 57zM254 894.5q33 39.5 84 39.5 17 0 33-6.5t40-20.5q19-11 32-17t25-6q17 0 28 12t14 35h72q0-81-33-120.5T465 771q-17 0-33 6.5T392 798q-19 11-32 17t-25 6q-17 0-28-12t-14-35h-72q0 81 33 120.5z"/><glyph glyph-name="uni1EE1" unicode="ỡ" horiz-adv-x="618" d="M594.5 496.5Q568 455 522 438q65-66 65-183 0-80-34-139.5T456.5 24 310-8q-85 0-148 32t-97 91.5T31 255q0 82 34 142t96 92.5T306 522q21 0 68-7 15-3 22-3 31 0 51 21t20 81v22h154v-43q0-55-26.5-96.5zM408 257q0 66-24.5 97.5T310 386q-50 0-75-31.5T210 257q0-67 25-98.5t75-31.5q98 0 98 130zM162 719.5q33 39.5 84 39.5 17 0 33-6.5t40-20.5q19-11 32-17t25-6q17 0 28 12t14 35h72q0-81-33-120.5T373 596q-17 0-33 6.5T300 623q-19 11-32 17t-25 6q-17 0-28-12t-14-35h-72q0 81 33 120.5z"/><glyph glyph-name="uni1EE2" unicode="Ợ" horiz-adv-x="805" d="M729 690.5Q699 648 650 634q109-96 109-277 0-111-43-194T592.5 35.5 403-9 213 35.5 88.5 163 45 357t44 193 125 126.5T405 721q30 0 62-5 36-4 58-4 44 0 61.5 22t17.5 77v22h155v-43q0-57-30-99.5zM528.5 191Q574 248 574 357q0 108-45.5 164.5T403 578t-125-56-45-165q0-110 45-166.5T403 134t125.5 57zM482-57v-151H323v151h159z"/><glyph glyph-name="uni1EE3" unicode="ợ" horiz-adv-x="618" d="M594.5 496.5Q568 455 522 438q65-66 65-183 0-80-34-139.5T456.5 24 310-8q-85 0-148 32t-97 91.5T31 255q0 82 34 142t96 92.5T306 522q21 0 68-7 15-3 22-3 31 0 51 21t20 81v22h154v-43q0-55-26.5-96.5zM408 257q0 66-24.5 97.5T310 386q-50 0-75-31.5T210 257q0-67 25-98.5t75-31.5q98 0 98 130zM389-57v-151H230v151h159z"/><glyph glyph-name="uni1EE4" unicode="Ụ" horiz-adv-x="752" d="M141 69.5Q61 148 61 300v412h183V293q0-77 34.5-118t98.5-41q63 0 97 41.5T508 293v419h185V300q0-150-81.5-229.5T377-9Q221-9 141 69.5zM456-57v-151H297v151h159z"/><glyph glyph-name="uni1EE5" unicode="ụ" horiz-adv-x="619" d="M565 508V0H388v68Q339-8 243-8 146-8 98.5 46T51 211v297h181V206q0-75 65-75 38 0 61.5 27t23.5 72v278h183zM388-57v-151H229v151h159z"/><glyph glyph-name="uni1EE6" unicode="Ủ" horiz-adv-x="752" d="M141 69.5Q61 148 61 300v412h183V293q0-77 34.5-118t98.5-41q63 0 97 41.5T508 293v419h185V300q0-150-81.5-229.5T377-9Q221-9 141 69.5zM418 773h-84v23q0 18 12 27t33 18q21 7 21 14 0 16-31 16-24 0-55-10l-22 56q45 18 102 18 49 0 79.5-19t30.5-45q0-19-13.5-30.5T454 819q-19-9-27.5-15.5T418 787v-14z"/><glyph glyph-name="uni1EE7" unicode="ủ" horiz-adv-x="619" d="M565 508V0H388v68Q339-8 243-8 146-8 98.5 46T51 211v297h181V206q0-75 65-75 38 0 61.5 27t23.5 72v278h183zm-212 65h-86v24q0 21 9 33.5t27 28.5q11 9 16 15t5 13q0 11-7.5 16.5T293 709q-24 0-46-8l-23 62q43 20 89 20 58 0 90.5-23t32.5-55q0-24-13-39t-37-32q-17-11-25-19.5t-8-18.5v-23z"/><glyph glyph-name="uni1EE8" unicode="Ứ" horiz-adv-x="752" d="M804 833v-43q0-56-30.5-98.5T693 635V300q0-150-81.5-229.5T377-9Q221-9 141 69.5T61 300v412h183V293q0-77 34.5-118t98.5-41q63 0 97 41.5T508 293v419h54q49 0 68 21.5t19 77.5v22h155zm-482-60 104 158h162L431 773H322z"/><glyph glyph-name="uni1EE9" unicode="ứ" horiz-adv-x="648" d="M679 636v-43q0-58-31.5-101.5T565 434V0H388v68Q339-8 243-8 146-8 98.5 46T51 211v297h181V206q0-75 65-75 38 0 61.5 27t23.5 72v278h52q50 0 70 24t20 82v22h155zm-425-63 98 208h172L363 573H254z"/><glyph glyph-name="uni1EEA" unicode="Ừ" horiz-adv-x="752" d="M804 833v-43q0-56-30.5-98.5T693 635V300q0-150-81.5-229.5T377-9Q221-9 141 69.5T61 300v412h183V293q0-77 34.5-118t98.5-41q63 0 97 41.5T508 293v419h54q49 0 68 21.5t19 77.5v22h155zm-639 98h162l104-158H322z"/><glyph glyph-name="uni1EEB" unicode="ừ" horiz-adv-x="648" d="M679 636v-43q0-58-31.5-101.5T565 434V0H388v68Q339-8 243-8 146-8 98.5 46T51 211v297h181V206q0-75 65-75 38 0 61.5 27t23.5 72v278h52q50 0 70 24t20 82v22h155zM93 781h172l98-208H254z"/><glyph glyph-name="uni1EEC" unicode="Ử" horiz-adv-x="752" d="M804 833v-43q0-56-30.5-98.5T693 635V300q0-150-81.5-229.5T377-9Q221-9 141 69.5T61 300v412h183V293q0-77 34.5-118t98.5-41q63 0 97 41.5T508 293v419h54q49 0 68 21.5t19 77.5v22h155zm-386-60h-84v23q0 18 12 27t33 18q21 7 21 14 0 16-31 16-24 0-55-10l-22 56q45 18 102 18 49 0 79.5-19t30.5-45q0-19-13.5-30.5T454 819q-19-9-27.5-15.5T418 787v-14z"/><glyph glyph-name="uni1EED" unicode="ử" horiz-adv-x="648" d="M679 636v-43q0-58-31.5-101.5T565 434V0H388v68Q339-8 243-8 146-8 98.5 46T51 211v297h181V206q0-75 65-75 38 0 61.5 27t23.5 72v278h52q50 0 70 24t20 82v22h155zm-326-63h-86v24q0 21 9 33.5t27 28.5q11 9 16 15t5 13q0 11-7.5 16.5T293 709q-24 0-46-8l-23 62q43 20 89 20 58 0 90.5-23t32.5-55q0-24-13-39t-37-32q-17-11-25-19.5t-8-18.5v-23z"/><glyph glyph-name="uni1EEE" unicode="Ữ" horiz-adv-x="752" d="M804 833v-43q0-56-30.5-98.5T693 635V300q0-150-81.5-229.5T377-9Q221-9 141 69.5T61 300v412h183V293q0-77 34.5-118t98.5-41q63 0 97 41.5T508 293v419h54q49 0 68 21.5t19 77.5v22h155zm-575 61.5q33 39.5 84 39.5 17 0 33-6.5t40-20.5q19-11 32-17t25-6q17 0 28 12t14 35h72q0-81-33-120.5T440 771q-17 0-33 6.5T367 798q-19 11-32 17t-25 6q-17 0-28-12t-14-35h-72q0 81 33 120.5z"/><glyph glyph-name="uni1EEF" unicode="ữ" horiz-adv-x="648" d="M679 636v-43q0-58-31.5-101.5T565 434V0H388v68Q339-8 243-8 146-8 98.5 46T51 211v297h181V206q0-75 65-75 38 0 61.5 27t23.5 72v278h52q50 0 70 24t20 82v22h155zm-518 83.5q33 39.5 84 39.5 17 0 33-6.5t40-20.5q19-11 32-17t25-6q17 0 28 12t14 35h72q0-81-33-120.5T372 596q-17 0-33 6.5T299 623q-19 11-32 17t-25 6q-17 0-28-12t-14-35h-72q0 81 33 120.5z"/><glyph glyph-name="uni1EF0" unicode="Ự" horiz-adv-x="752" d="M804 833v-43q0-56-30.5-98.5T693 635V300q0-150-81.5-229.5T377-9Q221-9 141 69.5T61 300v412h183V293q0-77 34.5-118t98.5-41q63 0 97 41.5T508 293v419h54q49 0 68 21.5t19 77.5v22h155zM456-57v-151H297v151h159z"/><glyph glyph-name="uni1EF1" unicode="ự" horiz-adv-x="648" d="M679 636v-43q0-58-31.5-101.5T565 434V0H388v68Q339-8 243-8 146-8 98.5 46T51 211v297h181V206q0-75 65-75 38 0 61.5 27t23.5 72v278h52q50 0 70 24t20 82v22h155zM388-57v-151H229v151h159z"/><glyph glyph-name="Ygrave" unicode="Ỳ" horiz-adv-x="657" d="M423 272V0H234v273L-65 712h212l180-284 183 284h214zM116 931h162l104-158H273z"/><glyph glyph-name="ygrave" unicode="ỳ" horiz-adv-x="559" d="M579 508 346-18q-46-103-115.5-150.5T59-228L17-90q70 14 105 36t53 61l13 28-207 473h188l114-293 118 293h178zM63 781h172l98-208H224z"/><glyph glyph-name="uni1EF4" unicode="Ỵ" horiz-adv-x="657" d="M423 272V0H234v273L-65 712h212l180-284 183 284h214zM408-57v-151H249v151h159z"/><glyph glyph-name="uni1EF5" unicode="ỵ" horiz-adv-x="559" d="M579 508 346-18q-46-103-115.5-150.5T59-228L17-90q70 14 105 36t53 61l13 28-207 473h188l114-293 118 293h178zM527-57v-151H368v151h159z"/><glyph glyph-name="uni1EF6" unicode="Ỷ" horiz-adv-x="657" d="M423 272V0H234v273L-65 712h212l180-284 183 284h214zm-54 501h-84v23q0 18 12 27t33 18q21 7 21 14 0 16-31 16-24 0-55-10l-22 56q45 18 102 18 49 0 79.5-19t30.5-45q0-19-13.5-30.5T405 819q-19-9-27.5-15.5T369 787v-14z"/><glyph glyph-name="uni1EF7" unicode="ỷ" horiz-adv-x="559" d="M579 508 346-18q-46-103-115.5-150.5T59-228L17-90q70 14 105 36t53 61l13 28-207 473h188l114-293 118 293h178zm-256 65h-86v24q0 21 9 33.5t27 28.5q11 9 16 15t5 13q0 11-7.5 16.5T263 709q-24 0-46-8l-23 62q43 20 89 20 58 0 90.5-23t32.5-55q0-24-13-39t-37-32q-17-11-25-19.5t-8-18.5v-23z"/><glyph glyph-name="uni1EF8" unicode="Ỹ" horiz-adv-x="657" d="M423 272V0H234v273L-65 712h212l180-284 183 284h214zM180 894.5q33 39.5 84 39.5 17 0 33-6.5t40-20.5q19-11 32-17t25-6q17 0 28 12t14 35h72q0-81-33-120.5T391 771q-17 0-33 6.5T318 798q-19 11-32 17t-25 6q-17 0-28-12t-14-35h-72q0 81 33 120.5z"/><glyph glyph-name="uni1EF9" unicode="ỹ" horiz-adv-x="559" d="M579 508 346-18q-46-103-115.5-150.5T59-228L17-90q70 14 105 36t53 61l13 28-207 473h188l114-293 118 293h178zM131 719.5q33 39.5 84 39.5 17 0 33-6.5t40-20.5q19-11 32-17t25-6q17 0 28 12t14 35h72q0-81-33-120.5T342 596q-17 0-33 6.5T269 623q-19 11-32 17t-25 6q-17 0-28-12t-14-35H98q0 81 33 120.5z"/><glyph glyph-name="uni2007" horiz-adv-x="606"/><glyph glyph-name="uni2008" horiz-adv-x="276"/><glyph glyph-name="uni2009" horiz-adv-x="202"/><glyph glyph-name="uni200A" horiz-adv-x="101"/><glyph glyph-name="uni200B" unicode="​"/><glyph glyph-name="uni2010" unicode="‐" horiz-adv-x="450" d="M64 341h324V201H64v140z"/><glyph glyph-name="figuredash" unicode="‒" horiz-adv-x="606" d="M64 323h478V220H64v103z"/><glyph glyph-name="endash" unicode="–" horiz-adv-x="505" d="M0 323h505V220H0v103z"/><glyph glyph-name="emdash" unicode="—" horiz-adv-x="1010" d="M0 323h1010V220H0v103z"/><glyph glyph-name="uni2015" unicode="―" horiz-adv-x="1010" d="M0 323h1010V220H0v103z"/><glyph glyph-name="quoteleft" unicode="‘" horiz-adv-x="276" d="M232 564V378H43v116q0 65 23.5 117.5T146 721l68-54q-55-58-68-103h86z"/><glyph glyph-name="quoteright" unicode="’" horiz-adv-x="276" d="M232 712V596q0-66-23.5-118.5T128 369l-67 54q28 29 44 53.5t23 49.5H43v186h189z"/><glyph glyph-name="quotesinglbase" unicode="‚" horiz-adv-x="276" d="M232 186V69q0-65-23.5-118T128-157l-67 54q55 55 67 103H43v186h189z"/><glyph glyph-name="quotedblleft" unicode="“" horiz-adv-x="502" d="M232 564V378H43v116q0 65 23.5 117.5T146 721l68-54q-55-58-68-103h86zm226 0V378H269v116q0 65 23.5 117.5T372 721l68-54q-55-58-68-103h86z"/><glyph glyph-name="quotedblright" unicode="”" horiz-adv-x="502" d="M232 712V596q0-66-23.5-118.5T128 369l-67 54q28 29 44 53.5t23 49.5H43v186h189zm226 0V596q0-66-23.5-118.5T354 369l-67 54q28 29 44 53.5t23 49.5h-85v186h189z"/><glyph glyph-name="quotedblbase" unicode="„" horiz-adv-x="502" d="M232 186V69q0-65-23.5-118T128-157l-67 54q55 55 67 103H43v186h189zm226 0V69q0-65-23.5-118T354-157l-67 54q55 55 67 103h-85v186h189z"/><glyph glyph-name="dagger" unicode="†" horiz-adv-x="375" d="M253 599h101V485H253V167H121v318H20v114h101v121h132V599z"/><glyph glyph-name="daggerdbl" unicode="‡" horiz-adv-x="375" d="M253 601h101V487H253v-88h101V287H253V166H121v121H20v112h101v88H20v114h101v119h132V601z"/><glyph glyph-name="bullet" unicode="•" horiz-adv-x="529" d="M174 112.5q-42 23.5-67 65T82 268q0 46 24 87.5t66 66.5 93 25q48 0 90-23.5t67-64.5 25-91q0-49-24.5-90T356 113t-91-24-91 23.5z"/><glyph glyph-name="ellipsis" unicode="…" horiz-adv-x="826" d="M232 186V0H43v186h189zm275 0V0H319v186h188zm275 0V0H594v186h188z"/><glyph glyph-name="perthousand" unicode="‰" horiz-adv-x="1380" d="M79 345.5Q28 402 28 508q0 104 51 160t140 56 140-56.5T410 507q0-106-51-162t-140-56-140 56.5zM204 0l414 712h151L356 0H204zm49 423.5q10 23.5 10 83.5 0 57-11 81.5T219 613t-32.5-24.5T176 507q0-59 10.5-83t32.5-24q24 0 34 23.5zm362-374Q565 106 565 212q0 104 50 160t139 56q90 0 140-56t50-161q0-106-50-162T754-7q-89 0-139 56.5zm405 0Q970 106 970 212q0 104 50 160t139 56q90 0 140.5-56t50.5-161q0-106-50.5-162T1159-7q-89 0-139 56.5zM787.5 128q10.5 24 10.5 83 0 57-11 81.5T754 317t-32.5-24.5T711 211q0-59 10.5-83t32.5-24q23 0 33.5 24zm405.5-.5q10 23.5 10 83.5 0 57-11 81.5t-33 24.5-32.5-24.5T1116 211q0-59 10.5-83t32.5-24q24 0 34 23.5z"/><glyph glyph-name="minute" unicode="′" horiz-adv-x="272" d="M32 712h207l-42-310H76z"/><glyph glyph-name="second" unicode="″" horiz-adv-x="494" d="M32 712h207l-42-310H76zm222 0h207l-42-310H298z"/><glyph glyph-name="guilsinglleft" unicode="‹" horiz-adv-x="324" d="m19 267 137 185h148L172 268 303 84H157z"/><glyph glyph-name="guilsinglright" unicode="›" horiz-adv-x="324" d="m21 84 132 184L20 452h149l136-185L168 84H21z"/><glyph glyph-name="fraction" unicode="⁄" horiz-adv-x="213" d="m-157 34 413 710 114-66L-43-32z"/><glyph glyph-name="uni2070" unicode="⁰" horiz-adv-x="380" d="M58.5 337.5Q11 394 11 500q0 104 47.5 160T190 716t131.5-56T369 499q0-106-47.5-162T190 281 58.5 337.5zm156 78.5q7.5 24 7.5 83 0 106-32 106-17 0-25-24.5t-8-81.5q0-59 8-83t25-24 24.5 24z"/><glyph glyph-name="uni2074" unicode="⁴" horiz-adv-x="380" d="M381 341h-59v-56H189v56H3v105l200 266h119V450h59V341zM189 450v84l-66-84h66z"/><glyph glyph-name="uni2075" unicode="⁵" horiz-adv-x="380" d="M328.5 534Q368 498 368 434q0-72-51-113t-133-41q-40 0-85 9t-75 24l20 111q56-28 123-28 32 0 45 7t13 22q0 17-12 23.5t-42 6.5q-32 0-70-7H38v264h302V594H173v-32q22 8 58 8 58 0 97.5-36z"/><glyph glyph-name="uni2076" unicode="⁶" horiz-adv-x="380" d="M326 528q39-33 39-99 0-71-47-109.5T196 281q-82 0-131.5 53T15 493q0 105 56.5 164T224 716q71 0 130-34l-20-111q-56 29-108 29-32 0-48-13t-20-43q30 17 73 17 56 0 95-33zm-89-106q0 40-37 40-20 0-30-9.5T160 422q0-39 37-39 40 0 40 39z"/><glyph glyph-name="uni2077" unicode="⁷" horiz-adv-x="380" d="M359 712V588L199 284l-175 1 169 303H22v124h337z"/><glyph glyph-name="uni2078" unicode="⁸" horiz-adv-x="380" d="M372 401q0-56-50.5-88.5T190 280 58.5 312.5 8 401q0 41 21.5 68.5T96 506q-38 12-57.5 37.5T19 602q0 52 48 83t123 31 123-31 48-83q0-34-20-60t-58-36q89-22 89-105zM162.5 603.5Q151 596 151 582q0-12 8-19.5t17.5-12.5 13.5-7q20 9 29 17t9 22-11 21.5-27 7.5-27.5-7.5zm61-210Q236 402 236 417t-11 24.5-35 17.5q-25-8-36.5-17.5T142 417t13.5-23.5T190 385t33.5 8.5z"/><glyph glyph-name="uni2079" unicode="⁹" horiz-adv-x="380" d="M315.5 663.5Q365 611 365 504q0-105-56.5-164T156 281q-71 0-129 34l18 111q58-29 109-29 32 0 47 13t20 43q-32-16-72-16-56 0-95 32.5T15 568q0 71 47 109.5T184 716q82 0 131.5-52.5zM220 575q0 39-37 39-41 0-41-39 0-19 10-29.5t28-10.5q40 0 40 40z"/><glyph glyph-name="uni2080" unicode="₀" horiz-adv-x="380" d="M58.5 52.5Q11 109 11 215q0 104 47.5 160T190 431t131.5-56T369 214q0-106-47.5-162T190-4 58.5 52.5zm156 78.5q7.5 24 7.5 83 0 106-32 106-17 0-25-24.5t-8-81.5q0-59 8-83t25-24 24.5 24z"/><glyph glyph-name="uni2081" unicode="₁" horiz-adv-x="380" d="M378 119V0H58v119h83v148l-78-39v134l125 65h107V119h83z"/><glyph glyph-name="uni2082" unicode="₂" horiz-adv-x="380" d="M357 119V0H39v112l129 133q27 31 27 49 0 23-38 23-51 0-111-31L26 397q29 15 74.5 24.5T187 431q73 0 118-34.5t45-92.5q0-36-18-67.5T265 162l-52-43h144z"/><glyph glyph-name="uni2083" unicode="₃" horiz-adv-x="380" d="M343 183q21-27 21-65 0-32-20-60.5T283.5 12 183-5q-43 0-88.5 9T20 28l19 111q58-30 129-30 29 0 40.5 6t11.5 18q0 24-43 24H99v116h66q25 0 33.5 4.5T207 295q0 10-10.5 16t-31.5 6q-28 0-59.5-8.5T46 286L26 397q29 15 73 24.5t79 9.5q82 0 127-35t45-87q0-31-16.5-54.5T285 221q37-11 58-38z"/><glyph glyph-name="uni2084" unicode="₄" horiz-adv-x="380" d="M381 56h-59V0H189v56H3v105l200 266h119V165h59V56zM189 165v84l-66-84h66z"/><glyph glyph-name="uni2085" unicode="₅" horiz-adv-x="380" d="M328.5 249Q368 213 368 149q0-72-51-113T184-5q-40 0-85 9T24 28l20 111q56-28 123-28 32 0 45 7t13 22q0 17-12 23.5t-42 6.5q-32 0-70-7H38v264h302V309H173v-32q22 8 58 8 58 0 97.5-36z"/><glyph glyph-name="uni2086" unicode="₆" horiz-adv-x="380" d="M326 243q39-33 39-99 0-71-47-109.5T196-4Q114-4 64.5 49T15 208q0 105 56.5 164T224 431q71 0 130-34l-20-111q-56 29-108 29-32 0-48-13t-20-43q30 17 73 17 56 0 95-33zm-89-106q0 40-37 40-20 0-30-9.5T160 137q0-39 37-39 40 0 40 39z"/><glyph glyph-name="uni2087" unicode="₇" horiz-adv-x="380" d="M359 427V303L199-1 24 0l169 303H22v124h337z"/><glyph glyph-name="uni2088" unicode="₈" horiz-adv-x="380" d="M372 116q0-56-50.5-88.5T190-5 58.5 27.5 8 116q0 41 21.5 68.5T96 221q-38 12-57.5 37.5T19 317q0 52 48 83t123 31 123-31 48-83q0-34-20-60t-58-36q89-22 89-105zM162.5 318.5Q151 311 151 297q0-12 8-19.5t17.5-12.5 13.5-7q20 9 29 17t9 22-11 21.5-27 7.5-27.5-7.5zm61-210Q236 117 236 132t-11 24.5-35 17.5q-25-8-36.5-17.5T142 132t13.5-23.5T190 100t33.5 8.5z"/><glyph glyph-name="uni2089" unicode="₉" horiz-adv-x="380" d="M315.5 378.5Q365 326 365 219q0-105-56.5-164T156-4Q85-4 27 30l18 111q58-29 109-29 32 0 47 13t20 43q-32-16-72-16-56 0-95 32.5T15 283q0 71 47 109.5T184 431q82 0 131.5-52.5zM220 290q0 39-37 39-41 0-41-39 0-19 10-29.5t28-10.5q40 0 40 40z"/><glyph glyph-name="colonmonetary" unicode="₡" horiz-adv-x="600" d="M258.5 518.5Q223 463 223 357q0-107 35.5-163T362 138q34 0 69 14t85 50l58-133q-38-36-98-57T353-9q-27 0-59 5l-47-120-105 41 47 116q-21 12-39 27L99-68-6-31l78 194q-40 83-40 194 0 98 31.5 174.5t90 124T291 716l45 112h118l-43-112q27-4 46-10l48 122h120l-68-171q9-6 17-14l-58-133q-50 36-85 50t-69 14q-68 0-103.5-55.5z"/><glyph glyph-name="franc" unicode="₣" horiz-adv-x="600" d="M599 504V360h-9q-69 0-98.5-24T462 252V0H290v288h-81V0H32v712h451V563H209V437h81v60h156v-98q16 62 47 83.5t92 21.5h14z"/><glyph glyph-name="lira" unicode="₤" horiz-adv-x="600" d="M248 149h328V0H36v126q35 19 48.5 40T99 225H36v106h63v51H36v106h63v29q0 60 31 106.5t86.5 72T343 721t134.5-19.5T588 646l-58-133q-49 31-92.5 47T360 576q-75 0-75-72v-16h154V382H285v-51h154V225H283q-6-50-35-76z"/><glyph glyph-name="uni20A6" unicode="₦" horiz-adv-x="600" d="M505 384v-50h77V227h-77V0H358L246 326V0H95v227H19v107h76v50H19v107h76v221h146l112-356v356h152V491h77V384h-77z"/><glyph glyph-name="peseta" unicode="₧" horiz-adv-x="1200" d="M1189.5 258q38.5-35 38.5-101 0-49-27-86.5t-76.5-58T1010-8Q902-8 822 33l-3-37q-33-4-63-4-124 0-179.5 51.5T521 205v170h-53q-25-70-82.5-111T250 223h-18V0H52v728h198q97 0 160.5-60T483 508h38v148h181V508h97V374h-97V203q0-41 18.5-61.5T778 121q10 0 36 2l20 53q43-26 89-40t89-14q24 0 39 8.5t15 22.5q0 12-8 20t-28.5 14.5T966 202q-82 16-121 52.5T806 352q0 47 28.5 86t77 61.5T1018 522q50 0 102-16.5t95-44.5l-47-120q-89 50-157 50-17 0-29.5-8.5T969 360q0-16 17-25t71-21q94-21 132.5-56zm-889 131.5Q317 415 317 474t-17 85.5-56 26.5h-13V364h13q40 0 56.5 25.5z"/><glyph glyph-name="uni20A9" unicode="₩" horiz-adv-x="600" d="m507 384-7-50h82V227h-96L455 0h-87l-69 391L230 0h-87l-30 227H19v107h79l-6 50H19v107h58L48 712h126l33-342 52 342h81l51-342 34 342h126l-30-221h61V384h-75z"/><glyph glyph-name="dong" unicode="₫" horiz-adv-x="600" d="M612 541h-66V0H367v65q-21-33-59-53.5T228-9q-60 0-105.5 33t-70 92.5T28 254q0 117 53.5 186.5T228 510q41 0 78.5-19.5T365 439v102H228v101h137v70h181v-70h66V541zM344 161.5q23 34.5 23 89.5t-23 89.5-57 34.5q-36 0-57.5-33T208 254q0-57 21.5-92t57.5-35q34 0 57 34.5zM55-61h491v-101H55v101z"/><glyph glyph-name="Euro" unicode="€" horiz-adv-x="600" d="M442 152q33 14 85 50l59-133q-40-36-99.5-57T367-9Q265-9 196.5 52.5T102 225H19v106h69v51H19v106h83q26 111 95 172t170 61q58 0 118.5-21.5T586 643l-59-133q-52 36-85 50t-65 14q-36 0-58.5-20.5T285 488h138V382H274v-51h149V225H285q11-46 33-66.5t59-20.5q32 0 65 14z"/><glyph glyph-name="uni20AD" unicode="₭" horiz-adv-x="600" d="M441 305 625 0H426L254 297V0H75v305H19v101h56v306h179V417l172 295h199L442 406h134V305H441z"/><glyph glyph-name="uni20B1" unicode="₱" horiz-adv-x="600" d="M582 489h-64q1-8 1-25t-1-25h64V332h-95q-28-53-79-84.5T289 216h-13V0H95v332H19v107h76v50H19v107h76v116h194q69 0 120-31t79-85h94V489zM333.5 380q16.5 24 16.5 83 0 60-16.5 83.5T284 570h-11V356h11q33 0 49.5 24z"/><glyph glyph-name="uni20B2" unicode="₲" horiz-adv-x="600" d="M570 43Q471 7 409-3v-113H267V0Q154 25 89.5 119T25 357q0 141 64 235t174 120v116h142V716q47-8 89.5-26.5T567 643l-58-133q-51 36-86 50t-68 14q-65 0-102-54t-37-163q0-110 36-167t95-57q23 0 55 8v134h-95v127h263V43z"/><glyph glyph-name="uni20B5" unicode="₵" horiz-adv-x="600" d="M574 69q-28-27-69.5-45.5T416-4v-112H274V0Q161 25 96.5 119.5T32 357q0 142 65 236t177 119v116h142V716q47-9 88.5-27.5T574 643l-58-133q-59 42-100 55V147q41 13 100 55zM274 174v364q-51-54-51-181t51-183z"/><glyph glyph-name="uni20B9" unicode="₹" horiz-adv-x="600" d="M603 0H377L225 227q-12 19-27 28.5t-38 9.5H18v143h206q67 0 91 42H18v106h302q-21 50-96 50H18v106h565V606H479q14-23 21-50h83V450h-79q-10-64-51.5-107.5T345 282q37-5 64-22t50-52z"/><glyph glyph-name="uni20BA" unicode="₺" horiz-adv-x="600" d="M599 67Q505-9 345-9 230-9 115 39v209l-63-36v121l63 36v48l-63-36v122l63 36v173h188v-67l148 83V607l-148-84v-47l148 84V437l-148-83V149q14-6 30.5-8.5T380 138q26 0 67.5 13.5T541 199z"/><glyph glyph-name="uni20BC" unicode="₼" horiz-adv-x="600" d="M406 0q0 283-8.5 402.5T366 558V281H234v278q-16-24-24.5-83t-12-170T194 0H11q0 261 24.5 412T107 629.5 228 712v116h144V712q74-16 120.5-83t71-217.5T588 0H406z"/><glyph glyph-name="uni20BD" unicode="₽" horiz-adv-x="600" d="M276 296v-51h150V139H276V0H95v139H19v106h76v51H19v107h76v309h252q79 0 134.5-27t84-73T594 509q0-102-63-157.5T347 296h-71zm-3 107h27q63 0 93.5 19t30.5 61q0 52-27 73.5T313 578h-40V403z"/><glyph glyph-name="uni2113" unicode="ℓ" horiz-adv-x="606" d="M202 33q-42 51-42 126v5l-51-42-55 59 106 91v247q0 57 23 102t64.5 70.5T344 717q69 0 107-36t38-106q0-68-33-126t-96-125l-34-34v-98q0-37 16.5-56t40.5-19q18 0 34.5 7.5T454 149l43-95q-69-72-168-72-85 0-127 51zm135 385q25 31 41 69t16 67q0 19-6 29t-23 10q-19 0-29-12t-10-35V407z"/><glyph glyph-name="uni2116" unicode="№" horiz-adv-x="1153" d="M821.5 448.5Q776 494 776 561q0 65 45.5 110.5T958 717t137-45.5 46-110.5q0-67-46-112.5T958 403t-136.5 45.5zM524 712h177V0H562L239 404V0H64v712h137l323-402v402zm397-151q0-21 10-33t27-12q18 0 29.5 12t11.5 33q0 42-41 42-37 0-37-42zM796 341h324V201H796v140z"/><glyph glyph-name="trademark" unicode="™" horiz-adv-x="966" d="M17 712h380V582H289V287H125v295H17v130zm888 0V287H764v147l-35-67H629l-35 66V287H453v425h127l100-191 103 191h122z"/><glyph glyph-name="uni2126" unicode="Ω" horiz-adv-x="833" d="M754 277.5Q718 210 648 149h125V0H468v145q73 64 104 125.5T603 409q0 80-49 124.5T417 578t-137.5-45T230 409q0-77 32-138.5T367 145V0H61v149h124q-70 61-106 128.5T43 415q0 91 47 161t131.5 108T417 722t195.5-38 131-108T790 415q0-70-36-137.5z"/><glyph glyph-name="estimated" unicode="℮" horiz-adv-x="903" d="M238 43Q147 91 99 172T51 348q0 96 49 181t139.5 136.5T450 717q146 0 236-55t128-141 38-187H203q-5 0-5-6V155q0-22 7-30 40-48 102.5-73T449 27q82 0 144.5 27.5T711 135h72Q721 61 646.5 28T452-5Q329-5 238 43zm462 323q5 0 5 6v190q0 14-10 26-47 55-113.5 76.5T447 686q-64 0-126.5-22.5T207 590q-9-9-9-27V372q0-6 5-6h497z"/><glyph glyph-name="partialdiff" unicode="∂" horiz-adv-x="600" d="M394 730.5Q475 677 516.5 583T558 369q0-189-71-287.5T274-17q-79 0-139 32t-92 89.5T11 238q0 73 29 132t80.5 93T238 497q89 0 134-53-1 93-60.5 145.5T136 642h-34v134q43 8 96 8 115 0 196-53.5zM336 157q23 30 23 76 0 53-22.5 85.5T276 351q-37 0-59-30t-22-78q0-52 21-84t60-32q37 0 60 30z"/><glyph glyph-name="emptyset" unicode="∅" horiz-adv-x="600" d="M102 126q-47 39-74 93.5T1 338q0 76 39.5 142t108 105.5T301 625q80 0 154-40l81 103 56-42-82-104q42-39 65.5-91.5T599 338q0-77-40-142T450.5 92.5 301 54q-72 0-142 34L78-15 21 23zm298 385q-45 24-99 24-57 0-104.5-25.5T122 439 95 338q0-41 16.5-78.5T157 196zm3-344.5q47 25.5 75 70.5t28 101q0 76-51 133L213 159q41-18 88-18 55 0 102 25.5z"/><glyph glyph-name="uni2206" unicode="∆" horiz-adv-x="833" d="M754 277.5Q718 210 648 149h125V0H468v145q73 64 104 125.5T603 409q0 80-49 124.5T417 578t-137.5-45T230 409q0-77 32-138.5T367 145V0H61v149h124q-70 61-106 128.5T43 415q0 91 47 161t131.5 108T417 722t195.5-38 131-108T790 415q0-70-36-137.5z"/><glyph glyph-name="product" unicode="∏" horiz-adv-x="600" d="M546-182H379v749H221v-749H54v894h492v-894z"/><glyph glyph-name="summation" unicode="∑" horiz-adv-x="621" d="M573 563H259l178-241-1-113L258-33h315v-149H46v135l228 312L46 577v135h527V563z"/><glyph glyph-name="minus" unicode="−" horiz-adv-x="600" d="M546 230H54v121h492V230z"/><glyph glyph-name="uni2215" unicode="∕" horiz-adv-x="600" d="m103-43 263 821 133-40L235-83z"/><glyph glyph-name="uni2219" unicode="∙" horiz-adv-x="600" d="M394 365V179H206v186h188z"/><glyph glyph-name="radical" unicode="√" horiz-adv-x="600" d="M360-202H225L111 230H3v121h202L289 3l162 763h127z"/><glyph glyph-name="infinity" unicode="∞" horiz-adv-x="600" d="M535 424q42-50 42-137 0-88-42.5-137.5T419 100q-78 0-119 74-41-74-119-74-73 0-115.5 49.5T23 287q0 87 42 137t116 50q34 0 65-17t54-58q23 41 54 58t65 17q74 0 116-50zM232.5 224q19.5 21 30.5 64-11 41-30.5 62T189 371q-29 0-44.5-23.5T129 287t15.5-60.5T189 203q24 0 43.5 21zm223 2.5Q471 250 471 287t-15.5 60.5T411 371q-24 0-43.5-21T337 288q11-43 30.5-64t43.5-21q29 0 44.5 23.5z"/><glyph glyph-name="integral" unicode="∫" horiz-adv-x="600" d="M512 706V567q-28 7-48 7-32 0-52.5-18T391 502V26q0-102-53-159.5T183-191q-58 0-95 14v139q28-7 48-7 32 0 52.5 18T209 27v476q0 101 53 159t155 58q58 0 95-14z"/><glyph glyph-name="approxequal" unicode="≈" horiz-adv-x="603" d="M548 416q-15-51-55-82.5T406 302q-28 0-54.5 9.5T285 341q-29 14-45.5 20.5T209 368q-46 0-65-60l-88 60q15 52 54.5 83t86.5 31q29 0 56.5-9.5T319 444q27-14 44-20.5t31-6.5q46 0 66 58zm0-202q-15-51-55-82.5T406 100q-28 0-54.5 9.5T285 139q-29 14-45.5 20.5T209 166q-46 0-65-60l-88 60q15 52 54.5 83t86.5 31q29 0 56.5-9.5T319 242q27-14 44-20.5t31-6.5q46 0 66 58z"/><glyph glyph-name="notequal" unicode="≠" horiz-adv-x="600" d="m377 331-34-81h203V129H293L239 0 126 46l35 83H54v121h157l34 81H54v121h242l54 130 112-47-35-83h119V331H377z"/><glyph glyph-name="lessequal" unicode="≤" horiz-adv-x="600" d="m546 424-301-79 301-81V138L54 277v135l492 138V424zM54 121h492V0H54v121z"/><glyph glyph-name="greaterequal" unicode="≥" horiz-adv-x="600" d="M546 412V277L54 138v126l301 81-301 79v126zM54 121h492V0H54v121z"/><glyph glyph-name="lozenge" unicode="◊" horiz-adv-x="606" d="M371-202H235L42 282l193 484h136l192-484zm-68 813L176 282 303-48l127 330z"/><glyph glyph-name="uniF8FF" unicode="" horiz-adv-x="665" d="M209 227 17 373h239l74 226 78-226h239L455 227 526 1 330 137 138 1zm83-27v76l29-55h23l30 55v-76h28v131h-27l-42-79-42 79h-27V200h28z"/><glyph glyph-name="Iacute_J.loclNLD" horiz-adv-x="719" d="M64 712h188V0H64v712zm38 61 104 158h162L211 773H102zM318-29q50-5 73-5 45 0 60 18t15 69v659h188V56q0-126-51-185t-175-59q-49 0-110 9v150zm186 802 104 158h162L613 773H504z"/><glyph glyph-name="i.loclTRK" horiz-adv-x="289" d="M54 508h181V0H54v508zm184 249V594H49v163h189z"/><glyph glyph-name="iacute_j.loclNLD" horiz-adv-x="578" d="M54 508h181V0H54v508zm35 65 98 208h172L198 573H89zM269-79q32 0 53 18.5T343-4v512h181V-6q0-103-53.5-161T314-225q-58 0-94 14v139q29-7 49-7zm108 652 98 208h172L486 573H377z"/><glyph glyph-name="I_J.loclNLD" horiz-adv-x="719" d="M64 712h188V0H64v712zM318-29q50-5 73-5 45 0 60 18t15 69v659h188V56q0-126-51-185t-175-59q-49 0-110 9v150z"/><glyph glyph-name="i_j.loclNLD" horiz-adv-x="578" d="M54 508h181V0H54v508zm184 249V594H49v163h189zm31-836q32 0 53 18.5T343-4v512h181V-6q0-103-53.5-161T314-225q-58 0-94 14v139q29-7 49-7zm257 836V594H337v163h189z"/><glyph glyph-name="zero.dnom" horiz-adv-x="380" d="M58.5 52.5Q11 109 11 215q0 104 47.5 160T190 431t131.5-56T369 214q0-106-47.5-162T190-4 58.5 52.5zm156 78.5q7.5 24 7.5 83 0 106-32 106-17 0-25-24.5t-8-81.5q0-59 8-83t25-24 24.5 24z"/><glyph glyph-name="one.dnom" horiz-adv-x="380" d="M378 119V0H58v119h83v148l-78-39v134l125 65h107V119h83z"/><glyph glyph-name="two.dnom" horiz-adv-x="380" d="M357 119V0H39v112l129 133q27 31 27 49 0 23-38 23-51 0-111-31L26 397q29 15 74.5 24.5T187 431q73 0 118-34.5t45-92.5q0-36-18-67.5T265 162l-52-43h144z"/><glyph glyph-name="three.dnom" horiz-adv-x="380" d="M343 183q21-27 21-65 0-32-20-60.5T283.5 12 183-5q-43 0-88.5 9T20 28l19 111q58-30 129-30 29 0 40.5 6t11.5 18q0 24-43 24H99v116h66q25 0 33.5 4.5T207 295q0 10-10.5 16t-31.5 6q-28 0-59.5-8.5T46 286L26 397q29 15 73 24.5t79 9.5q82 0 127-35t45-87q0-31-16.5-54.5T285 221q37-11 58-38z"/><glyph glyph-name="four.dnom" horiz-adv-x="380" d="M381 56h-59V0H189v56H3v105l200 266h119V165h59V56zM189 165v84l-66-84h66z"/><glyph glyph-name="five.dnom" horiz-adv-x="380" d="M328.5 249Q368 213 368 149q0-72-51-113T184-5q-40 0-85 9T24 28l20 111q56-28 123-28 32 0 45 7t13 22q0 17-12 23.5t-42 6.5q-32 0-70-7H38v264h302V309H173v-32q22 8 58 8 58 0 97.5-36z"/><glyph glyph-name="six.dnom" horiz-adv-x="380" d="M326 243q39-33 39-99 0-71-47-109.5T196-4Q114-4 64.5 49T15 208q0 105 56.5 164T224 431q71 0 130-34l-20-111q-56 29-108 29-32 0-48-13t-20-43q30 17 73 17 56 0 95-33zm-89-106q0 40-37 40-20 0-30-9.5T160 137q0-39 37-39 40 0 40 39z"/><glyph glyph-name="seven.dnom" horiz-adv-x="380" d="M359 427V303L199-1 24 0l169 303H22v124h337z"/><glyph glyph-name="eight.dnom" horiz-adv-x="380" d="M372 116q0-56-50.5-88.5T190-5 58.5 27.5 8 116q0 41 21.5 68.5T96 221q-38 12-57.5 37.5T19 317q0 52 48 83t123 31 123-31 48-83q0-34-20-60t-58-36q89-22 89-105zM162.5 318.5Q151 311 151 297q0-12 8-19.5t17.5-12.5 13.5-7q20 9 29 17t9 22-11 21.5-27 7.5-27.5-7.5zm61-210Q236 117 236 132t-11 24.5-35 17.5q-25-8-36.5-17.5T142 132t13.5-23.5T190 100t33.5 8.5z"/><glyph glyph-name="nine.dnom" horiz-adv-x="380" d="M315.5 378.5Q365 326 365 219q0-105-56.5-164T156-4Q85-4 27 30l18 111q58-29 109-29 32 0 47 13t20 43q-32-16-72-16-56 0-95 32.5T15 283q0 71 47 109.5T184 431q82 0 131.5-52.5zM220 290q0 39-37 39-41 0-41-39 0-19 10-29.5t28-10.5q40 0 40 40z"/><glyph glyph-name="zero.numr" horiz-adv-x="380" d="M58.5 337.5Q11 394 11 500q0 104 47.5 160T190 716t131.5-56T369 499q0-106-47.5-162T190 281 58.5 337.5zm156 78.5q7.5 24 7.5 83 0 106-32 106-17 0-25-24.5t-8-81.5q0-59 8-83t25-24 24.5 24z"/><glyph glyph-name="one.numr" horiz-adv-x="380" d="M378 404V285H58v119h83v148l-78-39v134l125 65h107V404h83z"/><glyph glyph-name="two.numr" horiz-adv-x="380" d="M357 404V285H39v112l129 133q27 31 27 49 0 23-38 23-51 0-111-31L26 682q29 15 74.5 24.5T187 716q73 0 118-34.5t45-92.5q0-36-18-67.5T265 447l-52-43h144z"/><glyph glyph-name="three.numr" horiz-adv-x="380" d="M343 468q21-27 21-65 0-32-20-60.5T283.5 297 183 280q-43 0-88.5 9T20 313l19 111q58-30 129-30 29 0 40.5 6t11.5 18q0 24-43 24H99v116h66q25 0 33.5 4.5T207 580q0 10-10.5 16t-31.5 6q-28 0-59.5-8.5T46 571L26 682q29 15 73 24.5t79 9.5q82 0 127-35t45-87q0-31-16.5-54.5T285 506q37-11 58-38z"/><glyph glyph-name="four.numr" horiz-adv-x="380" d="M381 341h-59v-56H189v56H3v105l200 266h119V450h59V341zM189 450v84l-66-84h66z"/><glyph glyph-name="five.numr" horiz-adv-x="380" d="M328.5 534Q368 498 368 434q0-72-51-113t-133-41q-40 0-85 9t-75 24l20 111q56-28 123-28 32 0 45 7t13 22q0 17-12 23.5t-42 6.5q-32 0-70-7H38v264h302V594H173v-32q22 8 58 8 58 0 97.5-36z"/><glyph glyph-name="six.numr" horiz-adv-x="380" d="M326 528q39-33 39-99 0-71-47-109.5T196 281q-82 0-131.5 53T15 493q0 105 56.5 164T224 716q71 0 130-34l-20-111q-56 29-108 29-32 0-48-13t-20-43q30 17 73 17 56 0 95-33zm-89-106q0 40-37 40-20 0-30-9.5T160 422q0-39 37-39 40 0 40 39z"/><glyph glyph-name="seven.numr" horiz-adv-x="380" d="M359 712V588L199 284l-175 1 169 303H22v124h337z"/><glyph glyph-name="eight.numr" horiz-adv-x="380" d="M372 401q0-56-50.5-88.5T190 280 58.5 312.5 8 401q0 41 21.5 68.5T96 506q-38 12-57.5 37.5T19 602q0 52 48 83t123 31 123-31 48-83q0-34-20-60t-58-36q89-22 89-105zM162.5 603.5Q151 596 151 582q0-12 8-19.5t17.5-12.5 13.5-7q20 9 29 17t9 22-11 21.5-27 7.5-27.5-7.5zm61-210Q236 402 236 417t-11 24.5-35 17.5q-25-8-36.5-17.5T142 417t13.5-23.5T190 385t33.5 8.5z"/><glyph glyph-name="nine.numr" horiz-adv-x="380" d="M315.5 663.5Q365 611 365 504q0-105-56.5-164T156 281q-71 0-129 34l18 111q58-29 109-29 32 0 47 13t20 43q-32-16-72-16-56 0-95 32.5T15 568q0 71 47 109.5T184 716q82 0 131.5-52.5zM220 575q0 39-37 39-41 0-41-39 0-19 10-29.5t28-10.5q40 0 40 40z"/><glyph glyph-name="periodcentered.loclCAT" horiz-adv-x="303" d="M245 338V177H58v161h187z"/><glyph glyph-name="caroncomb.alt" d="M-148 515v197h108l-26-197h-82z"/><glyph glyph-name="uni0326.alt" d="M-63-64v-67q0-50-14.5-86t-49.5-67l-62 42q27 24 33 50h-79v128h172z"/><glyph glyph-name="uni0308.case" d="M-169 928V777h-160v151h160zm201 0V777h-160v151H32z"/><glyph glyph-name="uni0307.case" d="M-54 934V771h-189v163h189z"/><glyph glyph-name="gravecomb.case" d="M-360 931h162l104-158h-109z"/><glyph glyph-name="acutecomb.case" d="m-203 773 104 158H63L-94 773h-109z"/><glyph glyph-name="uni030B.case" d="M-192 931h115l-102-158h-88zm149 0H71L-30 773h-88z"/><glyph glyph-name="uni0302.case" d="m-337 773 139 158h99L40 773H-91l-57 78-58-78h-131z"/><glyph glyph-name="uni030C.case" d="M40 931-99 773h-99l-139 158h131l58-79 57 79H40z"/><glyph glyph-name="uni0306.case" d="M-267 810q-49 29-67 82l77 33q30-41 109-41 78 0 108 41l77-33q-18-53-67-82t-118-29q-70 0-119 29z"/><glyph glyph-name="uni030A.case" d="M-229.5 800q-33.5 32-33.5 80 0 47 33.5 79.5T-148 992q47 0 80.5-33t33.5-79q0-48-33-80t-81-32-81.5 32zm111 48q11.5 13 11.5 32 0 18-11.5 30.5T-148 923t-30-12.5-12-30.5q0-19 12-32t30-13 29.5 13z"/><glyph glyph-name="tildecomb.case" d="M-296 894.5q33 39.5 84 39.5 17 0 33-6.5t40-20.5q19-11 32-17t25-6q17 0 28 12t14 35h72q0-81-33-120.5T-85 771q-17 0-33 6.5t-40 20.5q-19 11-32 17t-25 6q-17 0-28-12t-14-35h-72q0 81 33 120.5z"/><glyph glyph-name="uni0304.case" d="M-309 906H12V798h-321v108z"/><glyph glyph-name="hookabovecomb.case" d="M-107 773h-84v23q0 18 12 27t33 18q21 7 21 14 0 16-31 16-24 0-55-10l-22 56q45 18 102 18 49 0 79.5-19t30.5-45q0-19-13.5-30.5T-71 819q-19-9-27.5-15.5T-107 787v-14z"/><glyph glyph-name="uni030F.case" d="M-368 931h114l75-158h-88zm148 0h115l75-158h-88z"/><glyph glyph-name="uni0311.case" d="M-30 895q49-29 67-82l-77-32q-30 41-108 41-79 0-109-41l-77 32q18 53 67 82t119 29q69 0 118-29z"/><glyph glyph-name="uni0312.case" d="M-63 873V773h-172v54q0 42 14.5 77t49.5 66l62-43q-28-24-34-54h80z"/><glyph glyph-name="uni02BF.case" horiz-adv-x="300" d="M152 923q-18 0-30-12.5T110 880q0-19 12-32t30-13v-67q-48 0-81.5 32T37 880q0 47 33.5 79.5T152 992v-69z"/><glyph glyph-name="uni02BE.case" horiz-adv-x="300" d="M232.5 959q33.5-33 33.5-79 0-48-33-80t-81-32v67q18 0 29.5 13t11.5 32q0 18-11.5 30.5T152 923v69q47 0 80.5-33z"/><glyph glyph-name="caron.alt" horiz-adv-x="300" d="M152 515v197h108l-26-197h-82z"/><glyph glyph-name="uni03060301" d="m-200 672 101 141H50L-97 672h-103zm-67-86q-49 29-67 82l57 24q15-22 52.5-35.5T-148 643t76 13.5 52 35.5l57-24q-18-53-67-82t-118-29q-70 0-119 29z"/><glyph glyph-name="uni03060300" d="M-347 813h149l101-141h-103zm80-227q-49 29-67 82l57 24q15-22 52.5-35.5T-148 643t76 13.5 52 35.5l57-24q-18-53-67-82t-118-29q-70 0-119 29z"/><glyph glyph-name="uni03060309" d="M-107 673h-84v21q0 19 14.5 28.5t33 15.5 18.5 8q0 4-7 8t-24 4q-20 0-55-11l-22 54q47 19 102 19 50 0 80-17t30-44q0-19-13-29t-37-19q-19-8-27.5-14t-8.5-16v-8zm-160-87q-49 29-67 82l57 24q15-22 52.5-35.5T-148 643t76 13.5 52 35.5l57-24q-18-53-67-82t-118-29q-70 0-119 29z"/><glyph glyph-name="uni03060303" d="M-294.5 786.5Q-260 817-212 817q27 0 73-14 37-11 57-11 19 0 29 4.5t13 17.5h72q0-44-34.5-75T-85 708q-27 0-73 14-37 11-57 11-19 0-29-4.5t-13-17.5h-72q0 45 34.5 75.5zM-267 586q-49 29-67 82l57 24q15-22 52.5-35.5T-148 643t76 13.5 52 35.5l57-24q-18-53-67-82t-118-29q-70 0-119 29z"/><glyph glyph-name="uni03020301" d="m-50 672 65 141h142L34 672h-84zm-287-110 139 136h99L40 562H-88l-60 59-61-59h-128z"/><glyph glyph-name="uni03020300" d="M-134 813H9l68-141H-7zm-203-251 139 136h99L40 562H-88l-60 59-61-59h-128z"/><glyph glyph-name="uni03020309" d="M33 673h-84v21q0 19 14.5 28.5t33 15.5 18.5 8q0 4-7 8t-23 4q-21 0-56-11l-22 54q47 19 102 19 50 0 80-17t30-44q0-19-13-29t-37-19q-19-8-27.5-14T33 681v-8zm-370-111 139 136h99L40 562H-88l-60 59-61-59h-128z"/><glyph glyph-name="uni03020303" d="M-294.5 794q34.5 31 82.5 31 17 0 36.5-4.5T-139 810q37-13 57-13 19 0 29 4.5t13 19.5h72q0-45-34.5-76.5T-85 713q-17 0-36.5 4.5T-158 728q-37 13-57 13-19 0-29-4.5t-13-19.5h-72q0 46 34.5 77zM-337 562l139 136h99L40 562H-88l-60 59-61-59h-128z"/><glyph glyph-name="uni03060301.case" d="m-200 882 101 142H50L-97 882h-103zm-67-85q-49 29-67 82l57 24q15-22 52.5-36t76.5-14q38 0 75.5 14t52.5 36l57-24q-18-53-67-82t-118-29q-70 0-119 29z"/><glyph glyph-name="uni03060300.case" d="M-347 1024h149l101-142h-103zm80-227q-49 29-67 82l57 24q15-22 52.5-36t76.5-14q38 0 75.5 14t52.5 36l57-24q-18-53-67-82t-118-29q-70 0-119 29z"/><glyph glyph-name="uni03060309.case" d="M-107 884h-84v21q0 19 14.5 28.5t33 15.5 18.5 8q0 5-7 8.5t-24 3.5q-25 0-55-11l-22 54q45 18 102 18 50 0 80-16t30-42q0-20-12.5-30T-71 921q-20-8-28-13.5t-8-16.5v-7zm-160-87q-49 29-67 82l57 24q15-22 52.5-36t76.5-14q38 0 75.5 14t52.5 36l57-24q-18-53-67-82t-118-29q-70 0-119 29z"/><glyph glyph-name="uni03060303.case" d="M-294.5 997.5Q-260 1028-212 1028q27 0 73-14 37-11 57-11 19 0 29 4.5t13 17.5h72q0-44-34.5-75T-85 919q-27 0-73 14-37 11-57 11-19 0-29-4.5t-13-17.5h-72q0 45 34.5 75.5zM-267 797q-49 29-67 82l57 24q15-22 52.5-36t76.5-14q38 0 75.5 14t52.5 36l57-24q-18-53-67-82t-118-29q-70 0-119 29z"/><glyph glyph-name="uni03020301.case" d="m-50 882 65 142h142L34 882h-84zm-287-109 139 136h99L40 773H-88l-60 59-61-59h-128z"/><glyph glyph-name="uni03020300.case" d="M-134 1024H9l68-142H-7zm-203-251 139 136h99L40 773H-88l-60 59-61-59h-128z"/><glyph glyph-name="uni03020309.case" d="M33 884h-84v21q0 19 14.5 28.5t33 15.5 18.5 8q0 5-7 8.5t-23 3.5q-26 0-56-11l-22 54q45 18 102 18 50 0 80-16t30-42q0-20-12.5-30T69 921q-20-8-28-13.5T33 891v-7zm-370-111 139 136h99L40 773H-88l-60 59-61-59h-128z"/><glyph glyph-name="uni03020303.case" d="M-294.5 1005q34.5 31 82.5 31 17 0 36.5-4.5t36.5-10.5q37-13 57-13 19 0 29 4.5t13 19.5h72q0-45-34.5-76.5T-85 924q-27 0-73 16-37 13-57 13-19 0-29-5t-13-20h-72q0 46 34.5 77zM-337 773l139 136h99L40 773H-88l-60 59-61-59h-128z"/></font>
</defs>
</svg>
