<svg xmlns="http://www.w3.org/2000/svg"><defs><font id="Muli-ExtraBold" horiz-adv-x="0"><font-face font-family="Muli ExtraBold" font-weight="800" panose-1="0 0 9 0 0 0 0 0 0 0" ascent="800" descent="-200" x-height="506" cap-height="712" bbox="-357 -278 1336 1092" underline-thickness="50" underline-position="-100" unicode-range="U+000D-FB02"/><glyph glyph-name="fi" unicode="fi" horiz-adv-x="658" d="M604 750V605H439v145h165zM251 507h346V0H445v394H251V0H100v394H4v113h96v41q0 72 22.5 113t73.5 59.5T335 739h40V630h-24q-44 0-64.5-7t-28-26.5T251 535v-28z"/><glyph glyph-name="fl" unicode="fl" horiz-adv-x="659" d="M271 597.5Q250 578 250 535v-28h106V394H250V0H99v394H4v113h95v32q0 96 49 149t142 53q52 0 86-13V610q-29 7-49 7-35 0-56-19.5zM446 736h151V0H446v736z"/><glyph glyph-name=".notdef" horiz-adv-x="476" d="M390-216H89v952h301v-952zM160 672v-31h62v-35h-63v-32h158v32h-63v35h63v31H160zm-1-123v-99h158v33h-63v66h-95zm63-66h-32v34h32v-34zm-63-58v-32h63v-35h-63v-31h95v66h63v32H159zm127-57v-63H159v-33h158v96h-31zm-64-117v-53h32v22h32v-45h-96v76h-31V144h158v107h-95zM159 87V-21h158V87H159zm127-76h-96v44h96V11zM159-43v-31h67l-67-45v-31h158v31h-97l67 45h30v31H159z"/><glyph glyph-name=".null"/><glyph glyph-name="nonmarkingreturn" horiz-adv-x="281"/><glyph glyph-name="NULL"/><glyph glyph-name="NULL"/><glyph glyph-name="space" horiz-adv-x="281"/><glyph glyph-name="exclam" unicode="!" horiz-adv-x="262" d="m37 713 187-1-47-483H85zm175-552V0H49v161h163z"/><glyph glyph-name="quotedbl" unicode="&quot;" horiz-adv-x="473" d="M41 712h174l-35-301H79zm216 0h174l-35-301H295z"/><glyph glyph-name="numbersign" unicode="#" horiz-adv-x="606" d="m479 460-39-199h94v-94H421L388 0H287l33 167H211L178 0H77l33 167H50v94h79l39 199H72v93h115l31 159h101l-31-159h109l31 159h101l-31-159h59v-93h-78zm-101 0H269l-39-199h109z"/><glyph glyph-name="dollar" unicode="$" horiz-adv-x="600" d="M522 69.5Q466 13 371-3v-113H249V-7Q111 6 28 71l51 112q82-60 181-69v180q-68 18-114 39t-77.5 61.5T37 502q0 81 58.5 139.5T249 716v112h122V717q57-8 108-27.5t83-48.5l-51-112q-72 52-150 66V409q66-16 111-36.5t75.5-60.5T578 207q0-81-56-137.5zm-311.5 398Q228 450 260 438v154q-32-9-49.5-29.5T193 512q0-27 17.5-44.5zM422 200q0 23-15.5 38.5T361 266V122q61 18 61 78z"/><glyph glyph-name="percent" unicode="%" horiz-adv-x="964" d="M86 344q-49 56-49 163 0 104 49 160t135 56q87 0 136-56t49-161q0-106-49-162t-136-56q-86 0-135 56zM210 0l413 712h130L340 0H210zm57.5 411.5Q282 440 282 506q0 65-15 93.5T221 628q-30 0-44.5-28.5T162 506q0-66 14-94.5t45-28.5q32 0 46.5 28.5zM606.5 49Q558 105 558 212q0 105 48.5 160.5T741 428q88 0 136.5-55.5T926 211 877.5 49 741-7q-86 0-134.5 56zm181 67.5Q802 145 802 211q0 65-15 93.5T741 333q-30 0-44.5-28.5T682 211q0-66 14-94.5T741 88q32 0 46.5 28.5z"/><glyph glyph-name="ampersand" unicode="&amp;" horiz-adv-x="698" d="M653-10q-94 29-154 82Q405-8 286-8q-75 0-132.5 25T64 87.5 32 191q0 64 34 113t107 91q-69 73-69 150 0 51 26 90.5t72.5 61.5T310 719q85 0 136-43.5T497 559q0-56-31-100t-97-82l123-121q38 81 44 179h125q-8-154-79-267 62-53 143-74zM259 598.5Q239 579 239 546q0-20 11.5-40t41.5-52q46 25 65.5 48t19.5 51q0 30-18 47.5T312 618q-33 0-53-19.5zM209 132q30-25 81-25 68 0 125 48L251 317q-37-24-54.5-52.5T179 200q0-43 30-68z"/><glyph glyph-name="quotesingle" unicode="'" horiz-adv-x="257" d="M41 712h174l-35-301H79z"/><glyph glyph-name="parenleft" unicode="(" horiz-adv-x="378" d="M130 45q-30 104-30 221t30.5 224T232 712h120q-55-138-75.5-239T256 266q0-105 20.5-206T350-182H231Q160-59 130 45z"/><glyph glyph-name="parenright" unicode=")" horiz-adv-x="378" d="M27-182Q81-42 101.5 59.5T122 266q0 106-20.5 207T26 712h119q71-115 101.5-222T277 266 247 45 146-182H27z"/><glyph glyph-name="asterisk" unicode="*" horiz-adv-x="459" d="m71 397 88 108-136 35 33 99 129-51-7 139h103l-9-138 131 50 32-99-136-35 89-108-84-61-75 117-75-117z"/><glyph glyph-name="plus" unicode="+" horiz-adv-x="600" d="M546 238H352V43H248v195H54v103h194v195h104V341h194V238z"/><glyph glyph-name="comma" unicode="," horiz-adv-x="262" d="M212 161V58q0-59-20.5-106.5T122-144L63-98q49 51 61 98H49v161h163z"/><glyph glyph-name="hyphen" unicode="-" horiz-adv-x="444" d="M67 330h311V211H67v119z"/><glyph glyph-name="period" unicode="." horiz-adv-x="262" d="M212 161V0H49v161h163z"/><glyph glyph-name="slash" unicode="/" horiz-adv-x="333" d="m-27-61 262 816h125L97-61H-27z"/><glyph glyph-name="zero" unicode="0" horiz-adv-x="600" d="M102.5 85Q34 179 34 357q0 176 68.5 269T300 719t197.5-93T566 357q0-178-68.5-272T300-9 102.5 85zM386 169q27 58 27 188 0 127-27 184.5T300 599t-86-57.5T187 357q0-130 27-188t86-58 86 58z"/><glyph glyph-name="one" unicode="1" horiz-adv-x="600" d="M567 125V0H103v125h154v413l-144-85v137l209 122h91V125h154z"/><glyph glyph-name="two" unicode="2" horiz-adv-x="601" d="M554 125V0H65v115l237 252q74 80 74 146 0 42-24.5 63.5T280 598q-91 0-189-69L41 641q43 37 110 58.5T287 721q111 0 176.5-53.5T529 524q0-62-25.5-114.5T418 293L257 125h297z"/><glyph glyph-name="three" unicode="3" horiz-adv-x="600" d="M513.5 303.5Q547 259 547 194q0-94-71-148T283-8q-74 0-142 21.5T31 72l50 112q95-69 195-69 65 0 94.5 22.5T400 209q0 47-29.5 68.5T276 299H174v122h85q62 0 92 21.5t30 65.5-26.5 67-75.5 23q-46 0-94-17.5T91 529L41 641q43 37 110 58.5T289 721q72 0 126.5-24t84-67T529 529t-29-100.5-82-62.5q62-18 95.5-62.5z"/><glyph glyph-name="four" unicode="4" horiz-adv-x="600" d="M582 130h-97V0H332v130H33v116l327 466h125V251h97V130zM332 251v224L176 251h156z"/><glyph glyph-name="five" unicode="5" horiz-adv-x="600" d="M460.5 432.5q51.5-28.5 80-80.5T569 232q0-72-33.5-126.5t-96-84T294-8q-68 0-134.5 22T52 72l50 112q95-69 194-69 125 0 125 111 0 53-32.5 83.5T300 340q-35 0-70.5-13T166 291H77v421h457V592H229V433q47 28 114 28 66 0 117.5-28.5z"/><glyph glyph-name="six" unicode="6" horiz-adv-x="600" d="M463.5 433.5q49.5-29.5 77-82T568 232q0-69-31.5-124t-87-86T324-9Q185-9 110 83T35 345q0 117 36 201.5T174 676t160 45q66 0 128-21t106-59l-51-112q-90 69-176 69-70 0-109-56.5T189 376q23 40 66.5 63.5T352 463q62 0 111.5-29.5zm-72-289.5q28.5 31 28.5 82 0 53-28 83.5T315 340q-48 0-77.5-31.5T208 226q0-50 30-81.5t77-31.5q48 0 76.5 31z"/><glyph glyph-name="seven" unicode="7" horiz-adv-x="600" d="M556 712V596L239 0H72l316 587H45v125h511z"/><glyph glyph-name="eight" unicode="8" horiz-adv-x="600" d="M535 304q38-45 38-110 0-62-34.5-107.5t-96.5-70T300-8 158 16.5t-96.5 70T27 194q0 65 38.5 110.5T172 367q-60 20-94 62t-34 99q0 58 33 102t91.5 67.5T300 721t131.5-23.5T523 630t33-102-34.5-101-93.5-60q69-18 107-63zM220.5 578Q191 555 191 511q0-42 29.5-67.5T300 408q50 10 79.5 35.5T409 511q0 44-29.5 67T300 601t-79.5-23zm173-442q34.5 24 34.5 70 0 43-34.5 70T300 312q-59-9-93.5-36T172 206q0-46 34.5-70t93.5-24 93.5 24z"/><glyph glyph-name="nine" unicode="9" horiz-adv-x="600" d="M490 629q75-92 75-262 0-117-36-201.5T426 36 266-9q-66 0-128 21T32 71l51 112q91-69 176-69 70 0 108.5 56.5T410 336q-23-40-66-63.5T248 249q-62 0-111.5 29.5t-77 82T32 480q0 69 31.5 124t87 86T276 721q139 0 214-92zM362.5 403.5Q392 435 392 486q0 50-30 81.5T285 599q-48 0-76.5-31T180 486q0-53 28-83.5t77-30.5q48 0 77.5 31.5z"/><glyph glyph-name="colon" unicode=":" horiz-adv-x="262" d="M212 496V335H49v161h163zm0-335V0H49v161h163z"/><glyph glyph-name="semicolon" unicode=";" horiz-adv-x="262" d="M212 496V335H49v161h163zM49 161h163V58q0-59-20.5-106.5T122-144L63-98q49 51 61 98H49v161z"/><glyph glyph-name="less" unicode="&lt;" horiz-adv-x="600" d="M546 434 186 289l360-145V31L54 233v114l492 200V434z"/><glyph glyph-name="equal" unicode="=" horiz-adv-x="600" d="M546 339H54v103h492V339zm0-202H54v103h492V137z"/><glyph glyph-name="greater" unicode="&gt;" horiz-adv-x="600" d="M546 347V233L54 31v113l360 145L54 434v113z"/><glyph glyph-name="question" unicode="?" horiz-adv-x="473" d="M242 721q65 0 115-21.5t78-60.5 28-89q0-53-26-90.5T361 375q-39-37-58.5-62T278 258l-5-33h-89v50q0 52 18.5 86t54.5 76q26 30 39 51.5t13 47.5q0 30-20.5 46T230 598q-72 0-141-43v125q66 41 153 41zm-93-560h163V0H149v161z"/><glyph glyph-name="at" unicode="@" horiz-adv-x="948" d="M249-106Q149-52 95 45T41 268q0 139 57.5 241T257 665t229 54q132 0 227-49t144.5-134.5T907 343q0-88-27-151t-74-95.5T698 64q-53 0-86.5 23T570 149h-2q-27-40-61.5-62.5T421 64q-75 0-116.5 49.5T263 246q0 72 27 131.5t75 93.5 110 34q41 0 72.5-17t44.5-49h3l10 57h108l-42-238q-5-30-5-48 0-30 12-45t39-15q19 0 39.5 19.5t34.5 63T805 343q0 85-36 149t-108 99.5T486 627q-97 0-173.5-42.5T193 461t-43-193q0-101 40-177T305.5-26.5 484-68q74 0 127.5 18T691 0h140q-39-72-129.5-116T484-160q-135 0-235 54zm266 281q29 25 43.5 65t14.5 85q0 46-21 69.5T494 418q-38 0-65.5-25.5t-41.5-65-14-81.5q0-43 19.5-69.5T445 150q41 0 70 25z"/><glyph glyph-name="A" unicode="A" horiz-adv-x="759" d="M547 158H214L146 0H-11l327 712h126L769 0H615zm-51 119L381 544 266 277h230z"/><glyph glyph-name="B" unicode="B" horiz-adv-x="696" d="M624 305q34-45 34-110 0-90-67-142.5T409 0H71v712h328q111 0 175.5-49.5T639 527q0-56-29.5-98T528 368q62-18 96-63zM223 422h150q60 0 89.5 20.5T492 506q0 44-29.5 65T373 592H223V422zm259.5-280.5Q511 163 511 210q0 48-28.5 70T391 302H223V120h168q63 0 91.5 21.5z"/><glyph glyph-name="C" unicode="C" horiz-adv-x="685" d="M216.5 36.5Q136 82 93 164.5T50 357q0 109 43 191.5T216.5 676 405 721q71 0 135.5-21.5T646 639l-49-112q-48 36-93.5 52.5T408 596q-96 0-147-61t-51-178q0-118 51-179.5T408 116q50 0 95.5 16.5T597 185l49-112q-41-39-105.5-60.5T405-9Q297-9 216.5 36.5z"/><glyph glyph-name="D" unicode="D" horiz-adv-x="771" d="M71 712h275q117 0 201-42t128.5-122T720 357q0-112-44-192T548 42.5 346 0H71v712zm265-586q228 0 228 231 0 229-228 229H227V126h109z"/><glyph glyph-name="E" unicode="E" horiz-adv-x="599" d="M71 712h491V591H223V423h318V301H223V121h339V0H71v712z"/><glyph glyph-name="F" unicode="F" horiz-adv-x="578" d="M71 712h480V589H225V424h306V300H225V0H71v712z"/><glyph glyph-name="G" unicode="G" horiz-adv-x="745" d="M682 393V44Q630 19 560.5 5T418-9Q305-9 222 35T94.5 161 50 357q0 111 44.5 193t126 126.5T411 721q77 0 143.5-21T664 641l-50-112q-50 36-97 52t-102 16q-206 0-206-240 0-245 215-245 59 0 118 15v157H402v109h280z"/><glyph glyph-name="H" unicode="H" horiz-adv-x="779" d="M707 712V0H554v299H224V0H71v712h153V424h330v288h153z"/><glyph glyph-name="I" unicode="I" horiz-adv-x="299" d="M71 712h156V0H71v712z"/><glyph glyph-name="J" unicode="J" horiz-adv-x="381" d="M0-53q42-6 71-6 48 0 65 21.5T153 40v672h156V42q0-119-47-174.5T102-188q-45 0-102 9v126z"/><glyph glyph-name="K" unicode="K" horiz-adv-x="685" d="M537 0 227 329V0H71v712h156V399l299 313h186L381 372 725 0H537z"/><glyph glyph-name="L" unicode="L" horiz-adv-x="569" d="M71 712h156V127h318V0H71v712z"/><glyph glyph-name="M" unicode="M" horiz-adv-x="851" d="M778 712V0H640v389L476 0H375L210 384V0H73v712h124l230-525 228 525h123z"/><glyph glyph-name="N" unicode="N" horiz-adv-x="760" d="M688 712V0H572L217 454V0H71v712h115l355-453v453h147z"/><glyph glyph-name="O" unicode="O" horiz-adv-x="795" d="M213.5 35.5Q135 80 92.5 163T50 357t42.5 193 121 126.5T398 721t184-44.5T702 550t42-193-42-194T582 35.5 398-9 213.5 35.5zm325 140.5Q589 239 589 357t-50.5 180T398 599t-140.5-62T207 357q0-119 50.5-181.5T398 113t140.5 63z"/><glyph glyph-name="P" unicode="P" horiz-adv-x="675" d="M71 712h323q118 0 183.5-57T643 500q0-97-66-154.5T394 288H227V0H71v712zm303-305q122 0 122 92 0 93-122 93H227V407h147z"/><glyph glyph-name="Q" unicode="Q" horiz-adv-x="795" d="M622.5-43Q655-76 697-111l-105-80Q487-120 423-8q-9-1-25-1-106 0-184.5 44.5T92.5 163 50 357t42.5 193 121 126.5T398 721t184-44.5T702 550t42-193q0-117-46-202T568 28q22-38 54.5-71zm-365 218.5Q308 113 398 113t140.5 63T589 357t-50.5 180T398 599t-140.5-62T207 357q0-119 50.5-181.5z"/><glyph glyph-name="R" unicode="R" horiz-adv-x="708" d="M672 0H507l-91 237q-11 28-33.5 39T326 287H225V0H71v712h317q124 0 188-54t64-155q0-71-37.5-122T495 308q63-13 91-87zM365 406q67 0 98 22.5t31 70.5-31 70.5-98 22.5H223V406h142z"/><glyph glyph-name="S" unicode="S" horiz-adv-x="657" d="M164.5 12.5Q90 34 41 73l50 112q103-72 230-72 68 0 104.5 21.5T462 195q0 34-33.5 53.5T311 286q-94 19-149.5 46.5t-81 67T55 498q0 64 35.5 115t99.5 79.5T338 721q76 0 146-22t112-60l-50-112q-94 72-207 72-60 0-96-24t-36-65q0-24 13.5-40t45.5-28.5 91-24.5q137-30 197.5-78T615 208q0-100-78-158.5T320-9q-81 0-155.5 21.5z"/><glyph glyph-name="T" unicode="T" horiz-adv-x="628" d="M235 585H12v127h604V585H393V0H235v585z"/><glyph glyph-name="U" unicode="U" horiz-adv-x="746" d="M145 68q-78 77-78 226v418h153V287q0-85 39.5-129.5T373 113t113 44.5T525 287v425h154V294q0-148-78.5-225.5T373-9Q223-9 145 68z"/><glyph glyph-name="V" unicode="V" horiz-adv-x="735" d="M750 712 430 0H305L-15 712h162l222-517 224 517h157z"/><glyph glyph-name="W" unicode="W" horiz-adv-x="1126" d="M1107 712 854 0H729L563 471 396 0H271L18 712h159l164-492 172 492h109l168-499 168 499h149z"/><glyph glyph-name="X" unicode="X" horiz-adv-x="681" d="M700 0H518L340 246 162 0H-20l271 361-263 351h182l170-237 172 237h182L428 361z"/><glyph glyph-name="Y" unicode="Y" horiz-adv-x="642" d="M399 276V0H243v277L-51 712h177l194-304 196 304h178z"/><glyph glyph-name="Z" unicode="Z" horiz-adv-x="615" d="M580 123V0H51v114l343 475H51v123h518V599L223 123h357z"/><glyph glyph-name="bracketleft" unicode="[" horiz-adv-x="376" d="M105 712h257V599H254V-69h108v-113H105v894z"/><glyph glyph-name="backslash" unicode="\" horiz-adv-x="332" d="M-27 755H97L359-61H234z"/><glyph glyph-name="bracketright" unicode="]" horiz-adv-x="376" d="M14-182v113h108v668H14v113h257v-894H14z"/><glyph glyph-name="asciicircum" unicode="^" horiz-adv-x="600" d="M445 144 300 504 155 144H41l202 493h114l202-493H445z"/><glyph glyph-name="underscore" unicode="_" horiz-adv-x="505" d="M14 0h477v-88H14V0z"/><glyph glyph-name="grave" unicode="`" horiz-adv-x="300" d="M-49 767H99l99-206h-93z"/><glyph glyph-name="a" unicode="a" horiz-adv-x="630" d="M569 507V0H420v75q-23-39-65-61T260-8q-66 0-116.5 32t-79 91.5T36 253t28.5 139 79.5 94.5T260 520q53 0 95-23t65-62v72h149zM390 145q30 38 30 110t-30 110.5-86 38.5-87-40-31-111 30.5-108.5T304 107q56 0 86 38z"/><glyph glyph-name="b" unicode="b" horiz-adv-x="631" d="M488 487.5q51-32.5 79-92T595 258t-28.5-138.5-79.5-94T371-8q-53 0-95.5 22.5T211 76V0H61v736h151V436q22 39 64.5 61.5T371 520q66 0 117-32.5zM414 146q30 39 30 112 0 70-30 108t-86 38-86.5-38.5T211 256q0-72 30.5-110.5T328 107t86 39z"/><glyph glyph-name="c" unicode="c" horiz-adv-x="509" d="M106.5 62Q36 132 36 253q0 79 34 139.5t95.5 94T308 520q55 0 107-17t83-46l-40-105q-30 24-66 37.5T322 403q-62 0-96.5-37.5T191 256q0-73 34-110.5t97-37.5q34 0 70 13.5t66 37.5l40-105q-33-29-86-45.5T301-8Q177-8 106.5 62z"/><glyph glyph-name="d" unicode="d" horiz-adv-x="630" d="M569 736V0H420v75q-23-39-65-61T260-8q-65 0-116 33.5t-79.5 94T36 258t28.5 137.5 79 92T260 520q51 0 93-21.5t65-59.5v297h151zM390 145.5Q420 184 420 256q0 71-30.5 109.5T304 404q-56 0-87-38t-31-108q0-72 31-111.5t87-39.5 86 38.5z"/><glyph glyph-name="e" unicode="e" horiz-adv-x="550" d="M516 241H182q4-71 37-103.5t98-32.5q39 0 78 13t72 38l40-102q-36-29-89.5-45.5T310-8Q182-8 109 62.5T36 255q0 77 31.5 137.5t88.5 94T285 520q107 0 169-69.5T516 263v-22zM219.5 389Q193 364 185 316h201q-12 98-97 98-43 0-69.5-25z"/><glyph glyph-name="f" unicode="f" horiz-adv-x="385" d="M271 597.5Q250 578 250 535v-28h106V394H250V0H99v394H4v113h95v32q0 96 49 149t142 53q52 0 86-13V610q-29 7-49 7-35 0-56-19.5z"/><glyph glyph-name="g" unicode="g" horiz-adv-x="634" d="M574 507V23q0-121-70-184t-204-63q-121 0-210 47l23 112q92-46 182-46 65 0 97 30.5T424 12v88q-24-37-67-61.5T262 14q-66 0-117 31.5t-80 89T36 267t29 132.5 80 89T262 520q53 0 96-23t66-62v72h150zM392.5 165.5Q424 202 424 267q0 64-31 100.5T306 404t-88-36.5T186 267t32-101 88-37q55 0 86.5 36.5z"/><glyph glyph-name="h" unicode="h" horiz-adv-x="613" d="M554 307V0H403v300q0 53-19.5 77.5T322 402q-50 0-80-32t-30-86V0H61v736h151V438q27 40 69 61t93 21q180 0 180-213z"/><glyph glyph-name="i" unicode="i" horiz-adv-x="274" d="M61 507h151V0H61v507zm156 238V603H56v142h161z"/><glyph glyph-name="j" unicode="j" horiz-adv-x="274" d="M-16-100q34 0 55.5 20T61-18v525h151V-22q0-96-49-149T21-224q-52 0-86 13v118q29-7 49-7zm232 845V603H55v142h161z"/><glyph glyph-name="k" unicode="k" horiz-adv-x="573" d="M411 0 212 227V0H61v736h151V289l190 217h181L368 263 596 0H411z"/><glyph glyph-name="l" unicode="l" horiz-adv-x="274" d="M61 736h151V0H61v736z"/><glyph glyph-name="m" unicode="m" horiz-adv-x="911" d="M810.5 467.5Q853 415 853 307V0H702v302q0 53-17 76.5T629 402q-46 0-71-32t-25-90V0H382v302q0 52-17.5 76T309 402q-46 0-71.5-32T212 280V0H61v362q0 81-8 145h142l9-76q23 43 64.5 66t95.5 23q113 0 150-94 25 43 69.5 68.5T681 520q87 0 129.5-52.5z"/><glyph glyph-name="n" unicode="n" horiz-adv-x="613" d="M554 307V0H403v300q0 53-19.5 77.5T322 402q-50 0-80-32t-30-86V0H61v362q0 81-8 145h142l10-80q27 45 70.5 69t98.5 24q180 0 180-213z"/><glyph glyph-name="o" unicode="o" horiz-adv-x="604" d="M161.5 24q-60.5 32-93 92T36 256t32.5 140 93 92T303 520q80 0 140-32t92.5-92T568 256t-32.5-140T443 24 303-8q-81 0-141.5 32zm227 120Q418 181 418 256q0 74-29.5 111.5T303 405q-57 0-87-37.5T186 256q0-149 117-149 56 0 85.5 37z"/><glyph glyph-name="p" unicode="p" horiz-adv-x="631" d="M487 486.5q51-33.5 79.5-94.5T595 253t-28-137.5T488 24 371-8q-53 0-95 22t-64 61v-291H61v578q0 81-8 145h142l10-84q20 45 64.5 71T371 520q65 0 116-33.5zm-73-342Q444 182 444 253t-30.5 111-85.5 40q-56 0-86.5-38.5T211 255t30.5-110 86.5-38 86 37.5z"/><glyph glyph-name="q" unicode="q" horiz-adv-x="630" d="M578 507q-9-62-9-145v-578H418V72q-23-38-64.5-59T260-8q-66 0-116.5 32t-79 91.5T36 253t28.5 139 79.5 94.5T260 520q57 0 101.5-26t64.5-70l10 83h142zM390 145q30 38 30 110t-30 110.5-86 38.5-87-40-31-111 30.5-108.5T304 107q56 0 86 38z"/><glyph glyph-name="r" unicode="r" horiz-adv-x="410" d="m410 509-1-138q-37 17-74 17-60 0-91.5-32.5T212 265V0H61v362q0 81-8 145h142l10-87q19 48 59.5 73.5T356 519q32 0 54-10z"/><glyph glyph-name="s" unicode="s" horiz-adv-x="503" d="m28 54 40 105q40-29 89-44.5T257 99q39 0 60 12t21 35q0 19-15 30t-53 19l-83 19q-73 16-107.5 51T45 358q0 47 27.5 84t76.5 57.5T262 520q54 0 106-16.5t93-46.5l-42-101q-39 27-79.5 41T261 411q-37 0-58-13t-21-36q0-17 12.5-27.5T239 317l85-19q78-18 113-54t35-96q0-72-58-114T255-8Q111-8 28 54z"/><glyph glyph-name="t" unicode="t" horiz-adv-x="396" d="M251 394V197q0-42 22-61.5t57-19.5q22 0 50 7V6Q344-8 293-8q-94 0-143.5 53T100 194v200H4v113h96v119l151 49V507h129V394H251z"/><glyph glyph-name="u" unicode="u" horiz-adv-x="606" d="M545 507V0H398v74q-24-40-63-61T247-8q-95 0-142 53T58 205v302h151V202q0-92 79-92 47 0 76 32t29 84v281h152z"/><glyph glyph-name="v" unicode="v" horiz-adv-x="550" d="M561 506 338 0H210L-10 506h158l130-328 134 328h149z"/><glyph glyph-name="w" unicode="w" horiz-adv-x="891" d="M890 507 685 0H558L443 294 333 0H205L0 507h154l122-327 121 327h103l122-330 122 330h146z"/><glyph glyph-name="x" unicode="x" horiz-adv-x="557" d="M579 0H401L278 155 155 0H-22l214 261L-9 507h178l109-141 109 141h179L365 261z"/><glyph glyph-name="y" unicode="y" horiz-adv-x="550" d="M561 507 327-27q-43-97-108.5-142.5T58-228L23-112q70 15 105.5 38T184-7l15 33-209 481h158l130-329 134 329h149z"/><glyph glyph-name="z" unicode="z" horiz-adv-x="530" d="M495 113V0H48v106l256 288H52v113h433V405L225 113h270z"/><glyph glyph-name="braceleft" unicode="{" horiz-adv-x="413" d="M266 305q-25-32-59-40 33-8 58.5-40.5T291 146V24q0-44 20.5-68.5T362-69h37v-113h-64q-93 0-143 44.5T142-8v117q0 52-13 74t-47 33l-42 14v70l42 13q34 11 47 33t13 74v118q0 85 50 129.5T335 712h64V599h-37q-30 0-50.5-24T291 506V383q0-46-25-78z"/><glyph glyph-name="bar" unicode="|" horiz-adv-x="293" d="M76 712h140v-894H76v894z"/><glyph glyph-name="braceright" unicode="}" horiz-adv-x="413" d="M373 300v-70l-42-14q-34-11-47-33t-13-74V-8q0-85-50-129.5T78-182H14v113h38q29 0 49.5 24.5T122 24v122q0 46 25.5 78.5T206 265q-34 8-59 40t-25 78v123q0 45-20.5 69T52 599H14v113h64q93 0 143-44.5T271 538V420q0-52 13-74t47-33z"/><glyph glyph-name="asciitilde" unicode="~" horiz-adv-x="600" d="M546 315q-16-50-54-79.5T408 206q-30 0-57 10t-68 31q-33 16-49.5 22.5T202 276q-50 0-71-62l-77 51q16 50 54 79.5t84 29.5q30 0 58-10t67-30q33-16 49.5-22.5T398 305q51 0 71 60z"/><glyph glyph-name="uni00A0" horiz-adv-x="281"/><glyph glyph-name="exclamdown" unicode="¡" horiz-adv-x="262" d="M49 496h163V335H49v161zm128-230 47-447-187-1 48 448h92z"/><glyph glyph-name="cent" unicode="¢" horiz-adv-x="600" d="M540 54Q496 16 421 0v-119H300V-5Q198 7 138 76T78 253q0 106 60.5 177.5T300 516v114h121V513q74-16 119-56l-41-105q-34 28-78 42V117q44 13 78 42zm-240 67v269q-33-17-50-51t-17-83q0-103 67-135z"/><glyph glyph-name="sterling" unicode="£" horiz-adv-x="600" d="M258 174.5Q248 145 223 125h349V0H39v105q43 22 58.5 48.5T113 230v80H39v93h74v117q0 59 28.5 105t81 71T343 721q69 0 131-20.5T582 641l-51-112q-46 34-91.5 51.5T356 598q-88 0-88-89V403h162v-93H268v-59q0-47-10-76.5z"/><glyph glyph-name="currency" unicode="¤" horiz-adv-x="600" d="m496 100 54-57-54-54-55 56Q377-3 298-3q-80 0-143 47l-54-55-55 54 54 57q-47 64-47 147 0 41 12 79t35 69l-54 56 56 56 54-55q63 46 142 46 77 0 140-45l55 56 60-60-55-57q44-64 44-145 0-80-46-147zm-136.5 33q28.5 18 45.5 48.5t17 65.5q0 36-17 66.5T359 362t-63 18q-33 0-61.5-18t-45-49-16.5-66q0-55 36-93.5t89-38.5q33 0 61.5 18z"/><glyph glyph-name="yen" unicode="¥" horiz-adv-x="600" d="M418 406h118v-92H378v-62h158v-92H378V0H221v160H64v92h157v62H64v92h118L-25 712h167l158-245 158 245h167z"/><glyph glyph-name="brokenbar" unicode="¦" horiz-adv-x="293" d="M76 712h140V375H76v337zm0-556h140v-338H76v338z"/><glyph glyph-name="section" unicode="§" horiz-adv-x="585" d="M487 86q26-38 26-82 0-92-61-142.5T280-189q-140 0-222 62L97-23q86-55 173-55 44 0 70 18.5T366-10q0 25-14.5 41.5T302 65l-132 59q-72 32-105.5 75.5T31 304q0 83 67 141-26 38-26 81 0 89 64.5 141T312 719q116 0 196-59l-39-101q-35 24-74 37t-77 13q-47 0-73-18t-26-51q0-23 15.5-41t48.5-33l131-60q72-32 106-76t34-103q0-85-67-141zm-106 88 28-15q10 20 10 36 0 60-81 99l-133 66-28 15q-12-24-12-40 0-57 81-98z"/><glyph glyph-name="dieresis" unicode="¨" horiz-adv-x="300" d="M125 729V597H-14v132h139zm192 0V597H178v132h139z"/><glyph glyph-name="copyright" unicode="©" horiz-adv-x="823" d="M228.5 43Q146 91 98.5 173.5T51 357t47.5 183 130 129.5T412 717t183.5-47.5 130-130T773 357q0-101-47.5-183.5T595 43 412-5Q311-5 228.5 43zm335 53Q631 135 669 203.5T707 357q0 84-38 152T563.5 616 412 655q-85 0-152.5-39T154 509t-38-152q0-85 38-153.5T259.5 96 412 57q84 0 151.5 39zM266 197.5Q207 257 207 357q0 99 59 158t160 59q47 0 87.5-12.5T583 525l-34-92q-20 14-48 25t-54 11q-49 0-76-29.5T344 357q0-55 27-84.5t76-29.5q26 0 54 11t48 25l34-92q-61-49-157-49-101 0-160 59.5z"/><glyph glyph-name="ordfeminine" unicode="ª" horiz-adv-x="342" d="M284 683q36-34 36-106V410H204v51q-10-27-32.5-41.5T119 405q-44 0-73.5 29.5T16 502q0 44 37 65t126 21h23v11q0 15-10 21.5t-34 6.5q-50 0-96-23l-23 86q54 27 134 27 75 0 111-34zm-94-187.5q12 10.5 12 30.5v7h-9q-38 0-51.5-7T128 507q0-9 8.5-15.5T159 485q19 0 31 10.5z"/><glyph glyph-name="guillemotleft" unicode="«" horiz-adv-x="529" d="m21 267 136 184h126L152 268 282 85H157zm224 0 136 184h126L376 268 506 85H381z"/><glyph glyph-name="logicalnot" unicode="¬" horiz-adv-x="600" d="M546 136H440v203H54v103h492V136z"/><glyph glyph-name="uni00AD" unicode="­" horiz-adv-x="444" d="M67 330h311V211H67v119z"/><glyph glyph-name="registered" unicode="®" horiz-adv-x="823" d="M595.5 669.5q82.5-47.5 130-130T773 357q0-101-47.5-183.5T595 43 412-5Q311-5 228.5 43t-130 130.5T51 357t47.5 183 130 129.5T412 717t183.5-47.5zm91-428Q707 295 707 357q0 84-38 152T563.5 616 412 655q-85 0-152.5-39T154 509t-38-152q0-85 38-153.5T259.5 96 412 57q63 0 117.5 22.5T624 143H482l-68 138q-9 16-21 16h-24V143H236v428h204q78 0 120-37t42-99q0-47-26.5-81.5T500 306q22-2 41.5-15t31.5-35l55-108q38 40 58.5 93.5zM462.5 398q12.5 9 12.5 30 0 23-12.5 32.5T423 470h-55v-81h55q27 0 39.5 9z"/><glyph glyph-name="macron" unicode="¯" horiz-adv-x="300" d="M-6 709h315v-94H-6v94z"/><glyph glyph-name="degree" unicode="°" horiz-adv-x="372" d="M107.5 433q-35.5 20-56 54.5T31 565t20.5 77.5 56 54.5 78.5 20 78-20 55.5-54.5T340 565t-20.5-77.5T264 433t-78-20-78.5 20zM237 511q21 21 21 54t-21 54-51 21q-31 0-52-21t-21-54 21-54 52-21q30 0 51 21z"/><glyph glyph-name="plusminus" unicode="±" horiz-adv-x="600" d="M546 392V288H352V143H248v145H54v104h194v144h104V392h194zM54 104h492V0H54v104z"/><glyph glyph-name="uni00B2" unicode="²" horiz-adv-x="380" d="M351 386V285H43v95l134 140q34 39 34 64 0 34-47 34-54 0-113-35l-21 94q29 17 73 28t84 11q70 0 112-33.5t42-89.5q0-36-17.5-68.5T260 450l-70-64h161z"/><glyph glyph-name="uni00B3" unicode="³" horiz-adv-x="380" d="M333 467.5q21-26.5 21-64.5 0-53-44.5-88T183 280q-42 0-86 11t-73 28l20 94q60-35 128-35 60 0 60 36 0 37-55 37h-72v98h60q29 0 42 8.5t13 27.5q0 33-50 33-28 0-59.5-9T51 583l-21 94q29 17 71.5 28t78.5 11q77 0 119-34t42-85q0-32-17-56.5T275 505q37-11 58-37.5z"/><glyph glyph-name="acute" unicode="´" horiz-adv-x="300" d="m105 561 99 206h148L198 561h-93z"/><glyph glyph-name="uni00B5" unicode="µ" horiz-adv-x="606" d="M545 507V0H398v74q-24-40-63-61T247-8q-20 0-38 3v-211H58v723h151V202q0-92 79-92 47 0 76 32t29 84v281h152z"/><glyph glyph-name="paragraph" unicode="¶" horiz-adv-x="637" d="M565-182H464v804H356v-804H255v451q-66 0-116.5 27.5t-78.5 78T32 491q0 65 28 115.5t79 78T258 712h307v-894z"/><glyph glyph-name="periodcentered" unicode="·" horiz-adv-x="262" d="M212 351V190H49v161h163z"/><glyph glyph-name="cedilla" unicode="¸" horiz-adv-x="300" d="M250.5-59Q274-78 274-110q0-40-36-64.5T137-199q-21 0-47 4.5T43-181l12 59q46-14 79-14 46 0 46 26 0 9-8.5 14.5T147-90q-13 0-36-7L91-76l12 96h82l-9-61q5 1 13 1 38 0 61.5-19z"/><glyph glyph-name="uni00B9" unicode="¹" horiz-adv-x="380" d="M363 386V285H72v101h80v189l-75-41v117l114 61h91V386h81z"/><glyph glyph-name="ordmasculine" unicode="º" horiz-adv-x="377" d="M60 450q-44 45-44 112 0 66 44 110.5T189 717t129-44.5T362 562q0-67-44-112t-129-45-129 45zm166 68q14 16 14 44 0 29-13.5 43.5T189 620t-37.5-14.5T138 562q0-28 14-44t37-16 37 16z"/><glyph glyph-name="guillemotright" unicode="»" horiz-adv-x="529" d="m24 85 130 183L22 451h127l135-184L149 85H24zm224 0 130 183-132 183h127l135-184L373 85H248z"/><glyph glyph-name="onequarter" unicode="¼" horiz-adv-x="962" d="M363 386V285H72v101h80v189l-75-41v117l114 61h91V386h81zM224 26l416 716 97-56L322-30zm733 39h-61V0H782v65H594v89l201 273h101V158h61V65zm-175 93v112l-83-112h83z"/><glyph glyph-name="onehalf" unicode="½" horiz-adv-x="962" d="M363 386V285H72v101h80v189l-75-41v117l114 61h91V386h81zM224 26l416 716 97-56L322-30zm709 75V0H625v95l134 140q34 39 34 64 0 34-47 34-54 0-113-35l-21 94q29 17 73 28t84 11q70 0 112-33.5t42-89.5q0-36-17.5-68.5T842 165l-70-64h161z"/><glyph glyph-name="threequarters" unicode="¾" horiz-adv-x="962" d="M333 467.5q21-26.5 21-64.5 0-53-44.5-88T183 280q-42 0-86 11t-73 28l20 94q60-35 128-35 60 0 60 36 0 37-55 37h-72v98h60q29 0 42 8.5t13 27.5q0 33-50 33-28 0-59.5-9T51 583l-21 94q29 17 71.5 28t78.5 11q77 0 119-34t42-85q0-32-17-56.5T275 505q37-11 58-37.5zM224 26l416 716 97-56L322-30zm733 39h-61V0H782v65H594v89l201 273h101V158h61V65zm-175 93v112l-83-112h83z"/><glyph glyph-name="questiondown" unicode="¿" horiz-adv-x="473" d="M161 496h162V335H161v161zm-41-666q-50 20-80 59T10-19q0 34 14 61t34 46.5 53 45.5q37 29 57.5 51.5T194 237l6 34h89v-51q0-51-19.5-82T214 75q-26-24-38-40.5T164-5q0-28 19.5-45T242-67q69 0 142 43v-124q-67-42-154-42-60 0-110 20z"/><glyph glyph-name="Agrave" unicode="À" horiz-adv-x="759" d="M547 158H214L146 0H-11l327 712h126L769 0H615zm-51 119L381 544 266 277h230zM182 930h140l103-157h-93z"/><glyph glyph-name="Aacute" unicode="Á" horiz-adv-x="759" d="M547 158H214L146 0H-11l327 712h126L769 0H615zm-51 119L381 544 266 277h230zM332 773l103 157h140L425 773h-93z"/><glyph glyph-name="Acircumflex" unicode="Â" horiz-adv-x="759" d="M547 158H214L146 0H-11l327 712h126L769 0H615zm-51 119L381 544 266 277h230zM202 773l133 157h87l133-157H441l-62 86-63-86H202z"/><glyph glyph-name="Atilde" unicode="Ã" horiz-adv-x="759" d="M547 158H214L146 0H-11l327 712h126L769 0H615zm-51 119L381 544 266 277h230zM233.5 890q30.5 37 78.5 37 19 0 37.5-8t39.5-22q22-12 33.5-17.5T446 874q19 0 30.5 13.5T490 924h64q0-73-30.5-110T445 777q-19 0-37.5 8T368 807q-22 12-33.5 17.5T311 830q-19 0-30.5-13.5T267 780h-64q0 73 30.5 110z"/><glyph glyph-name="Adieresis" unicode="Ä" horiz-adv-x="759" d="M547 158H214L146 0H-11l327 712h126L769 0H615zm-51 119L381 544 266 277h230zM352 918V786H213v132h139zm192 0V786H405v132h139z"/><glyph glyph-name="Aring" unicode="Å" horiz-adv-x="759" d="M547 158H214L146 0H-11l322 700q-19 15-30 37.5T270 786q0 45 32 76.5t78 31.5 78-31.5 32-76.5q0-27-11-49.5T448 699L769 0H615zM348.5 818Q336 805 336 786q0-20 12.5-33.5T380 739t31 13.5 12 33.5q0 19-12 32t-31 13-31.5-13zM496 277 381 544 266 277h230z"/><glyph glyph-name="AE" unicode="Æ" horiz-adv-x="1010" d="m649 590 12-167h291V301H669l13-179h291V0H549l-11 158H233L139 0H-31l448 712h556V590H649zm-140 0h-20L303 277h227z"/><glyph glyph-name="Ccedilla" unicode="Ç" horiz-adv-x="685" d="M550 16Q492-5 427-8l-5-33q5 1 13 1 38 0 61.5-19t23.5-51q0-40-36-64.5T383-199q-22 0-47.5 4.5T289-181l12 59q46-14 79-14 46 0 46 26 0 9-8.5 14.5T393-90q-13 0-36-7l-20 21 9 71Q255 7 188 55T85.5 180.5 50 357q0 109 43 191.5T216.5 676 405 721q71 0 135.5-21.5T646 639l-49-112q-48 36-93.5 52.5T408 596q-96 0-147-61t-51-178q0-118 51-179.5T408 116q50 0 95.5 16.5T597 185l49-112q-38-36-96-57z"/><glyph glyph-name="Egrave" unicode="È" horiz-adv-x="599" d="M71 712h491V591H223V423h318V301H223V121h339V0H71v712zm65 218h140l103-157h-93z"/><glyph glyph-name="Eacute" unicode="É" horiz-adv-x="599" d="M71 712h491V591H223V423h318V301H223V121h339V0H71v712zm215 61 103 157h140L379 773h-93z"/><glyph glyph-name="Ecircumflex" unicode="Ê" horiz-adv-x="599" d="M71 712h491V591H223V423h318V301H223V121h339V0H71v712zm85 61 133 157h87l133-157H395l-62 86-63-86H156z"/><glyph glyph-name="Edieresis" unicode="Ë" horiz-adv-x="599" d="M71 712h491V591H223V423h318V301H223V121h339V0H71v712zm235 206V786H167v132h139zm192 0V786H359v132h139z"/><glyph glyph-name="Igrave" unicode="Ì" horiz-adv-x="299" d="M71 712h156V0H71v712zM-49 930H91l103-157h-93z"/><glyph glyph-name="Iacute" unicode="Í" horiz-adv-x="299" d="M71 712h156V0H71v712zm30 61 103 157h140L194 773h-93z"/><glyph glyph-name="Icircumflex" unicode="Î" horiz-adv-x="299" d="M71 712h156V0H71v712zm-100 61 133 157h87l133-157H210l-62 86-63-86H-29z"/><glyph glyph-name="Idieresis" unicode="Ï" horiz-adv-x="299" d="M71 712h156V0H71v712zm50 206V786H-18v132h139zm192 0V786H174v132h139z"/><glyph glyph-name="Eth" unicode="Ð" horiz-adv-x="801" d="M577 670q84-42 128.5-122T750 357q0-112-44-192T578 42.5 377 0H101v300H14v119h87v293h276q116 0 200-42zm17-313q0 229-228 229H258V419h186V300H258V126h108q228 0 228 231z"/><glyph glyph-name="Ntilde" unicode="Ñ" horiz-adv-x="760" d="M688 712V0H572L217 454V0H71v712h115l355-453v453h147zM233.5 890q30.5 37 78.5 37 19 0 37.5-8t39.5-22q22-12 33.5-17.5T446 874q19 0 30.5 13.5T490 924h64q0-73-30.5-110T445 777q-19 0-37.5 8T368 807q-22 12-33.5 17.5T311 830q-19 0-30.5-13.5T267 780h-64q0 73 30.5 110z"/><glyph glyph-name="Ograve" unicode="Ò" horiz-adv-x="795" d="M213.5 35.5Q135 80 92.5 163T50 357t42.5 193 121 126.5T398 721t184-44.5T702 550t42-193-42-194T582 35.5 398-9 213.5 35.5zm325 140.5Q589 239 589 357t-50.5 180T398 599t-140.5-62T207 357q0-119 50.5-181.5T398 113t140.5 63zM200 930h140l103-157h-93z"/><glyph glyph-name="Oacute" unicode="Ó" horiz-adv-x="795" d="M213.5 35.5Q135 80 92.5 163T50 357t42.5 193 121 126.5T398 721t184-44.5T702 550t42-193-42-194T582 35.5 398-9 213.5 35.5zm325 140.5Q589 239 589 357t-50.5 180T398 599t-140.5-62T207 357q0-119 50.5-181.5T398 113t140.5 63zM350 773l103 157h140L443 773h-93z"/><glyph glyph-name="Ocircumflex" unicode="Ô" horiz-adv-x="795" d="M213.5 35.5Q135 80 92.5 163T50 357t42.5 193 121 126.5T398 721t184-44.5T702 550t42-193-42-194T582 35.5 398-9 213.5 35.5zm325 140.5Q589 239 589 357t-50.5 180T398 599t-140.5-62T207 357q0-119 50.5-181.5T398 113t140.5 63zM220 773l133 157h87l133-157H459l-62 86-63-86H220z"/><glyph glyph-name="Otilde" unicode="Õ" horiz-adv-x="795" d="M213.5 35.5Q135 80 92.5 163T50 357t42.5 193 121 126.5T398 721t184-44.5T702 550t42-193-42-194T582 35.5 398-9 213.5 35.5zm325 140.5Q589 239 589 357t-50.5 180T398 599t-140.5-62T207 357q0-119 50.5-181.5T398 113t140.5 63zm-287 714q30.5 37 78.5 37 19 0 37.5-8t39.5-22q22-12 33.5-17.5T464 874q19 0 30.5 13.5T508 924h64q0-73-30.5-110T463 777q-19 0-37.5 8T386 807q-22 12-33.5 17.5T329 830q-19 0-30.5-13.5T285 780h-64q0 73 30.5 110z"/><glyph glyph-name="Odieresis" unicode="Ö" horiz-adv-x="795" d="M213.5 35.5Q135 80 92.5 163T50 357t42.5 193 121 126.5T398 721t184-44.5T702 550t42-193-42-194T582 35.5 398-9 213.5 35.5zm325 140.5Q589 239 589 357t-50.5 180T398 599t-140.5-62T207 357q0-119 50.5-181.5T398 113t140.5 63zM370 918V786H231v132h139zm192 0V786H423v132h139z"/><glyph glyph-name="multiply" unicode="×" horiz-adv-x="600" d="m373 289 163-163-73-72-163 163L137 54l-73 72 163 163L64 452l73 74 163-163 163 163 73-74z"/><glyph glyph-name="Oslash" unicode="Ø" horiz-adv-x="795" d="M715 522q29-73 29-165 0-111-42-194T582 35.5 398-9q-73 0-133 21l-47-80L118-8l46 79q-55 48-84.5 121T50 357q0 111 42.5 193t121 126.5T398 721q74 0 132-21l47 80 100-60-46-78q55-47 84-120zM240 202l225 386q-31 11-67 11-90 0-140.5-62T207 357q0-94 33-155zm298.5-26Q589 239 589 357q0 94-33 155L330 124q31-11 68-11 90 0 140.5 63z"/><glyph glyph-name="Ugrave" unicode="Ù" horiz-adv-x="746" d="M145 68q-78 77-78 226v418h153V287q0-85 39.5-129.5T373 113t113 44.5T525 287v425h154V294q0-148-78.5-225.5T373-9Q223-9 145 68zm31 862h140l103-157h-93z"/><glyph glyph-name="Uacute" unicode="Ú" horiz-adv-x="746" d="M145 68q-78 77-78 226v418h153V287q0-85 39.5-129.5T373 113t113 44.5T525 287v425h154V294q0-148-78.5-225.5T373-9Q223-9 145 68zm181 705 103 157h140L419 773h-93z"/><glyph glyph-name="Ucircumflex" unicode="Û" horiz-adv-x="746" d="M145 68q-78 77-78 226v418h153V287q0-85 39.5-129.5T373 113t113 44.5T525 287v425h154V294q0-148-78.5-225.5T373-9Q223-9 145 68zm51 705 133 157h87l133-157H435l-62 86-63-86H196z"/><glyph glyph-name="Udieresis" unicode="Ü" horiz-adv-x="746" d="M145 68q-78 77-78 226v418h153V287q0-85 39.5-129.5T373 113t113 44.5T525 287v425h154V294q0-148-78.5-225.5T373-9Q223-9 145 68zm201 850V786H207v132h139zm192 0V786H399v132h139z"/><glyph glyph-name="Yacute" unicode="Ý" horiz-adv-x="642" d="M399 276V0H243v277L-51 712h177l194-304 196 304h178zM273 773l103 157h140L366 773h-93z"/><glyph glyph-name="Thorn" unicode="Þ" horiz-adv-x="676" d="M578.5 514Q643 459 643 362t-65.5-152T399 155H224V0H71v712h153V569h175q115 0 179.5-55zm-112-218.5Q496 316 496 362q0 45-29.5 65.5T374 448H224V275h150q63 0 92.5 20.5z"/><glyph glyph-name="germandbls" unicode="ß" horiz-adv-x="697" d="M620.5 295Q675 244 675 164q0-78-58.5-125T461-8Q399-8 346.5 8T258 54l41 108q74-59 163-59 38 0 56.5 19t18.5 49q0 42-53 75.5T308 310v111q77 24 107.5 54.5T446 550q0 85-99 85-66 0-100.5-37.5T212 484V0H61v462q0 139 73.5 211T347 745q112 0 176.5-49.5T588 557q0-58-30.5-102.5T450 376q116-30 170.5-81z"/><glyph glyph-name="agrave" unicode="à" horiz-adv-x="630" d="M569 507V0H420v75q-23-39-65-61T260-8q-66 0-116.5 32t-79 91.5T36 253t28.5 139 79.5 94.5T260 520q53 0 95-23t65-62v72h149zM390 145q30 38 30 110t-30 110.5-86 38.5-87-40-31-111 30.5-108.5T304 107q56 0 86 38zM114 778h148l99-206h-93z"/><glyph glyph-name="aacute" unicode="á" horiz-adv-x="630" d="M569 507V0H420v75q-23-39-65-61T260-8q-66 0-116.5 32t-79 91.5T36 253t28.5 139 79.5 94.5T260 520q53 0 95-23t65-62v72h149zM390 145q30 38 30 110t-30 110.5-86 38.5-87-40-31-111 30.5-108.5T304 107q56 0 86 38zM268 572l99 206h148L361 572h-93z"/><glyph glyph-name="acircumflex" unicode="â" horiz-adv-x="630" d="M569 507V0H420v75q-23-39-65-61T260-8q-66 0-116.5 32t-79 91.5T36 253t28.5 139 79.5 94.5T260 520q53 0 95-23t65-62v72h149zM390 145q30 38 30 110t-30 110.5-86 38.5-87-40-31-111 30.5-108.5T304 107q56 0 86 38zM138 572l131 206h91l131-206H373l-58 117-59-117H138z"/><glyph glyph-name="atilde" unicode="ã" horiz-adv-x="630" d="M569 507V0H420v75q-23-39-65-61T260-8q-66 0-116.5 32t-79 91.5T36 253t28.5 139 79.5 94.5T260 520q53 0 95-23t65-62v72h149zM390 145q30 38 30 110t-30 110.5-86 38.5-87-40-31-111 30.5-108.5T304 107q56 0 86 38zM169.5 713.5Q200 750 248 750q19 0 36.5-7.5T325 721q22-12 33.5-17.5T382 698q19 0 30.5 13t13.5 36h64q0-72-30.5-109T381 601q-19 0-36.5 7.5T304 630q-22 12-33.5 17.5T247 653q-19 0-30.5-13T203 604h-64q0 73 30.5 109.5z"/><glyph glyph-name="adieresis" unicode="ä" horiz-adv-x="630" d="M569 507V0H420v75q-23-39-65-61T260-8q-66 0-116.5 32t-79 91.5T36 253t28.5 139 79.5 94.5T260 520q53 0 95-23t65-62v72h149zM390 145q30 38 30 110t-30 110.5-86 38.5-87-40-31-111 30.5-108.5T304 107q56 0 86 38zM288 740V608H149v132h139zm192 0V608H341v132h139z"/><glyph glyph-name="aring" unicode="å" horiz-adv-x="630" d="M569 507V0H420v75q-23-39-65-61T260-8q-66 0-116.5 32t-79 91.5T36 253t28.5 139 79.5 94.5T260 520q53 0 95-23t65-62v72h149zM390 145q30 38 30 110t-30 110.5-86 38.5-87-40-31-111 30.5-108.5T304 107q56 0 86 38zM236 598.5Q204 630 204 676q0 45 32.5 76.5T315 784t78-31.5 32-76.5q0-46-32-77.5T315 567q-47 0-79 31.5zm110 44q12 13.5 12 33.5 0 19-12 32t-31 13-31.5-13-12.5-32q0-20 12.5-33.5T315 629t31 13.5z"/><glyph glyph-name="ae" unicode="æ" horiz-adv-x="866" d="M831 241H503q2-64 35-100t99-36q36 0 74 13t72 38l39-102q-35-29-88-45.5T627-8q-72 0-125 26t-84 76q-23-49-68.5-75.5T242-8q-58 0-103.5 21T67 71.5 41 158q0 83 65 120.5T322 316h37v4q0 46-19.5 66T276 406q-42 0-87.5-13.5T102 354L62 457q42 27 105 45t117 18q116 0 165-67 31 33 73 50t92 17q64 0 113.5-32.5t76.5-91T831 262v-21zm-323 75h194q-5 48-28.5 73T610 414q-83 0-102-98zM333.5 128.5Q359 160 359 209v34h-29q-76 0-109.5-19.5T187 164q0-30 21-48.5T262 97q46 0 71.5 31.5z"/><glyph glyph-name="ccedilla" unicode="ç" horiz-adv-x="509" d="M421.5 12Q375-4 323-7l-5-34q5 1 13 1 38 0 61.5-19t23.5-51q0-40-36-64.5T279-199q-22 0-47.5 4.5T185-181l12 59q46-14 79-14 46 0 46 26 0 9-8.5 14.5T289-90q-13 0-36-7l-20 21 9 73Q145 13 90.5 80.5T36 253q0 79 34 139.5t95.5 94T308 520q55 0 107-17t83-46l-40-105q-30 24-66 37.5T322 403q-62 0-96.5-37.5T191 256q0-73 34-110.5t97-37.5q34 0 70 13.5t66 37.5l40-105q-30-26-76.5-42z"/><glyph glyph-name="egrave" unicode="è" horiz-adv-x="550" d="M516 241H182q4-71 37-103.5t98-32.5q39 0 78 13t72 38l40-102q-36-29-89.5-45.5T310-8Q182-8 109 62.5T36 255q0 77 31.5 137.5t88.5 94T285 520q107 0 169-69.5T516 263v-22zM219.5 389Q193 364 185 316h201q-12 98-97 98-43 0-69.5-25zM84 778h148l99-206h-93z"/><glyph glyph-name="eacute" unicode="é" horiz-adv-x="550" d="M516 241H182q4-71 37-103.5t98-32.5q39 0 78 13t72 38l40-102q-36-29-89.5-45.5T310-8Q182-8 109 62.5T36 255q0 77 31.5 137.5t88.5 94T285 520q107 0 169-69.5T516 263v-22zM219.5 389Q193 364 185 316h201q-12 98-97 98-43 0-69.5-25zM238 572l99 206h148L331 572h-93z"/><glyph glyph-name="ecircumflex" unicode="ê" horiz-adv-x="550" d="M516 241H182q4-71 37-103.5t98-32.5q39 0 78 13t72 38l40-102q-36-29-89.5-45.5T310-8Q182-8 109 62.5T36 255q0 77 31.5 137.5t88.5 94T285 520q107 0 169-69.5T516 263v-22zM219.5 389Q193 364 185 316h201q-12 98-97 98-43 0-69.5-25zM108 572l131 206h91l131-206H343l-58 117-59-117H108z"/><glyph glyph-name="edieresis" unicode="ë" horiz-adv-x="550" d="M516 241H182q4-71 37-103.5t98-32.5q39 0 78 13t72 38l40-102q-36-29-89.5-45.5T310-8Q182-8 109 62.5T36 255q0 77 31.5 137.5t88.5 94T285 520q107 0 169-69.5T516 263v-22zM219.5 389Q193 364 185 316h201q-12 98-97 98-43 0-69.5-25zM258 740V608H119v132h139zm192 0V608H311v132h139z"/><glyph glyph-name="igrave" unicode="ì" horiz-adv-x="274" d="M61 507h151V0H61v507zM-64 778H84l99-206H90z"/><glyph glyph-name="iacute" unicode="í" horiz-adv-x="274" d="M61 507h151V0H61v507zm29 65 99 206h148L183 572H90z"/><glyph glyph-name="icircumflex" unicode="î" horiz-adv-x="274" d="M61 507h151V0H61v507zm-101 65L91 778h91l131-206H195l-58 117-59-117H-40z"/><glyph glyph-name="idieresis" unicode="ï" horiz-adv-x="274" d="M61 507h151V0H61v507zm49 233V608H-29v132h139zm192 0V608H163v132h139z"/><glyph glyph-name="eth" unicode="ð" horiz-adv-x="612" d="M552.5 450.5Q576 380 576 306q0-151-72.5-232.5T297-8q-77 0-136 30t-92 84.5T36 232q0 69 31.5 123.5T155 440t128 30q89 0 140-48-21 72-69 121l-179-50-22 78 120 33q-53 28-120 39l34 105q137-20 234-103l129 36 20-77-86-24q45-59 68.5-129.5zM388 139.5q30 32.5 30 92.5 0 62-29.5 94T303 358q-57 0-87-32.5T186 232t30-93 87-32q55 0 85 32.5z"/><glyph glyph-name="ntilde" unicode="ñ" horiz-adv-x="613" d="M554 307V0H403v300q0 53-19.5 77.5T322 402q-50 0-80-32t-30-86V0H61v362q0 81-8 145h142l10-80q27 45 70.5 69t98.5 24q180 0 180-213zM162.5 713.5Q193 750 241 750q19 0 36.5-7.5T318 721q22-12 33.5-17.5T375 698q19 0 30.5 13t13.5 36h64q0-72-30.5-109T374 601q-19 0-36.5 7.5T297 630q-22 12-33.5 17.5T240 653q-19 0-30.5-13T196 604h-64q0 73 30.5 109.5z"/><glyph glyph-name="ograve" unicode="ò" horiz-adv-x="604" d="M161.5 24q-60.5 32-93 92T36 256t32.5 140 93 92T303 520q80 0 140-32t92.5-92T568 256t-32.5-140T443 24 303-8q-81 0-141.5 32zm227 120Q418 181 418 256q0 74-29.5 111.5T303 405q-57 0-87-37.5T186 256q0-149 117-149 56 0 85.5 37zM102 778h148l99-206h-93z"/><glyph glyph-name="oacute" unicode="ó" horiz-adv-x="604" d="M161.5 24q-60.5 32-93 92T36 256t32.5 140 93 92T303 520q80 0 140-32t92.5-92T568 256t-32.5-140T443 24 303-8q-81 0-141.5 32zm227 120Q418 181 418 256q0 74-29.5 111.5T303 405q-57 0-87-37.5T186 256q0-149 117-149 56 0 85.5 37zM256 572l99 206h148L349 572h-93z"/><glyph glyph-name="ocircumflex" unicode="ô" horiz-adv-x="604" d="M161.5 24q-60.5 32-93 92T36 256t32.5 140 93 92T303 520q80 0 140-32t92.5-92T568 256t-32.5-140T443 24 303-8q-81 0-141.5 32zm227 120Q418 181 418 256q0 74-29.5 111.5T303 405q-57 0-87-37.5T186 256q0-149 117-149 56 0 85.5 37zM126 572l131 206h91l131-206H361l-58 117-59-117H126z"/><glyph glyph-name="otilde" unicode="õ" horiz-adv-x="604" d="M161.5 24q-60.5 32-93 92T36 256t32.5 140 93 92T303 520q80 0 140-32t92.5-92T568 256t-32.5-140T443 24 303-8q-81 0-141.5 32zm227 120Q418 181 418 256q0 74-29.5 111.5T303 405q-57 0-87-37.5T186 256q0-149 117-149 56 0 85.5 37zm-231 569.5Q188 750 236 750q19 0 36.5-7.5T313 721q22-12 33.5-17.5T370 698q19 0 30.5 13t13.5 36h64q0-72-30.5-109T369 601q-19 0-36.5 7.5T292 630q-22 12-33.5 17.5T235 653q-19 0-30.5-13T191 604h-64q0 73 30.5 109.5z"/><glyph glyph-name="odieresis" unicode="ö" horiz-adv-x="604" d="M161.5 24q-60.5 32-93 92T36 256t32.5 140 93 92T303 520q80 0 140-32t92.5-92T568 256t-32.5-140T443 24 303-8q-81 0-141.5 32zm227 120Q418 181 418 256q0 74-29.5 111.5T303 405q-57 0-87-37.5T186 256q0-149 117-149 56 0 85.5 37zM276 740V608H137v132h139zm192 0V608H329v132h139z"/><glyph glyph-name="divide" unicode="÷" horiz-adv-x="600" d="M234 541h120V422H234v119zm312-303H54v103h492V238zm-312-86h120V32H234v120z"/><glyph glyph-name="oslash" unicode="ø" horiz-adv-x="604" d="M543.5 379Q568 325 568 256q0-80-32.5-140T443 24 303-8q-51 0-98 14l-41-70-71 42 38 66q-46 34-70.5 88.5T36 256q0 80 32.5 140t93 92T303 520q52 0 97-14l40 68 72-42-38-64q45-35 69.5-89zM201 163l139 239q-16 4-37 4-120 0-120-150 0-57 18-93zm220 93q0 55-17 91L266 110q15-4 37-4 118 0 118 150z"/><glyph glyph-name="ugrave" unicode="ù" horiz-adv-x="606" d="M545 507V0H398v74q-24-40-63-61T247-8q-95 0-142 53T58 205v302h151V202q0-92 79-92 47 0 76 32t29 84v281h152zM102 778h148l99-206h-93z"/><glyph glyph-name="uacute" unicode="ú" horiz-adv-x="606" d="M545 507V0H398v74q-24-40-63-61T247-8q-95 0-142 53T58 205v302h151V202q0-92 79-92 47 0 76 32t29 84v281h152zm-289 65 99 206h148L349 572h-93z"/><glyph glyph-name="ucircumflex" unicode="û" horiz-adv-x="606" d="M545 507V0H398v74q-24-40-63-61T247-8q-95 0-142 53T58 205v302h151V202q0-92 79-92 47 0 76 32t29 84v281h152zm-419 65 131 206h91l131-206H361l-58 117-59-117H126z"/><glyph glyph-name="udieresis" unicode="ü" horiz-adv-x="606" d="M545 507V0H398v74q-24-40-63-61T247-8q-95 0-142 53T58 205v302h151V202q0-92 79-92 47 0 76 32t29 84v281h152zM276 740V608H137v132h139zm192 0V608H329v132h139z"/><glyph glyph-name="yacute" unicode="ý" horiz-adv-x="550" d="M561 507 327-27q-43-97-108.5-142.5T58-228L23-112q70 15 105.5 38T184-7l15 33-209 481h158l130-329 134 329h149zm-333 65 99 206h148L321 572h-93z"/><glyph glyph-name="thorn" unicode="þ" horiz-adv-x="631" d="M487 486.5q51-33.5 79.5-94.5T595 253t-28.5-137.5T487 24 371-8q-53 0-95 22t-64 61v-291H61v952h151V436q22 39 64.5 61.5T371 520q65 0 116-33.5zm-73-342Q444 182 444 253t-30.5 111-85.5 40q-56 0-86.5-38.5T211 255t30.5-110 86.5-38 86 37.5z"/><glyph glyph-name="ydieresis" unicode="ÿ" horiz-adv-x="550" d="M561 507 327-27q-43-97-108.5-142.5T58-228L23-112q70 15 105.5 38T184-7l15 33-209 481h158l130-329 134 329h149zM248 740V608H109v132h139zm192 0V608H301v132h139z"/><glyph glyph-name="Amacron" unicode="Ā" horiz-adv-x="759" d="M547 158H214L146 0H-11l327 712h126L769 0H615zm-51 119L381 544 266 277h230zM221 898h315v-94H221v94z"/><glyph glyph-name="amacron" unicode="ā" horiz-adv-x="630" d="M569 507V0H420v75q-23-39-65-61T260-8q-66 0-116.5 32t-79 91.5T36 253t28.5 139 79.5 94.5T260 520q53 0 95-23t65-62v72h149zM390 145q30 38 30 110t-30 110.5-86 38.5-87-40-31-111 30.5-108.5T304 107q56 0 86 38zM157 720h315v-94H157v94z"/><glyph glyph-name="Abreve" unicode="Ă" horiz-adv-x="759" d="M547 158H214L146 0H-11l327 712h126L769 0H615zm-51 119L381 544 266 277h230zM266 810q-47 28-67 82l70 29q32-49 110-49 77 0 109 49l70-29q-20-54-67-82t-112-28q-66 0-113 28z"/><glyph glyph-name="abreve" unicode="ă" horiz-adv-x="630" d="M569 507V0H420v75q-23-39-65-61T260-8q-66 0-116.5 32t-79 91.5T36 253t28.5 139 79.5 94.5T260 520q53 0 95-23t65-62v72h149zM390 145q30 38 30 110t-30 110.5-86 38.5-87-40-31-111 30.5-108.5T304 107q56 0 86 38zM197 631q-52 37-69 109l69 30q44-81 118-81 73 0 117 81l69-30q-17-71-68.5-108.5T315 594t-118 37z"/><glyph glyph-name="Aogonek" unicode="Ą" horiz-adv-x="759" d="M775-178q-48-21-101-21-56 0-92.5 30.5T545-88q0 33 16 61t46 46l-60 139H214L146 0H-11l327 712h126L769 0h-51q-34 0-55-18.5T642-66q0-27 15.5-40.5T703-120q26 0 55 13zM496 277 381 544 266 277h230z"/><glyph glyph-name="aogonek" unicode="ą" horiz-adv-x="630" d="M609-182q-47-22-103-22-57 0-93.5 32.5T376-88q0 56 44 94v69q-23-39-65-61T260-8q-66 0-117 32.5T64 116 36 253t28.5 138.5T144 486t116 34q53 0 95-23t65-62v72h149V0h-9q-39 0-63-18.5T473-68q0-27 16-41.5t46-14.5q28 0 57 14zM390 145q30 38 30 110t-30 110.5-86 38.5-87-40-31-111 30.5-108.5T304 107q56 0 86 38z"/><glyph glyph-name="Cacute" unicode="Ć" horiz-adv-x="685" d="M216.5 36.5Q136 82 93 164.5T50 357q0 109 43 191.5T216.5 676 405 721q71 0 135.5-21.5T646 639l-49-112q-48 36-93.5 52.5T408 596q-96 0-147-61t-51-178q0-118 51-179.5T408 116q50 0 95.5 16.5T597 185l49-112q-41-39-105.5-60.5T405-9Q297-9 216.5 36.5zM351 773l103 157h140L444 773h-93z"/><glyph glyph-name="cacute" unicode="ć" horiz-adv-x="509" d="M106.5 62Q36 132 36 253q0 79 34 139.5t95.5 94T308 520q55 0 107-17t83-46l-40-105q-30 24-66 37.5T322 403q-62 0-96.5-37.5T191 256q0-73 34-110.5t97-37.5q34 0 70 13.5t66 37.5l40-105q-33-29-86-45.5T301-8Q177-8 106.5 62zM256 572l99 206h148L349 572h-93z"/><glyph glyph-name="Ccircumflex" unicode="Ĉ" horiz-adv-x="685" d="M216.5 36.5Q136 82 93 164.5T50 357q0 109 43 191.5T216.5 676 405 721q71 0 135.5-21.5T646 639l-49-112q-48 36-93.5 52.5T408 596q-96 0-147-61t-51-178q0-118 51-179.5T408 116q50 0 95.5 16.5T597 185l49-112q-41-39-105.5-60.5T405-9Q297-9 216.5 36.5zM221 773l133 157h87l133-157H460l-62 86-63-86H221z"/><glyph glyph-name="ccircumflex" unicode="ĉ" horiz-adv-x="509" d="M106.5 62Q36 132 36 253q0 79 34 139.5t95.5 94T308 520q55 0 107-17t83-46l-40-105q-30 24-66 37.5T322 403q-62 0-96.5-37.5T191 256q0-73 34-110.5t97-37.5q34 0 70 13.5t66 37.5l40-105q-33-29-86-45.5T301-8Q177-8 106.5 62zM126 572l131 206h91l131-206H361l-58 117-59-117H126z"/><glyph glyph-name="Cdotaccent" unicode="Ċ" horiz-adv-x="685" d="M216.5 36.5Q136 82 93 164.5T50 357q0 109 43 191.5T216.5 676 405 721q71 0 135.5-21.5T646 639l-49-112q-48 36-93.5 52.5T408 596q-96 0-147-61t-51-178q0-118 51-179.5T408 116q50 0 95.5 16.5T597 185l49-112q-41-39-105.5-60.5T405-9Q297-9 216.5 36.5zM478 923V781H317v142h161z"/><glyph glyph-name="cdotaccent" unicode="ċ" horiz-adv-x="509" d="M106.5 62Q36 132 36 253q0 79 34 139.5t95.5 94T308 520q55 0 107-17t83-46l-40-105q-30 24-66 37.5T322 403q-62 0-96.5-37.5T191 256q0-73 34-110.5t97-37.5q34 0 70 13.5t66 37.5l40-105q-33-29-86-45.5T301-8Q177-8 106.5 62zM383 745V603H222v142h161z"/><glyph glyph-name="Ccaron" unicode="Č" horiz-adv-x="685" d="M216.5 36.5Q136 82 93 164.5T50 357q0 109 43 191.5T216.5 676 405 721q71 0 135.5-21.5T646 639l-49-112q-48 36-93.5 52.5T408 596q-96 0-147-61t-51-178q0-118 51-179.5T408 116q50 0 95.5 16.5T597 185l49-112q-41-39-105.5-60.5T405-9Q297-9 216.5 36.5zM574 930 441 773h-87L221 930h114l63-87 62 87h114z"/><glyph glyph-name="ccaron" unicode="č" horiz-adv-x="509" d="M106.5 62Q36 132 36 253q0 79 34 139.5t95.5 94T308 520q55 0 107-17t83-46l-40-105q-30 24-66 37.5T322 403q-62 0-96.5-37.5T191 256q0-73 34-110.5t97-37.5q34 0 70 13.5t66 37.5l40-105q-33-29-86-45.5T301-8Q177-8 106.5 62zM479 778 348 572h-91L126 778h118l59-118 58 118h118z"/><glyph glyph-name="Dcaron" unicode="Ď" horiz-adv-x="771" d="M71 712h275q117 0 201-42t128.5-122T720 357q0-112-44-192T548 42.5 346 0H71v712zm265-586q228 0 228 231 0 229-228 229H227V126h109zm225 804L428 773h-87L208 930h114l63-87 62 87h114z"/><glyph glyph-name="dcaron" unicode="ď" horiz-adv-x="630" d="M418 736h151V0H420v75q-23-39-65-61T260-8q-65 0-116 33.5t-79.5 94T36 258t28.5 137.5 79 92T260 520q51 0 93-21.5t65-59.5v297zm258 0-27-200h-52v200h79zM390 145.5Q420 184 420 256q0 71-30.5 109.5T304 404q-56 0-87-38t-31-108q0-72 31-111.5t87-39.5 86 38.5z"/><glyph glyph-name="Dcroat" unicode="Đ" horiz-adv-x="801" d="M577 670q84-42 128.5-122T750 357q0-112-44-192T578 42.5 377 0H101v300H14v119h87v293h276q116 0 200-42zm17-313q0 229-228 229H258V419h186V300H258V126h108q228 0 228 231z"/><glyph glyph-name="dcroat" unicode="đ" horiz-adv-x="630" d="M658 560h-89V0H420v75q-23-39-65-61T260-8q-65 0-116 33.5t-79.5 94T36 258t28.5 137.5 79 92T260 520q51 0 93-21.5t65-59.5v121H226v105h192v71h151v-71h89V560zM390 145.5Q420 184 420 256q0 71-30.5 109.5T304 404q-56 0-87-38t-31-108q0-72 31-111.5t87-39.5 86 38.5z"/><glyph glyph-name="Emacron" unicode="Ē" horiz-adv-x="599" d="M71 712h491V591H223V423h318V301H223V121h339V0H71v712zm104 186h315v-94H175v94z"/><glyph glyph-name="emacron" unicode="ē" horiz-adv-x="550" d="M516 241H182q4-71 37-103.5t98-32.5q39 0 78 13t72 38l40-102q-36-29-89.5-45.5T310-8Q182-8 109 62.5T36 255q0 77 31.5 137.5t88.5 94T285 520q107 0 169-69.5T516 263v-22zM219.5 389Q193 364 185 316h201q-12 98-97 98-43 0-69.5-25zM127 720h315v-94H127v94z"/><glyph glyph-name="Ebreve" unicode="Ĕ" horiz-adv-x="599" d="M71 712h491V591H223V423h318V301H223V121h339V0H71v712zm149 98q-47 28-67 82l70 29q32-49 110-49 77 0 109 49l70-29q-20-54-67-82t-112-28q-66 0-113 28z"/><glyph glyph-name="ebreve" unicode="ĕ" horiz-adv-x="550" d="M516 241H182q4-71 37-103.5t98-32.5q39 0 78 13t72 38l40-102q-36-29-89.5-45.5T310-8Q182-8 109 62.5T36 255q0 77 31.5 137.5t88.5 94T285 520q107 0 169-69.5T516 263v-22zM219.5 389Q193 364 185 316h201q-12 98-97 98-43 0-69.5-25zM167 631q-52 37-69 109l69 30q44-81 118-81 73 0 117 81l69-30q-17-71-68.5-108.5T285 594t-118 37z"/><glyph glyph-name="Edotaccent" unicode="Ė" horiz-adv-x="599" d="M71 712h491V591H223V423h318V301H223V121h339V0H71v712zm342 211V781H252v142h161z"/><glyph glyph-name="edotaccent" unicode="ė" horiz-adv-x="550" d="M516 241H182q4-71 37-103.5t98-32.5q39 0 78 13t72 38l40-102q-36-29-89.5-45.5T310-8Q182-8 109 62.5T36 255q0 77 31.5 137.5t88.5 94T285 520q107 0 169-69.5T516 263v-22zM219.5 389Q193 364 185 316h201q-12 98-97 98-43 0-69.5-25zM365 745V603H204v142h161z"/><glyph glyph-name="Eogonek" unicode="Ę" horiz-adv-x="599" d="M601-178q-48-21-101-21-57 0-92.5 31T372-88q0 53 38 88H71v712h491V591H223V423h318V301H223V121h339V0h-22q-33 0-52-18t-19-48q0-54 59-54 27 0 56 13z"/><glyph glyph-name="eogonek" unicode="ę" horiz-adv-x="550" d="M516 241H182q4-71 37-103.5t98-32.5q39 0 78 13t72 38l40-101q-8-8-19.5-14.5T448 21q-42-21-59.5-41.5T371-68t16-41.5 45-14.5 57 14l17-72q-49-22-102-22-58 0-94.5 32T273-90q0 49 35 82-127 1-199.5 71.5T36 255q0 77 31.5 137.5t88.5 94T285 520q107 0 169-69.5T516 263v-22zM220.5 389Q194 364 185 316h201q-12 98-97 98-42 0-68.5-25z"/><glyph glyph-name="Ecaron" unicode="Ě" horiz-adv-x="599" d="M71 712h491V591H223V423h318V301H223V121h339V0H71v712zm438 218L376 773h-87L156 930h114l63-87 62 87h114z"/><glyph glyph-name="ecaron" unicode="ě" horiz-adv-x="550" d="M516 241H182q4-71 37-103.5t98-32.5q39 0 78 13t72 38l40-102q-36-29-89.5-45.5T310-8Q182-8 109 62.5T36 255q0 77 31.5 137.5t88.5 94T285 520q107 0 169-69.5T516 263v-22zM219.5 389Q193 364 185 316h201q-12 98-97 98-43 0-69.5-25zM461 778 330 572h-91L108 778h118l59-118 58 118h118z"/><glyph glyph-name="Gcircumflex" unicode="Ĝ" horiz-adv-x="745" d="M682 393V44Q630 19 560.5 5T418-9Q305-9 222 35T94.5 161 50 357q0 111 44.5 193t126 126.5T411 721q77 0 143.5-21T664 641l-50-112q-50 36-97 52t-102 16q-206 0-206-240 0-245 215-245 59 0 118 15v157H402v109h280zM234 773l133 157h87l133-157H473l-62 86-63-86H234z"/><glyph glyph-name="gcircumflex" unicode="ĝ" horiz-adv-x="634" d="M574 507V23q0-121-70-184t-204-63q-121 0-210 47l23 112q92-46 182-46 65 0 97 30.5T424 12v88q-24-37-67-61.5T262 14q-66 0-117 31.5t-80 89T36 267t29 132.5 80 89T262 520q53 0 96-23t66-62v72h150zM392.5 165.5Q424 202 424 267q0 64-31 100.5T306 404t-88-36.5T186 267t32-101 88-37q55 0 86.5 36.5zM141 572l131 206h91l131-206H376l-58 117-59-117H141z"/><glyph glyph-name="Gbreve" unicode="Ğ" horiz-adv-x="745" d="M682 393V44Q630 19 560.5 5T418-9Q305-9 222 35T94.5 161 50 357q0 111 44.5 193t126 126.5T411 721q77 0 143.5-21T664 641l-50-112q-50 36-97 52t-102 16q-206 0-206-240 0-245 215-245 59 0 118 15v157H402v109h280zM298 810q-47 28-67 82l70 29q32-49 110-49 77 0 109 49l70-29q-20-54-67-82t-112-28q-66 0-113 28z"/><glyph glyph-name="gbreve" unicode="ğ" horiz-adv-x="634" d="M574 507V23q0-121-70-184t-204-63q-121 0-210 47l23 112q92-46 182-46 65 0 97 30.5T424 12v88q-24-37-67-61.5T262 14q-66 0-117 31.5t-80 89T36 267t29 132.5 80 89T262 520q53 0 96-23t66-62v72h150zM392.5 165.5Q424 202 424 267q0 64-31 100.5T306 404t-88-36.5T186 267t32-101 88-37q55 0 86.5 36.5zM200 631q-52 37-69 109l69 30q44-81 118-81 73 0 117 81l69-30q-17-71-68.5-108.5T318 594t-118 37z"/><glyph glyph-name="Gdotaccent" unicode="Ġ" horiz-adv-x="745" d="M682 393V44Q630 19 560.5 5T418-9Q305-9 222 35T94.5 161 50 357q0 111 44.5 193t126 126.5T411 721q77 0 143.5-21T664 641l-50-112q-50 36-97 52t-102 16q-206 0-206-240 0-245 215-245 59 0 118 15v157H402v109h280zM491 923V781H330v142h161z"/><glyph glyph-name="gdotaccent" unicode="ġ" horiz-adv-x="634" d="M574 507V23q0-121-70-184t-204-63q-121 0-210 47l23 112q92-46 182-46 65 0 97 30.5T424 12v88q-24-37-67-61.5T262 14q-66 0-117 31.5t-80 89T36 267t29 132.5 80 89T262 520q53 0 96-23t66-62v72h150zM392.5 165.5Q424 202 424 267q0 64-31 100.5T306 404t-88-36.5T186 267t32-101 88-37q55 0 86.5 36.5zM398 745V603H237v142h161z"/><glyph glyph-name="Gcommaaccent" unicode="Ģ" horiz-adv-x="745" d="M682 393V44Q630 19 560.5 5T418-9Q305-9 222 35T94.5 161 50 357q0 111 44.5 193t126 126.5T411 721q77 0 143.5-21T664 641l-50-112q-50 36-97 52t-102 16q-206 0-206-240 0-245 215-245 59 0 118 15v157H402v109h280zM492-67v-64q0-47-13.5-82T432-278l-55 38q29 27 35 59h-70v114h150z"/><glyph glyph-name="gcommaaccent" unicode="ģ" horiz-adv-x="634" d="M574 507V23q0-121-70-184t-204-63q-121 0-210 47l23 112q92-46 182-46 65 0 97 30.5T424 12v88q-24-37-67-61.5T262 14q-66 0-117 31.5t-80 89T36 267t29 132.5 80 89T262 520q53 0 96-23t66-62v72h150zM392.5 165.5Q424 202 424 267q0 64-31 100.5T306 404t-88-36.5T186 267t32-101 88-37q55 0 86.5 36.5zM392 715V601H242v64q0 47 13.5 82.5T302 812l55-37q-28-27-35-60h70z"/><glyph glyph-name="Hcircumflex" unicode="Ĥ" horiz-adv-x="779" d="M707 712V0H554v299H224V0H71v712h153V424h330v288h153zm-495 61 133 157h87l133-157H451l-62 86-63-86H212z"/><glyph glyph-name="hcircumflex" unicode="ĥ" horiz-adv-x="613" d="M554 307V0H403v300q0 53-19.5 77.5T322 402q-50 0-80-32t-30-86V0H61v736h151V438q27 40 69 61t93 21q180 0 180-213zM-38 797 95 954h87l133-157H201l-62 86-63-86H-38z"/><glyph glyph-name="Hbar" unicode="Ħ" horiz-adv-x="838" d="M824 513h-87V0H584v299H255V0H101v513H14v115h87v84h154v-84h329v84h153v-84h87V513zm-240 0H255v-89h329v89z"/><glyph glyph-name="hbar" unicode="ħ" horiz-adv-x="613" d="M554 307V0H403v300q0 53-19.5 77.5T322 402q-50 0-80-32t-30-86V0H61v560h-88v105h88v71h151v-71h192V560H212V438q27 40 69 61t93 21q180 0 180-213z"/><glyph glyph-name="Itilde" unicode="Ĩ" horiz-adv-x="299" d="M71 712h156V0H71v712zM2.5 890Q33 927 81 927q19 0 37.5-8t39.5-22q22-12 33.5-17.5T215 874q19 0 30.5 13.5T259 924h64q0-73-30.5-110T214 777q-19 0-37.5 8T137 807q-22 12-33.5 17.5T80 830q-19 0-30.5-13.5T36 780h-64q0 73 30.5 110z"/><glyph glyph-name="itilde" unicode="ĩ" horiz-adv-x="274" d="M61 507h151V0H61v507zM-8.5 713.5Q22 750 70 750q19 0 36.5-7.5T147 721q22-12 33.5-17.5T204 698q19 0 30.5 13t13.5 36h64q0-72-30.5-109T203 601q-19 0-36.5 7.5T126 630q-22 12-33.5 17.5T69 653q-19 0-30.5-13T25 604h-64q0 73 30.5 109.5z"/><glyph glyph-name="Imacron" unicode="Ī" horiz-adv-x="299" d="M71 712h156V0H71v712zm-81 186h315v-94H-10v94z"/><glyph glyph-name="imacron" unicode="ī" horiz-adv-x="274" d="M61 507h151V0H61v507zm-82 213h315v-94H-21v94z"/><glyph glyph-name="Ibreve" unicode="Ĭ" horiz-adv-x="299" d="M71 712h156V0H71v712zm-36 98q-47 28-67 82l70 29q32-49 110-49 77 0 109 49l70-29q-20-54-67-82t-112-28q-66 0-113 28z"/><glyph glyph-name="ibreve" unicode="ĭ" horiz-adv-x="274" d="M61 507h151V0H61v507zM19 631q-52 37-69 109l69 30q44-81 118-81 73 0 117 81l69-30q-17-71-68.5-108.5T137 594 19 631z"/><glyph glyph-name="Iogonek" unicode="Į" horiz-adv-x="299" d="M261-178q-48-21-101-21-56 0-92.5 31T31-86q0 52 40 89v709h156V0h-14q-38 0-61.5-18.5T128-66q0-27 16-40.5t45-13.5q27 0 54 13z"/><glyph glyph-name="iogonek" unicode="į" horiz-adv-x="274" d="M218 606H56v143h162V606zm33-788q-49-22-102-22-57 0-93.5 32T19-88q0 54 42 92v503h151V0h-9q-40 0-63.5-19T116-68q0-27 16-41.5t46-14.5q28 0 56 14z"/><glyph glyph-name="Idotaccent" unicode="İ" horiz-adv-x="299" d="M71 712h156V0H71v712zm157 211V781H67v142h161z"/><glyph glyph-name="dotlessi" unicode="ı" horiz-adv-x="274" d="M61 507h151V0H61v507z"/><glyph glyph-name="Jcircumflex" unicode="Ĵ" horiz-adv-x="381" d="M0-53q42-6 71-6 48 0 65 21.5T153 40v672h156V42q0-119-47-174.5T102-188q-45 0-102 9v126zm53 826 133 157h87l133-157H292l-62 86-63-86H53z"/><glyph glyph-name="jcircumflex" unicode="ĵ" horiz-adv-x="274" d="M-16-100q34 0 55.5 20T61-18v525h151V-22q0-96-49-149T21-224q-52 0-86 13v118q29-7 49-7zm-25 672L90 778h91l131-206H194l-58 117-59-117H-41z"/><glyph glyph-name="Kcommaaccent" unicode="Ķ" horiz-adv-x="685" d="M537 0 227 329V0H71v712h156V399l299 313h186L381 372 725 0H537zM418-67v-64q0-47-13.5-82T358-278l-55 38q29 27 35 59h-70v114h150z"/><glyph glyph-name="kcommaaccent" unicode="ķ" horiz-adv-x="573" d="M411 0 212 227V0H61v736h151V289l190 217h181L368 263 596 0H411zm-51-67v-64q0-47-13.5-82T300-278l-55 38q29 27 35 59h-70v114h150z"/><glyph glyph-name="kgreenlandic" unicode="ĸ" horiz-adv-x="573" d="M411 0 212 227V0H61v507h151V289l190 217h181L368 263 596 0H411z"/><glyph glyph-name="Lacute" unicode="Ĺ" horiz-adv-x="569" d="M71 712h156V127h318V0H71v712zm30 61 103 157h140L194 773h-93z"/><glyph glyph-name="lacute" unicode="ĺ" horiz-adv-x="274" d="M61 736h151V0H61v736zm29 61 103 157h140L183 797H90z"/><glyph glyph-name="Lcommaaccent" unicode="Ļ" horiz-adv-x="569" d="M71 712h156V127h318V0H71v712zM390-67v-64q0-47-13.5-82T330-278l-55 38q29 27 35 59h-70v114h150z"/><glyph glyph-name="lcommaaccent" unicode="ļ" horiz-adv-x="274" d="M61 736h151V0H61v736zM211-67v-64q0-47-13.5-82T151-278l-55 38q29 27 35 59H61v114h150z"/><glyph glyph-name="Lcaron" unicode="Ľ" horiz-adv-x="569" d="M71 712h156V127h318V0H71v712zm245-196v196h97l-26-196h-71z"/><glyph glyph-name="lcaron" unicode="ľ" horiz-adv-x="274" d="M61 736h151V0H61v736zm179-200v200h79l-26-200h-53z"/><glyph glyph-name="Ldot" unicode="Ŀ" horiz-adv-x="569" d="M71 712h156V127h318V0H71v712zm403-285V286H313v141h161z"/><glyph glyph-name="ldot" unicode="ŀ" horiz-adv-x="379" d="M61 736h151V0H61v736zm342-308V287H242v141h161z"/><glyph glyph-name="Lslash" unicode="Ł" horiz-adv-x="600" d="M576 127V0H101v247l-91-52v133l91 53v331h157V472l184 106V444L258 338V127h318z"/><glyph glyph-name="lslash" unicode="ł" horiz-adv-x="358" d="M254 342V0H103v255l-63-36-56 101 119 69v347h151V477l63 37 57-103z"/><glyph glyph-name="Nacute" unicode="Ń" horiz-adv-x="760" d="M688 712V0H572L217 454V0H71v712h115l355-453v453h147zm-356 61 103 157h140L425 773h-93z"/><glyph glyph-name="nacute" unicode="ń" horiz-adv-x="613" d="M554 307V0H403v300q0 53-19.5 77.5T322 402q-50 0-80-32t-30-86V0H61v362q0 81-8 145h142l10-80q27 45 70.5 69t98.5 24q180 0 180-213zM261 572l99 206h148L354 572h-93z"/><glyph glyph-name="Ncommaaccent" unicode="Ņ" horiz-adv-x="760" d="M688 712V0H572L217 454V0H71v712h115l355-453v453h147zM454-67v-64q0-47-13.5-82T394-278l-55 38q29 27 35 59h-70v114h150z"/><glyph glyph-name="ncommaaccent" unicode="ņ" horiz-adv-x="613" d="M554 307V0H403v300q0 53-19.5 77.5T322 402q-50 0-80-32t-30-86V0H61v362q0 81-8 145h142l10-80q27 45 70.5 69t98.5 24q180 0 180-213zM382-67v-64q0-47-13.5-82T322-278l-55 38q29 27 35 59h-70v114h150z"/><glyph glyph-name="Ncaron" unicode="Ň" horiz-adv-x="760" d="M688 712V0H572L217 454V0H71v712h115l355-453v453h147zM555 930 422 773h-87L202 930h114l63-87 62 87h114z"/><glyph glyph-name="ncaron" unicode="ň" horiz-adv-x="613" d="M554 307V0H403v300q0 53-19.5 77.5T322 402q-50 0-80-32t-30-86V0H61v362q0 81-8 145h142l10-80q27 45 70.5 69t98.5 24q180 0 180-213zm-70 471L353 572h-91L131 778h118l59-118 58 118h118z"/><glyph glyph-name="napostrophe" unicode="ŉ" horiz-adv-x="613" d="M224 767v-65q0-47-13.5-82T164 555l-55 39q29 26 35 58H74v115h150zm330-460V0H403v300q0 53-19.5 77.5T322 402q-50 0-80-32t-30-86V0H61v362q0 81-8 145h142l10-80q27 45 70.5 69t98.5 24q180 0 180-213z"/><glyph glyph-name="Eng" unicode="Ŋ" horiz-adv-x="760" d="M688 712V28q0-201-211-213l-92-5-10 118 76 5q43 2 66 25.5T540 22v20L217 454V0H71v712h115l355-453v453h147z"/><glyph glyph-name="eng" unicode="ŋ" horiz-adv-x="613" d="M554 307V-1q0-111-48-167t-142-56q-48 0-87 10v121q28-7 49-7 77 0 77 102v298q0 53-19.5 77.5T322 402q-50 0-80-32t-30-86V0H61v362q0 81-8 145h142l10-80q27 45 70.5 69t98.5 24q180 0 180-213z"/><glyph glyph-name="Omacron" unicode="Ō" horiz-adv-x="795" d="M213.5 35.5Q135 80 92.5 163T50 357t42.5 193 121 126.5T398 721t184-44.5T702 550t42-193-42-194T582 35.5 398-9 213.5 35.5zm325 140.5Q589 239 589 357t-50.5 180T398 599t-140.5-62T207 357q0-119 50.5-181.5T398 113t140.5 63zM239 898h315v-94H239v94z"/><glyph glyph-name="omacron" unicode="ō" horiz-adv-x="604" d="M161.5 24q-60.5 32-93 92T36 256t32.5 140 93 92T303 520q80 0 140-32t92.5-92T568 256t-32.5-140T443 24 303-8q-81 0-141.5 32zm227 120Q418 181 418 256q0 74-29.5 111.5T303 405q-57 0-87-37.5T186 256q0-149 117-149 56 0 85.5 37zM145 720h315v-94H145v94z"/><glyph glyph-name="Obreve" unicode="Ŏ" horiz-adv-x="795" d="M213.5 35.5Q135 80 92.5 163T50 357t42.5 193 121 126.5T398 721t184-44.5T702 550t42-193-42-194T582 35.5 398-9 213.5 35.5zm325 140.5Q589 239 589 357t-50.5 180T398 599t-140.5-62T207 357q0-119 50.5-181.5T398 113t140.5 63zM284 810q-47 28-67 82l70 29q32-49 110-49 77 0 109 49l70-29q-20-54-67-82t-112-28q-66 0-113 28z"/><glyph glyph-name="obreve" unicode="ŏ" horiz-adv-x="604" d="M161.5 24q-60.5 32-93 92T36 256t32.5 140 93 92T303 520q80 0 140-32t92.5-92T568 256t-32.5-140T443 24 303-8q-81 0-141.5 32zm227 120Q418 181 418 256q0 74-29.5 111.5T303 405q-57 0-87-37.5T186 256q0-149 117-149 56 0 85.5 37zM185 631q-52 37-69 109l69 30q44-81 118-81 73 0 117 81l69-30q-17-71-68.5-108.5T303 594t-118 37z"/><glyph glyph-name="Ohungarumlaut" unicode="Ő" horiz-adv-x="795" d="M213.5 35.5Q135 80 92.5 163T50 357t42.5 193 121 126.5T398 721t184-44.5T702 550t42-193-42-194T582 35.5 398-9 213.5 35.5zm325 140.5Q589 239 589 357t-50.5 180T398 599t-140.5-62T207 357q0-119 50.5-181.5T398 113t140.5 63zM363 930h101L364 773h-75zm140 0h102L504 773h-75z"/><glyph glyph-name="ohungarumlaut" unicode="ő" horiz-adv-x="604" d="M161.5 24q-60.5 32-93 92T36 256t32.5 140 93 92T303 520q80 0 140-32t92.5-92T568 256t-32.5-140T443 24 303-8q-81 0-141.5 32zm227 120Q418 181 418 256q0 74-29.5 111.5T303 405q-57 0-87-37.5T186 256q0-149 117-149 56 0 85.5 37zM200 572l35 206h109l-79-206h-65zm140 0 34 206h109l-78-206h-65z"/><glyph glyph-name="OE" unicode="Œ" horiz-adv-x="1054" d="M679 591V423h318V301H679V121h338V0H536v37Q479-9 379-9q-96 0-171 46T91.5 166.5 50 357q0 106 41.5 189T208 675t171 46q99 0 157-44v35h481V591H679zM256.5 176Q306 113 398 113q80 0 129 35v416q-49 35-129 35-92 0-141.5-63T207 357q0-118 49.5-181z"/><glyph glyph-name="oe" unicode="œ" horiz-adv-x="929" d="M894 225H567q7-63 37-91.5t86-28.5q85 0 155 51l41-102q-36-29-89.5-45.5T689-8Q557-8 492 78q-32-42-81-64T299-8q-80 0-139.5 32.5t-91.5 92T36 256t32 139.5 91.5 92T299 520q64 0 113-22.5t81-65.5q31 42 78 65t105 23q64 0 113.5-32.5t77-90.5T894 263v-38zM600 385q-27-29-33-84h199q-3 55-27 84t-66 29q-46 0-73-29zM414 256q0 74-29 111.5T301 405q-56 0-85.5-37.5T186 256q0-75 29.5-112t85.5-37q113 0 113 149z"/><glyph glyph-name="Racute" unicode="Ŕ" horiz-adv-x="708" d="M672 0H507l-91 237q-11 28-33.5 39T326 287H225V0H71v712h317q124 0 188-54t64-155q0-71-37.5-122T495 308q63-13 91-87zM365 406q67 0 98 22.5t31 70.5-31 70.5-98 22.5H223V406h142zm-56 367 103 157h140L402 773h-93z"/><glyph glyph-name="racute" unicode="ŕ" horiz-adv-x="410" d="m410 509-1-138q-37 17-74 17-60 0-91.5-32.5T212 265V0H61v362q0 81-8 145h142l10-87q19 48 59.5 73.5T356 519q32 0 54-10zm-217 63 99 206h148L286 572h-93z"/><glyph glyph-name="Rcommaaccent" unicode="Ŗ" horiz-adv-x="708" d="M672 0H507l-91 237q-11 28-33.5 39T326 287H225V0H71v712h317q124 0 188-54t64-155q0-71-37.5-122T495 308q63-13 91-87zM365 406q67 0 98 22.5t31 70.5-31 70.5-98 22.5H223V406h142zm66-473v-64q0-47-13.5-82T371-278l-55 38q29 27 35 59h-70v114h150z"/><glyph glyph-name="rcommaaccent" unicode="ŗ" horiz-adv-x="410" d="m410 509-1-138q-37 17-74 17-60 0-91.5-32.5T212 265V0H61v362q0 81-8 145h142l10-87q19 48 59.5 73.5T356 519q32 0 54-10zM211-67v-64q0-47-13.5-82T151-278l-55 38q29 27 35 59H61v114h150z"/><glyph glyph-name="Rcaron" unicode="Ř" horiz-adv-x="708" d="M672 0H507l-91 237q-11 28-33.5 39T326 287H225V0H71v712h317q124 0 188-54t64-155q0-71-37.5-122T495 308q63-13 91-87zM365 406q67 0 98 22.5t31 70.5-31 70.5-98 22.5H223V406h142zm167 524L399 773h-87L179 930h114l63-87 62 87h114z"/><glyph glyph-name="rcaron" unicode="ř" horiz-adv-x="410" d="m410 509-1-138q-37 17-74 17-60 0-91.5-32.5T212 265V0H61v362q0 81-8 145h142l10-87q19 48 59.5 73.5T356 519q32 0 54-10zm6 269L285 572h-91L63 778h118l59-118 58 118h118z"/><glyph glyph-name="Sacute" unicode="Ś" horiz-adv-x="657" d="M164.5 12.5Q90 34 41 73l50 112q103-72 230-72 68 0 104.5 21.5T462 195q0 34-33.5 53.5T311 286q-94 19-149.5 46.5t-81 67T55 498q0 64 35.5 115t99.5 79.5T338 721q76 0 146-22t112-60l-50-112q-94 72-207 72-60 0-96-24t-36-65q0-24 13.5-40t45.5-28.5 91-24.5q137-30 197.5-78T615 208q0-100-78-158.5T320-9q-81 0-155.5 21.5zM284 773l103 157h140L377 773h-93z"/><glyph glyph-name="sacute" unicode="ś" horiz-adv-x="503" d="m28 54 40 105q40-29 89-44.5T257 99q39 0 60 12t21 35q0 19-15 30t-53 19l-83 19q-73 16-107.5 51T45 358q0 47 27.5 84t76.5 57.5T262 520q54 0 106-16.5t93-46.5l-42-101q-39 27-79.5 41T261 411q-37 0-58-13t-21-36q0-17 12.5-27.5T239 317l85-19q78-18 113-54t35-96q0-72-58-114T255-8Q111-8 28 54zm186 518 99 206h148L307 572h-93z"/><glyph glyph-name="Scircumflex" unicode="Ŝ" horiz-adv-x="657" d="M164.5 12.5Q90 34 41 73l50 112q103-72 230-72 68 0 104.5 21.5T462 195q0 34-33.5 53.5T311 286q-94 19-149.5 46.5t-81 67T55 498q0 64 35.5 115t99.5 79.5T338 721q76 0 146-22t112-60l-50-112q-94 72-207 72-60 0-96-24t-36-65q0-24 13.5-40t45.5-28.5 91-24.5q137-30 197.5-78T615 208q0-100-78-158.5T320-9q-81 0-155.5 21.5zM154 773l133 157h87l133-157H393l-62 86-63-86H154z"/><glyph glyph-name="scircumflex" unicode="ŝ" horiz-adv-x="503" d="m28 54 40 105q40-29 89-44.5T257 99q39 0 60 12t21 35q0 19-15 30t-53 19l-83 19q-73 16-107.5 51T45 358q0 47 27.5 84t76.5 57.5T262 520q54 0 106-16.5t93-46.5l-42-101q-39 27-79.5 41T261 411q-37 0-58-13t-21-36q0-17 12.5-27.5T239 317l85-19q78-18 113-54t35-96q0-72-58-114T255-8Q111-8 28 54zm56 518 131 206h91l131-206H319l-58 117-59-117H84z"/><glyph glyph-name="Scedilla" unicode="Ş" horiz-adv-x="657" d="M546.5 56.5Q478-1 356-8l-5-33q5 1 13 1 38 0 61.5-19t23.5-51q0-40-36-64.5T312-199q-22 0-47.5 4.5T218-181l12 59q46-14 79-14 46 0 46 26 0 9-8.5 14.5T322-90q-13 0-36-7l-20 21 9 69q-69 5-130.5 26T41 73l50 112q103-72 230-72 68 0 104.5 21.5T462 195q0 34-33.5 53.5T311 286q-94 19-149.5 46.5t-81 67T55 498q0 64 35.5 115t99.5 79.5T338 721q76 0 146-22t112-60l-50-112q-94 72-207 72-60 0-96-24t-36-65q0-24 13.5-40t45.5-28.5 91-24.5q137-30 197.5-78T615 208q0-94-68.5-151.5z"/><glyph glyph-name="scedilla" unicode="ş" horiz-adv-x="503" d="M421 39.5Q370-2 281-7l-5-34q5 1 13 1 38 0 61.5-19t23.5-51q0-40-36-64.5T237-199q-21 0-47 4.5T143-181l12 59q46-14 79-14 46 0 46 26 0 9-8.5 14.5T247-90q-13 0-36-7l-20 21 9 71Q95 4 28 54l40 105q40-29 89-44.5T257 99q39 0 60 12t21 35q0 19-15 30t-53 19l-83 19q-73 16-107.5 51T45 358q0 47 27.5 84t76.5 57.5T262 520q54 0 106-16.5t93-46.5l-42-101q-39 27-79.5 41T261 411q-37 0-58-13t-21-36q0-17 12.5-27.5T239 317l85-19q78-18 113-54t35-96q0-67-51-108.5z"/><glyph glyph-name="Scaron" unicode="Š" horiz-adv-x="657" d="M164.5 12.5Q90 34 41 73l50 112q103-72 230-72 68 0 104.5 21.5T462 195q0 34-33.5 53.5T311 286q-94 19-149.5 46.5t-81 67T55 498q0 64 35.5 115t99.5 79.5T338 721q76 0 146-22t112-60l-50-112q-94 72-207 72-60 0-96-24t-36-65q0-24 13.5-40t45.5-28.5 91-24.5q137-30 197.5-78T615 208q0-100-78-158.5T320-9q-81 0-155.5 21.5zM507 930 374 773h-87L154 930h114l63-87 62 87h114z"/><glyph glyph-name="scaron" unicode="š" horiz-adv-x="503" d="m28 54 40 105q40-29 89-44.5T257 99q39 0 60 12t21 35q0 19-15 30t-53 19l-83 19q-73 16-107.5 51T45 358q0 47 27.5 84t76.5 57.5T262 520q54 0 106-16.5t93-46.5l-42-101q-39 27-79.5 41T261 411q-37 0-58-13t-21-36q0-17 12.5-27.5T239 317l85-19q78-18 113-54t35-96q0-72-58-114T255-8Q111-8 28 54zm409 724L306 572h-91L84 778h118l59-118 58 118h118z"/><glyph glyph-name="uni0162" unicode="Ţ" horiz-adv-x="628" d="m344 0-6-41q5 1 13 1 38 0 61.5-19t23.5-51q0-40-36-64.5T299-199q-22 0-47.5 4.5T205-181l12 59q46-14 79-14 46 0 46 26 0 9-8.5 14.5T309-90q-13 0-36-7l-20 21 10 76h-28v585H12v127h604V585H393V0h-49z"/><glyph glyph-name="uni0163" unicode="ţ" horiz-adv-x="396" d="M251 394V197q0-42 22-61.5t57-19.5q22 0 50 7V6Q344-8 293-8h-14l-5-33q5 1 13 1 38 0 61.5-19t23.5-51q0-40-36-64.5T235-199q-22 0-47.5 4.5T141-181l12 59q46-14 79-14 46 0 46 26 0 9-8.5 14.5T245-90q-13 0-36-7l-20 21 11 86q-49 22-74.5 68.5T100 194v200H4v113h96v119l151 49V507h129V394H251z"/><glyph glyph-name="Tcaron" unicode="Ť" horiz-adv-x="628" d="M235 585H12v127h604V585H393V0H235v585zm255 345L357 773h-87L137 930h114l63-87 62 87h114z"/><glyph glyph-name="tcaron" unicode="ť" horiz-adv-x="396" d="M375 537h-83v177h114zm-124-30h129V394H251V197q0-42 22-61.5t57-19.5q22 0 50 7V6Q344-8 293-8q-94 0-143.5 53T100 194v200H4v113h96v119l151 49V507z"/><glyph glyph-name="Tbar" unicode="Ŧ" horiz-adv-x="628" d="M393 585V419h136V300H393V0H235v300H99v119h136v166H12v127h604V585H393z"/><glyph glyph-name="tbar" unicode="ŧ" horiz-adv-x="407" d="M257 394v-54h108V234H257v-37q0-42 21.5-61.5T335 116q22 0 51 7V6Q350-8 298-8q-93 0-143 53t-50 149v40H30v106h75v54H9v113h96v119l152 49V507h129V394H257z"/><glyph glyph-name="Utilde" unicode="Ũ" horiz-adv-x="746" d="M145 68q-78 77-78 226v418h153V287q0-85 39.5-129.5T373 113t113 44.5T525 287v425h154V294q0-148-78.5-225.5T373-9Q223-9 145 68zm82.5 822q30.5 37 78.5 37 19 0 37.5-8t39.5-22q22-12 33.5-17.5T440 874q19 0 30.5 13.5T484 924h64q0-73-30.5-110T439 777q-19 0-37.5 8T362 807q-22 12-33.5 17.5T305 830q-19 0-30.5-13.5T261 780h-64q0 73 30.5 110z"/><glyph glyph-name="utilde" unicode="ũ" horiz-adv-x="606" d="M545 507V0H398v74q-24-40-63-61T247-8q-95 0-142 53T58 205v302h151V202q0-92 79-92 47 0 76 32t29 84v281h152zM157.5 713.5Q188 750 236 750q19 0 36.5-7.5T313 721q22-12 33.5-17.5T370 698q19 0 30.5 13t13.5 36h64q0-72-30.5-109T369 601q-19 0-36.5 7.5T292 630q-22 12-33.5 17.5T235 653q-19 0-30.5-13T191 604h-64q0 73 30.5 109.5z"/><glyph glyph-name="Umacron" unicode="Ū" horiz-adv-x="746" d="M145 68q-78 77-78 226v418h153V287q0-85 39.5-129.5T373 113t113 44.5T525 287v425h154V294q0-148-78.5-225.5T373-9Q223-9 145 68zm70 830h315v-94H215v94z"/><glyph glyph-name="umacron" unicode="ū" horiz-adv-x="606" d="M545 507V0H398v74q-24-40-63-61T247-8q-95 0-142 53T58 205v302h151V202q0-92 79-92 47 0 76 32t29 84v281h152zM145 720h315v-94H145v94z"/><glyph glyph-name="Ubreve" unicode="Ŭ" horiz-adv-x="746" d="M145 68q-78 77-78 226v418h153V287q0-85 39.5-129.5T373 113t113 44.5T525 287v425h154V294q0-148-78.5-225.5T373-9Q223-9 145 68zm115 742q-47 28-67 82l70 29q32-49 110-49 77 0 109 49l70-29q-20-54-67-82t-112-28q-66 0-113 28z"/><glyph glyph-name="ubreve" unicode="ŭ" horiz-adv-x="606" d="M545 507V0H398v74q-24-40-63-61T247-8q-95 0-142 53T58 205v302h151V202q0-92 79-92 47 0 76 32t29 84v281h152zM185 631q-52 37-69 109l69 30q44-81 118-81 73 0 117 81l69-30q-17-71-68.5-108.5T303 594t-118 37z"/><glyph glyph-name="Uring" unicode="Ů" horiz-adv-x="746" d="M145 68q-78 77-78 226v418h153V287q0-85 39.5-129.5T373 113t113 44.5T525 287v425h154V294q0-148-78.5-225.5T373-9Q223-9 145 68zm149 731q-32 31-32 77t32 77.5 79 31.5q46 0 78-31.5t32-77.5-32-77-78-31q-47 0-79 31zm110 44q12 13 12 33t-12 33-31 13-31.5-13-12.5-33 12.5-33 31.5-13 31 13z"/><glyph glyph-name="uring" unicode="ů" horiz-adv-x="606" d="M545 507V0H398v74q-24-40-63-61T247-8q-95 0-142 53T58 205v302h151V202q0-92 79-92 47 0 76 32t29 84v281h152zm-321 91.5Q192 630 192 676q0 45 32.5 76.5T303 784t78-31.5 32-76.5q0-46-32-77.5T303 567q-47 0-79 31.5zm110 44q12 13.5 12 33.5 0 19-12 32t-31 13-31.5-13-12.5-32q0-20 12.5-33.5T303 629t31 13.5z"/><glyph glyph-name="Uhungarumlaut" unicode="Ű" horiz-adv-x="746" d="M145 68q-78 77-78 226v418h153V287q0-85 39.5-129.5T373 113t113 44.5T525 287v425h154V294q0-148-78.5-225.5T373-9Q223-9 145 68zm194 862h101L340 773h-75zm140 0h102L480 773h-75z"/><glyph glyph-name="uhungarumlaut" unicode="ű" horiz-adv-x="606" d="M545 507V0H398v74q-24-40-63-61T247-8q-95 0-142 53T58 205v302h151V202q0-92 79-92 47 0 76 32t29 84v281h152zm-345 65 35 206h109l-79-206h-65zm140 0 34 206h109l-78-206h-65z"/><glyph glyph-name="Uogonek" unicode="Ų" horiz-adv-x="746" d="M679 712V294q0-117-48.5-190T487 5q-30-8-46.5-26.5T424-66t16-40 45-14q27 0 54 13l18-71q-45-21-101-21t-92.5 31T327-88q0 47 34 79-145 4-219.5 81T67 294v418h153V287q0-85 39.5-129.5T373 113t113 44.5T525 287v425h154z"/><glyph glyph-name="uogonek" unicode="ų" horiz-adv-x="606" d="M585-182q-49-22-102-22-58 0-95 32.5T351-88q0 57 47 96v66q-24-40-63-61T247-8q-95 0-142 53T58 205v302h151V202q0-92 79-92 47 0 76 32t29 84v281h152V0h-10q-38 0-62-18.5T449-68q0-27 15.5-41.5T511-124q29 0 56 14z"/><glyph glyph-name="Wcircumflex" unicode="Ŵ" horiz-adv-x="1126" d="M1107 712 854 0H729L563 471 396 0H271L18 712h159l164-492 172 492h109l168-499 168 499h149zm-721 61 133 157h87l133-157H625l-62 86-63-86H386z"/><glyph glyph-name="wcircumflex" unicode="ŵ" horiz-adv-x="891" d="M890 507 685 0H558L443 294 333 0H205L0 507h154l122-327 121 327h103l122-330 122 330h146zm-622 65 131 206h91l131-206H503l-58 117-59-117H268z"/><glyph glyph-name="Ycircumflex" unicode="Ŷ" horiz-adv-x="642" d="M399 276V0H243v277L-51 712h177l194-304 196 304h178zM143 773l133 157h87l133-157H382l-62 86-63-86H143z"/><glyph glyph-name="ycircumflex" unicode="ŷ" horiz-adv-x="550" d="M561 507 327-27q-43-97-108.5-142.5T58-228L23-112q70 15 105.5 38T184-7l15 33-209 481h158l130-329 134 329h149zM98 572l131 206h91l131-206H333l-58 117-59-117H98z"/><glyph glyph-name="Ydieresis" unicode="Ÿ" horiz-adv-x="642" d="M399 276V0H243v277L-51 712h177l194-304 196 304h178zM293 918V786H154v132h139zm192 0V786H346v132h139z"/><glyph glyph-name="Zacute" unicode="Ź" horiz-adv-x="615" d="M580 123V0H51v114l343 475H51v123h518V599L223 123h357zM262 773l103 157h140L355 773h-93z"/><glyph glyph-name="zacute" unicode="ź" horiz-adv-x="530" d="M495 113V0H48v106l256 288H52v113h433V405L225 113h270zM226 572l99 206h148L319 572h-93z"/><glyph glyph-name="Zdotaccent" unicode="Ż" horiz-adv-x="615" d="M580 123V0H51v114l343 475H51v123h518V599L223 123h357zM389 923V781H228v142h161z"/><glyph glyph-name="zdotaccent" unicode="ż" horiz-adv-x="530" d="M495 113V0H48v106l256 288H52v113h433V405L225 113h270zM353 745V603H192v142h161z"/><glyph glyph-name="Zcaron" unicode="Ž" horiz-adv-x="615" d="M580 123V0H51v114l343 475H51v123h518V599L223 123h357zm-95 807L352 773h-87L132 930h114l63-87 62 87h114z"/><glyph glyph-name="zcaron" unicode="ž" horiz-adv-x="530" d="M495 113V0H48v106l256 288H52v113h433V405L225 113h270zm-46 665L318 572h-91L96 778h118l59-118 58 118h118z"/><glyph glyph-name="uni018F" unicode="Ə" horiz-adv-x="775" d="M554.5 676.5Q636 632 680 550t44-193q0-107-41-190T568 37.5 397-9Q289-9 211 34T91.5 160 50 360v60h515q-13 87-66 132t-141 45q-117 0-208-70l-50 112q47 38 118.5 60T364 721q109 0 190.5-44.5zm-42-516.5Q556 207 566 300H209q8-92 55.5-139.5T393 113q76 0 119.5 47z"/><glyph glyph-name="florin" unicode="ƒ" horiz-adv-x="600" d="M455.5 577Q436 557 429 519l-4-19h109v-88H406L320 7q-21-102-82-148T98-187H24v119h71q30 0 49.5 20T171 11l85 401H147v88h128l5 23q21 102 82 148t140 46h74V597h-72q-29 0-48.5-20z"/><glyph glyph-name="Ohorn" unicode="Ơ" horiz-adv-x="795" d="M712.5 695.5Q681 654 629 642q57-47 86-119.5T744 357q0-111-42-194T582 35.5 398-9 213.5 35.5 92.5 163 50 357t42.5 193T214 676.5 400 721q32 0 65-5 40-4 60-4 49 0 69 23t20 80v19h130v-38q0-59-31.5-100.5zM538.5 176Q589 239 589 357t-50.5 180T398 599t-140.5-62T207 357q0-119 50.5-181.5T398 113t140.5 63z"/><glyph glyph-name="ohorn" unicode="ơ" horiz-adv-x="604" d="M566 504q-26-40-71-57 36-34 54.5-83.5T568 255q0-80-32.5-139.5T443 24 303-8q-81 0-141.5 32t-93 91.5T36 255q0 81 32.5 140.5t92.5 92T300 520q24 0 60-6 17-3 25-3 36 0 57 22.5t21 82.5v20h129v-38q0-54-26-94zM388.5 144Q418 181 418 256q0 74-29.5 111.5T303 405q-57 0-87-37.5T186 256q0-149 117-149 56 0 85.5 37z"/><glyph glyph-name="Uhorn" unicode="Ư" horiz-adv-x="746" d="M793 834v-38q0-57-31-98t-83-54V294q0-148-78.5-225.5T373-9Q223-9 145 68T67 294v418h153V287q0-85 39.5-129.5T373 113t113 44.5T525 287v425h46q51 0 71.5 23t20.5 80v19h130z"/><glyph glyph-name="uhorn" unicode="ư" horiz-adv-x="631" d="M661 636v-38q0-60-31.5-102T545 441V0H398v74q-24-40-63-61T247-8q-95 0-142 53T58 205v302h151V202q0-92 79-92 47 0 76 32t29 84v281h43q52 0 73.5 24.5T531 616v20h130z"/><glyph glyph-name="uni01C4" unicode="Ǆ" horiz-adv-x="1371" d="M71 712h275q117 0 201-42t128.5-122T720 357q0-112-44-192T548 42.5 346 0H71v712zm265-586q228 0 228 231 0 229-228 229H227V126h109zm1000-3V0H807v114l343 475H807v123h518V599L979 123h357zm-95 807-133-157h-87L888 930h114l63-87 62 87h114z"/><glyph glyph-name="uni01C5" unicode="ǅ" horiz-adv-x="1301" d="M71 712h275q117 0 201-42t128.5-122T720 357q0-112-44-192T548 42.5 346 0H71v712zm265-586q228 0 228 231 0 229-228 229H227V126h109zm930-13V0H819v106l256 288H823v113h433V405L996 113h270zm-46 665-131-206h-91L867 778h118l59-118 58 118h118z"/><glyph glyph-name="uni01C6" unicode="ǆ" horiz-adv-x="1160" d="M569 736V0H420v75q-23-39-65-61T260-8q-65 0-116 33.5t-79.5 94T36 258t28.5 137.5 79 92T260 520q51 0 93-21.5t65-59.5v297h151zM390 145.5Q420 184 420 256q0 71-30.5 109.5T304 404q-56 0-87-38t-31-108q0-72 31-111.5t87-39.5 86 38.5zm735-32.5V0H678v106l256 288H682v113h433V405L855 113h270zm-46 665L948 572h-91L726 778h118l59-118 58 118h118z"/><glyph glyph-name="uni01C7" unicode="Ǉ" horiz-adv-x="900" d="M71 712h156V127h288V0H71v712zM519-53q44-6 72-6 48 0 64.5 21T672 40v672h157V42q0-119-47-174.5T622-188q-46 0-103 9v126z"/><glyph glyph-name="uni01C8" unicode="ǈ" horiz-adv-x="843" d="M71 712h156V127h318V0H71v712zm482-812q34 0 55.5 20T630-18v525h151V-22q0-96-49-149t-142-53q-52 0-86 13v118q29-7 49-7zm232 845V603H624v142h161z"/><glyph glyph-name="uni01C9" unicode="ǉ" horiz-adv-x="548" d="M61 736h151V0H61v736zm197-836q34 0 55.5 20T335-18v525h151V-22q0-96-49-149t-142-53q-52 0-86 13v118q29-7 49-7zm232 845V603H329v142h161z"/><glyph glyph-name="uni01CA" unicode="Ǌ" horiz-adv-x="1141" d="M688 712V0H572L217 454V0H71v712h115l355-453v453h147zm72-765q42-6 71-6 48 0 65 21.5T913 40v672h156V42q0-119-47-174.5T862-188q-45 0-102 9v126z"/><glyph glyph-name="uni01CB" unicode="ǋ" horiz-adv-x="1034" d="M688 712V0H572L217 454V0H71v712h115l355-453v453h147zm56-812q34 0 55.5 20T821-18v525h151V-22q0-96-49-149t-142-53q-52 0-86 13v118q29-7 49-7zm232 845V603H815v142h161z"/><glyph glyph-name="uni01CC" unicode="ǌ" horiz-adv-x="887" d="M554 307V0H403v300q0 53-19.5 77.5T322 402q-50 0-80-32t-30-86V0H61v362q0 81-8 145h142l10-80q27 45 70.5 69t98.5 24q180 0 180-213zm43-407q34 0 55.5 20T674-18v525h151V-22q0-96-49-149t-142-53q-52 0-86 13v118q29-7 49-7zm232 845V603H668v142h161z"/><glyph glyph-name="uni01CE" unicode="ǎ" horiz-adv-x="630" d="M569 507V0H420v75q-23-39-65-61T260-8q-66 0-116.5 32t-79 91.5T36 253t28.5 139 79.5 94.5T260 520q53 0 95-23t65-62v72h149zM390 145q30 38 30 110t-30 110.5-86 38.5-87-40-31-111 30.5-108.5T304 107q56 0 86 38zm101 633L360 572h-91L138 778h118l59-118 58 118h118z"/><glyph glyph-name="Gcaron" unicode="Ǧ" horiz-adv-x="745" d="M682 393V44Q630 19 560.5 5T418-9Q305-9 222 35T94.5 161 50 357q0 111 44.5 193t126 126.5T411 721q77 0 143.5-21T664 641l-50-112q-50 36-97 52t-102 16q-206 0-206-240 0-245 215-245 59 0 118 15v157H402v109h280zm-95 537L454 773h-87L234 930h114l63-87 62 87h114z"/><glyph glyph-name="gcaron" unicode="ǧ" horiz-adv-x="634" d="M574 507V23q0-121-70-184t-204-63q-121 0-210 47l23 112q92-46 182-46 65 0 97 30.5T424 12v88q-24-37-67-61.5T262 14q-66 0-117 31.5t-80 89T36 267t29 132.5 80 89T262 520q53 0 96-23t66-62v72h150zM392.5 165.5Q424 202 424 267q0 64-31 100.5T306 404t-88-36.5T186 267t32-101 88-37q55 0 86.5 36.5zM494 778 363 572h-91L141 778h118l59-118 58 118h118z"/><glyph glyph-name="uni01EA" unicode="Ǫ" horiz-adv-x="795" d="M445-66q0-26 15.5-40t44.5-14q27 0 56 13l17-71q-46-21-101-21-57 0-93 31t-36 80q0 44 30 79-100 4-174 50T90 168 50 357q0 111 42.5 193t121 126.5T398 721t184-44.5T702 550t42-193q0-135-61-227T510 5q-65-20-65-71zm93.5 242Q589 239 589 357t-50.5 180T398 599t-140.5-62T207 357q0-119 50.5-181.5T398 113t140.5 63z"/><glyph glyph-name="uni01EB" unicode="ǫ" horiz-adv-x="604" d="M332-68q0-27 16.5-41.5T395-124q28 0 56 14l17-72q-49-22-102-22-58 0-94.5 32T235-90q0 49 36 84Q161 5 98.5 74.5T36 256q0 80 32.5 140t93 92T303 520q80 0 140-32t92.5-92T568 256q0-94-44.5-161T401 6q-69-18-69-74zm56.5 212Q418 181 418 256q0 74-29.5 111.5T303 405q-57 0-87-37.5T186 256q0-149 117-149 56 0 85.5 37z"/><glyph glyph-name="Aringacute" unicode="Ǻ" horiz-adv-x="759" d="M547 158H214L146 0H-11l322 700q-19 15-30 37.5T270 786q0 45 32 76.5t78 31.5q26 0 46-10l66 71h140L481 829q9-19 9-43 0-27-11-49.5T448 699L769 0H615zM348.5 818Q336 805 336 786q0-20 12.5-33.5T380 739t31 13.5 12 33.5q0 19-12 32t-31 13-31.5-13zM496 277 381 544 266 277h230z"/><glyph glyph-name="aringacute" unicode="ǻ" horiz-adv-x="630" d="M235.5 600.5Q203 633 203 680q0 46 32.5 77.5T315 789q25 0 46-9l72 102 132-6-148-150q11-22 11-46 0-47-33-79.5T315 568t-79.5 32.5zM283 713q-13-13-13-33t13-34.5 32-14.5 32 14.5 13 34.5-13 33-32 13-32-13zm286-206V0H420v75q-23-39-65-61T260-8q-66 0-116.5 32t-79 91.5T36 253t28.5 139 79.5 94.5T260 520q53 0 95-23t65-62v72h149zM390 145q30 38 30 110t-30 110.5-86 38.5-87-40-31-111 30.5-108.5T304 107q56 0 86 38z"/><glyph glyph-name="AEacute" unicode="Ǽ" horiz-adv-x="1010" d="m649 590 12-167h291V301H669l13-179h291V0H549l-11 158H233L139 0H-31l448 712h556V590H649zm-140 0h-20L303 277h227zm-47 183 103 157h140L555 773h-93z"/><glyph glyph-name="aeacute" unicode="ǽ" horiz-adv-x="866" d="M831 241H503q2-64 35-100t99-36q36 0 74 13t72 38l39-102q-35-29-88-45.5T627-8q-72 0-125 26t-84 76q-23-49-68.5-75.5T242-8q-58 0-103.5 21T67 71.5 41 158q0 83 65 120.5T322 316h37v4q0 46-19.5 66T276 406q-42 0-87.5-13.5T102 354L62 457q42 27 105 45t117 18q116 0 165-67 31 33 73 50t92 17q64 0 113.5-32.5t76.5-91T831 262v-21zm-323 75h194q-5 48-28.5 73T610 414q-83 0-102-98zM333.5 128.5Q359 160 359 209v34h-29q-76 0-109.5-19.5T187 164q0-30 21-48.5T262 97q46 0 71.5 31.5zM384 572l99 206h148L477 572h-93z"/><glyph glyph-name="Oslashacute" unicode="Ǿ" horiz-adv-x="795" d="M715 522q29-73 29-165 0-111-42-194T582 35.5 398-9q-73 0-133 21l-47-80L118-8l46 79q-55 48-84.5 121T50 357q0 111 42.5 193t121 126.5T398 721q74 0 132-21l47 80 100-60-46-78q55-47 84-120zM240 202l225 386q-31 11-67 11-90 0-140.5-62T207 357q0-94 33-155zm298.5-26Q589 239 589 357q0 94-33 155L330 124q31-11 68-11 90 0 140.5 63zM350 773l103 157h140L443 773h-93z"/><glyph glyph-name="oslashacute" unicode="ǿ" horiz-adv-x="604" d="M543.5 379Q568 325 568 256q0-80-32.5-140T443 24 303-8q-51 0-98 14l-41-70-71 42 38 66q-46 34-70.5 88.5T36 256q0 80 32.5 140t93 92T303 520q52 0 97-14l40 68 72-42-38-64q45-35 69.5-89zM201 163l139 239q-16 4-37 4-120 0-120-150 0-57 18-93zm220 93q0 55-17 91L266 110q15-4 37-4 118 0 118 150zM256 572l99 206h148L349 572h-93z"/><glyph glyph-name="uni0200" unicode="Ȁ" horiz-adv-x="759" d="M547 158H214L146 0H-11l327 712h126L769 0H615zm-51 119L381 544 266 277h230zM170 930h102l74-157h-75zm141 0h101l74-157h-75z"/><glyph glyph-name="uni0201" unicode="ȁ" horiz-adv-x="630" d="M569 507V0H420v75q-23-39-65-61T260-8q-66 0-116.5 32t-79 91.5T36 253t28.5 139 79.5 94.5T260 520q53 0 95-23t65-62v72h149zM390 145q30 38 30 110t-30 110.5-86 38.5-87-40-31-111 30.5-108.5T304 107q56 0 86 38zM134 778h109l34-206h-65zm139 0h109l35-206h-65z"/><glyph glyph-name="uni0202" unicode="Ȃ" horiz-adv-x="759" d="M547 158H214L146 0H-11l327 712h126L769 0H615zm-51 119L381 544 266 277h230zm-5 616.5q47-27.5 67-81.5l-70-30q-32 50-109 50-78 0-110-50l-70 30q20 54 67 81.5T379 921q65 0 112-27.5z"/><glyph glyph-name="uni0203" unicode="ȃ" horiz-adv-x="630" d="M569 507V0H420v75q-23-39-65-61T260-8q-66 0-116.5 32t-79 91.5T36 253t28.5 139 79.5 94.5T260 520q53 0 95-23t65-62v72h149zM390 145q30 38 30 110t-30 110.5-86 38.5-87-40-31-111 30.5-108.5T304 107q56 0 86 38zm42 583q52-37 69-108l-69-29q-45 80-117 80-73 0-118-80l-69 29q17 71 69 108t118 37q65 0 117-37z"/><glyph glyph-name="uni0204" unicode="Ȅ" horiz-adv-x="599" d="M71 712h491V591H223V423h318V301H223V121h339V0H71v712zm53 218h102l74-157h-75zm141 0h101l74-157h-75z"/><glyph glyph-name="uni0205" unicode="ȅ" horiz-adv-x="550" d="M516 241H182q4-71 37-103.5t98-32.5q39 0 78 13t72 38l40-102q-36-29-89.5-45.5T310-8Q182-8 109 62.5T36 255q0 77 31.5 137.5t88.5 94T285 520q107 0 169-69.5T516 263v-22zM219.5 389Q193 364 185 316h201q-12 98-97 98-43 0-69.5-25zM104 778h109l34-206h-65zm139 0h109l35-206h-65z"/><glyph glyph-name="uni0206" unicode="Ȇ" horiz-adv-x="599" d="M71 712h491V591H223V423h318V301H223V121h339V0H71v712zm374 181.5q47-27.5 67-81.5l-70-30q-32 50-109 50-78 0-110-50l-70 30q20 54 67 81.5T333 921q65 0 112-27.5z"/><glyph glyph-name="uni0207" unicode="ȇ" horiz-adv-x="550" d="M516 241H182q4-71 37-103.5t98-32.5q39 0 78 13t72 38l40-102q-36-29-89.5-45.5T310-8Q182-8 109 62.5T36 255q0 77 31.5 137.5t88.5 94T285 520q107 0 169-69.5T516 263v-22zM219.5 389Q193 364 185 316h201q-12 98-97 98-43 0-69.5-25zM402 728q52-37 69-108l-69-29q-45 80-117 80-73 0-118-80l-69 29q17 71 69 108t118 37q65 0 117-37z"/><glyph glyph-name="uni0208" unicode="Ȉ" horiz-adv-x="299" d="M71 712h156V0H71v712zM-61 930H41l74-157H40zm141 0h101l74-157h-75z"/><glyph glyph-name="uni0209" unicode="ȉ" horiz-adv-x="274" d="M61 507h151V0H61v507zM-44 778H65l34-206H34zm139 0h109l35-206h-65z"/><glyph glyph-name="uni020A" unicode="Ȋ" horiz-adv-x="299" d="M71 712h156V0H71v712zm189 181.5q47-27.5 67-81.5l-70-30q-32 50-109 50-78 0-110-50l-70 30q20 54 67 81.5T148 921q65 0 112-27.5z"/><glyph glyph-name="uni020B" unicode="ȋ" horiz-adv-x="274" d="M61 507h151V0H61v507zm193 221q52-37 69-108l-69-29q-45 80-117 80-73 0-118-80l-69 29q17 71 69 108t118 37q65 0 117-37z"/><glyph glyph-name="uni020C" unicode="Ȍ" horiz-adv-x="795" d="M213.5 35.5Q135 80 92.5 163T50 357t42.5 193 121 126.5T398 721t184-44.5T702 550t42-193-42-194T582 35.5 398-9 213.5 35.5zm325 140.5Q589 239 589 357t-50.5 180T398 599t-140.5-62T207 357q0-119 50.5-181.5T398 113t140.5 63zM188 930h102l74-157h-75zm141 0h101l74-157h-75z"/><glyph glyph-name="uni020D" unicode="ȍ" horiz-adv-x="604" d="M161.5 24q-60.5 32-93 92T36 256t32.5 140 93 92T303 520q80 0 140-32t92.5-92T568 256t-32.5-140T443 24 303-8q-81 0-141.5 32zm227 120Q418 181 418 256q0 74-29.5 111.5T303 405q-57 0-87-37.5T186 256q0-149 117-149 56 0 85.5 37zM122 778h109l34-206h-65zm139 0h109l35-206h-65z"/><glyph glyph-name="uni020E" unicode="Ȏ" horiz-adv-x="795" d="M213.5 35.5Q135 80 92.5 163T50 357t42.5 193 121 126.5T398 721t184-44.5T702 550t42-193-42-194T582 35.5 398-9 213.5 35.5zm325 140.5Q589 239 589 357t-50.5 180T398 599t-140.5-62T207 357q0-119 50.5-181.5T398 113t140.5 63zM509 893.5q47-27.5 67-81.5l-70-30q-32 50-109 50-78 0-110-50l-70 30q20 54 67 81.5T397 921q65 0 112-27.5z"/><glyph glyph-name="uni020F" unicode="ȏ" horiz-adv-x="604" d="M161.5 24q-60.5 32-93 92T36 256t32.5 140 93 92T303 520q80 0 140-32t92.5-92T568 256t-32.5-140T443 24 303-8q-81 0-141.5 32zm227 120Q418 181 418 256q0 74-29.5 111.5T303 405q-57 0-87-37.5T186 256q0-149 117-149 56 0 85.5 37zM420 728q52-37 69-108l-69-29q-45 80-117 80-73 0-118-80l-69 29q17 71 69 108t118 37q65 0 117-37z"/><glyph glyph-name="uni0210" unicode="Ȑ" horiz-adv-x="708" d="M672 0H507l-91 237q-11 28-33.5 39T326 287H225V0H71v712h317q124 0 188-54t64-155q0-71-37.5-122T495 308q63-13 91-87zM365 406q67 0 98 22.5t31 70.5-31 70.5-98 22.5H223V406h142zM147 930h102l74-157h-75zm141 0h101l74-157h-75z"/><glyph glyph-name="uni0211" unicode="ȑ" horiz-adv-x="410" d="m410 509-1-138q-37 17-74 17-60 0-91.5-32.5T212 265V0H61v362q0 81-8 145h142l10-87q19 48 59.5 73.5T356 519q32 0 54-10zM59 778h109l34-206h-65zm139 0h109l35-206h-65z"/><glyph glyph-name="uni0212" unicode="Ȓ" horiz-adv-x="708" d="M672 0H507l-91 237q-11 28-33.5 39T326 287H225V0H71v712h317q124 0 188-54t64-155q0-71-37.5-122T495 308q63-13 91-87zM365 406q67 0 98 22.5t31 70.5-31 70.5-98 22.5H223V406h142zm103 487.5q47-27.5 67-81.5l-70-30q-32 50-109 50-78 0-110-50l-70 30q20 54 67 81.5T356 921q65 0 112-27.5z"/><glyph glyph-name="uni0213" unicode="ȓ" horiz-adv-x="410" d="m410 509-1-138q-37 17-74 17-60 0-91.5-32.5T212 265V0H61v362q0 81-8 145h142l10-87q19 48 59.5 73.5T356 519q32 0 54-10zm-53 219q52-37 69-108l-69-29q-45 80-117 80-73 0-118-80l-69 29q17 71 69 108t118 37q65 0 117-37z"/><glyph glyph-name="uni0214" unicode="Ȕ" horiz-adv-x="746" d="M145 68q-78 77-78 226v418h153V287q0-85 39.5-129.5T373 113t113 44.5T525 287v425h154V294q0-148-78.5-225.5T373-9Q223-9 145 68zm19 862h102l74-157h-75zm141 0h101l74-157h-75z"/><glyph glyph-name="uni0215" unicode="ȕ" horiz-adv-x="606" d="M545 507V0H398v74q-24-40-63-61T247-8q-95 0-142 53T58 205v302h151V202q0-92 79-92 47 0 76 32t29 84v281h152zM122 778h109l34-206h-65zm139 0h109l35-206h-65z"/><glyph glyph-name="uni0216" unicode="Ȗ" horiz-adv-x="746" d="M145 68q-78 77-78 226v418h153V287q0-85 39.5-129.5T373 113t113 44.5T525 287v425h154V294q0-148-78.5-225.5T373-9Q223-9 145 68zm340 825.5q47-27.5 67-81.5l-70-30q-32 50-109 50-78 0-110-50l-70 30q20 54 67 81.5T373 921q65 0 112-27.5z"/><glyph glyph-name="uni0217" unicode="ȗ" horiz-adv-x="606" d="M545 507V0H398v74q-24-40-63-61T247-8q-95 0-142 53T58 205v302h151V202q0-92 79-92 47 0 76 32t29 84v281h152zM420 728q52-37 69-108l-69-29q-45 80-117 80-73 0-118-80l-69 29q17 71 69 108t118 37q65 0 117-37z"/><glyph glyph-name="Scommaaccent" unicode="Ș" horiz-adv-x="657" d="M164.5 12.5Q90 34 41 73l50 112q103-72 230-72 68 0 104.5 21.5T462 195q0 34-33.5 53.5T311 286q-94 19-149.5 46.5t-81 67T55 498q0 64 35.5 115t99.5 79.5T338 721q76 0 146-22t112-60l-50-112q-94 72-207 72-60 0-96-24t-36-65q0-24 13.5-40t45.5-28.5 91-24.5q137-30 197.5-78T615 208q0-100-78-158.5T320-9q-81 0-155.5 21.5zM401-67v-64q0-47-13.5-82T341-278l-55 38q29 27 35 59h-70v114h150z"/><glyph glyph-name="scommaaccent" unicode="ș" horiz-adv-x="503" d="m28 54 40 105q40-29 89-44.5T257 99q39 0 60 12t21 35q0 19-15 30t-53 19l-83 19q-73 16-107.5 51T45 358q0 47 27.5 84t76.5 57.5T262 520q54 0 106-16.5t93-46.5l-42-101q-39 27-79.5 41T261 411q-37 0-58-13t-21-36q0-17 12.5-27.5T239 317l85-19q78-18 113-54t35-96q0-72-58-114T255-8Q111-8 28 54zM326-67v-64q0-47-13.5-82T266-278l-55 38q29 27 35 59h-70v114h150z"/><glyph glyph-name="uni021A" unicode="Ț" horiz-adv-x="628" d="M235 585H12v127h604V585H393V0H235v585zM388-67v-64q0-47-13.5-82T328-278l-55 38q29 27 35 59h-70v114h150z"/><glyph glyph-name="uni021B" unicode="ț" horiz-adv-x="396" d="M251 394V197q0-42 22-61.5t57-19.5q22 0 50 7V6Q344-8 293-8q-94 0-143.5 53T100 194v200H4v113h96v119l151 49V507h129V394H251zm73-461v-64q0-47-13.5-82T264-278l-55 38q29 27 35 59h-70v114h150z"/><glyph glyph-name="uni0227" unicode="ȧ" horiz-adv-x="630" d="M569 507V0H420v75q-23-39-65-61T260-8q-66 0-116.5 32t-79 91.5T36 253t28.5 139 79.5 94.5T260 520q53 0 95-23t65-62v72h149zM390 145q30 38 30 110t-30 110.5-86 38.5-87-40-31-111 30.5-108.5T304 107q56 0 86 38zm5 600V603H234v142h161z"/><glyph glyph-name="uni0228" unicode="Ȩ" horiz-adv-x="599" d="M223 591V423h318V301H223V121h339V0H363l-6-41q5 1 13 1 38 0 61.5-19t23.5-51q0-40-36-64.5T318-199q-21 0-47 4.5T224-181l12 59q46-14 79-14 46 0 46 26 0 9-8.5 14.5T328-90q-13 0-36-7l-20 21 10 76H71v712h491V591H223z"/><glyph glyph-name="uni022A" unicode="Ȫ" horiz-adv-x="795" d="M213.5 35.5Q135 80 92.5 163T50 357t42.5 193 121 126.5T398 721t184-44.5T702 550t42-193-42-194T582 35.5 398-9 213.5 35.5zm325 140.5Q589 239 589 357t-50.5 180T398 599t-140.5-62T207 357q0-119 50.5-181.5T398 113t140.5 63zM370 918V786H231v132h139zm192 0V786H423v132h139zm-323 142h315v-94H239v94z"/><glyph glyph-name="uni022B" unicode="ȫ" horiz-adv-x="604" d="M161.5 24q-60.5 32-93 92T36 256t32.5 140 93 92T303 520q80 0 140-32t92.5-92T568 256t-32.5-140T443 24 303-8q-81 0-141.5 32zm227 120Q418 181 418 256q0 74-29.5 111.5T303 405q-57 0-87-37.5T186 256q0-149 117-149 56 0 85.5 37zM276 740V608H137v132h139zm192 0V608H329v132h139zM145 913h315v-94H145v94z"/><glyph glyph-name="uni022C" unicode="Ȭ" horiz-adv-x="795" d="M213.5 35.5Q135 80 92.5 163T50 357t42.5 193 121 126.5T398 721t184-44.5T702 550t42-193-42-194T582 35.5 398-9 213.5 35.5zm325 140.5Q589 239 589 357t-50.5 180T398 599t-140.5-62T207 357q0-119 50.5-181.5T398 113t140.5 63zm-287 714q30.5 37 78.5 37 19 0 37.5-8t39.5-22q22-12 33.5-17.5T464 874q19 0 30.5 13.5T508 924h64q0-73-30.5-110T463 777q-19 0-37.5 8T386 807q-22 12-33.5 17.5T329 830q-19 0-30.5-13.5T285 780h-64q0 73 30.5 110zM239 1060h315v-94H239v94z"/><glyph glyph-name="uni022D" unicode="ȭ" horiz-adv-x="604" d="M161.5 24q-60.5 32-93 92T36 256t32.5 140 93 92T303 520q80 0 140-32t92.5-92T568 256t-32.5-140T443 24 303-8q-81 0-141.5 32zm227 120Q418 181 418 256q0 74-29.5 111.5T303 405q-57 0-87-37.5T186 256q0-149 117-149 56 0 85.5 37zm-231 569.5Q188 750 236 750q19 0 36.5-7.5T313 721q22-12 33.5-17.5T370 698q19 0 30.5 13t13.5 36h64q0-72-30.5-109T369 601q-19 0-36.5 7.5T292 630q-22 12-33.5 17.5T235 653q-19 0-30.5-13T191 604h-64q0 73 30.5 109.5zM145 913h315v-94H145v94z"/><glyph glyph-name="uni0230" unicode="Ȱ" horiz-adv-x="795" d="M213.5 35.5Q135 80 92.5 163T50 357t42.5 193 121 126.5T398 721t184-44.5T702 550t42-193-42-194T582 35.5 398-9 213.5 35.5zm325 140.5Q589 239 589 357t-50.5 180T398 599t-140.5-62T207 357q0-119 50.5-181.5T398 113t140.5 63zM477 923V781H316v142h161zm-238 137h315v-94H239v94z"/><glyph glyph-name="uni0231" unicode="ȱ" horiz-adv-x="604" d="M161.5 24q-60.5 32-93 92T36 256t32.5 140 93 92T303 520q80 0 140-32t92.5-92T568 256t-32.5-140T443 24 303-8q-81 0-141.5 32zm227 120Q418 181 418 256q0 74-29.5 111.5T303 405q-57 0-87-37.5T186 256q0-149 117-149 56 0 85.5 37zM383 745V603H222v142h161zM145 913h315v-94H145v94z"/><glyph glyph-name="uni0232" unicode="Ȳ" horiz-adv-x="642" d="M399 276V0H243v277L-51 712h177l194-304 196 304h178zM162 898h315v-94H162v94z"/><glyph glyph-name="uni0233" unicode="ȳ" horiz-adv-x="550" d="M561 507 327-27q-43-97-108.5-142.5T58-228L23-112q70 15 105.5 38T184-7l15 33-209 481h158l130-329 134 329h149zM117 720h315v-94H117v94z"/><glyph glyph-name="uni0237" unicode="ȷ" horiz-adv-x="274" d="M-16-100q34 0 55.5 20T61-18v525h151V-22q0-96-49-149T21-224q-52 0-86 13v118q29-7 49-7z"/><glyph glyph-name="uni0259" unicode="ə" horiz-adv-x="550" d="M389.5 487.5q59.5-32.5 92-92T514 256q0-78-30.5-138t-85-93T273-8Q162-8 98.5 60T35 247v24h336q-5 70-36.5 102.5T241 406q-70 0-157-51L43 456q39 30 94 47t114 17q79 0 138.5-32.5zM335 121q26 25 34 73H168q12-98 99-98 42 0 68 25z"/><glyph glyph-name="uni02BB" unicode="ʻ" horiz-adv-x="300" d="M226 704V590H76v64q0 47 13.5 82.5T136 801l55-37q-28-27-35-60h70z"/><glyph glyph-name="uni02BC" unicode="ʼ" horiz-adv-x="300" d="M224 767v-65q0-47-13.5-82T164 555l-55 39q29 26 35 58H74v115h150z"/><glyph glyph-name="uni02BE" unicode="ʾ" horiz-adv-x="300" d="M230 741.5q32-31.5 32-76.5 0-46-32-77.5T152 556v62q19 0 31 13.5t12 33.5q0 19-12 32t-31 13v63q46 0 78-31.5z"/><glyph glyph-name="uni02BF" unicode="ʿ" horiz-adv-x="300" d="M152 710q-19 0-31.5-13T108 665q0-20 12.5-33.5T152 618v-62q-47 0-79 31.5T41 665q0 45 32.5 76.5T152 773v-63z"/><glyph glyph-name="circumflex" unicode="ˆ" horiz-adv-x="300" d="m-25 561 131 206h91l131-206H210l-58 117-59-117H-25z"/><glyph glyph-name="caron" unicode="ˇ" horiz-adv-x="300" d="M328 767 197 561h-91L-25 767H93l59-118 58 118h118z"/><glyph glyph-name="uni02C8" unicode="ˈ" horiz-adv-x="300" d="M104 767h95V561h-95v206z"/><glyph glyph-name="uni02C9" unicode="ˉ" horiz-adv-x="300" d="M-6 709h315v-94H-6v94z"/><glyph glyph-name="uni02CA" unicode="ˊ" horiz-adv-x="300" d="m105 561 99 206h148L198 561h-93z"/><glyph glyph-name="uni02CB" unicode="ˋ" horiz-adv-x="300" d="M-49 767H99l99-206h-93z"/><glyph glyph-name="uni02CC" unicode="ˌ" horiz-adv-x="300" d="M104-66h95v-207h-95v207z"/><glyph glyph-name="breve" unicode="˘" horiz-adv-x="300" d="M34 620q-52 37-69 109l69 30q44-81 118-81 73 0 117 81l69-30q-17-71-68.5-108.5T152 583 34 620z"/><glyph glyph-name="dotaccent" unicode="˙" horiz-adv-x="300" d="M232 734V592H71v142h161z"/><glyph glyph-name="ring" unicode="˚" horiz-adv-x="300" d="M73 587.5Q41 619 41 665q0 45 32.5 76.5T152 773t78-31.5 32-76.5q0-46-32-77.5T152 556q-47 0-79 31.5zm110 44q12 13.5 12 33.5 0 19-12 32t-31 13-31.5-13-12.5-32q0-20 12.5-33.5T152 618t31 13.5z"/><glyph glyph-name="ogonek" unicode="˛" horiz-adv-x="300" d="M20-168.5Q-16-138-16-88-16-36 22.5.5T134 46l18-36Q81-10 81-66q0-54 59-54 28 0 55 13l17-71q-47-21-100-21-56 0-92 30.5z"/><glyph glyph-name="tilde" unicode="˜" horiz-adv-x="300" d="M6.5 702.5Q37 739 85 739q19 0 36.5-7.5T162 710q22-12 33.5-17.5T219 687q19 0 30.5 13t13.5 36h64q0-72-30.5-109T218 590q-19 0-36.5 7.5T141 619q-22 12-33.5 17.5T84 642q-19 0-30.5-13T40 593h-64q0 73 30.5 109.5z"/><glyph glyph-name="hungarumlaut" unicode="˝" horiz-adv-x="300" d="m49 561 35 206h109l-79-206H49zm140 0 34 206h109l-78-206h-65z"/><glyph glyph-name="gravecomb" unicode="̀" d="M-349 767h148l99-206h-93z"/><glyph glyph-name="acutecomb" unicode="́" d="m-195 561 99 206H52l-154-206h-93z"/><glyph glyph-name="uni0302" unicode="̂" d="m-325 561 131 206h91L28 561H-90l-58 117-59-117h-118z"/><glyph glyph-name="tildecomb" unicode="̃" d="M-293.5 702.5Q-263 739-215 739q19 0 36.5-7.5T-138 710q22-12 33.5-17.5T-81 687q19 0 30.5 13t13.5 36h64q0-72-30.5-109T-82 590q-19 0-36.5 7.5T-159 619q-22 12-33.5 17.5T-216 642q-19 0-30.5-13t-13.5-36h-64q0 73 30.5 109.5z"/><glyph glyph-name="uni0304" unicode="̄" d="M-306 709H9v-94h-315v94z"/><glyph glyph-name="uni0306" unicode="̆" d="M-266 620q-52 37-69 109l69 30q44-81 118-81 73 0 117 81l69-30q-17-71-68.5-108.5T-148 583t-118 37z"/><glyph glyph-name="uni0307" unicode="̇" d="M-68 734V592h-161v142h161z"/><glyph glyph-name="uni0308" unicode="̈" d="M-175 729V597h-139v132h139zm192 0V597h-139v132H17z"/><glyph glyph-name="hookabovecomb" unicode="̉" d="M-109 561h-76v25q0 21 10 35t27 28q11 9 16.5 16t5.5 15q0 23-34 23-24 0-50-9l-20 57q42 19 86 19 55 0 86-22t31-54q0-24-12.5-39T-75 624q-17-12-25.5-21.5T-109 581v-20z"/><glyph glyph-name="uni030A" unicode="̊" d="M-227 587.5q-32 31.5-32 77.5 0 45 32.5 76.5T-148 773t78-31.5 32-76.5q0-46-32-77.5t-78-31.5q-47 0-79 31.5zm110 44q12 13.5 12 33.5 0 19-12 32t-31 13-31.5-13-12.5-32q0-20 12.5-33.5T-148 618t31 13.5z"/><glyph glyph-name="uni030B" unicode="̋" d="m-251 561 35 206h109l-79-206h-65zm140 0 34 206H32l-78-206h-65z"/><glyph glyph-name="uni030C" unicode="̌" d="m28 767-131-206h-91l-131 206h118l59-118 58 118H28z"/><glyph glyph-name="uni030F" unicode="̏" d="M-329 767h109l34-206h-65zm139 0h109l35-206h-65z"/><glyph glyph-name="uni0311" unicode="̑" d="M-31 717q52-37 69-108l-69-29q-45 80-117 80-73 0-118-80l-69 29q17 71 69 108t118 37q65 0 117-37z"/><glyph glyph-name="uni0312" unicode="̒" d="M-74 704V590h-150v64q0 47 13.5 82.5T-164 801l55-37q-28-27-35-60h70z"/><glyph glyph-name="uni031B" unicode="̛" d="M-148 482v18q50 0 71 21.5t21 80.5v20H75v-38q0-63-37-106.5T-60 427z"/><glyph glyph-name="dotbelowcomb" unicode="̣" d="M-79-68v-133h-139v133h139z"/><glyph glyph-name="uni0324" unicode="̤" d="M-175-68v-132h-139v132h139zm192 0v-132h-139v132H17z"/><glyph glyph-name="uni0326" unicode="̦" d="M-74-67v-64q0-47-13.5-82t-46.5-65l-55 38q29 27 35 59h-70v114h150z"/><glyph glyph-name="uni0327" unicode="̧" d="M-49.5-59Q-26-78-26-110q0-40-36-64.5T-163-199q-22 0-47.5 4.5T-257-181l12 59q46-14 79-14 46 0 46 26 0 9-8.5 14.5T-153-90q-13 0-36-7l-20 21 12 96h82l-9-61q5 1 13 1 38 0 61.5-19z"/><glyph glyph-name="uni0328" unicode="̨" d="M-280-168.5Q-316-138-316-88q0 52 38.5 88.5T-166 46l18-36q-71-20-71-76 0-54 59-54 28 0 55 13l17-71q-47-21-100-21-56 0-92 30.5z"/><glyph glyph-name="uni032E" unicode="̮" d="M-266-192q-52 37-69 109l69 29q44-80 118-80 73 0 117 80l69-29q-17-71-68.5-108.5T-148-229t-118 37z"/><glyph glyph-name="uni0331" unicode="̱" d="M-306-91H9v-88h-315v88z"/><glyph glyph-name="uni0335" unicode="̵" d="M-306 293H9v-85h-315v85z"/><glyph glyph-name="uni0394" unicode="Δ" horiz-adv-x="757" d="M726 108V0H31v108l287 604h122zm-534 20h375L380 546z"/><glyph glyph-name="Sigma" unicode="Σ" horiz-adv-x="611" d="M564 587H223l198-274-1-95L222-57h342v-125H45v113l240 334L45 599v113h519V587z"/><glyph glyph-name="uni03A9" unicode="Ω" horiz-adv-x="819" d="M733 264.5Q694 191 618 125h140V0H466v121q78 71 114 140t36 149q0 89-54.5 139T410 599t-151.5-50T204 410q0-80 36-149t115-140V0H62v125h140q-77 66-116 139T47 415q0 92 45 161.5T219.5 684 410 722t190-38 127-107.5T772 415q0-77-39-150.5z"/><glyph glyph-name="uni03BC" unicode="μ" horiz-adv-x="606" d="M545 507V0H398v74q-24-40-63-61T247-8q-20 0-38 3v-211H58v723h151V202q0-92 79-92 47 0 76 32t29 84v281h152z"/><glyph glyph-name="pi" unicode="π" horiz-adv-x="634" d="M627 100 616-9l-50 3q-84 5-133 28t-71.5 69.5T339 214v180h-82q-2-105-17-198T189 0L34-1q33 114 51 206.5T107 394H4v113h593V394H490V188q0-42 19.5-61t63.5-22z"/><glyph glyph-name="uni1E08" unicode="Ḉ" horiz-adv-x="685" d="M444 773h-93l103 157h140zM550 16Q492-5 427-8l-5-33q5 1 13 1 38 0 61.5-19t23.5-51q0-40-36-64.5T383-199q-22 0-47.5 4.5T289-181l12 59q46-14 79-14 46 0 46 26 0 9-8.5 14.5T393-90q-13 0-36-7l-20 21 9 71Q255 7 188 55T85.5 180.5 50 357q0 109 43 191.5T216.5 676 405 721q71 0 135.5-21.5T646 639l-49-112q-48 36-93.5 52.5T408 596q-96 0-147-61t-51-178q0-118 51-179.5T408 116q50 0 95.5 16.5T597 185l49-112q-38-36-96-57z"/><glyph glyph-name="uni1E09" unicode="ḉ" horiz-adv-x="509" d="M349 572h-93l99 206h148zM225.5 365.5Q191 328 191 256q0-73 34-110.5t97-37.5q34 0 70 13.5t66 37.5l40-105q-30-26-76.5-42T323-7l-5-34q5 1 13 1 38 0 61.5-19t23.5-51q0-40-36-64.5T279-199q-22 0-47.5 4.5T185-181l12 59q46-14 79-14 46 0 46 26 0 9-8.5 14.5T289-90q-13 0-36-7l-20 21 9 73Q145 13 90.5 80.5T36 253q0 79 34 139.5t95.5 94T308 520q55 0 107-17t83-46l-40-105q-30 24-66 37.5T322 403q-62 0-96.5-37.5z"/><glyph glyph-name="uni1E0C" unicode="Ḍ" horiz-adv-x="771" d="M71 712h275q117 0 201-42t128.5-122T720 357q0-112-44-192T548 42.5 346 0H71v712zm265-586q228 0 228 231 0 229-228 229H227V126h109zM454-68v-133H315v133h139z"/><glyph glyph-name="uni1E0D" unicode="ḍ" horiz-adv-x="630" d="M569 736V0H420v75q-23-39-65-61T260-8q-65 0-116 33.5t-79.5 94T36 258t28.5 137.5 79 92T260 520q51 0 93-21.5t65-59.5v297h151zM390 145.5Q420 184 420 256q0 71-30.5 109.5T304 404q-56 0-87-38t-31-108q0-72 31-111.5t87-39.5 86 38.5zM385-68v-133H246v133h139z"/><glyph glyph-name="uni1E0E" unicode="Ḏ" horiz-adv-x="771" d="M71 712h275q117 0 201-42t128.5-122T720 357q0-112-44-192T548 42.5 346 0H71v712zm265-586q228 0 228 231 0 229-228 229H227V126h109zM227-91h315v-88H227v88z"/><glyph glyph-name="uni1E0F" unicode="ḏ" horiz-adv-x="630" d="M569 736V0H420v75q-23-39-65-61T260-8q-65 0-116 33.5t-79.5 94T36 258t28.5 137.5 79 92T260 520q51 0 93-21.5t65-59.5v297h151zM390 145.5Q420 184 420 256q0 71-30.5 109.5T304 404q-56 0-87-38t-31-108q0-72 31-111.5t87-39.5 86 38.5zM158-91h315v-88H158v88z"/><glyph glyph-name="uni1E14" unicode="Ḕ" horiz-adv-x="599" d="M71 712h491V591H223V423h318V301H223V121h339V0H71v712zm104 186h315v-94H175v94zm-39 194h140l103-157h-93z"/><glyph glyph-name="uni1E15" unicode="ḕ" horiz-adv-x="550" d="M516 241H182q4-71 37-103.5t98-32.5q39 0 78 13t72 38l40-102q-36-29-89.5-45.5T310-8Q182-8 109 62.5T36 255q0 77 31.5 137.5t88.5 94T285 520q107 0 169-69.5T516 263v-22zM219.5 389Q193 364 185 316h201q-12 98-97 98-43 0-69.5-25zM127 720h315v-94H127v94zM84 971h148l99-206h-93z"/><glyph glyph-name="uni1E16" unicode="Ḗ" horiz-adv-x="599" d="M71 712h491V591H223V423h318V301H223V121h339V0H71v712zm104 186h315v-94H175v94zm111 37 103 157h140L379 935h-93z"/><glyph glyph-name="uni1E17" unicode="ḗ" horiz-adv-x="550" d="M516 241H182q4-71 37-103.5t98-32.5q39 0 78 13t72 38l40-102q-36-29-89.5-45.5T310-8Q182-8 109 62.5T36 255q0 77 31.5 137.5t88.5 94T285 520q107 0 169-69.5T516 263v-22zM219.5 389Q193 364 185 316h201q-12 98-97 98-43 0-69.5-25zM127 720h315v-94H127v94zm111 45 99 206h148L331 765h-93z"/><glyph glyph-name="uni1E1C" unicode="Ḝ" horiz-adv-x="599" d="M220 810q-47 28-67 82l70 29q32-49 110-49 77 0 109 49l70-29q-20-54-67-82t-112-28q-66 0-113 28zm3-219V423h318V301H223V121h339V0H363l-6-41q5 1 13 1 38 0 61.5-19t23.5-51q0-40-36-64.5T318-199q-21 0-47 4.5T224-181l12 59q46-14 79-14 46 0 46 26 0 9-8.5 14.5T328-90q-13 0-36-7l-20 21 10 76H71v712h491V591H223z"/><glyph glyph-name="uni1E1D" unicode="ḝ" horiz-adv-x="550" d="M167 631q-52 37-69 109l69 30q44-81 118-81 73 0 117 81l69-30q-17-71-68.5-108.5T285 594t-118 37zm349-390H182q4-71 37-103.5t98-32.5q39 0 78 13t72 38l40-102q-32-25-77.5-41T335-7l-5-34q5 1 13 1 38 0 61.5-19t23.5-51q0-40-36-64.5T291-199q-21 0-47 4.5T197-181l12 59q46-14 79-14 46 0 46 26 0 9-8.5 14.5T301-90q-13 0-36-7l-20 21 9 72Q151 11 93.5 79.5T36 255q0 77 31.5 137.5t88.5 94T285 520q107 0 169-69.5T516 263v-22zM219.5 389Q193 364 185 316h201q-12 98-97 98-43 0-69.5-25z"/><glyph glyph-name="uni1E20" unicode="Ḡ" horiz-adv-x="745" d="M682 393V44Q630 19 560.5 5T418-9Q305-9 222 35T94.5 161 50 357q0 111 44.5 193t126 126.5T411 721q77 0 143.5-21T664 641l-50-112q-50 36-97 52t-102 16q-206 0-206-240 0-245 215-245 59 0 118 15v157H402v109h280zM253 898h315v-94H253v94z"/><glyph glyph-name="uni1E21" unicode="ḡ" horiz-adv-x="634" d="M574 507V23q0-121-70-184t-204-63q-121 0-210 47l23 112q92-46 182-46 65 0 97 30.5T424 12v88q-24-37-67-61.5T262 14q-66 0-117 31.5t-80 89T36 267t29 132.5 80 89T262 520q53 0 96-23t66-62v72h150zM392.5 165.5Q424 202 424 267q0 64-31 100.5T306 404t-88-36.5T186 267t32-101 88-37q55 0 86.5 36.5zM160 720h315v-94H160v94z"/><glyph glyph-name="uni1E24" unicode="Ḥ" horiz-adv-x="779" d="M707 712V0H554v299H224V0H71v712h153V424h330v288h153zM458-68v-133H319v133h139z"/><glyph glyph-name="uni1E25" unicode="ḥ" horiz-adv-x="613" d="M554 307V0H403v300q0 53-19.5 77.5T322 402q-50 0-80-32t-30-86V0H61v736h151V438q27 40 69 61t93 21q180 0 180-213zM377-68v-133H238v133h139z"/><glyph glyph-name="uni1E2A" unicode="Ḫ" horiz-adv-x="779" d="M707 712V0H554v299H224V0H71v712h153V424h330v288h153zM271-192q-52 37-69 109l69 29q44-80 118-80 73 0 117 80l69-29q-17-71-68.5-108.5T389-229t-118 37z"/><glyph glyph-name="uni1E2B" unicode="ḫ" horiz-adv-x="613" d="M554 307V0H403v300q0 53-19.5 77.5T322 402q-50 0-80-32t-30-86V0H61v736h151V438q27 40 69 61t93 21q180 0 180-213zM190-192q-52 37-69 109l69 29q44-80 118-80 73 0 117 80l69-29q-17-71-68.5-108.5T308-229t-118 37z"/><glyph glyph-name="uni1E2E" unicode="Ḯ" horiz-adv-x="299" d="M71 712h156V0H71v712zm50 206V786H-18v132h139zm192 0V786H174v132h139zm-212 17 103 157h140L194 935h-93z"/><glyph glyph-name="uni1E2F" unicode="ḯ" horiz-adv-x="274" d="M61 507h151V0H61v507zm49 233V608H-29v132h139zm192 0V608H163v132h139zM90 765l99 206h148L183 765H90z"/><glyph glyph-name="uni1E36" unicode="Ḷ" horiz-adv-x="569" d="M71 712h156V127h318V0H71v712zM385-68v-133H246v133h139z"/><glyph glyph-name="uni1E37" unicode="ḷ" horiz-adv-x="274" d="M61 736h151V0H61v736zM206-68v-133H67v133h139z"/><glyph glyph-name="uni1E3A" unicode="Ḻ" horiz-adv-x="569" d="M71 712h156V127h318V0H71v712zm87-803h315v-88H158v88z"/><glyph glyph-name="uni1E3B" unicode="ḻ" horiz-adv-x="274" d="M61 736h151V0H61v736zM-21-91h315v-88H-21v88z"/><glyph glyph-name="uni1E42" unicode="Ṃ" horiz-adv-x="851" d="M778 712V0H640v389L476 0H375L210 384V0H73v712h124l230-525 228 525h123zM494-68v-133H355v133h139z"/><glyph glyph-name="uni1E43" unicode="ṃ" horiz-adv-x="911" d="M810.5 467.5Q853 415 853 307V0H702v302q0 53-17 76.5T629 402q-46 0-71-32t-25-90V0H382v302q0 52-17.5 76T309 402q-46 0-71.5-32T212 280V0H61v362q0 81-8 145h142l9-76q23 43 64.5 66t95.5 23q113 0 150-94 25 43 69.5 68.5T681 520q87 0 129.5-52.5zM527-68v-133H388v133h139z"/><glyph glyph-name="uni1E44" unicode="Ṅ" horiz-adv-x="760" d="M688 712V0H572L217 454V0H71v712h115l355-453v453h147zM459 923V781H298v142h161z"/><glyph glyph-name="uni1E45" unicode="ṅ" horiz-adv-x="613" d="M554 307V0H403v300q0 53-19.5 77.5T322 402q-50 0-80-32t-30-86V0H61v362q0 81-8 145h142l10-80q27 45 70.5 69t98.5 24q180 0 180-213zM388 745V603H227v142h161z"/><glyph glyph-name="uni1E46" unicode="Ṇ" horiz-adv-x="760" d="M688 712V0H572L217 454V0H71v712h115l355-453v453h147zM449-68v-133H310v133h139z"/><glyph glyph-name="uni1E47" unicode="ṇ" horiz-adv-x="613" d="M554 307V0H403v300q0 53-19.5 77.5T322 402q-50 0-80-32t-30-86V0H61v362q0 81-8 145h142l10-80q27 45 70.5 69t98.5 24q180 0 180-213zM377-68v-133H238v133h139z"/><glyph glyph-name="uni1E48" unicode="Ṉ" horiz-adv-x="760" d="M688 712V0H572L217 454V0H71v712h115l355-453v453h147zM222-91h315v-88H222v88z"/><glyph glyph-name="uni1E49" unicode="ṉ" horiz-adv-x="613" d="M554 307V0H403v300q0 53-19.5 77.5T322 402q-50 0-80-32t-30-86V0H61v362q0 81-8 145h142l10-80q27 45 70.5 69t98.5 24q180 0 180-213zM150-91h315v-88H150v88z"/><glyph glyph-name="uni1E4C" unicode="Ṍ" horiz-adv-x="795" d="M213.5 35.5Q135 80 92.5 163T50 357t42.5 193 121 126.5T398 721t184-44.5T702 550t42-193-42-194T582 35.5 398-9 213.5 35.5zm325 140.5Q589 239 589 357t-50.5 180T398 599t-140.5-62T207 357q0-119 50.5-181.5T398 113t140.5 63zm-287 714q30.5 37 78.5 37 19 0 37.5-8t39.5-22q22-12 33.5-17.5T464 874q19 0 30.5 13.5T508 924h64q0-73-30.5-110T463 777q-19 0-37.5 8T386 807q-22 12-33.5 17.5T329 830q-19 0-30.5-13.5T285 780h-64q0 73 30.5 110zm98.5 45 103 157h140L443 935h-93z"/><glyph glyph-name="uni1E4D" unicode="ṍ" horiz-adv-x="604" d="M161.5 24q-60.5 32-93 92T36 256t32.5 140 93 92T303 520q80 0 140-32t92.5-92T568 256t-32.5-140T443 24 303-8q-81 0-141.5 32zm227 120Q418 181 418 256q0 74-29.5 111.5T303 405q-57 0-87-37.5T186 256q0-149 117-149 56 0 85.5 37zm-231 569.5Q188 750 236 750q19 0 36.5-7.5T313 721q22-12 33.5-17.5T370 698q19 0 30.5 13t13.5 36h64q0-72-30.5-109T369 601q-19 0-36.5 7.5T292 630q-22 12-33.5 17.5T235 653q-19 0-30.5-13T191 604h-64q0 73 30.5 109.5zM256 765l99 206h148L349 765h-93z"/><glyph glyph-name="uni1E4E" unicode="Ṏ" horiz-adv-x="795" d="M213.5 35.5Q135 80 92.5 163T50 357t42.5 193 121 126.5T398 721t184-44.5T702 550t42-193-42-194T582 35.5 398-9 213.5 35.5zm325 140.5Q589 239 589 357t-50.5 180T398 599t-140.5-62T207 357q0-119 50.5-181.5T398 113t140.5 63zm-287 714q30.5 37 78.5 37 19 0 37.5-8t39.5-22q22-12 33.5-17.5T464 874q19 0 30.5 13.5T508 924h64q0-73-30.5-110T463 777q-19 0-37.5 8T386 807q-22 12-33.5 17.5T329 830q-19 0-30.5-13.5T285 780h-64q0 73 30.5 110zM370 1080V948H231v132h139zm192 0V948H423v132h139z"/><glyph glyph-name="uni1E4F" unicode="ṏ" horiz-adv-x="604" d="M161.5 24q-60.5 32-93 92T36 256t32.5 140 93 92T303 520q80 0 140-32t92.5-92T568 256t-32.5-140T443 24 303-8q-81 0-141.5 32zm227 120Q418 181 418 256q0 74-29.5 111.5T303 405q-57 0-87-37.5T186 256q0-149 117-149 56 0 85.5 37zm-231 569.5Q188 750 236 750q19 0 36.5-7.5T313 721q22-12 33.5-17.5T370 698q19 0 30.5 13t13.5 36h64q0-72-30.5-109T369 601q-19 0-36.5 7.5T292 630q-22 12-33.5 17.5T235 653q-19 0-30.5-13T191 604h-64q0 73 30.5 109.5zM276 933V801H137v132h139zm192 0V801H329v132h139z"/><glyph glyph-name="uni1E50" unicode="Ṑ" horiz-adv-x="795" d="M213.5 35.5Q135 80 92.5 163T50 357t42.5 193 121 126.5T398 721t184-44.5T702 550t42-193-42-194T582 35.5 398-9 213.5 35.5zm325 140.5Q589 239 589 357t-50.5 180T398 599t-140.5-62T207 357q0-119 50.5-181.5T398 113t140.5 63zM239 898h315v-94H239v94zm-39 194h140l103-157h-93z"/><glyph glyph-name="uni1E51" unicode="ṑ" horiz-adv-x="604" d="M161.5 24q-60.5 32-93 92T36 256t32.5 140 93 92T303 520q80 0 140-32t92.5-92T568 256t-32.5-140T443 24 303-8q-81 0-141.5 32zm227 120Q418 181 418 256q0 74-29.5 111.5T303 405q-57 0-87-37.5T186 256q0-149 117-149 56 0 85.5 37zM145 720h315v-94H145v94zm-43 251h148l99-206h-93z"/><glyph glyph-name="uni1E52" unicode="Ṓ" horiz-adv-x="795" d="M213.5 35.5Q135 80 92.5 163T50 357t42.5 193 121 126.5T398 721t184-44.5T702 550t42-193-42-194T582 35.5 398-9 213.5 35.5zm325 140.5Q589 239 589 357t-50.5 180T398 599t-140.5-62T207 357q0-119 50.5-181.5T398 113t140.5 63zM239 898h315v-94H239v94zm111 37 103 157h140L443 935h-93z"/><glyph glyph-name="uni1E53" unicode="ṓ" horiz-adv-x="604" d="M161.5 24q-60.5 32-93 92T36 256t32.5 140 93 92T303 520q80 0 140-32t92.5-92T568 256t-32.5-140T443 24 303-8q-81 0-141.5 32zm227 120Q418 181 418 256q0 74-29.5 111.5T303 405q-57 0-87-37.5T186 256q0-149 117-149 56 0 85.5 37zM145 720h315v-94H145v94zm111 45 99 206h148L349 765h-93z"/><glyph glyph-name="uni1E5A" unicode="Ṛ" horiz-adv-x="708" d="M672 0H507l-91 237q-11 28-33.5 39T326 287H225V0H71v712h317q124 0 188-54t64-155q0-71-37.5-122T495 308q63-13 91-87zM365 406q67 0 98 22.5t31 70.5-31 70.5-98 22.5H223V406h142zm61-474v-133H287v133h139z"/><glyph glyph-name="uni1E5B" unicode="ṛ" horiz-adv-x="410" d="m410 509-1-138q-37 17-74 17-60 0-91.5-32.5T212 265V0H61v362q0 81-8 145h142l10-87q19 48 59.5 73.5T356 519q32 0 54-10zM206-68v-133H67v133h139z"/><glyph glyph-name="uni1E5E" unicode="Ṟ" horiz-adv-x="708" d="M672 0H507l-91 237q-11 28-33.5 39T326 287H225V0H71v712h317q124 0 188-54t64-155q0-71-37.5-122T495 308q63-13 91-87zM365 406q67 0 98 22.5t31 70.5-31 70.5-98 22.5H223V406h142zM199-91h315v-88H199v88z"/><glyph glyph-name="uni1E5F" unicode="ṟ" horiz-adv-x="410" d="m410 509-1-138q-37 17-74 17-60 0-91.5-32.5T212 265V0H61v362q0 81-8 145h142l10-87q19 48 59.5 73.5T356 519q32 0 54-10zM-21-91h315v-88H-21v88z"/><glyph glyph-name="uni1E60" unicode="Ṡ" horiz-adv-x="657" d="M164.5 12.5Q90 34 41 73l50 112q103-72 230-72 68 0 104.5 21.5T462 195q0 34-33.5 53.5T311 286q-94 19-149.5 46.5t-81 67T55 498q0 64 35.5 115t99.5 79.5T338 721q76 0 146-22t112-60l-50-112q-94 72-207 72-60 0-96-24t-36-65q0-24 13.5-40t45.5-28.5 91-24.5q137-30 197.5-78T615 208q0-100-78-158.5T320-9q-81 0-155.5 21.5zM411 923V781H250v142h161z"/><glyph glyph-name="uni1E61" unicode="ṡ" horiz-adv-x="503" d="m28 54 40 105q40-29 89-44.5T257 99q39 0 60 12t21 35q0 19-15 30t-53 19l-83 19q-73 16-107.5 51T45 358q0 47 27.5 84t76.5 57.5T262 520q54 0 106-16.5t93-46.5l-42-101q-39 27-79.5 41T261 411q-37 0-58-13t-21-36q0-17 12.5-27.5T239 317l85-19q78-18 113-54t35-96q0-72-58-114T255-8Q111-8 28 54zm313 691V603H180v142h161z"/><glyph glyph-name="uni1E62" unicode="Ṣ" horiz-adv-x="657" d="M164.5 12.5Q90 34 41 73l50 112q103-72 230-72 68 0 104.5 21.5T462 195q0 34-33.5 53.5T311 286q-94 19-149.5 46.5t-81 67T55 498q0 64 35.5 115t99.5 79.5T338 721q76 0 146-22t112-60l-50-112q-94 72-207 72-60 0-96-24t-36-65q0-24 13.5-40t45.5-28.5 91-24.5q137-30 197.5-78T615 208q0-100-78-158.5T320-9q-81 0-155.5 21.5zM396-68v-133H257v133h139z"/><glyph glyph-name="uni1E63" unicode="ṣ" horiz-adv-x="503" d="m28 54 40 105q40-29 89-44.5T257 99q39 0 60 12t21 35q0 19-15 30t-53 19l-83 19q-73 16-107.5 51T45 358q0 47 27.5 84t76.5 57.5T262 520q54 0 106-16.5t93-46.5l-42-101q-39 27-79.5 41T261 411q-37 0-58-13t-21-36q0-17 12.5-27.5T239 317l85-19q78-18 113-54t35-96q0-72-58-114T255-8Q111-8 28 54zM321-68v-133H182v133h139z"/><glyph glyph-name="uni1E64" unicode="Ṥ" horiz-adv-x="657" d="M164.5 12.5Q90 34 41 73l50 112q103-72 230-72 68 0 104.5 21.5T462 195q0 34-33.5 53.5T311 286q-94 19-149.5 46.5t-81 67T55 498q0 64 35.5 115t99.5 79.5T338 721q76 0 146-22t112-60l-50-112q-94 72-207 72-60 0-96-24t-36-65q0-24 13.5-40t45.5-28.5 91-24.5q137-30 197.5-78T615 208q0-100-78-158.5T320-9q-81 0-155.5 21.5zM311 773l103 157h140L404 773h-93zm-22 156V787H128v142h161z"/><glyph glyph-name="uni1E65" unicode="ṥ" horiz-adv-x="503" d="m28 54 40 105q40-29 89-44.5T257 99q39 0 60 12t21 35q0 19-15 30t-53 19l-83 19q-73 16-107.5 51T45 358q0 47 27.5 84t76.5 57.5T262 520q54 0 106-16.5t93-46.5l-42-101q-39 27-79.5 41T261 411q-37 0-58-13t-21-36q0-17 12.5-27.5T239 317l85-19q78-18 113-54t35-96q0-72-58-114T255-8Q111-8 28 54zm200 508 99 206h148L321 562h-93zm5 205V625H72v142h161z"/><glyph glyph-name="uni1E66" unicode="Ṧ" horiz-adv-x="657" d="M164.5 12.5Q90 34 41 73l50 112q103-72 230-72 68 0 104.5 21.5T462 195q0 34-33.5 53.5T311 286q-94 19-149.5 46.5t-81 67T55 498q0 64 35.5 115t99.5 79.5T338 721q76 0 146-22t112-60l-50-112q-94 72-207 72-60 0-96-24t-36-65q0-24 13.5-40t45.5-28.5 91-24.5q137-30 197.5-78T615 208q0-100-78-158.5T320-9q-81 0-155.5 21.5zM507 930 374 773h-87L154 930h114l63-87 62 87h114zm-96 155V943H250v142h161z"/><glyph glyph-name="uni1E67" unicode="ṧ" horiz-adv-x="503" d="m28 54 40 105q40-29 89-44.5T257 99q39 0 60 12t21 35q0 19-15 30t-53 19l-83 19q-73 16-107.5 51T45 358q0 47 27.5 84t76.5 57.5T262 520q54 0 106-16.5t93-46.5l-42-101q-39 27-79.5 41T261 411q-37 0-58-13t-21-36q0-17 12.5-27.5T239 317l85-19q78-18 113-54t35-96q0-72-58-114T255-8Q111-8 28 54zm409 724L306 572h-91L84 778h118l59-118 58 118h118zm-96 160V796H180v142h161z"/><glyph glyph-name="uni1E68" unicode="Ṩ" horiz-adv-x="657" d="M164.5 12.5Q90 34 41 73l50 112q103-72 230-72 68 0 104.5 21.5T462 195q0 34-33.5 53.5T311 286q-94 19-149.5 46.5t-81 67T55 498q0 64 35.5 115t99.5 79.5T338 721q76 0 146-22t112-60l-50-112q-94 72-207 72-60 0-96-24t-36-65q0-24 13.5-40t45.5-28.5 91-24.5q137-30 197.5-78T615 208q0-100-78-158.5T320-9q-81 0-155.5 21.5zM396-68v-133H257v133h139zm15 991V781H250v142h161z"/><glyph glyph-name="uni1E69" unicode="ṩ" horiz-adv-x="503" d="m28 54 40 105q40-29 89-44.5T257 99q39 0 60 12t21 35q0 19-15 30t-53 19l-83 19q-73 16-107.5 51T45 358q0 47 27.5 84t76.5 57.5T262 520q54 0 106-16.5t93-46.5l-42-101q-39 27-79.5 41T261 411q-37 0-58-13t-21-36q0-17 12.5-27.5T239 317l85-19q78-18 113-54t35-96q0-72-58-114T255-8Q111-8 28 54zM321-68v-133H182v133h139zm20 813V603H180v142h161z"/><glyph glyph-name="uni1E6C" unicode="Ṭ" horiz-adv-x="628" d="M235 585H12v127h604V585H393V0H235v585zM383-68v-133H244v133h139z"/><glyph glyph-name="uni1E6D" unicode="ṭ" horiz-adv-x="396" d="M251 394V197q0-42 22-61.5t57-19.5q22 0 50 7V6Q344-8 293-8q-94 0-143.5 53T100 194v200H4v113h96v119l151 49V507h129V394H251zm68-462v-133H180v133h139z"/><glyph glyph-name="uni1E6E" unicode="Ṯ" horiz-adv-x="628" d="M235 585H12v127h604V585H393V0H235v585zM156-91h315v-88H156v88z"/><glyph glyph-name="uni1E6F" unicode="ṯ" horiz-adv-x="396" d="M251 394V197q0-42 22-61.5t57-19.5q22 0 50 7V6Q344-8 293-8q-94 0-143.5 53T100 194v200H4v113h96v119l151 49V507h129V394H251zM92-91h315v-88H92v88z"/><glyph glyph-name="uni1E78" unicode="Ṹ" horiz-adv-x="746" d="M145 68q-78 77-78 226v418h153V287q0-85 39.5-129.5T373 113t113 44.5T525 287v425h154V294q0-148-78.5-225.5T373-9Q223-9 145 68zm82.5 822q30.5 37 78.5 37 19 0 37.5-8t39.5-22q22-12 33.5-17.5T440 874q19 0 30.5 13.5T484 924h64q0-73-30.5-110T439 777q-19 0-37.5 8T362 807q-22 12-33.5 17.5T305 830q-19 0-30.5-13.5T261 780h-64q0 73 30.5 110zm98.5 45 103 157h140L419 935h-93z"/><glyph glyph-name="uni1E79" unicode="ṹ" horiz-adv-x="606" d="M545 507V0H398v74q-24-40-63-61T247-8q-95 0-142 53T58 205v302h151V202q0-92 79-92 47 0 76 32t29 84v281h152zM157.5 713.5Q188 750 236 750q19 0 36.5-7.5T313 721q22-12 33.5-17.5T370 698q19 0 30.5 13t13.5 36h64q0-72-30.5-109T369 601q-19 0-36.5 7.5T292 630q-22 12-33.5 17.5T235 653q-19 0-30.5-13T191 604h-64q0 73 30.5 109.5zM256 765l99 206h148L349 765h-93z"/><glyph glyph-name="uni1E7A" unicode="Ṻ" horiz-adv-x="746" d="M145 68q-78 77-78 226v418h153V287q0-85 39.5-129.5T373 113t113 44.5T525 287v425h154V294q0-148-78.5-225.5T373-9Q223-9 145 68zm70 830h315v-94H215v94zm131 182V948H207v132h139zm192 0V948H399v132h139z"/><glyph glyph-name="uni1E7B" unicode="ṻ" horiz-adv-x="606" d="M545 507V0H398v74q-24-40-63-61T247-8q-95 0-142 53T58 205v302h151V202q0-92 79-92 47 0 76 32t29 84v281h152zM145 720h315v-94H145v94zm131 213V801H137v132h139zm192 0V801H329v132h139z"/><glyph glyph-name="Wgrave" unicode="Ẁ" horiz-adv-x="1126" d="M1107 712 854 0H729L563 471 396 0H271L18 712h159l164-492 172 492h109l168-499 168 499h149zM366 930h140l103-157h-93z"/><glyph glyph-name="wgrave" unicode="ẁ" horiz-adv-x="891" d="M890 507 685 0H558L443 294 333 0H205L0 507h154l122-327 121 327h103l122-330 122 330h146zM244 778h148l99-206h-93z"/><glyph glyph-name="Wacute" unicode="Ẃ" horiz-adv-x="1126" d="M1107 712 854 0H729L563 471 396 0H271L18 712h159l164-492 172 492h109l168-499 168 499h149zm-591 61 103 157h140L609 773h-93z"/><glyph glyph-name="wacute" unicode="ẃ" horiz-adv-x="891" d="M890 507 685 0H558L443 294 333 0H205L0 507h154l122-327 121 327h103l122-330 122 330h146zm-492 65 99 206h148L491 572h-93z"/><glyph glyph-name="Wdieresis" unicode="Ẅ" horiz-adv-x="1126" d="M1107 712 854 0H729L563 471 396 0H271L18 712h159l164-492 172 492h109l168-499 168 499h149zM536 918V786H397v132h139zm192 0V786H589v132h139z"/><glyph glyph-name="wdieresis" unicode="ẅ" horiz-adv-x="891" d="M890 507 685 0H558L443 294 333 0H205L0 507h154l122-327 121 327h103l122-330 122 330h146zM418 740V608H279v132h139zm192 0V608H471v132h139z"/><glyph glyph-name="uni1E8E" unicode="Ẏ" horiz-adv-x="642" d="M399 276V0H243v277L-51 712h177l194-304 196 304h178zm1 647V781H239v142h161z"/><glyph glyph-name="uni1E8F" unicode="ẏ" horiz-adv-x="550" d="M561 507 327-27q-43-97-108.5-142.5T58-228L23-112q70 15 105.5 38T184-7l15 33-209 481h158l130-329 134 329h149zM355 745V603H194v142h161z"/><glyph glyph-name="uni1E92" unicode="Ẓ" horiz-adv-x="615" d="M580 123V0H51v114l343 475H51v123h518V599L223 123h357zM375-68v-133H236v133h139z"/><glyph glyph-name="uni1E93" unicode="ẓ" horiz-adv-x="530" d="M495 113V0H48v106l256 288H52v113h433V405L225 113h270zM332-68v-133H193v133h139z"/><glyph glyph-name="uni1E97" unicode="ẗ" horiz-adv-x="396" d="M251 394V197q0-42 22-61.5t57-19.5q22 0 50 7V6Q344-8 293-8q-94 0-143.5 53T100 194v200H4v113h96v119l151 49V507h129V394H251zM149 862V730H10v132h139zm192 0V730H202v132h139z"/><glyph glyph-name="uni1E9E" unicode="ẞ" horiz-adv-x="717" d="M640 312q39-46 39-113 0-58-29-105t-80.5-73.5T454-6Q395-6 349 8t-85 44l41 110q78-52 139-52 41 0 64 25t23 69q0 50-31.5 72.5T396 299H295v122h82q51 0 77 22t26 64-30.5 66-81.5 24q-70 0-107-38t-37-110V0H71v446q0 130 79 201.5T372 719q77 0 134.5-24.5T595 625t31-105q0-50-25-89t-69-59q69-14 108-60z"/><glyph glyph-name="uni1EA0" unicode="Ạ" horiz-adv-x="759" d="M547 158H214L146 0H-11l327 712h126L769 0H615zm-51 119L381 544 266 277h230zM449-68v-133H310v133h139z"/><glyph glyph-name="uni1EA1" unicode="ạ" horiz-adv-x="630" d="M569 507V0H420v75q-23-39-65-61T260-8q-66 0-116.5 32t-79 91.5T36 253t28.5 139 79.5 94.5T260 520q53 0 95-23t65-62v72h149zM390 145q30 38 30 110t-30 110.5-86 38.5-87-40-31-111 30.5-108.5T304 107q56 0 86 38zm-6-213v-133H245v133h139z"/><glyph glyph-name="uni1EA2" unicode="Ả" horiz-adv-x="759" d="M547 158H214L146 0H-11l327 712h126L769 0H615zm-51 119L381 544 266 277h230zm-80 496h-75v22q0 18 11.5 27t32.5 18l9 4.5 10 6.5 3 6q0 18-34 18-25 0-57-11l-19 52q45 18 95 18 48 0 78-18.5t30-45.5q0-19-13-30.5T451 818q-18-9-26.5-15.5T416 786v-13z"/><glyph glyph-name="uni1EA3" unicode="ả" horiz-adv-x="630" d="M569 507V0H420v75q-23-39-65-61T260-8q-66 0-116.5 32t-79 91.5T36 253t28.5 139 79.5 94.5T260 520q53 0 95-23t65-62v72h149zM390 145q30 38 30 110t-30 110.5-86 38.5-87-40-31-111 30.5-108.5T304 107q56 0 86 38zm-36 427h-76v25q0 21 10 35t27 28q11 9 16.5 16t5.5 15q0 23-34 23-24 0-50-9l-20 57q42 19 86 19 55 0 86-22t31-54q0-24-12.5-39T388 635q-17-12-25.5-21.5T354 592v-20z"/><glyph glyph-name="uni1EA4" unicode="Ấ" horiz-adv-x="759" d="M547 158H214L146 0H-11l327 712h126L769 0H615zm-51 119L381 544 266 277h230zm-23 604 73 142h125L547 881h-74zM202 773l133 140h87l133-140H443l-64 71-65-71H202z"/><glyph glyph-name="uni1EA5" unicode="ấ" horiz-adv-x="630" d="M569 507V0H420v75q-23-39-65-61T260-8q-66 0-116.5 32t-79 91.5T36 253t28.5 139 79.5 94.5T260 520q53 0 95-23t65-62v72h149zM390 145q30 38 30 110t-30 110.5-86 38.5-87-40-31-111 30.5-108.5T304 107q56 0 86 38zm19 534 73 142h125L483 679h-74zM138 572l133 139h87l133-139H379l-64 71-65-71H138z"/><glyph glyph-name="uni1EA6" unicode="Ầ" horiz-adv-x="759" d="M547 158H214L146 0H-11l327 712h126L769 0H615zm-51 119L381 544 266 277h230zm-103 746h126l71-142h-74zM202 773l133 140h87l133-140H443l-64 71-65-71H202z"/><glyph glyph-name="uni1EA7" unicode="ầ" horiz-adv-x="630" d="M569 507V0H420v75q-23-39-65-61T260-8q-66 0-116.5 32t-79 91.5T36 253t28.5 139 79.5 94.5T260 520q53 0 95-23t65-62v72h149zM390 145q30 38 30 110t-30 110.5-86 38.5-87-40-31-111 30.5-108.5T304 107q56 0 86 38zm-61 676h126l71-142h-74zM138 572l133 139h87l133-139H379l-64 71-65-71H138z"/><glyph glyph-name="uni1EA8" unicode="Ẩ" horiz-adv-x="759" d="M547 158H214L146 0H-11l327 712h126L769 0H615zm-51 119L381 544 266 277h230zm51 605h-75v19q0 19 13 28.5t35 17.5q18 5 18 10 0 14-32 14-27 0-59-11l-19 51q45 18 96 18 49 0 78-17t29-44q0-19-12.5-29T582 920q-18-8-26.5-14t-8.5-16v-8zM202 773l133 140h87l133-140H443l-64 71-65-71H202z"/><glyph glyph-name="uni1EA9" unicode="ẩ" horiz-adv-x="630" d="M569 507V0H420v75q-23-39-65-61T260-8q-66 0-116.5 32t-79 91.5T36 253t28.5 139 79.5 94.5T260 520q53 0 95-23t65-62v72h149zM390 145q30 38 30 110t-30 110.5-86 38.5-87-40-31-111 30.5-108.5T304 107q56 0 86 38zm93 535h-75v20q0 18 13 27.5t35 17.5q7 3 12.5 5.5t5.5 5.5q0 5-8 9.5t-24 4.5q-25 0-59-12l-19 51q45 18 96 18 49 0 78-17t29-44q0-19-12.5-29T518 718q-18-8-26.5-14t-8.5-16v-8zM138 572l133 139h87l133-139H379l-64 71-65-71H138z"/><glyph glyph-name="uni1EAA" unicode="Ẫ" horiz-adv-x="759" d="M547 158H214L146 0H-11l327 712h126L769 0H615zm-51 119L381 544 266 277h230zm-261 728.5q32 30.5 77 30.5 18 0 34-4.5t43-13.5q15-6 30-10.5t27-4.5q40 0 44 30h64q0-44-32-74.5T445 928q-19 0-36.5 5T368 947q-15 6-30 10.5t-27 4.5q-40 0-44-32h-64q0 45 32 75.5zM202 773l133 140h87l133-140H443l-64 71-65-71H202z"/><glyph glyph-name="uni1EAB" unicode="ẫ" horiz-adv-x="630" d="M569 507V0H420v75q-23-39-65-61T260-8q-66 0-116.5 32t-79 91.5T36 253t28.5 139 79.5 94.5T260 520q53 0 95-23t65-62v72h149zM390 145q30 38 30 110t-30 110.5-86 38.5-87-40-31-111 30.5-108.5T304 107q56 0 86 38zM171 804.5q32 30.5 77 30.5 18 0 34-4.5t43-13.5q15-6 30-10.5t27-4.5q40 0 44 30h64q0-45-32-75t-77-30q-31 0-77 18-4 1-22.5 7.5T247 759q-40 0-44-30h-64q0 45 32 75.5zM138 572l133 139h87l133-139H379l-64 71-65-71H138z"/><glyph glyph-name="uni1EAC" unicode="Ậ" horiz-adv-x="759" d="M547 158H214L146 0H-11l327 712h126L769 0H615zm-51 119L381 544 266 277h230zM449-68v-133H310v133h139zM202 773l133 157h87l133-157H441l-62 86-63-86H202z"/><glyph glyph-name="uni1EAD" unicode="ậ" horiz-adv-x="630" d="M569 507V0H420v75q-23-39-65-61T260-8q-66 0-116.5 32t-79 91.5T36 253t28.5 139 79.5 94.5T260 520q53 0 95-23t65-62v72h149zM390 145q30 38 30 110t-30 110.5-86 38.5-87-40-31-111 30.5-108.5T304 107q56 0 86 38zm-6-213v-133H245v133h139zM138 572l131 206h91l131-206H373l-58 117-59-117H138z"/><glyph glyph-name="uni1EAE" unicode="Ắ" horiz-adv-x="759" d="M547 158H214L146 0H-11l327 712h126L769 0H615zm-51 119L381 544 266 277h230zM334 881l101 142h131L423 881h-89zm-68-85q-47 28-67 82l55 23q17-27 51.5-42t73.5-15q38 0 73 15t51 42l55-23q-20-54-67-82t-112-28q-66 0-113 28z"/><glyph glyph-name="uni1EAF" unicode="ắ" horiz-adv-x="630" d="M569 507V0H420v75q-23-39-65-61T260-8q-66 0-116.5 32t-79 91.5T36 253t28.5 139 79.5 94.5T260 520q53 0 95-23t65-62v72h149zM390 145q30 38 30 110t-30 110.5-86 38.5-87-40-31-111 30.5-108.5T304 107q56 0 86 38zM270 679l101 142h131L359 679h-89zm-68-84.5Q155 622 135 676l55 23q16-27 51-41.5t74-14.5q38 0 73 14.5t51 41.5l55-23q-20-54-67-81.5T315 567q-66 0-113 27.5z"/><glyph glyph-name="uni1EB0" unicode="Ằ" horiz-adv-x="759" d="M547 158H214L146 0H-11l327 712h126L769 0H615zm-51 119L381 544 266 277h230zm-305 746h131l101-142h-89zm75-227q-47 28-67 82l55 23q17-27 51.5-42t73.5-15q38 0 73 15t51 42l55-23q-20-54-67-82t-112-28q-66 0-113 28z"/><glyph glyph-name="uni1EB1" unicode="ằ" horiz-adv-x="630" d="M569 507V0H420v75q-23-39-65-61T260-8q-66 0-116.5 32t-79 91.5T36 253t28.5 139 79.5 94.5T260 520q53 0 95-23t65-62v72h149zM390 145q30 38 30 110t-30 110.5-86 38.5-87-40-31-111 30.5-108.5T304 107q56 0 86 38zM127 821h131l101-142h-89zm75-226.5Q155 622 135 676l55 23q16-27 51-41.5t74-14.5q38 0 73 14.5t51 41.5l55-23q-20-54-67-81.5T315 567q-66 0-113 27.5z"/><glyph glyph-name="uni1EB2" unicode="Ẳ" horiz-adv-x="759" d="M547 158H214L146 0H-11l327 712h126L769 0H615zm-51 119L381 544 266 277h230zm-80 605h-75v19q0 19 13 28.5t35 17.5q18 5 18 10 0 14-34 14-25 0-57-11l-19 51q45 18 95 18 49 0 78.5-17t29.5-44q0-19-12.5-29T451 920q-18-8-26.5-14t-8.5-16v-8zm-150-86q-47 28-67 82l55 23q17-27 51.5-42t73.5-15q38 0 73 15t51 42l55-23q-20-54-67-82t-112-28q-66 0-113 28z"/><glyph glyph-name="uni1EB3" unicode="ẳ" horiz-adv-x="630" d="M569 507V0H420v75q-23-39-65-61T260-8q-66 0-116.5 32t-79 91.5T36 253t28.5 139 79.5 94.5T260 520q53 0 95-23t65-62v72h149zM390 145q30 38 30 110t-30 110.5-86 38.5-87-40-31-111 30.5-108.5T304 107q56 0 86 38zm-38 535h-75v20q0 18 13 27.5t35 17.5q7 3 12.5 5.5t5.5 5.5q0 5-8 9.5t-26 4.5q-23 0-57-12l-19 51q45 18 95 18 49 0 78.5-17t29.5-44q0-19-12.5-29T387 718q-18-8-26.5-14t-8.5-16v-8zm-150-85.5Q155 622 135 676l55 23q16-27 51-41.5t74-14.5q38 0 73 14.5t51 41.5l55-23q-20-54-67-81.5T315 567q-66 0-113 27.5z"/><glyph glyph-name="uni1EB4" unicode="Ẵ" horiz-adv-x="759" d="M547 158H214L146 0H-11l327 712h126L769 0H615zm-51 119L381 544 266 277h230zM235 997.5q32 30.5 77 30.5 19 0 36.5-5t40.5-14q15-6 30-10.5t27-4.5q40 0 44 31h64q0-45-32-75.5T445 919q-19 0-36.5 5T368 938q-15 6-30 10.5t-27 4.5q-40 0-44-31h-64q0 45 32 75.5zM266 796q-47 28-67 82l55 23q17-27 51.5-42t73.5-15q38 0 73 15t51 42l55-23q-20-54-67-82t-112-28q-66 0-113 28z"/><glyph glyph-name="uni1EB5" unicode="ẵ" horiz-adv-x="630" d="M569 507V0H420v75q-23-39-65-61T260-8q-66 0-116.5 32t-79 91.5T36 253t28.5 139 79.5 94.5T260 520q53 0 95-23t65-62v72h149zM390 145q30 38 30 110t-30 110.5-86 38.5-87-40-31-111 30.5-108.5T304 107q56 0 86 38zM171 796.5q32 30.5 77 30.5 19 0 36.5-5t40.5-14q15-6 30-10.5t27-4.5q40 0 44 31h64q0-45-32-75.5T381 718q-18 0-34 4.5T304 736q-15 6-30 10.5t-27 4.5q-40 0-44-30h-64q0 45 32 75.5zm31-202Q155 622 135 676l55 23q16-27 51-41.5t74-14.5q38 0 73 14.5t51 41.5l55-23q-20-54-67-81.5T315 567q-66 0-113 27.5z"/><glyph glyph-name="uni1EB6" unicode="Ặ" horiz-adv-x="759" d="M547 158H214L146 0H-11l327 712h126L769 0H615zm-51 119L381 544 266 277h230zM449-68v-133H310v133h139zM266 810q-47 28-67 82l70 29q32-49 110-49 77 0 109 49l70-29q-20-54-67-82t-112-28q-66 0-113 28z"/><glyph glyph-name="uni1EB7" unicode="ặ" horiz-adv-x="630" d="M569 507V0H420v75q-23-39-65-61T260-8q-66 0-116.5 32t-79 91.5T36 253t28.5 139 79.5 94.5T260 520q53 0 95-23t65-62v72h149zM390 145q30 38 30 110t-30 110.5-86 38.5-87-40-31-111 30.5-108.5T304 107q56 0 86 38zm-6-213v-133H245v133h139zM197 631q-52 37-69 109l69 30q44-81 118-81 73 0 117 81l69-30q-17-71-68.5-108.5T315 594t-118 37z"/><glyph glyph-name="uni1EB8" unicode="Ẹ" horiz-adv-x="599" d="M71 712h491V591H223V423h318V301H223V121h339V0H71v712zM402-68v-133H263v133h139z"/><glyph glyph-name="uni1EB9" unicode="ẹ" horiz-adv-x="550" d="M516 241H182q4-71 37-103.5t98-32.5q39 0 78 13t72 38l40-102q-36-29-89.5-45.5T310-8Q182-8 109 62.5T36 255q0 77 31.5 137.5t88.5 94T285 520q107 0 169-69.5T516 263v-22zM219.5 389Q193 364 185 316h201q-12 98-97 98-43 0-69.5-25zM375-68v-133H236v133h139z"/><glyph glyph-name="uni1EBA" unicode="Ẻ" horiz-adv-x="599" d="M71 712h491V591H223V423h318V301H223V121h339V0H71v712zm299 61h-75v22q0 18 11.5 27t32.5 18l9 4.5 10 6.5 3 6q0 18-34 18-25 0-57-11l-19 52q45 18 95 18 48 0 78-18.5t30-45.5q0-19-13-30.5T405 818q-18-9-26.5-15.5T370 786v-13z"/><glyph glyph-name="uni1EBB" unicode="ẻ" horiz-adv-x="550" d="M516 241H182q4-71 37-103.5t98-32.5q39 0 78 13t72 38l40-102q-36-29-89.5-45.5T310-8Q182-8 109 62.5T36 255q0 77 31.5 137.5t88.5 94T285 520q107 0 169-69.5T516 263v-22zM219.5 389Q193 364 185 316h201q-12 98-97 98-43 0-69.5-25zM324 572h-76v25q0 21 10 35t27 28q11 9 16.5 16t5.5 15q0 23-34 23-24 0-50-9l-20 57q42 19 86 19 55 0 86-22t31-54q0-24-12.5-39T358 635q-17-12-25.5-21.5T324 592v-20z"/><glyph glyph-name="uni1EBC" unicode="Ẽ" horiz-adv-x="599" d="M71 712h491V591H223V423h318V301H223V121h339V0H71v712zm116.5 178q30.5 37 78.5 37 19 0 37.5-8t39.5-22q22-12 33.5-17.5T400 874q19 0 30.5 13.5T444 924h64q0-73-30.5-110T399 777q-19 0-37.5 8T322 807q-22 12-33.5 17.5T265 830q-19 0-30.5-13.5T221 780h-64q0 73 30.5 110z"/><glyph glyph-name="uni1EBD" unicode="ẽ" horiz-adv-x="550" d="M516 241H182q4-71 37-103.5t98-32.5q39 0 78 13t72 38l40-102q-36-29-89.5-45.5T310-8Q182-8 109 62.5T36 255q0 77 31.5 137.5t88.5 94T285 520q107 0 169-69.5T516 263v-22zM219.5 389Q193 364 185 316h201q-12 98-97 98-43 0-69.5-25zm-80 324.5Q170 750 218 750q19 0 36.5-7.5T295 721q22-12 33.5-17.5T352 698q19 0 30.5 13t13.5 36h64q0-72-30.5-109T351 601q-19 0-36.5 7.5T274 630q-22 12-33.5 17.5T217 653q-19 0-30.5-13T173 604h-64q0 73 30.5 109.5z"/><glyph glyph-name="uni1EBE" unicode="Ế" horiz-adv-x="599" d="M71 712h491V591H223V423h318V301H223V121h339V0H71v712zm356 169 73 142h125L501 881h-74zM156 773l133 140h87l133-140H397l-64 71-65-71H156z"/><glyph glyph-name="uni1EBF" unicode="ế" horiz-adv-x="550" d="M516 241H182q4-71 37-103.5t98-32.5q39 0 78 13t72 38l40-102q-36-29-89.5-45.5T310-8Q182-8 109 62.5T36 255q0 77 31.5 137.5t88.5 94T285 520q107 0 169-69.5T516 263v-22zM219.5 389Q193 364 185 316h201q-12 98-97 98-43 0-69.5-25zM379 679l73 142h125L453 679h-74zM108 572l133 139h87l133-139H349l-64 71-65-71H108z"/><glyph glyph-name="uni1EC0" unicode="Ề" horiz-adv-x="599" d="M71 712h491V591H223V423h318V301H223V121h339V0H71v712zm276 311h126l71-142h-74zM156 773l133 140h87l133-140H397l-64 71-65-71H156z"/><glyph glyph-name="uni1EC1" unicode="ề" horiz-adv-x="550" d="M516 241H182q4-71 37-103.5t98-32.5q39 0 78 13t72 38l40-102q-36-29-89.5-45.5T310-8Q182-8 109 62.5T36 255q0 77 31.5 137.5t88.5 94T285 520q107 0 169-69.5T516 263v-22zM219.5 389Q193 364 185 316h201q-12 98-97 98-43 0-69.5-25zM299 821h126l71-142h-74zM108 572l133 139h87l133-139H349l-64 71-65-71H108z"/><glyph glyph-name="uni1EC2" unicode="Ể" horiz-adv-x="599" d="M71 712h491V591H223V423h318V301H223V121h339V0H71v712zm430 170h-75v19q0 19 13 28.5t35 17.5q18 5 18 10 0 14-32 14-27 0-59-11l-19 51q45 18 96 18 49 0 78-17t29-44q0-19-12.5-29T536 920q-18-8-26.5-14t-8.5-16v-8zM156 773l133 140h87l133-140H397l-64 71-65-71H156z"/><glyph glyph-name="uni1EC3" unicode="ể" horiz-adv-x="550" d="M516 241H182q4-71 37-103.5t98-32.5q39 0 78 13t72 38l40-102q-36-29-89.5-45.5T310-8Q182-8 109 62.5T36 255q0 77 31.5 137.5t88.5 94T285 520q107 0 169-69.5T516 263v-22zM219.5 389Q193 364 185 316h201q-12 98-97 98-43 0-69.5-25zM453 680h-75v20q0 18 13 27.5t35 17.5q7 3 12.5 5.5t5.5 5.5q0 5-8 9.5t-24 4.5q-25 0-59-12l-19 51q45 18 96 18 49 0 78-17t29-44q0-19-12.5-29T488 718q-18-8-26.5-14t-8.5-16v-8zM108 572l133 139h87l133-139H349l-64 71-65-71H108z"/><glyph glyph-name="uni1EC4" unicode="Ễ" horiz-adv-x="599" d="M71 712h491V591H223V423h318V301H223V121h339V0H71v712zm118 293.5q32 30.5 77 30.5 18 0 34-4.5t43-13.5q15-6 30-10.5t27-4.5q40 0 44 30h64q0-44-32-74.5T399 928q-19 0-36.5 5T322 947q-15 6-30 10.5t-27 4.5q-40 0-44-32h-64q0 45 32 75.5zM156 773l133 140h87l133-140H397l-64 71-65-71H156z"/><glyph glyph-name="uni1EC5" unicode="ễ" horiz-adv-x="550" d="M516 241H182q4-71 37-103.5t98-32.5q39 0 78 13t72 38l40-102q-36-29-89.5-45.5T310-8Q182-8 109 62.5T36 255q0 77 31.5 137.5t88.5 94T285 520q107 0 169-69.5T516 263v-22zM219.5 389Q193 364 185 316h201q-12 98-97 98-43 0-69.5-25zM141 804.5q32 30.5 77 30.5 18 0 34-4.5t43-13.5q15-6 30-10.5t27-4.5q40 0 44 30h64q0-45-32-75t-77-30q-31 0-77 18-4 1-22.5 7.5T217 759q-40 0-44-30h-64q0 45 32 75.5zM108 572l133 139h87l133-139H349l-64 71-65-71H108z"/><glyph glyph-name="uni1EC6" unicode="Ệ" horiz-adv-x="599" d="M71 712h491V591H223V423h318V301H223V121h339V0H71v712zM402-68v-133H263v133h139zM156 773l133 157h87l133-157H395l-62 86-63-86H156z"/><glyph glyph-name="uni1EC7" unicode="ệ" horiz-adv-x="550" d="M516 241H182q4-71 37-103.5t98-32.5q39 0 78 13t72 38l40-102q-36-29-89.5-45.5T310-8Q182-8 109 62.5T36 255q0 77 31.5 137.5t88.5 94T285 520q107 0 169-69.5T516 263v-22zM219.5 389Q193 364 185 316h201q-12 98-97 98-43 0-69.5-25zM375-68v-133H236v133h139zM108 572l131 206h91l131-206H343l-58 117-59-117H108z"/><glyph glyph-name="uni1EC8" unicode="Ỉ" horiz-adv-x="299" d="M71 712h156V0H71v712zm114 61h-75v22q0 18 11.5 27t32.5 18l9 4.5 10 6.5 3 6q0 18-34 18-25 0-57-11l-19 52q45 18 95 18 48 0 78-18.5t30-45.5q0-19-13-30.5T220 818q-18-9-26.5-15.5T185 786v-13z"/><glyph glyph-name="uni1EC9" unicode="ỉ" horiz-adv-x="274" d="M61 507h151V0H61v507zm115 65h-76v25q0 21 10 35t27 28q11 9 16.5 16t5.5 15q0 23-34 23-24 0-50-9l-20 57q42 19 86 19 55 0 86-22t31-54q0-24-12.5-39T210 635q-17-12-25.5-21.5T176 592v-20z"/><glyph glyph-name="uni1ECA" unicode="Ị" horiz-adv-x="299" d="M71 712h156V0H71v712zM217-68v-133H78v133h139z"/><glyph glyph-name="uni1ECB" unicode="ị" horiz-adv-x="274" d="M61 507h151V0H61v507zm156 238V603H56v142h161zM205-68v-133H66v133h139z"/><glyph glyph-name="uni1ECC" unicode="Ọ" horiz-adv-x="795" d="M213.5 35.5Q135 80 92.5 163T50 357t42.5 193 121 126.5T398 721t184-44.5T702 550t42-193-42-194T582 35.5 398-9 213.5 35.5zm325 140.5Q589 239 589 357t-50.5 180T398 599t-140.5-62T207 357q0-119 50.5-181.5T398 113t140.5 63zM467-68v-133H328v133h139z"/><glyph glyph-name="uni1ECD" unicode="ọ" horiz-adv-x="604" d="M161.5 24q-60.5 32-93 92T36 256t32.5 140 93 92T303 520q80 0 140-32t92.5-92T568 256t-32.5-140T443 24 303-8q-81 0-141.5 32zm227 120Q418 181 418 256q0 74-29.5 111.5T303 405q-57 0-87-37.5T186 256q0-149 117-149 56 0 85.5 37zM372-68v-133H233v133h139z"/><glyph glyph-name="uni1ECE" unicode="Ỏ" horiz-adv-x="795" d="M213.5 35.5Q135 80 92.5 163T50 357t42.5 193 121 126.5T398 721t184-44.5T702 550t42-193-42-194T582 35.5 398-9 213.5 35.5zm325 140.5Q589 239 589 357t-50.5 180T398 599t-140.5-62T207 357q0-119 50.5-181.5T398 113t140.5 63zM434 773h-75v22q0 18 11.5 27t32.5 18l9 4.5 10 6.5 3 6q0 18-34 18-25 0-57-11l-19 52q45 18 95 18 48 0 78-18.5t30-45.5q0-19-13-30.5T469 818q-18-9-26.5-15.5T434 786v-13z"/><glyph glyph-name="uni1ECF" unicode="ỏ" horiz-adv-x="604" d="M161.5 24q-60.5 32-93 92T36 256t32.5 140 93 92T303 520q80 0 140-32t92.5-92T568 256t-32.5-140T443 24 303-8q-81 0-141.5 32zm227 120Q418 181 418 256q0 74-29.5 111.5T303 405q-57 0-87-37.5T186 256q0-149 117-149 56 0 85.5 37zM342 572h-76v25q0 21 10 35t27 28q11 9 16.5 16t5.5 15q0 23-34 23-24 0-50-9l-20 57q42 19 86 19 55 0 86-22t31-54q0-24-12.5-39T376 635q-17-12-25.5-21.5T342 592v-20z"/><glyph glyph-name="uni1ED0" unicode="Ố" horiz-adv-x="795" d="M213.5 35.5Q135 80 92.5 163T50 357t42.5 193 121 126.5T398 721t184-44.5T702 550t42-193-42-194T582 35.5 398-9 213.5 35.5zm325 140.5Q589 239 589 357t-50.5 180T398 599t-140.5-62T207 357q0-119 50.5-181.5T398 113t140.5 63zM491 881l73 142h125L565 881h-74zM220 773l133 140h87l133-140H461l-64 71-65-71H220z"/><glyph glyph-name="uni1ED1" unicode="ố" horiz-adv-x="604" d="M161.5 24q-60.5 32-93 92T36 256t32.5 140 93 92T303 520q80 0 140-32t92.5-92T568 256t-32.5-140T443 24 303-8q-81 0-141.5 32zm227 120Q418 181 418 256q0 74-29.5 111.5T303 405q-57 0-87-37.5T186 256q0-149 117-149 56 0 85.5 37zm8.5 535 73 142h125L471 679h-74zM126 572l133 139h87l133-139H367l-64 71-65-71H126z"/><glyph glyph-name="uni1ED2" unicode="Ồ" horiz-adv-x="795" d="M213.5 35.5Q135 80 92.5 163T50 357t42.5 193 121 126.5T398 721t184-44.5T702 550t42-193-42-194T582 35.5 398-9 213.5 35.5zm325 140.5Q589 239 589 357t-50.5 180T398 599t-140.5-62T207 357q0-119 50.5-181.5T398 113t140.5 63zM411 1023h126l71-142h-74zM220 773l133 140h87l133-140H461l-64 71-65-71H220z"/><glyph glyph-name="uni1ED3" unicode="ồ" horiz-adv-x="604" d="M161.5 24q-60.5 32-93 92T36 256t32.5 140 93 92T303 520q80 0 140-32t92.5-92T568 256t-32.5-140T443 24 303-8q-81 0-141.5 32zm227 120Q418 181 418 256q0 74-29.5 111.5T303 405q-57 0-87-37.5T186 256q0-149 117-149 56 0 85.5 37zM317 821h126l71-142h-74zM126 572l133 139h87l133-139H367l-64 71-65-71H126z"/><glyph glyph-name="uni1ED4" unicode="Ổ" horiz-adv-x="795" d="M213.5 35.5Q135 80 92.5 163T50 357t42.5 193 121 126.5T398 721t184-44.5T702 550t42-193-42-194T582 35.5 398-9 213.5 35.5zm325 140.5Q589 239 589 357t-50.5 180T398 599t-140.5-62T207 357q0-119 50.5-181.5T398 113t140.5 63zM565 882h-75v19q0 19 13 28.5t35 17.5q18 5 18 10 0 14-32 14-27 0-59-11l-19 51q45 18 96 18 49 0 78-17t29-44q0-19-12.5-29T600 920q-18-8-26.5-14t-8.5-16v-8zM220 773l133 140h87l133-140H461l-64 71-65-71H220z"/><glyph glyph-name="uni1ED5" unicode="ổ" horiz-adv-x="604" d="M161.5 24q-60.5 32-93 92T36 256t32.5 140 93 92T303 520q80 0 140-32t92.5-92T568 256t-32.5-140T443 24 303-8q-81 0-141.5 32zm227 120Q418 181 418 256q0 74-29.5 111.5T303 405q-57 0-87-37.5T186 256q0-149 117-149 56 0 85.5 37zM471 680h-75v20q0 18 13 27.5t35 17.5q7 3 12.5 5.5t5.5 5.5q0 5-8 9.5t-24 4.5q-25 0-59-12l-19 51q45 18 96 18 49 0 78-17t29-44q0-19-12.5-29T506 718q-18-8-26.5-14t-8.5-16v-8zM126 572l133 139h87l133-139H367l-64 71-65-71H126z"/><glyph glyph-name="uni1ED6" unicode="Ỗ" horiz-adv-x="795" d="M213.5 35.5Q135 80 92.5 163T50 357t42.5 193 121 126.5T398 721t184-44.5T702 550t42-193-42-194T582 35.5 398-9 213.5 35.5zm325 140.5Q589 239 589 357t-50.5 180T398 599t-140.5-62T207 357q0-119 50.5-181.5T398 113t140.5 63zM253 1005.5q32 30.5 77 30.5 18 0 34-4.5t43-13.5q15-6 30-10.5t27-4.5q40 0 44 30h64q0-44-32-74.5T463 928q-19 0-36.5 5T386 947q-15 6-30 10.5t-27 4.5q-40 0-44-32h-64q0 45 32 75.5zM220 773l133 140h87l133-140H461l-64 71-65-71H220z"/><glyph glyph-name="uni1ED7" unicode="ỗ" horiz-adv-x="604" d="M161.5 24q-60.5 32-93 92T36 256t32.5 140 93 92T303 520q80 0 140-32t92.5-92T568 256t-32.5-140T443 24 303-8q-81 0-141.5 32zm227 120Q418 181 418 256q0 74-29.5 111.5T303 405q-57 0-87-37.5T186 256q0-149 117-149 56 0 85.5 37zM159 804.5q32 30.5 77 30.5 18 0 34-4.5t43-13.5q15-6 30-10.5t27-4.5q40 0 44 30h64q0-45-32-75t-77-30q-31 0-77 18-4 1-22.5 7.5T235 759q-40 0-44-30h-64q0 45 32 75.5zM126 572l133 139h87l133-139H367l-64 71-65-71H126z"/><glyph glyph-name="uni1ED8" unicode="Ộ" horiz-adv-x="795" d="M213.5 35.5Q135 80 92.5 163T50 357t42.5 193 121 126.5T398 721t184-44.5T702 550t42-193-42-194T582 35.5 398-9 213.5 35.5zm325 140.5Q589 239 589 357t-50.5 180T398 599t-140.5-62T207 357q0-119 50.5-181.5T398 113t140.5 63zM467-68v-133H328v133h139zM220 773l133 157h87l133-157H459l-62 86-63-86H220z"/><glyph glyph-name="uni1ED9" unicode="ộ" horiz-adv-x="604" d="M161.5 24q-60.5 32-93 92T36 256t32.5 140 93 92T303 520q80 0 140-32t92.5-92T568 256t-32.5-140T443 24 303-8q-81 0-141.5 32zm227 120Q418 181 418 256q0 74-29.5 111.5T303 405q-57 0-87-37.5T186 256q0-149 117-149 56 0 85.5 37zM372-68v-133H233v133h139zM126 572l131 206h91l131-206H361l-58 117-59-117H126z"/><glyph glyph-name="uni1EDA" unicode="Ớ" horiz-adv-x="795" d="M712.5 695.5Q681 654 629 642q57-47 86-119.5T744 357q0-111-42-194T582 35.5 398-9 213.5 35.5 92.5 163 50 357t42.5 193T214 676.5 400 721q32 0 65-5 40-4 60-4 49 0 69 23t20 80v19h130v-38q0-59-31.5-100.5zM538.5 176Q589 239 589 357t-50.5 180T398 599t-140.5-62T207 357q0-119 50.5-181.5T398 113t140.5 63zM350 773l103 157h140L443 773h-93z"/><glyph glyph-name="uni1EDB" unicode="ớ" horiz-adv-x="604" d="M566 504q-26-40-71-57 36-34 54.5-83.5T568 255q0-80-32.5-139.5T443 24 303-8q-81 0-141.5 32t-93 91.5T36 255q0 81 32.5 140.5t92.5 92T300 520q24 0 60-6 17-3 25-3 36 0 57 22.5t21 82.5v20h129v-38q0-54-26-94zM388.5 144Q418 181 418 256q0 74-29.5 111.5T303 405q-57 0-87-37.5T186 256q0-149 117-149 56 0 85.5 37zM256 572l99 206h148L349 572h-93z"/><glyph glyph-name="uni1EDC" unicode="Ờ" horiz-adv-x="795" d="M712.5 695.5Q681 654 629 642q57-47 86-119.5T744 357q0-111-42-194T582 35.5 398-9 213.5 35.5 92.5 163 50 357t42.5 193T214 676.5 400 721q32 0 65-5 40-4 60-4 49 0 69 23t20 80v19h130v-38q0-59-31.5-100.5zM538.5 176Q589 239 589 357t-50.5 180T398 599t-140.5-62T207 357q0-119 50.5-181.5T398 113t140.5 63zM200 930h140l103-157h-93z"/><glyph glyph-name="uni1EDD" unicode="ờ" horiz-adv-x="604" d="M566 504q-26-40-71-57 36-34 54.5-83.5T568 255q0-80-32.5-139.5T443 24 303-8q-81 0-141.5 32t-93 91.5T36 255q0 81 32.5 140.5t92.5 92T300 520q24 0 60-6 17-3 25-3 36 0 57 22.5t21 82.5v20h129v-38q0-54-26-94zM388.5 144Q418 181 418 256q0 74-29.5 111.5T303 405q-57 0-87-37.5T186 256q0-149 117-149 56 0 85.5 37zM102 778h148l99-206h-93z"/><glyph glyph-name="uni1EDE" unicode="Ở" horiz-adv-x="795" d="M712.5 695.5Q681 654 629 642q57-47 86-119.5T744 357q0-111-42-194T582 35.5 398-9 213.5 35.5 92.5 163 50 357t42.5 193T214 676.5 400 721q32 0 65-5 40-4 60-4 49 0 69 23t20 80v19h130v-38q0-59-31.5-100.5zM538.5 176Q589 239 589 357t-50.5 180T398 599t-140.5-62T207 357q0-119 50.5-181.5T398 113t140.5 63zM434 773h-75v22q0 18 11.5 27t32.5 18l9 4.5 10 6.5 3 6q0 18-34 18-25 0-57-11l-19 52q45 18 95 18 48 0 78-18.5t30-45.5q0-19-13-30.5T469 818q-18-9-26.5-15.5T434 786v-13z"/><glyph glyph-name="uni1EDF" unicode="ở" horiz-adv-x="604" d="M566 504q-26-40-71-57 36-34 54.5-83.5T568 255q0-80-32.5-139.5T443 24 303-8q-81 0-141.5 32t-93 91.5T36 255q0 81 32.5 140.5t92.5 92T300 520q24 0 60-6 17-3 25-3 36 0 57 22.5t21 82.5v20h129v-38q0-54-26-94zM388.5 144Q418 181 418 256q0 74-29.5 111.5T303 405q-57 0-87-37.5T186 256q0-149 117-149 56 0 85.5 37zM342 572h-76v25q0 21 10 35t27 28q11 9 16.5 16t5.5 15q0 23-34 23-24 0-50-9l-20 57q42 19 86 19 55 0 86-22t31-54q0-24-12.5-39T376 635q-17-12-25.5-21.5T342 592v-20z"/><glyph glyph-name="uni1EE0" unicode="Ỡ" horiz-adv-x="795" d="M712.5 695.5Q681 654 629 642q57-47 86-119.5T744 357q0-111-42-194T582 35.5 398-9 213.5 35.5 92.5 163 50 357t42.5 193T214 676.5 400 721q32 0 65-5 40-4 60-4 49 0 69 23t20 80v19h130v-38q0-59-31.5-100.5zM538.5 176Q589 239 589 357t-50.5 180T398 599t-140.5-62T207 357q0-119 50.5-181.5T398 113t140.5 63zm-287 714q30.5 37 78.5 37 19 0 37.5-8t39.5-22q22-12 33.5-17.5T464 874q19 0 30.5 13.5T508 924h64q0-73-30.5-110T463 777q-19 0-37.5 8T386 807q-22 12-33.5 17.5T329 830q-19 0-30.5-13.5T285 780h-64q0 73 30.5 110z"/><glyph glyph-name="uni1EE1" unicode="ỡ" horiz-adv-x="604" d="M566 504q-26-40-71-57 36-34 54.5-83.5T568 255q0-80-32.5-139.5T443 24 303-8q-81 0-141.5 32t-93 91.5T36 255q0 81 32.5 140.5t92.5 92T300 520q24 0 60-6 17-3 25-3 36 0 57 22.5t21 82.5v20h129v-38q0-54-26-94zM388.5 144Q418 181 418 256q0 74-29.5 111.5T303 405q-57 0-87-37.5T186 256q0-149 117-149 56 0 85.5 37zm-231 569.5Q188 750 236 750q19 0 36.5-7.5T313 721q22-12 33.5-17.5T370 698q19 0 30.5 13t13.5 36h64q0-72-30.5-109T369 601q-19 0-36.5 7.5T292 630q-22 12-33.5 17.5T235 653q-19 0-30.5-13T191 604h-64q0 73 30.5 109.5z"/><glyph glyph-name="uni1EE2" unicode="Ợ" horiz-adv-x="795" d="M712.5 695.5Q681 654 629 642q57-47 86-119.5T744 357q0-111-42-194T582 35.5 398-9 213.5 35.5 92.5 163 50 357t42.5 193T214 676.5 400 721q32 0 65-5 40-4 60-4 49 0 69 23t20 80v19h130v-38q0-59-31.5-100.5zM538.5 176Q589 239 589 357t-50.5 180T398 599t-140.5-62T207 357q0-119 50.5-181.5T398 113t140.5 63zM467-68v-133H328v133h139z"/><glyph glyph-name="uni1EE3" unicode="ợ" horiz-adv-x="604" d="M566 504q-26-40-71-57 36-34 54.5-83.5T568 255q0-80-32.5-139.5T443 24 303-8q-81 0-141.5 32t-93 91.5T36 255q0 81 32.5 140.5t92.5 92T300 520q24 0 60-6 17-3 25-3 36 0 57 22.5t21 82.5v20h129v-38q0-54-26-94zM388.5 144Q418 181 418 256q0 74-29.5 111.5T303 405q-57 0-87-37.5T186 256q0-149 117-149 56 0 85.5 37zM372-68v-133H233v133h139z"/><glyph glyph-name="uni1EE4" unicode="Ụ" horiz-adv-x="746" d="M145 68q-78 77-78 226v418h153V287q0-85 39.5-129.5T373 113t113 44.5T525 287v425h154V294q0-148-78.5-225.5T373-9Q223-9 145 68zM442-68v-133H303v133h139z"/><glyph glyph-name="uni1EE5" unicode="ụ" horiz-adv-x="606" d="M545 507V0H398v74q-24-40-63-61T247-8q-95 0-142 53T58 205v302h151V202q0-92 79-92 47 0 76 32t29 84v281h152zM372-68v-133H233v133h139z"/><glyph glyph-name="uni1EE6" unicode="Ủ" horiz-adv-x="746" d="M145 68q-78 77-78 226v418h153V287q0-85 39.5-129.5T373 113t113 44.5T525 287v425h154V294q0-148-78.5-225.5T373-9Q223-9 145 68zm265 705h-75v22q0 18 11.5 27t32.5 18l9 4.5 10 6.5 3 6q0 18-34 18-25 0-57-11l-19 52q45 18 95 18 48 0 78-18.5t30-45.5q0-19-13-30.5T445 818q-18-9-26.5-15.5T410 786v-13z"/><glyph glyph-name="uni1EE7" unicode="ủ" horiz-adv-x="606" d="M545 507V0H398v74q-24-40-63-61T247-8q-95 0-142 53T58 205v302h151V202q0-92 79-92 47 0 76 32t29 84v281h152zm-203 65h-76v25q0 21 10 35t27 28q11 9 16.5 16t5.5 15q0 23-34 23-24 0-50-9l-20 57q42 19 86 19 55 0 86-22t31-54q0-24-12.5-39T376 635q-17-12-25.5-21.5T342 592v-20z"/><glyph glyph-name="uni1EE8" unicode="Ứ" horiz-adv-x="746" d="M793 834v-38q0-57-31-98t-83-54V294q0-148-78.5-225.5T373-9Q223-9 145 68T67 294v418h153V287q0-85 39.5-129.5T373 113t113 44.5T525 287v425h46q51 0 71.5 23t20.5 80v19h130zm-467-61 103 157h140L419 773h-93z"/><glyph glyph-name="uni1EE9" unicode="ứ" horiz-adv-x="631" d="M661 636v-38q0-60-31.5-102T545 441V0H398v74q-24-40-63-61T247-8q-95 0-142 53T58 205v302h151V202q0-92 79-92 47 0 76 32t29 84v281h43q52 0 73.5 24.5T531 616v20h130zm-405-64 99 206h148L349 572h-93z"/><glyph glyph-name="uni1EEA" unicode="Ừ" horiz-adv-x="746" d="M793 834v-38q0-57-31-98t-83-54V294q0-148-78.5-225.5T373-9Q223-9 145 68T67 294v418h153V287q0-85 39.5-129.5T373 113t113 44.5T525 287v425h46q51 0 71.5 23t20.5 80v19h130zm-617 96h140l103-157h-93z"/><glyph glyph-name="uni1EEB" unicode="ừ" horiz-adv-x="631" d="M661 636v-38q0-60-31.5-102T545 441V0H398v74q-24-40-63-61T247-8q-95 0-142 53T58 205v302h151V202q0-92 79-92 47 0 76 32t29 84v281h43q52 0 73.5 24.5T531 616v20h130zM102 778h148l99-206h-93z"/><glyph glyph-name="uni1EEC" unicode="Ử" horiz-adv-x="746" d="M793 834v-38q0-57-31-98t-83-54V294q0-148-78.5-225.5T373-9Q223-9 145 68T67 294v418h153V287q0-85 39.5-129.5T373 113t113 44.5T525 287v425h46q51 0 71.5 23t20.5 80v19h130zm-383-61h-75v22q0 18 11.5 27t32.5 18l9 4.5 10 6.5 3 6q0 18-34 18-25 0-57-11l-19 52q45 18 95 18 48 0 78-18.5t30-45.5q0-19-13-30.5T445 818q-18-9-26.5-15.5T410 786v-13z"/><glyph glyph-name="uni1EED" unicode="ử" horiz-adv-x="631" d="M661 636v-38q0-60-31.5-102T545 441V0H398v74q-24-40-63-61T247-8q-95 0-142 53T58 205v302h151V202q0-92 79-92 47 0 76 32t29 84v281h43q52 0 73.5 24.5T531 616v20h130zm-319-64h-76v25q0 21 10 35t27 28q11 9 16.5 16t5.5 15q0 23-34 23-24 0-50-9l-20 57q42 19 86 19 55 0 86-22t31-54q0-24-12.5-39T376 635q-17-12-25.5-21.5T342 592v-20z"/><glyph glyph-name="uni1EEE" unicode="Ữ" horiz-adv-x="746" d="M793 834v-38q0-57-31-98t-83-54V294q0-148-78.5-225.5T373-9Q223-9 145 68T67 294v418h153V287q0-85 39.5-129.5T373 113t113 44.5T525 287v425h46q51 0 71.5 23t20.5 80v19h130zm-565.5 56q30.5 37 78.5 37 19 0 37.5-8t39.5-22q22-12 33.5-17.5T440 874q19 0 30.5 13.5T484 924h64q0-73-30.5-110T439 777q-19 0-37.5 8T362 807q-22 12-33.5 17.5T305 830q-19 0-30.5-13.5T261 780h-64q0 73 30.5 110z"/><glyph glyph-name="uni1EEF" unicode="ữ" horiz-adv-x="631" d="M661 636v-38q0-60-31.5-102T545 441V0H398v74q-24-40-63-61T247-8q-95 0-142 53T58 205v302h151V202q0-92 79-92 47 0 76 32t29 84v281h43q52 0 73.5 24.5T531 616v20h130zm-503.5 77.5Q188 750 236 750q19 0 36.5-7.5T313 721q22-12 33.5-17.5T370 698q19 0 30.5 13t13.5 36h64q0-72-30.5-109T369 601q-19 0-36.5 7.5T292 630q-22 12-33.5 17.5T235 653q-19 0-30.5-13T191 604h-64q0 73 30.5 109.5z"/><glyph glyph-name="uni1EF0" unicode="Ự" horiz-adv-x="746" d="M793 834v-38q0-57-31-98t-83-54V294q0-148-78.5-225.5T373-9Q223-9 145 68T67 294v418h153V287q0-85 39.5-129.5T373 113t113 44.5T525 287v425h46q51 0 71.5 23t20.5 80v19h130zM442-68v-133H303v133h139z"/><glyph glyph-name="uni1EF1" unicode="ự" horiz-adv-x="631" d="M661 636v-38q0-60-31.5-102T545 441V0H398v74q-24-40-63-61T247-8q-95 0-142 53T58 205v302h151V202q0-92 79-92 47 0 76 32t29 84v281h43q52 0 73.5 24.5T531 616v20h130zM372-68v-133H233v133h139z"/><glyph glyph-name="Ygrave" unicode="Ỳ" horiz-adv-x="642" d="M399 276V0H243v277L-51 712h177l194-304 196 304h178zM123 930h140l103-157h-93z"/><glyph glyph-name="ygrave" unicode="ỳ" horiz-adv-x="550" d="M561 507 327-27q-43-97-108.5-142.5T58-228L23-112q70 15 105.5 38T184-7l15 33-209 481h158l130-329 134 329h149zM74 778h148l99-206h-93z"/><glyph glyph-name="uni1EF4" unicode="Ỵ" horiz-adv-x="642" d="M399 276V0H243v277L-51 712h177l194-304 196 304h178zm-9-344v-133H251v133h139z"/><glyph glyph-name="uni1EF5" unicode="ỵ" horiz-adv-x="550" d="M561 507 327-27q-43-97-108.5-142.5T58-228L23-112q70 15 105.5 38T184-7l15 33-209 481h158l130-329 134 329h149zM503-68v-133H364v133h139z"/><glyph glyph-name="uni1EF6" unicode="Ỷ" horiz-adv-x="642" d="M399 276V0H243v277L-51 712h177l194-304 196 304h178zm-42 497h-75v22q0 18 11.5 27t32.5 18l9 4.5 10 6.5 3 6q0 18-34 18-25 0-57-11l-19 52q45 18 95 18 48 0 78-18.5t30-45.5q0-19-13-30.5T392 818q-18-9-26.5-15.5T357 786v-13z"/><glyph glyph-name="uni1EF7" unicode="ỷ" horiz-adv-x="550" d="M561 507 327-27q-43-97-108.5-142.5T58-228L23-112q70 15 105.5 38T184-7l15 33-209 481h158l130-329 134 329h149zm-247 65h-76v25q0 21 10 35t27 28q11 9 16.5 16t5.5 15q0 23-34 23-24 0-50-9l-20 57q42 19 86 19 55 0 86-22t31-54q0-24-12.5-39T348 635q-17-12-25.5-21.5T314 592v-20z"/><glyph glyph-name="uni1EF8" unicode="Ỹ" horiz-adv-x="642" d="M399 276V0H243v277L-51 712h177l194-304 196 304h178zM174.5 890q30.5 37 78.5 37 19 0 37.5-8t39.5-22q22-12 33.5-17.5T387 874q19 0 30.5 13.5T431 924h64q0-73-30.5-110T386 777q-19 0-37.5 8T309 807q-22 12-33.5 17.5T252 830q-19 0-30.5-13.5T208 780h-64q0 73 30.5 110z"/><glyph glyph-name="uni1EF9" unicode="ỹ" horiz-adv-x="550" d="M561 507 327-27q-43-97-108.5-142.5T58-228L23-112q70 15 105.5 38T184-7l15 33-209 481h158l130-329 134 329h149zM129.5 713.5Q160 750 208 750q19 0 36.5-7.5T285 721q22-12 33.5-17.5T342 698q19 0 30.5 13t13.5 36h64q0-72-30.5-109T341 601q-19 0-36.5 7.5T264 630q-22 12-33.5 17.5T207 653q-19 0-30.5-13T163 604H99q0 73 30.5 109.5z"/><glyph glyph-name="uni2007" horiz-adv-x="606"/><glyph glyph-name="uni2008" horiz-adv-x="262"/><glyph glyph-name="uni2009" horiz-adv-x="202"/><glyph glyph-name="uni200A" horiz-adv-x="101"/><glyph glyph-name="uni200B" unicode="​"/><glyph glyph-name="uni2010" unicode="‐" horiz-adv-x="444" d="M67 330h311V211H67v119z"/><glyph glyph-name="figuredash" unicode="‒" horiz-adv-x="606" d="M67 314h472v-88H67v88z"/><glyph glyph-name="endash" unicode="–" horiz-adv-x="505" d="M0 314h505v-88H0v88z"/><glyph glyph-name="emdash" unicode="—" horiz-adv-x="1010" d="M0 314h1010v-88H0v88z"/><glyph glyph-name="uni2015" unicode="―" horiz-adv-x="1010" d="M0 314h1010v-88H0v88z"/><glyph glyph-name="quoteleft" unicode="‘" horiz-adv-x="262" d="M212 575V414H49v104q0 58 21 105t70 97l59-47q-50-51-61-98h74z"/><glyph glyph-name="quoteright" unicode="’" horiz-adv-x="262" d="M212 712V609q0-59-20.5-106T122 406l-59 47q50 51 61 98H49v161h163z"/><glyph glyph-name="quotesinglbase" unicode="‚" horiz-adv-x="262" d="M212 161V58q0-59-20.5-106.5T122-144L63-98q49 51 61 98H49v161h163z"/><glyph glyph-name="quotedblleft" unicode="“" horiz-adv-x="471" d="M212 575V414H49v104q0 58 21 105t70 97l59-47q-50-51-61-98h74zm209 0V414H258v104q0 58 21 105t70 97l59-47q-50-51-61-98h74z"/><glyph glyph-name="quotedblright" unicode="”" horiz-adv-x="471" d="M212 712V609q0-59-20.5-106T122 406l-59 47q50 51 61 98H49v161h163zm209 0V609q0-59-20.5-106T331 406l-59 47q50 51 61 98h-75v161h163z"/><glyph glyph-name="quotedblbase" unicode="„" horiz-adv-x="471" d="M212 161V58q0-59-20.5-106.5T122-144L63-98q49 51 61 98H49v161h163zm209 0V58q0-59-20.5-106.5T331-144l-59 46q49 51 61 98h-75v161h163z"/><glyph glyph-name="dagger" unicode="†" horiz-adv-x="361" d="M236 599h104v-95H236V167H125v337H20v95h105v121h111V599z"/><glyph glyph-name="daggerdbl" unicode="‡" horiz-adv-x="361" d="M236 601h104v-96H236V381h104v-94H236V166H125v121H20v94h105v124H20v96h105v119h111V601z"/><glyph glyph-name="bullet" unicode="•" horiz-adv-x="529" d="M174 112.5q-42 23.5-67 65T82 268q0 46 24 87.5t66 66.5 93 25q48 0 90-23.5t67-64.5 25-91q0-49-24.5-90T356 113t-91-24-91 23.5z"/><glyph glyph-name="ellipsis" unicode="…" horiz-adv-x="786" d="M212 161V0H49v161h163zm262 0V0H312v161h162zm262 0V0H574v161h162z"/><glyph glyph-name="perthousand" unicode="‰" horiz-adv-x="1368" d="M86 344q-49 56-49 163 0 104 49 160t135 56q87 0 136-56t49-161q0-106-49-162t-136-56q-86 0-135 56zM210 0l413 712h130L340 0H210zm57.5 411.5Q282 440 282 506q0 65-15 93.5T221 628q-30 0-44.5-28.5T162 506q0-66 14-94.5t45-28.5q32 0 46.5 28.5zM606.5 49Q558 105 558 212q0 105 48.5 160.5T741 428q88 0 136.5-55.5T926 211 877.5 49 741-7q-86 0-134.5 56zm403.5 0q-49 56-49 163 0 105 49 160.5t135 55.5q87 0 136-55.5t49-161.5-49-162-136-56q-86 0-135 56zm-222.5 67.5Q802 145 802 211q0 65-15 93.5T741 333q-30 0-44.5-28.5T682 211q0-66 14-94.5T741 88q32 0 46.5 28.5zm403 0Q1205 145 1205 211q0 65-14.5 93.5T1145 333q-30 0-44.5-28.5T1086 211q0-66 14-94.5t45-28.5 45.5 28.5z"/><glyph glyph-name="minute" unicode="′" horiz-adv-x="257" d="M41 712h174l-35-301H79z"/><glyph glyph-name="second" unicode="″" horiz-adv-x="473" d="M41 712h174l-35-301H79zm217 0h173l-36-301H294z"/><glyph glyph-name="guilsinglleft" unicode="‹" horiz-adv-x="305" d="m21 267 136 184h126L152 268 282 85H157z"/><glyph glyph-name="guilsinglright" unicode="›" horiz-adv-x="305" d="m24 85 130 183L22 451h127l135-184L149 85H24z"/><glyph glyph-name="fraction" unicode="⁄" horiz-adv-x="202" d="m-156 26 416 716 97-56L-58-30z"/><glyph glyph-name="uni2070" unicode="⁰" horiz-adv-x="380" d="M63 337q-46 56-46 163 0 105 46 160.5T190 716t127-56 46-161q0-106-46-162t-127-56-127 56zm162.5 67.5Q237 433 237 499q0 65-11.5 93.5T190 621q-25 0-36.5-28.5T142 499q0-66 11.5-94.5T190 376q24 0 35.5 28.5z"/><glyph glyph-name="uni2074" unicode="⁴" horiz-adv-x="380" d="M375 350h-61v-65H200v65H12v89l201 273h101V443h61v-93zm-175 93v112l-83-112h83z"/><glyph glyph-name="uni2075" unicode="⁵" horiz-adv-x="380" d="M322.5 530Q361 494 361 430q0-69-49-109.5T186 280q-40 0-83.5 11T30 319l22 94q55-33 121-33 35 0 51 11t16 33q0 44-63 44-34 0-76-16H44v260h291V612H159v-59q29 13 66 13 59 0 97.5-36z"/><glyph glyph-name="uni2076" unicode="⁶" horiz-adv-x="380" d="M321.5 526q38.5-34 38.5-99 0-69-45.5-107.5T198 281q-81 0-129 52.5T21 492q0 107 54.5 165.5T220 716q32 0 67-9.5t66-29.5l-21-94q-57 34-110 34-37 0-56.5-20T142 532q34 28 84 28 57 0 95.5-34zM250 421q0 25-13 38.5T200 473q-25 0-38.5-13.5T148 421t13-38.5 37-13.5q52 0 52 52z"/><glyph glyph-name="uni2077" unicode="⁷" horiz-adv-x="380" d="M353 712V608L184 284l-146 1 175 322H28v105h325z"/><glyph glyph-name="uni2078" unicode="⁸" horiz-adv-x="380" d="M343.5 467.5Q366 440 366 401q0-56-48-88.5T190 280 62 312.5 14 401q0 40 22.5 67.5T102 506q-37 12-57 38t-20 58q0 53 45.5 83.5T190 716t119.5-30.5T355 602q0-34-20.5-60.5T277 506q44-11 66.5-38.5zm-191 148Q138 605 138 586q0-18 13.5-29t38.5-20q26 8 38.5 19t12.5 30-14 29.5-37 10.5-37.5-10.5zm81.5-234q16 11.5 16 31.5t-14.5 32-45.5 20q-31-8-46-20t-15-32 16.5-31.5T190 370t44 11.5z"/><glyph glyph-name="uni2079" unicode="⁹" horiz-adv-x="380" d="M311 663.5Q359 611 359 505q0-107-54.5-165.5T160 281q-32 0-67 9.5T27 320l21 94q57-34 110-34 37 0 56 20t23 66q-16-14-38-21t-45-7q-57 0-95.5 33.5T20 570q0 69 45.5 107.5T182 716q81 0 129-52.5zm-92.5-126Q232 551 232 576t-13 38.5-37 13.5q-26 0-39.5-13.5T129 576t13.5-38.5T180 524q25 0 38.5 13.5z"/><glyph glyph-name="uni2080" unicode="₀" horiz-adv-x="380" d="M63 52q-46 56-46 163 0 105 46 160.5T190 431t127-56 46-161q0-106-46-162T190-4 63 52zm162.5 67.5Q237 148 237 214q0 65-11.5 93.5T190 336q-25 0-36.5-28.5T142 214q0-66 11.5-94.5T190 91q24 0 35.5 28.5z"/><glyph glyph-name="uni2081" unicode="₁" horiz-adv-x="380" d="M363 101V0H72v101h80v189l-75-41v117l114 61h91V101h81z"/><glyph glyph-name="uni2082" unicode="₂" horiz-adv-x="380" d="M351 101V0H43v95l134 140q34 39 34 64 0 34-47 34-54 0-113-35l-21 94q29 17 73 28t84 11q70 0 112-33.5t42-89.5q0-36-17.5-68.5T260 165l-70-64h161z"/><glyph glyph-name="uni2083" unicode="₃" horiz-adv-x="380" d="M333 182.5q21-26.5 21-64.5 0-53-44.5-88T183-5Q141-5 97 6T24 34l20 94q60-35 128-35 60 0 60 36 0 37-55 37h-72v98h60q29 0 42 8.5t13 27.5q0 33-50 33-28 0-59.5-9T51 298l-21 94q29 17 71.5 28t78.5 11q77 0 119-34t42-85q0-32-17-56.5T275 220q37-11 58-37.5z"/><glyph glyph-name="uni2084" unicode="₄" horiz-adv-x="380" d="M375 65h-61V0H200v65H12v89l201 273h101V158h61V65zm-175 93v112l-83-112h83z"/><glyph glyph-name="uni2085" unicode="₅" horiz-adv-x="380" d="M322.5 245Q361 209 361 145q0-69-49-109.5T186-5q-40 0-83.5 11T30 34l22 94q55-33 121-33 35 0 51 11t16 33q0 44-63 44-34 0-76-16H44v260h291V327H159v-59q29 13 66 13 59 0 97.5-36z"/><glyph glyph-name="uni2086" unicode="₆" horiz-adv-x="380" d="M321.5 241q38.5-34 38.5-99 0-69-45.5-107.5T198-4Q117-4 69 48.5T21 207q0 107 54.5 165.5T220 431q32 0 67-9.5t66-29.5l-21-94q-57 34-110 34-37 0-56.5-20T142 247q34 28 84 28 57 0 95.5-34zM250 136q0 25-13 38.5T200 188q-25 0-38.5-13.5T148 136t13-38.5T198 84q52 0 52 52z"/><glyph glyph-name="uni2087" unicode="₇" horiz-adv-x="380" d="M353 427V323L184-1 38 0l175 322H28v105h325z"/><glyph glyph-name="uni2088" unicode="₈" horiz-adv-x="380" d="M343.5 182.5Q366 155 366 116q0-56-48-88.5T190-5 62 27.5 14 116q0 40 22.5 67.5T102 221q-37 12-57 38t-20 58q0 53 45.5 83.5T190 431t119.5-30.5T355 317q0-34-20.5-60.5T277 221q44-11 66.5-38.5zm-191 148Q138 320 138 301q0-18 13.5-29t38.5-20q26 8 38.5 19t12.5 30-14 29.5-37 10.5-37.5-10.5zm81.5-234q16 11.5 16 31.5t-14.5 32-45.5 20q-31-8-46-20t-15-32 16.5-31.5T190 85t44 11.5z"/><glyph glyph-name="uni2089" unicode="₉" horiz-adv-x="380" d="M311 378.5Q359 326 359 220q0-107-54.5-165.5T160-4q-32 0-67 9.5T27 35l21 94q57-34 110-34 37 0 56 20t23 66q-16-14-38-21t-45-7q-57 0-95.5 33.5T20 285q0 69 45.5 107.5T182 431q81 0 129-52.5zm-92.5-126Q232 266 232 291t-13 38.5-37 13.5q-26 0-39.5-13.5T129 291t13.5-38.5T180 239q25 0 38.5 13.5z"/><glyph glyph-name="colonmonetary" unicode="₡" horiz-adv-x="600" d="M241 535q-42-62-42-178 0-117 42-179.5T361 115q37 0 75 16.5t86 53.5l51-112q-39-38-99-60T354-9q-34 0-66 6l-47-121-90 35 47 119q-27 16-48 34L97-69 6-36l77 191q-42 87-42 202 0 101 32 178.5T165 660t142 58l43 110h103l-44-112q27-4 56-14l50 126h104l-68-170q12-9 22-19l-51-112q-48 37-86 53.5T361 597q-78 0-120-62z"/><glyph glyph-name="franc" unicode="₣" horiz-adv-x="600" d="M595 503V381h-9q-70 0-101.5-29T453 261V0H309v299H192V0H44v712h443V587H192V425h117v71h132v-94q17 57 50 79t90 22h14z"/><glyph glyph-name="lira" unicode="₤" horiz-adv-x="600" d="M255.5 168.5Q245 143 223 125h349V0H39v105q43 22 58.5 48.5T113 230v3H39v92h74v63H39v92h74v40q0 59 28.5 105t81 71T343 721q69 0 131-20.5T582 641l-51-112q-46 34-91.5 51.5T356 598q-88 0-88-89v-29h162v-92H268v-63h162v-92H268q-2-39-12.5-64.5z"/><glyph glyph-name="uni20A6" unicode="₦" horiz-adv-x="600" d="M501 390v-63h82v-93h-82V0H378L226 394V0H99v234H18v93h81v63H18v92h81v230h123l151-417v417h128V482h82v-92h-82z"/><glyph glyph-name="peseta" unicode="₧" horiz-adv-x="1200" d="M1144.5 270.5q37.5-19.5 54-48T1215 151q0-47-26.5-83t-74-56T1004-8Q897-8 816 37l-3-41q-31-4-59-4-114 0-166.5 50.5T535 195v199h-58q-24-74-83-117t-141-43h-40V0H63v728h190q101 0 164-59.5T488 507h47v149h151V507h109V394H686V195q0-47 21-70t65-23q18 0 37 3l21 54q86-56 174-56 35 0 55 12t20 33q0 15-9 25t-32 18-68 17q-85 17-124 52.5T807 356q0 46 27 83.5t74 59 105 21.5q50 0 101-17t90-46l-41-101q-87 52-156 52-27 0-44.5-12.5T945 362t19.5-32 77.5-25q65-15 102.5-34.5zm-821 113Q347 414 347 480q0 67-23.5 97.5T248 608h-36V353h36q52 0 75.5 30.5z"/><glyph glyph-name="uni20A9" unicode="₩" horiz-adv-x="600" d="m506 390-8-63h85v-93h-98L454 0h-79l-75 433L224 0h-79l-31 234H18v93h84l-8 63H18v92h63L51 712h109l41-393 62 393h73l62-393 41 393h110l-31-230h65v-92h-77z"/><glyph glyph-name="dong" unicode="₫" horiz-adv-x="600" d="M601 547h-69V0H383v73q-21-38-59.5-59.5T239-8q-60 0-105.5 32t-71 91.5T37 253q0 77 25 135t70.5 89T239 508q44 0 82-21t60-57v117H239v89h142v76h151v-76h69v-89zM356.5 146Q383 185 383 250t-26.5 104-70.5 39q-45 0-71.5-38T188 253q0-67 26.5-106.5T286 107q44 0 70.5 39zM61-67h471v-89H61v89z"/><glyph glyph-name="Euro" unicode="€" horiz-adv-x="600" d="M451 131q37 16 85 54l50-112q-39-38-98-60T370-9Q267-9 198.5 54T107 233H18v92h78q-1 10-1 32 0 21 1 31H18v92h89q23 115 91.5 178T370 721q59 0 118-22t98-60l-50-112q-48 38-85 54t-74 16q-47 0-75.5-28.5T260 480h149v-92H250v-63h159v-92H260q13-61 41.5-89.5T377 115q37 0 74 16z"/><glyph glyph-name="uni20AD" unicode="₭" horiz-adv-x="600" d="M398 311 614 0H445L235 307V0H86v311H18v89h68v312h149V406l210 306h169L398 400h169v-89H398z"/><glyph glyph-name="uni20B1" unicode="₱" horiz-adv-x="600" d="M583 501h-69q1-10 1-31 0-12-2-32h70v-92h-96q-27-55-79-87t-123-32h-35V0H99v346H18v92h81v63H18v93h81v118h186q72 0 124-31.5t79-86.5h95v-93zM350.5 374.5Q374 403 374 469q0 67-23.5 95T280 592h-32V346h32q47 0 70.5 28.5z"/><glyph glyph-name="uni20B2" unicode="₲" horiz-adv-x="600" d="M565 43Q478 7 399-5v-111H278V-2Q164 21 98 115.5T32 357q0 145 65.5 239.5T276 714v114h120V717q47-8 91.5-28t76.5-50l-50-112q-48 37-86.5 53.5T353 597q-76 0-119-61t-43-179q0-119 42-182t114-63q33 0 78 13v159H314v109h251V43z"/><glyph glyph-name="uni20B5" unicode="₵" horiz-adv-x="600" d="M573 73q-30-29-73.5-49.5T407-5v-111H287V-3Q172 20 106.5 115T41 357q0 146 65.5 240.5T287 715v113h120V717q49-8 92.5-28.5T573 639l-51-112q-66 51-115 64V121q49 13 115 64zM221.5 215.5Q244 159 287 134v445q-43-25-65.5-81.5T199 357q0-85 22.5-141.5z"/><glyph glyph-name="uni20B9" unicode="₹" horiz-adv-x="600" d="M584 0H397L246 227q-16 26-35.5 37.5T161 276H18v121h210q94 0 116 68H18v92h324q-23 63-114 63H18v92h565v-92H464q20-28 29-63h90v-92h-86q-9-68-52-113t-112-61q33-7 58.5-25t46.5-50z"/><glyph glyph-name="uni20BA" unicode="₺" horiz-adv-x="600" d="M589 71Q494-9 337-9 234-9 129 32v242l-73-41v106l73 41v63l-73-41v106l73 41v163h157v-75l159 90V621l-159-90v-62l159 90V452l-159-90V126q30-11 78-11 82 0 175 68z"/><glyph glyph-name="uni20BC" unicode="₼" horiz-adv-x="600" d="M480.5 631.5q46.5-66.5 71-218T576 0H424q0 213-6.5 334.5T396 514t-40 77V299H244v292q-25-19-39.5-77t-21-179T177 0H25q0 262 24.5 413.5t70.5 218T239 713v115h122V713q73-15 119.5-81.5z"/><glyph glyph-name="uni20BD" unicode="₽" horiz-adv-x="600" d="M250 298v-63h159v-92H250V0H99v143H18v92h81v63H18v93h81v321h246q77 0 132-26.5t83.5-72.5T589 509q0-100-63-155.5T345 298h-95zm-2 93h61q68 0 102 24t34 74q0 58-31 83.5T318 598h-70V391z"/><glyph glyph-name="uni2113" unicode="ℓ" horiz-adv-x="606" d="M211 29.5Q173 76 173 145v39l-51-48-51 53 102 94v246q0 85 45 136.5T338 717q63 0 97.5-34.5T470 586q0-69-32-129t-94-129l-32-35V173q0-37 16-56.5T369 97q35 0 75 36l39-81q-67-69-156-69-78 0-116 46.5zM324 417q28 36 44.5 76.5T385 567q0 43-31 43-42 0-42-63V402q7 7 12 15z"/><glyph glyph-name="uni2116" unicode="№" horiz-adv-x="1133" d="M816 450q-44 45-44 112 0 66 44 110.5T944 717q85 0 129-44.5t44-110.5q0-67-44-112t-129-45q-84 0-128 45zM541 712h147V0H572L217 454V0H71v712h115l355-453v453zm367-106.5Q895 591 895 562q0-28 13-44t36-16q25 0 39 16t14 44q0 58-53 58-23 0-36-14.5zM790 330h311V211H790v119z"/><glyph glyph-name="trademark" unicode="™" horiz-adv-x="953" d="M14 712h373V602H269V287H131v315H14v110zm872 0V287H768v188l-59-112h-85l-59 110V287H445v425h108l114-219 116 219h103z"/><glyph glyph-name="uni2126" unicode="Ω" horiz-adv-x="819" d="M733 264.5Q694 191 618 125h140V0H466v121q78 71 114 140t36 149q0 89-54.5 139T410 599t-151.5-50T204 410q0-80 36-149t115-140V0H62v125h140q-77 66-116 139T47 415q0 92 45 161.5T219.5 684 410 722t190-38 127-107.5T772 415q0-77-39-150.5z"/><glyph glyph-name="estimated" unicode="℮" horiz-adv-x="903" d="M238 43Q147 91 99 172T51 348q0 96 49 181t139.5 136.5T450 717q146 0 236-55t128-141 38-187H203q-5 0-5-6V155q0-22 7-30 40-48 102.5-73T449 27q82 0 144.5 27.5T711 135h72Q721 61 646.5 28T452-5Q329-5 238 43zm462 323q5 0 5 6v190q0 14-10 26-47 55-113.5 76.5T447 686q-64 0-126.5-22.5T207 590q-9-9-9-27V372q0-6 5-6h497z"/><glyph glyph-name="partialdiff" unicode="∂" horiz-adv-x="600" d="M390 729.5Q469 679 511.5 583T554 354q0-183-69.5-277T281-17q-76 0-134.5 32t-91 91T23 243q0 76 29.5 136t82 93.5T253 506q96 0 143-62-6 107-68 162t-173 55h-37v112q42 7 87 7 106 0 185-50.5zM359.5 143Q389 181 389 244q0 64-29.5 102T282 384q-47 0-76.5-38T176 246q0-65 29-103t77-38 77.5 38z"/><glyph glyph-name="emptyset" unicode="∅" horiz-adv-x="600" d="M103 121q-48 39-75 94T1 334q0 76 39.5 142t108 105.5T301 621q82 0 155-41l80 103 54-41-81-103q42-39 66-92t24-113q0-77-40-142T450.5 88.5 301 50q-75 0-143 35L77-18 22 18zm304 394q-49 26-106 26-60 0-109-27t-77.5-74.5T86 334q0-44 17-83t49-67zm.5-361.5q49.5 26.5 78.5 74T515 334q0 81-55 142L205 148q43-21 96-21 57 0 106.5 26.5z"/><glyph glyph-name="uni2206" unicode="∆" horiz-adv-x="819" d="M733 264.5Q694 191 618 125h140V0H466v121q78 71 114 140t36 149q0 89-54.5 139T410 599t-151.5-50T204 410q0-80 36-149t115-140V0H62v125h140q-77 66-116 139T47 415q0 92 45 161.5T219.5 684 410 722t190-38 127-107.5T772 415q0-77-39-150.5z"/><glyph glyph-name="product" unicode="∏" horiz-adv-x="600" d="M546-182H406v771H194v-771H54v894h492v-894z"/><glyph glyph-name="summation" unicode="∑" horiz-adv-x="611" d="M564 587H223l198-274-1-95L222-57h342v-125H45v113l240 334L45 599v113h519V587z"/><glyph glyph-name="minus" unicode="−" horiz-adv-x="600" d="M546 238H54v103h492V238z"/><glyph glyph-name="uni2215" unicode="∕" horiz-adv-x="600" d="m113-43 262 816 113-35L226-78z"/><glyph glyph-name="uni2219" unicode="∙" horiz-adv-x="600" d="M381 351V190H219v161h162z"/><glyph glyph-name="radical" unicode="√" horiz-adv-x="600" d="M346-202H232L107 238H3v103h185l98-368 184 793h109z"/><glyph glyph-name="infinity" unicode="∞" horiz-adv-x="600" d="M531.5 413Q572 366 572 287q0-81-40.5-127T421 114q-34 0-66 17.5T300 190q-23-41-55-58.5T179 114q-70 0-110.5 46T28 287q0 79 40.5 126T179 460q34 0 66-18t55-59q23 41 55 59t66 18q70 0 110.5-47zM232 222.5q22 20.5 35 65.5-13 43-35 63.5T185 372q-30 0-47.5-24T120 287t17-61 48-24q25 0 47 20.5zm231 3.5q17 24 17 61t-17.5 61-47.5 24q-25 0-47-20.5T333 288q13-45 35-65.5t47-20.5q31 0 48 24z"/><glyph glyph-name="integral" unicode="∫" horiz-adv-x="600" d="M500 707V590q-28 7-48 7-34 0-55-19t-21-61V10q0-95-48.5-147.5T187-190q-52 0-87 13v118q28-7 48-7 34 0 55 19.5T224 13v508q0 94 48.5 146.5T413 720q52 0 87-13z"/><glyph glyph-name="approxequal" unicode="≈" horiz-adv-x="599" d="M546 416q-16-50-54.5-79.5T407 307q-30 0-59 11t-66 30q-29 15-47.5 22t-33.5 7q-50 0-71-62l-76 51q16 50 54 79.5t84 29.5q30 0 58-10t67-30q33-16 49.5-22.5T398 406q51 0 71 60zm0-202q-16-50-54.5-79.5T407 105q-30 0-59 11t-66 30q-29 15-47.5 22t-33.5 7q-50 0-71-62l-76 51q16 50 54 79.5t84 29.5q30 0 58-10t67-30q33-16 49.5-22.5T398 204q51 0 71 60z"/><glyph glyph-name="notequal" unicode="≠" horiz-adv-x="600" d="m371 339-41-99h216V137H287L232 5l-96 40 38 92H54v103h163l41 99H54v103h247l55 132 96-40-38-92h132V339H371z"/><glyph glyph-name="lessequal" unicode="≤" horiz-adv-x="600" d="m546 439-338-99 338-100V132L54 283v114l492 150V439zM54 104h492V0H54v104z"/><glyph glyph-name="greaterequal" unicode="≥" horiz-adv-x="600" d="M546 397V283L54 132v108l338 100-338 99v108zM54 104h492V0H54v104z"/><glyph glyph-name="lozenge" unicode="◊" horiz-adv-x="606" d="M360-202H246L44 282l202 484h114l202-484zm-57 836L158 282 303-71l145 353z"/><glyph glyph-name="uniF8FF" unicode="" horiz-adv-x="665" d="M209 227 17 373h239l74 226 78-226h239L455 227 526 1 330 137 138 1zm83-27v76l29-55h23l30 55v-76h28v131h-27l-42-79-42 79h-27V200h28z"/><glyph glyph-name="Iacute_J.loclNLD" horiz-adv-x="680" d="M71 712h156V0H71v712zm30 61 103 157h140L194 773h-93zM299-53q42-6 71-6 48 0 65 21.5T452 40v672h156V42q0-119-47-174.5T401-188q-45 0-102 9v126zm183 826 103 157h140L575 773h-93z"/><glyph glyph-name="i.loclTRK" horiz-adv-x="274" d="M61 507h151V0H61v507zm156 238V603H56v142h161z"/><glyph glyph-name="iacute_j.loclNLD" horiz-adv-x="548" d="M61 507h151V0H61v507zm29 65 99 206h148L183 572H90zm168-672q34 0 55.5 20T335-18v525h151V-22q0-96-49-149t-142-53q-52 0-86 13v118q29-7 49-7zm105 672 99 206h148L456 572h-93z"/><glyph glyph-name="I_J.loclNLD" horiz-adv-x="680" d="M71 712h156V0H71v712zM299-53q42-6 71-6 48 0 65 21.5T452 40v672h156V42q0-119-47-174.5T401-188q-45 0-102 9v126z"/><glyph glyph-name="i_j.loclNLD" horiz-adv-x="548" d="M61 507h151V0H61v507zm156 238V603H56v142h161zm41-845q34 0 55.5 20T335-18v525h151V-22q0-96-49-149t-142-53q-52 0-86 13v118q29-7 49-7zm232 845V603H329v142h161z"/><glyph glyph-name="zero.dnom" horiz-adv-x="380" d="M63 52q-46 56-46 163 0 105 46 160.5T190 431t127-56 46-161q0-106-46-162T190-4 63 52zm162.5 67.5Q237 148 237 214q0 65-11.5 93.5T190 336q-25 0-36.5-28.5T142 214q0-66 11.5-94.5T190 91q24 0 35.5 28.5z"/><glyph glyph-name="one.dnom" horiz-adv-x="380" d="M363 101V0H72v101h80v189l-75-41v117l114 61h91V101h81z"/><glyph glyph-name="two.dnom" horiz-adv-x="380" d="M351 101V0H43v95l134 140q34 39 34 64 0 34-47 34-54 0-113-35l-21 94q29 17 73 28t84 11q70 0 112-33.5t42-89.5q0-36-17.5-68.5T260 165l-70-64h161z"/><glyph glyph-name="three.dnom" horiz-adv-x="380" d="M333 182.5q21-26.5 21-64.5 0-53-44.5-88T183-5Q141-5 97 6T24 34l20 94q60-35 128-35 60 0 60 36 0 37-55 37h-72v98h60q29 0 42 8.5t13 27.5q0 33-50 33-28 0-59.5-9T51 298l-21 94q29 17 71.5 28t78.5 11q77 0 119-34t42-85q0-32-17-56.5T275 220q37-11 58-37.5z"/><glyph glyph-name="four.dnom" horiz-adv-x="380" d="M375 65h-61V0H200v65H12v89l201 273h101V158h61V65zm-175 93v112l-83-112h83z"/><glyph glyph-name="five.dnom" horiz-adv-x="380" d="M322.5 245Q361 209 361 145q0-69-49-109.5T186-5q-40 0-83.5 11T30 34l22 94q55-33 121-33 35 0 51 11t16 33q0 44-63 44-34 0-76-16H44v260h291V327H159v-59q29 13 66 13 59 0 97.5-36z"/><glyph glyph-name="six.dnom" horiz-adv-x="380" d="M321.5 241q38.5-34 38.5-99 0-69-45.5-107.5T198-4Q117-4 69 48.5T21 207q0 107 54.5 165.5T220 431q32 0 67-9.5t66-29.5l-21-94q-57 34-110 34-37 0-56.5-20T142 247q34 28 84 28 57 0 95.5-34zM250 136q0 25-13 38.5T200 188q-25 0-38.5-13.5T148 136t13-38.5T198 84q52 0 52 52z"/><glyph glyph-name="seven.dnom" horiz-adv-x="380" d="M353 427V323L184-1 38 0l175 322H28v105h325z"/><glyph glyph-name="eight.dnom" horiz-adv-x="380" d="M343.5 182.5Q366 155 366 116q0-56-48-88.5T190-5 62 27.5 14 116q0 40 22.5 67.5T102 221q-37 12-57 38t-20 58q0 53 45.5 83.5T190 431t119.5-30.5T355 317q0-34-20.5-60.5T277 221q44-11 66.5-38.5zm-191 148Q138 320 138 301q0-18 13.5-29t38.5-20q26 8 38.5 19t12.5 30-14 29.5-37 10.5-37.5-10.5zm81.5-234q16 11.5 16 31.5t-14.5 32-45.5 20q-31-8-46-20t-15-32 16.5-31.5T190 85t44 11.5z"/><glyph glyph-name="nine.dnom" horiz-adv-x="380" d="M311 378.5Q359 326 359 220q0-107-54.5-165.5T160-4q-32 0-67 9.5T27 35l21 94q57-34 110-34 37 0 56 20t23 66q-16-14-38-21t-45-7q-57 0-95.5 33.5T20 285q0 69 45.5 107.5T182 431q81 0 129-52.5zm-92.5-126Q232 266 232 291t-13 38.5-37 13.5q-26 0-39.5-13.5T129 291t13.5-38.5T180 239q25 0 38.5 13.5z"/><glyph glyph-name="zero.numr" horiz-adv-x="380" d="M63 337q-46 56-46 163 0 105 46 160.5T190 716t127-56 46-161q0-106-46-162t-127-56-127 56zm162.5 67.5Q237 433 237 499q0 65-11.5 93.5T190 621q-25 0-36.5-28.5T142 499q0-66 11.5-94.5T190 376q24 0 35.5 28.5z"/><glyph glyph-name="one.numr" horiz-adv-x="380" d="M363 386V285H72v101h80v189l-75-41v117l114 61h91V386h81z"/><glyph glyph-name="two.numr" horiz-adv-x="380" d="M351 386V285H43v95l134 140q34 39 34 64 0 34-47 34-54 0-113-35l-21 94q29 17 73 28t84 11q70 0 112-33.5t42-89.5q0-36-17.5-68.5T260 450l-70-64h161z"/><glyph glyph-name="three.numr" horiz-adv-x="380" d="M333 467.5q21-26.5 21-64.5 0-53-44.5-88T183 280q-42 0-86 11t-73 28l20 94q60-35 128-35 60 0 60 36 0 37-55 37h-72v98h60q29 0 42 8.5t13 27.5q0 33-50 33-28 0-59.5-9T51 583l-21 94q29 17 71.5 28t78.5 11q77 0 119-34t42-85q0-32-17-56.5T275 505q37-11 58-37.5z"/><glyph glyph-name="four.numr" horiz-adv-x="380" d="M375 350h-61v-65H200v65H12v89l201 273h101V443h61v-93zm-175 93v112l-83-112h83z"/><glyph glyph-name="five.numr" horiz-adv-x="380" d="M322.5 530Q361 494 361 430q0-69-49-109.5T186 280q-40 0-83.5 11T30 319l22 94q55-33 121-33 35 0 51 11t16 33q0 44-63 44-34 0-76-16H44v260h291V612H159v-59q29 13 66 13 59 0 97.5-36z"/><glyph glyph-name="six.numr" horiz-adv-x="380" d="M321.5 526q38.5-34 38.5-99 0-69-45.5-107.5T198 281q-81 0-129 52.5T21 492q0 107 54.5 165.5T220 716q32 0 67-9.5t66-29.5l-21-94q-57 34-110 34-37 0-56.5-20T142 532q34 28 84 28 57 0 95.5-34zM250 421q0 25-13 38.5T200 473q-25 0-38.5-13.5T148 421t13-38.5 37-13.5q52 0 52 52z"/><glyph glyph-name="seven.numr" horiz-adv-x="380" d="M353 712V608L184 284l-146 1 175 322H28v105h325z"/><glyph glyph-name="eight.numr" horiz-adv-x="380" d="M343.5 467.5Q366 440 366 401q0-56-48-88.5T190 280 62 312.5 14 401q0 40 22.5 67.5T102 506q-37 12-57 38t-20 58q0 53 45.5 83.5T190 716t119.5-30.5T355 602q0-34-20.5-60.5T277 506q44-11 66.5-38.5zm-191 148Q138 605 138 586q0-18 13.5-29t38.5-20q26 8 38.5 19t12.5 30-14 29.5-37 10.5-37.5-10.5zm81.5-234q16 11.5 16 31.5t-14.5 32-45.5 20q-31-8-46-20t-15-32 16.5-31.5T190 370t44 11.5z"/><glyph glyph-name="nine.numr" horiz-adv-x="380" d="M311 663.5Q359 611 359 505q0-107-54.5-165.5T160 281q-32 0-67 9.5T27 320l21 94q57-34 110-34 37 0 56 20t23 66q-16-14-38-21t-45-7q-57 0-95.5 33.5T20 570q0 69 45.5 107.5T182 716q81 0 129-52.5zm-92.5-126Q232 551 232 576t-13 38.5-37 13.5q-26 0-39.5-13.5T129 576t13.5-38.5T180 524q25 0 38.5 13.5z"/><glyph glyph-name="periodcentered.loclCAT" horiz-adv-x="303" d="M232 328V187H71v141h161z"/><glyph glyph-name="caroncomb.alt" d="M-148 516v196h97l-26-196h-71z"/><glyph glyph-name="uni0326.alt" d="M-74-67v-64q0-47-13.5-82t-46.5-65l-55 38q29 27 35 59h-70v114h150z"/><glyph glyph-name="uni0308.case" d="M-175 918V786h-139v132h139zm192 0V786h-139v132H17z"/><glyph glyph-name="uni0307.case" d="M-68 923V781h-161v142h161z"/><glyph glyph-name="gravecomb.case" d="M-345 930h140l103-157h-93z"/><glyph glyph-name="acutecomb.case" d="m-195 773 103 157H48l-150-157h-93z"/><glyph glyph-name="uni030B.case" d="M-182 930h101l-100-157h-75zm140 0H60L-41 773h-75z"/><glyph glyph-name="uni0302.case" d="m-325 773 133 157h87L28 773H-86l-62 86-63-86h-114z"/><glyph glyph-name="uni030C.case" d="m28 930-133-157h-87l-133 157h114l63-87 62 87H28z"/><glyph glyph-name="uni0306.case" d="M-261 810q-47 28-67 82l70 29q32-49 110-49 77 0 109 49l70-29q-20-54-67-82t-112-28q-66 0-113 28z"/><glyph glyph-name="uni030A.case" d="M-227 799q-32 31-32 77t32 77.5 79 31.5q46 0 78-31.5t32-77.5-32-77-78-31q-47 0-79 31zm110 44q12 13 12 33t-12 33-31 13-31.5-13-12.5-33 12.5-33 31.5-13 31 13z"/><glyph glyph-name="tildecomb.case" d="M-293.5 890q30.5 37 78.5 37 19 0 37.5-8t39.5-22q22-12 33.5-17.5T-81 874q19 0 30.5 13.5T-37 924h64q0-73-30.5-110T-82 777q-19 0-37.5 8t-39.5 22q-22 12-33.5 17.5T-216 830q-19 0-30.5-13.5T-260 780h-64q0 73 30.5 110z"/><glyph glyph-name="uni0304.case" d="M-306 898H9v-94h-315v94z"/><glyph glyph-name="hookabovecomb.case" d="M-111 773h-75v22q0 18 11.5 27t32.5 18l9 4.5 10 6.5 3 6q0 18-34 18-25 0-57-11l-19 52q45 18 95 18 48 0 78-18.5t30-45.5q0-19-13-30.5T-76 818q-18-9-26.5-15.5T-111 786v-13z"/><glyph glyph-name="uni030F.case" d="M-357 930h102l74-157h-75zm141 0h101l74-157h-75z"/><glyph glyph-name="uni0311.case" d="M-36 893.5Q11 866 31 812l-70-30q-32 50-109 50-78 0-110-50l-70 30q20 54 67 81.5t113 27.5q65 0 112-27.5z"/><glyph glyph-name="uni0312.case" d="M-74 866v-93h-150v52q0 39 13.5 72.5T-164 961l55-38q-28-24-35-57h70z"/><glyph glyph-name="uni02BF.case" horiz-adv-x="300" d="M152 922q-19 0-31.5-13T108 876t12.5-33 31.5-13v-62q-47 0-79 31t-32 77 32 77.5 79 31.5v-63z"/><glyph glyph-name="uni02BE.case" horiz-adv-x="300" d="M230 953.5q32-31.5 32-77.5t-32-77-78-31v62q19 0 31 13t12 33-12 33-31 13v63q46 0 78-31.5z"/><glyph glyph-name="caron.alt" horiz-adv-x="300" d="M152 516v196h97l-26-196h-71z"/><glyph glyph-name="uni03060301" d="m-193 668 101 142H39l-143-142h-89zm-68-84.5q-47 27.5-67 81.5l55 23q16-27 51-41.5t74-14.5q38 0 73 14.5t51 41.5l55-23q-20-54-67-81.5T-148 556q-66 0-113 27.5z"/><glyph glyph-name="uni03060300" d="M-336 810h131l101-142h-89zm75-226.5q-47 27.5-67 81.5l55 23q16-27 51-41.5t74-14.5q38 0 73 14.5t51 41.5l55-23q-20-54-67-81.5T-148 556q-66 0-113 27.5z"/><glyph glyph-name="uni03060309" d="M-111 669h-75v20q0 18 13 27.5t35 17.5q7 3 12.5 5.5t5.5 5.5q0 5-8 9.5t-26 4.5q-23 0-57-12l-19 51q45 18 95 18 49 0 78.5-17t29.5-44q0-19-12.5-29T-76 707q-18-8-26.5-14t-8.5-16v-8zm-150-85.5q-47 27.5-67 81.5l55 23q16-27 51-41.5t74-14.5q38 0 73 14.5t51 41.5l55-23q-20-54-67-81.5T-148 556q-66 0-113 27.5z"/><glyph glyph-name="uni03060303" d="M-292 785.5q32 30.5 77 30.5 19 0 36.5-5t40.5-14q15-6 30-10.5t27-4.5q40 0 44 31h64q0-45-32-75.5T-82 707q-18 0-34 4.5t-43 13.5q-15 6-30 10.5t-27 4.5q-40 0-44-30h-64q0 45 32 75.5zm31-202q-47 27.5-67 81.5l55 23q16-27 51-41.5t74-14.5q38 0 73 14.5t51 41.5l55-23q-20-54-67-81.5T-148 556q-66 0-113 27.5z"/><glyph glyph-name="uni03020301" d="m-54 668 73 142h125L20 668h-74zm-271-107 133 139h87L28 561H-84l-64 71-65-71h-112z"/><glyph glyph-name="uni03020300" d="M-134 810H-8l71-142h-74zm-191-249 133 139h87L28 561H-84l-64 71-65-71h-112z"/><glyph glyph-name="uni03020309" d="M20 669h-75v20q0 18 13 27.5T-7 734q7 3 12.5 5.5T11 745q0 5-8 9.5t-24 4.5q-25 0-59-12l-19 51q45 18 96 18 49 0 78-17t29-44q0-19-12.5-29T55 707q-18-8-26.5-14T20 677v-8zm-345-108 133 139h87L28 561H-84l-64 71-65-71h-112z"/><glyph glyph-name="uni03020303" d="M-292 793.5q32 30.5 77 30.5 18 0 34-4.5t43-13.5q15-6 30-10.5t27-4.5q40 0 44 30h64q0-45-32-75t-77-30q-31 0-77 18-4 1-22.5 7.5T-216 748q-40 0-44-30h-64q0 45 32 75.5zM-325 561l133 139h87L28 561H-84l-64 71-65-71h-112z"/><glyph glyph-name="uni03060301.case" d="m-193 881 101 142H39l-143-142h-89zm-68-85q-47 28-67 82l55 23q17-27 51.5-42t73.5-15q38 0 73 15t51 42l55-23q-20-54-67-82t-112-28q-66 0-113 28z"/><glyph glyph-name="uni03060300.case" d="M-336 1023h131l101-142h-89zm75-227q-47 28-67 82l55 23q17-27 51.5-42t73.5-15q38 0 73 15t51 42l55-23q-20-54-67-82t-112-28q-66 0-113 28z"/><glyph glyph-name="uni03060309.case" d="M-111 882h-75v19q0 19 13 28.5t35 17.5q18 5 18 10 0 14-34 14-25 0-57-11l-19 51q45 18 95 18 49 0 78.5-17t29.5-44q0-19-12.5-29T-76 920q-18-8-26.5-14t-8.5-16v-8zm-150-86q-47 28-67 82l55 23q17-27 51.5-42t73.5-15q38 0 73 15t51 42l55-23q-20-54-67-82t-112-28q-66 0-113 28z"/><glyph glyph-name="uni03060303.case" d="M-292 997.5q32 30.5 77 30.5 19 0 36.5-5t40.5-14q15-6 30-10.5t27-4.5q40 0 44 31h64q0-45-32-75.5T-82 919q-19 0-36.5 5t-40.5 14q-15 6-30 10.5t-27 4.5q-40 0-44-31h-64q0 45 32 75.5zm31-201.5q-47 28-67 82l55 23q17-27 51.5-42t73.5-15q38 0 73 15t51 42l55-23q-20-54-67-82t-112-28q-66 0-113 28z"/><glyph glyph-name="uni03020301.case" d="m-54 881 73 142h125L20 881h-74zm-271-108 133 140h87L28 773H-84l-64 71-65-71h-112z"/><glyph glyph-name="uni03020300.case" d="M-134 1023H-8l71-142h-74zm-191-250 133 140h87L28 773H-84l-64 71-65-71h-112z"/><glyph glyph-name="uni03020309.case" d="M20 882h-75v19q0 19 13 28.5T-7 947q18 5 18 10 0 14-32 14-27 0-59-11l-19 51q45 18 96 18 49 0 78-17t29-44q0-19-12.5-29T55 920q-18-8-26.5-14T20 890v-8zm-345-109 133 140h87L28 773H-84l-64 71-65-71h-112z"/><glyph glyph-name="uni03020303.case" d="M-292 1005.5q32 30.5 77 30.5 18 0 34-4.5t43-13.5q15-6 30-10.5t27-4.5q40 0 44 30h64q0-44-32-74.5T-82 928q-19 0-36.5 5t-40.5 14q-15 6-30 10.5t-27 4.5q-40 0-44-32h-64q0 45 32 75.5zM-325 773l133 140h87L28 773H-84l-64 71-65-71h-112z"/></font>
</defs>
</svg>
